M48
; DRILL file {KiCad 9.0.4} date 2026-01-04T00:09:27+0900
; FORMAT={-:-/ absolute / metric / decimal}
; #@! TF.CreationDate,2026-01-04T00:09:27+09:00
; #@! TF.GenerationSoftware,Kicad,Pcbnew,9.0.4
; #@! TF.FileFunction,MixedPlating,1,2
FMAT,2
METRIC
; #@! TA.AperFunction,Plated,PTH,ViaDrill
T1C0.300
; #@! TA.AperFunction,Plated,PTH,ComponentDrill
T2C0.600
; #@! TA.AperFunction,Plated,PTH,ComponentDrill
T3C1.000
; #@! TA.AperFunction,Plated,PTH,ComponentDrill
T4C1.100
; #@! TA.AperFunction,NonPlated,NPTH,ComponentDrill
T5C0.650
; #@! TA.AperFunction,NonPlated,NPTH,ComponentDrill
T6C1.750
; #@! TA.AperFunction,NonPlated,NPTH,ComponentDrill
T7C3.048
; #@! TA.AperFunction,NonPlated,NPTH,ComponentDrill
T8C3.200
; #@! TA.AperFunction,NonPlated,NPTH,ComponentDrill
T9C3.988
%
G90
G05
T1
X117.503Y-48.452
X117.503Y-53.402
X117.503Y-58.352
X117.503Y-63.302
X117.503Y-68.251
X117.503Y-73.201
X117.503Y-78.151
X117.503Y-83.101
X117.503Y-88.05
X117.503Y-93.0
X117.503Y-97.95
X117.503Y-102.899
X117.503Y-107.849
X117.503Y-112.799
X117.503Y-117.749
X117.503Y-122.698
X117.503Y-127.648
X117.503Y-132.598
X117.503Y-137.548
X119.888Y-107.95
X119.888Y-120.65
X119.977Y-50.927
X119.977Y-55.877
X119.977Y-60.827
X119.977Y-65.776
X119.977Y-70.726
X119.977Y-75.676
X119.977Y-80.626
X119.977Y-85.575
X119.977Y-90.525
X119.977Y-95.475
X119.977Y-100.425
X119.977Y-130.123
X119.977Y-135.073
X120.142Y-103.378
X120.396Y-112.522
X120.396Y-117.856
X121.158Y-124.968
X121.412Y-58.674
X121.666Y-110.998
X121.92Y-97.536
X121.92Y-99.06
X122.033Y-96.004
X122.174Y-102.616
X122.174Y-105.918
X122.174Y-109.22
X122.174Y-114.554
X122.174Y-120.396
X122.452Y-43.503
X122.452Y-48.452
X122.452Y-53.402
X122.452Y-88.05
X122.452Y-137.548
X122.452Y-142.497
X122.682Y-112.776
X122.936Y-93.434
X122.936Y-94.234
X122.936Y-95.034
X123.571Y-111.887
X124.206Y-96.52
X124.206Y-102.108
X124.311Y-90.459
X124.46Y-91.948
X124.46Y-111.252
X124.714Y-58.674
X124.714Y-84.074
X124.927Y-45.977
X124.927Y-50.927
X124.927Y-55.877
X124.927Y-80.626
X124.927Y-125.173
X124.927Y-130.123
X124.927Y-135.073
X124.927Y-140.023
X124.968Y-86.106
X124.968Y-104.648
X124.968Y-107.696
X124.968Y-110.49
X125.111Y-90.459
X125.115Y-70.866
X125.115Y-71.628
X125.476Y-59.436
X125.476Y-93.98
X125.476Y-121.308
X125.73Y-109.22
X125.984Y-82.804
X125.984Y-85.09
X126.238Y-94.234
X126.738Y-120.658
X126.746Y-95.203
X126.746Y-97.028
X126.81Y-100.42
X127.0Y-106.934
X127.402Y-43.503
X127.402Y-58.352
X127.402Y-68.251
X127.402Y-88.05
X127.402Y-93.0
X127.402Y-127.648
X127.402Y-137.548
X127.402Y-142.497
X127.762Y-105.41
X127.762Y-110.236
X127.762Y-113.284
X127.904Y-51.069
X128.524Y-116.84
X128.524Y-120.396
X128.573Y-47.752
X128.778Y-94.742
X128.778Y-96.774
X128.778Y-97.282
X129.032Y-103.632
X129.032Y-108.712
X129.075Y-121.369
X129.111Y-98.809
X129.286Y-88.9
X129.54Y-68.072
X129.624Y-96.604
X129.794Y-60.198
X129.794Y-112.268
X129.877Y-65.776
X129.877Y-95.475
X129.877Y-100.425
X129.877Y-125.173
X129.877Y-130.123
X129.877Y-135.073
X129.877Y-140.023
X129.911Y-98.809
X130.048Y-45.212
X130.048Y-49.022
X130.048Y-93.472
X130.302Y-87.884
X130.302Y-132.08
X130.556Y-101.854
X130.698Y-103.074
X130.698Y-114.758
X130.698Y-122.008
X130.772Y-61.672
X130.81Y-131.13
X131.064Y-55.118
X131.572Y-66.04
X131.621Y-47.752
X131.826Y-52.578
X131.826Y-62.992
X131.826Y-130.302
X132.08Y-57.658
X132.08Y-60.452
X132.08Y-102.362
X132.352Y-43.503
X132.352Y-68.251
X132.352Y-73.201
X132.352Y-112.799
X132.352Y-122.698
X132.352Y-137.548
X132.352Y-142.497
X132.588Y-67.056
X132.588Y-126.746
X132.685Y-132.08
X132.804Y-51.069
X132.842Y-85.598
X132.842Y-92.71
X133.096Y-64.008
X133.096Y-76.708
X133.096Y-81.788
X133.096Y-84.582
X133.096Y-86.614
X133.096Y-88.9
X133.096Y-91.44
X133.096Y-99.314
X133.858Y-125.73
X134.62Y-64.77
X134.827Y-55.877
X134.827Y-115.274
X134.827Y-130.123
X134.827Y-135.073
X134.827Y-140.023
X135.128Y-59.436
X135.128Y-61.976
X135.636Y-106.68
X135.636Y-108.966
X135.636Y-110.49
X136.144Y-66.294
X136.144Y-81.788
X136.398Y-83.566
X136.652Y-62.484
X136.906Y-116.586
X137.16Y-67.056
X137.16Y-131.572
X137.302Y-43.503
X137.302Y-48.452
X137.302Y-53.402
X137.302Y-68.251
X137.302Y-73.201
X137.302Y-78.151
X137.302Y-112.799
X137.302Y-127.648
X137.302Y-137.548
X137.302Y-142.497
X137.414Y-59.69
X137.668Y-56.642
X137.668Y-84.328
X138.176Y-64.262
X138.176Y-86.36
X138.176Y-90.678
X138.176Y-94.234
X138.176Y-102.108
X138.176Y-105.664
X138.176Y-108.966
X138.43Y-81.534
X138.684Y-96.52
X138.684Y-99.314
X138.684Y-120.65
X138.938Y-60.198
X138.938Y-133.096
X139.192Y-62.738
X139.192Y-85.852
X139.192Y-94.234
X139.192Y-101.092
X139.446Y-104.648
X139.446Y-117.348
X139.54Y-105.918
X139.776Y-45.977
X139.776Y-65.776
X139.776Y-75.676
X139.776Y-125.173
X139.776Y-130.123
X139.776Y-135.073
X139.776Y-140.023
X139.954Y-110.49
X140.208Y-56.896
X140.462Y-68.58
X140.462Y-81.788
X140.462Y-87.884
X140.462Y-103.378
X140.716Y-90.678
X140.716Y-92.202
X140.716Y-96.012
X140.716Y-100.33
X140.97Y-60.706
X141.224Y-101.854
X141.478Y-53.594
X141.732Y-112.014
X141.986Y-88.9
X141.986Y-98.806
X142.251Y-43.503
X142.251Y-58.352
X142.251Y-78.151
X142.251Y-83.101
X142.251Y-93.0
X142.251Y-107.849
X142.251Y-127.648
X142.251Y-142.497
X142.748Y-73.914
X142.752Y-91.904
X142.752Y-110.954
X143.256Y-54.61
X143.256Y-120.65
X143.764Y-60.706
X143.764Y-62.738
X143.764Y-64.262
X143.764Y-68.58
X143.764Y-80.264
X143.764Y-85.09
X143.764Y-94.742
X143.764Y-101.854
X143.764Y-103.632
X143.764Y-114.046
X144.526Y-117.348
X144.63Y-67.818
X144.639Y-48.768
X144.639Y-86.868
X144.639Y-105.918
X144.726Y-45.977
X144.726Y-125.173
X144.726Y-130.123
X144.726Y-135.073
X144.726Y-140.023
X145.542Y-62.738
X145.542Y-64.262
X145.542Y-81.28
X145.542Y-85.09
X145.542Y-88.9
X145.542Y-101.854
X145.542Y-103.632
X145.542Y-108.204
X145.542Y-109.728
X145.796Y-48.768
X145.796Y-106.68
X146.05Y-54.356
X147.201Y-43.503
X147.201Y-58.352
X147.201Y-68.251
X147.201Y-73.201
X147.201Y-78.151
X147.201Y-83.101
X147.201Y-93.0
X147.201Y-97.95
X147.201Y-112.799
X147.201Y-122.698
X147.201Y-127.648
X147.201Y-137.548
X147.201Y-142.497
X147.32Y-87.122
X149.606Y-108.204
X149.606Y-109.728
X149.676Y-45.977
X149.676Y-50.927
X149.676Y-60.827
X149.676Y-65.776
X149.676Y-70.726
X149.676Y-75.676
X149.676Y-80.626
X149.676Y-90.525
X149.676Y-95.475
X149.676Y-100.425
X149.676Y-115.274
X149.676Y-125.173
X149.676Y-130.123
X149.676Y-135.073
X149.676Y-140.023
X150.114Y-103.632
X152.146Y-62.484
X152.151Y-43.503
X152.151Y-58.352
X152.151Y-68.251
X152.151Y-73.201
X152.151Y-78.151
X152.151Y-83.101
X152.151Y-93.0
X152.151Y-97.95
X152.151Y-112.799
X152.151Y-122.698
X152.151Y-127.648
X152.151Y-142.497
X152.4Y-87.122
X153.162Y-106.172
X153.924Y-131.826
X154.159Y-136.906
X154.626Y-45.977
X154.626Y-50.927
X154.626Y-55.877
X154.626Y-60.827
X154.626Y-65.776
X154.626Y-70.726
X154.626Y-75.676
X154.626Y-80.626
X154.626Y-90.525
X154.626Y-95.475
X154.626Y-115.274
X154.626Y-125.173
X154.626Y-135.073
X154.626Y-140.023
X154.686Y-129.286
X155.702Y-108.204
X155.702Y-109.728
X157.101Y-43.503
X157.101Y-58.352
X157.101Y-68.251
X157.101Y-78.151
X157.101Y-83.101
X157.101Y-102.899
X157.101Y-122.698
X157.101Y-127.648
X157.101Y-137.548
X157.101Y-142.497
X157.226Y-62.484
X157.226Y-87.122
X157.48Y-106.172
X157.988Y-117.856
X159.512Y-92.964
X159.512Y-112.268
X159.575Y-45.977
X159.575Y-50.927
X159.575Y-55.877
X159.575Y-60.827
X159.575Y-65.776
X159.575Y-75.676
X159.575Y-80.626
X159.575Y-90.525
X159.575Y-100.425
X159.575Y-125.173
X159.575Y-130.123
X159.575Y-135.073
X159.575Y-140.023
X161.544Y-108.204
X161.544Y-109.728
X161.798Y-62.484
X162.05Y-43.503
X162.05Y-58.352
X162.05Y-78.151
X162.05Y-83.101
X162.05Y-93.0
X162.05Y-97.95
X162.05Y-102.899
X162.05Y-117.749
X162.05Y-122.698
X162.05Y-127.648
X162.05Y-132.598
X162.05Y-137.548
X162.05Y-142.497
X163.576Y-120.65
X163.615Y-48.768
X163.615Y-86.868
X163.689Y-67.818
X163.689Y-105.918
X164.525Y-45.977
X164.525Y-50.927
X164.525Y-55.877
X164.525Y-60.827
X164.525Y-65.776
X164.525Y-70.726
X164.525Y-75.676
X164.525Y-80.626
X164.525Y-90.525
X164.525Y-95.475
X164.525Y-100.425
X164.525Y-115.274
X164.525Y-125.173
X164.525Y-130.123
X164.525Y-135.073
X164.525Y-140.023
X165.1Y-111.76
X167.0Y-43.503
X167.0Y-58.352
X167.0Y-68.251
X167.0Y-78.151
X167.0Y-83.101
X167.0Y-97.95
X167.0Y-102.899
X167.0Y-107.849
X167.0Y-117.749
X167.0Y-127.648
X167.0Y-132.598
X167.0Y-142.497
X167.132Y-62.484
X167.132Y-87.122
X167.132Y-109.728
X167.64Y-124.206
X169.475Y-45.977
X169.475Y-50.927
X169.475Y-55.877
X169.475Y-60.827
X169.475Y-65.776
X169.475Y-70.726
X169.475Y-75.676
X169.475Y-80.626
X169.475Y-90.525
X169.475Y-95.475
X169.475Y-100.425
X169.475Y-115.274
X169.475Y-130.123
X169.475Y-135.073
X169.475Y-140.023
X169.672Y-120.904
X170.434Y-125.73
X171.95Y-43.503
X171.95Y-58.352
X171.95Y-68.251
X171.95Y-73.201
X171.95Y-78.151
X171.95Y-83.101
X171.95Y-93.0
X171.95Y-102.899
X171.95Y-107.849
X171.95Y-112.799
X171.95Y-117.749
X171.95Y-122.698
X171.95Y-127.648
X171.95Y-132.598
X171.95Y-137.548
X171.95Y-142.497
X171.958Y-87.122
X171.958Y-109.728
X172.212Y-62.484
X174.425Y-45.977
X174.425Y-50.927
X174.425Y-55.877
X174.425Y-60.827
X174.425Y-65.776
X174.425Y-70.726
X174.425Y-75.676
X174.425Y-90.525
X174.425Y-95.475
X174.425Y-100.425
X174.425Y-115.274
X174.425Y-120.224
X174.425Y-130.123
X174.425Y-135.073
X174.425Y-140.023
X174.498Y-125.73
X176.53Y-87.122
X176.899Y-43.503
X176.899Y-58.352
X176.899Y-83.101
X176.899Y-97.95
X176.899Y-102.899
X176.899Y-107.849
X176.899Y-117.749
X176.899Y-122.698
X176.899Y-127.648
X176.899Y-137.548
X176.899Y-142.497
X177.038Y-109.728
X178.562Y-111.506
X178.562Y-125.73
X179.374Y-45.977
X179.374Y-50.927
X179.374Y-55.877
X179.374Y-60.827
X179.374Y-65.776
X179.374Y-80.626
X179.374Y-85.575
X179.374Y-90.525
X179.374Y-95.475
X179.374Y-100.425
X179.374Y-115.274
X179.374Y-120.224
X179.374Y-130.123
X179.374Y-135.073
X179.374Y-140.023
X181.849Y-43.503
X181.849Y-58.352
X181.849Y-78.151
X181.849Y-83.101
X181.849Y-102.899
X181.849Y-107.849
X181.849Y-117.749
X181.849Y-122.698
X181.849Y-127.648
X181.849Y-137.548
X181.849Y-142.497
X182.665Y-48.768
X182.739Y-67.818
X182.739Y-86.868
X182.739Y-105.918
X182.739Y-124.968
X184.324Y-45.977
X184.324Y-50.927
X184.324Y-55.877
X184.324Y-60.827
X184.324Y-65.776
X184.324Y-70.726
X184.324Y-75.676
X184.324Y-80.626
X184.324Y-85.575
X184.324Y-90.525
X184.324Y-95.475
X184.324Y-105.374
X184.324Y-110.324
X184.324Y-115.274
X184.324Y-120.224
X184.324Y-135.073
X184.324Y-140.023
X186.799Y-43.503
X186.799Y-58.352
X186.799Y-68.251
X186.799Y-78.151
X186.799Y-83.101
X186.799Y-97.95
X186.799Y-102.899
X186.799Y-107.849
X186.799Y-117.749
X186.799Y-122.698
X186.799Y-127.648
X186.799Y-132.598
X186.799Y-137.548
X186.799Y-142.497
X189.274Y-45.977
X189.274Y-50.927
X189.274Y-55.877
X189.274Y-60.827
X189.274Y-65.776
X189.274Y-70.726
X189.274Y-75.676
X189.274Y-80.626
X189.274Y-85.575
X189.274Y-90.525
X189.274Y-95.475
X189.274Y-100.425
X189.274Y-105.374
X189.274Y-110.324
X189.274Y-115.274
X189.274Y-120.224
X189.274Y-135.073
X189.274Y-140.023
X191.749Y-43.503
X191.749Y-58.352
X191.749Y-68.251
X191.749Y-78.151
X191.749Y-83.101
X191.749Y-97.95
X191.749Y-102.899
X191.749Y-112.799
X191.749Y-117.749
X191.749Y-122.698
X191.749Y-127.648
X191.749Y-137.548
X191.749Y-142.497
X194.224Y-45.977
X194.224Y-50.927
X194.224Y-55.877
X194.224Y-65.776
X194.224Y-75.676
X194.224Y-80.626
X194.224Y-85.575
X194.224Y-90.525
X194.224Y-100.425
X194.224Y-105.374
X194.224Y-115.274
X194.224Y-120.224
X194.224Y-130.123
X194.224Y-140.023
X196.698Y-43.503
X196.698Y-63.302
X196.698Y-68.251
X196.698Y-73.201
X196.698Y-78.151
X196.698Y-83.101
X196.698Y-93.0
X196.698Y-97.95
X196.698Y-102.899
X196.698Y-107.849
X196.698Y-112.799
X196.698Y-117.749
X196.698Y-122.698
X196.698Y-127.648
X196.698Y-132.598
X196.698Y-137.548
X196.698Y-142.497
X198.374Y-54.864
X199.173Y-45.977
X199.173Y-50.927
X199.173Y-60.827
X199.173Y-65.776
X199.173Y-70.726
X199.173Y-75.676
X199.173Y-80.626
X199.173Y-90.525
X199.173Y-95.475
X199.173Y-100.425
X199.173Y-105.374
X199.173Y-110.324
X199.173Y-115.274
X199.173Y-130.123
X199.173Y-135.073
X199.173Y-140.023
X199.644Y-125.73
X201.422Y-55.626
X201.648Y-43.503
X201.648Y-58.352
X201.648Y-63.302
X201.648Y-68.251
X201.648Y-73.201
X201.648Y-93.0
X201.648Y-117.749
X201.648Y-122.698
X201.648Y-132.598
X201.648Y-137.548
X201.648Y-142.497
X201.789Y-48.768
X203.2Y-102.87
X203.2Y-107.95
X203.2Y-112.776
X203.2Y-125.984
X203.454Y-97.028
X203.454Y-117.348
X203.454Y-121.158
X203.962Y-54.356
X204.123Y-45.977
X204.123Y-130.123
X204.123Y-135.073
X204.123Y-140.023
X204.978Y-116.332
X204.978Y-117.856
X204.978Y-121.158
X204.978Y-122.936
X205.994Y-120.142
X206.598Y-43.503
X206.598Y-48.452
X206.598Y-53.402
X206.598Y-58.352
X206.598Y-63.302
X206.598Y-68.251
X206.598Y-73.201
X206.598Y-78.151
X206.598Y-97.95
X206.598Y-102.899
X206.598Y-107.849
X206.598Y-112.799
X206.598Y-127.648
X206.598Y-137.548
X206.598Y-142.497
X207.01Y-84.247
X207.01Y-122.177
X209.073Y-45.977
X209.073Y-50.927
X209.073Y-55.877
X209.073Y-60.827
X209.073Y-65.776
X209.073Y-75.676
X209.073Y-80.626
X209.073Y-85.575
X209.073Y-90.525
X209.073Y-100.425
X209.073Y-105.374
X209.073Y-115.274
X209.073Y-120.224
X209.073Y-125.173
X209.073Y-130.123
X209.073Y-135.073
X209.073Y-140.023
X211.548Y-43.503
X211.548Y-48.452
X211.548Y-53.402
X211.548Y-58.352
X211.548Y-63.302
X211.548Y-68.251
X211.548Y-73.201
X211.548Y-78.151
X211.548Y-83.101
X211.548Y-88.05
X211.548Y-93.0
X211.548Y-97.95
X211.548Y-102.899
X211.548Y-107.849
X211.548Y-112.799
X211.548Y-117.749
X211.548Y-122.698
X211.548Y-127.648
X211.548Y-132.598
X211.548Y-137.548
X211.548Y-142.497
X214.023Y-50.927
X214.023Y-55.877
X214.023Y-60.827
X214.023Y-65.776
X214.023Y-70.726
X214.023Y-75.676
X214.023Y-80.626
X214.023Y-85.575
X214.023Y-90.525
X214.023Y-95.475
X214.023Y-100.425
X214.023Y-105.374
X214.023Y-110.324
X214.023Y-115.274
X214.023Y-120.224
X214.023Y-125.173
X214.023Y-130.123
X214.023Y-135.073
X216.497Y-48.452
X216.497Y-53.402
X216.497Y-58.352
X216.497Y-63.302
X216.497Y-68.251
X216.497Y-73.201
X216.497Y-78.151
X216.497Y-83.101
X216.497Y-88.05
X216.497Y-93.0
X216.497Y-97.95
X216.497Y-102.899
X216.497Y-107.849
X216.497Y-112.799
X216.497Y-117.749
X216.497Y-122.698
X216.497Y-127.648
X216.497Y-132.598
X216.497Y-137.548
T3
X127.254Y-73.914
X127.254Y-76.454
X127.254Y-78.994
X127.254Y-81.534
X127.254Y-84.074
X127.254Y-86.614
X129.794Y-73.914
X129.794Y-76.454
X129.794Y-78.994
X129.794Y-81.534
X129.794Y-84.074
X129.794Y-86.614
T4
X121.666Y-126.492
X121.666Y-132.992
X126.166Y-126.492
X126.166Y-132.992
T5
X127.464Y-49.624
X133.244Y-49.624
T6
X138.675Y-54.792
X138.675Y-73.832
X138.675Y-92.872
X138.675Y-111.912
X148.204Y-130.966
X148.835Y-54.792
X148.835Y-73.832
X148.835Y-92.872
X148.835Y-111.912
X157.715Y-54.792
X157.715Y-73.832
X157.715Y-92.872
X157.715Y-111.912
X158.364Y-130.966
X167.875Y-54.792
X167.875Y-73.832
X167.875Y-92.872
X167.875Y-111.912
X176.755Y-54.792
X176.755Y-73.832
X176.755Y-92.872
X176.755Y-111.912
X176.785Y-130.972
X186.915Y-54.792
X186.915Y-73.832
X186.915Y-92.872
X186.915Y-111.912
X186.945Y-130.972
X195.795Y-54.792
X200.914Y-78.292
X200.914Y-88.452
X200.914Y-116.332
X200.914Y-126.492
X205.955Y-54.792
T7
X141.346Y-137.926
X165.222Y-137.926
X207.874Y-71.434
X207.874Y-95.31
X207.874Y-109.474
X207.874Y-133.35
T8
X120.0Y-46.0
X120.0Y-140.0
X172.0Y-100.0
X214.0Y-46.0
X214.0Y-140.0
T9
X141.346Y-122.716
X165.222Y-122.716
X192.664Y-71.434
X192.664Y-95.31
X192.664Y-109.474
X192.664Y-133.35
T2
G00X126.034Y-46.274
M15
G01X126.034Y-45.674
M16
G05
G00X126.034Y-50.704
M15
G01X126.034Y-49.604
M16
G05
G00X134.674Y-46.274
M15
G01X134.674Y-45.674
M16
G05
G00X134.674Y-50.704
M15
G01X134.674Y-49.604
M16
G05
M30
