  0
SECTION
  2
HEADER
  9
$ANGBASE
  50
0.0
  9
$ANGDIR
  70
1
  9
$MEASUREMENT
  70
1
  0
ENDSEC
  0
SECTION
  2
TABLES
  0
TABLE
  2
LTYPE
  70
4
  0
LTYPE
  5
40F
  2
CONTINUOUS
  70
0
  3
Solid line
  72
65
  73
0
  40
0.0
  0
LTYPE
  5
410
  2
DASHDOT
 70
0
  3
Dash Dot ____ _ ____ _
 72
65
 73
4
 40
2.0
 49
1.25
 49
-0.25
 49
0.25
 49
-0.25
  0
LTYPE
  5
411
  2
DASHED
 70
0
  3
Dashed __ __ __ __ __
 72
65
 73
2
 40
0.75
 49
0.5
 49
-0.25
  0
LTYPE
  5
43B
  2
DOTTED
 70
0
  3
Dotted .  .  .  .
 72
65
 73
2
 40
0.2
 49
0.0
 49
-0.2
  0
ENDTAB
  0
TABLE
  2
STYLE
  70
4
  0
STYLE
  2
KICAD
  70
0
  40
0
  41
1
  42
1
  50
0
  71
0
  3
isocp.shx
  0
STYLE
  2
KICADB
  70
0
  40
0
  41
1
  42
1
  50
0
  71
0
  3
isocp.shx
  0
STYLE
  2
KICADI
  70
0
  40
0
  41
1
  42
1
  50
15
  71
0
  3
isocp.shx
  0
STYLE
  2
KICADBI
  70
0
  40
0
  41
1
  42
1
  50
15
  71
0
  3
isocp.shx
  0
ENDTAB
  0
TABLE
  2
LAYER
  70
1
  0
LAYER
  2
BLACK
  70
0
  62
7
  6
CONTINUOUS
  0
ENDTAB
  0
ENDSEC
  0
SECTION
  2
ENTITIES
0
LINE
8
BLACK
6
CONTINUOUS
10
127.0743869999999873
20
-96.5585789999999946
11
127.1514379999999989
21
-96.6100619999999992
0
LINE
8
BLACK
6
CONTINUOUS
10
127.1514379999999989
20
-96.6100619999999992
11
127.2029209999999892
21
-96.6871129999999965
0
LINE
8
BLACK
6
CONTINUOUS
10
127.2029209999999892
20
-96.6871129999999965
11
127.2209999999999894
21
-96.7779999999999916
0
LINE
8
BLACK
6
CONTINUOUS
10
127.2209999999999894
20
-96.7779999999999916
11
127.2209999999999894
21
-97.2779999999999916
0
LINE
8
BLACK
6
CONTINUOUS
10
127.2209999999999894
20
-97.2779999999999916
11
127.2029209999999892
21
-97.3688870000000009
0
LINE
8
BLACK
6
CONTINUOUS
10
127.2029209999999892
20
-97.3688870000000009
11
127.1514379999999989
21
-97.4459379999999982
0
LINE
8
BLACK
6
CONTINUOUS
10
127.1514379999999989
20
-97.4459379999999982
11
127.0743869999999873
21
-97.4974209999999886
0
LINE
8
BLACK
6
CONTINUOUS
10
127.0743869999999873
20
-97.4974209999999886
11
126.9834999999999923
21
-97.5154999999999887
0
LINE
8
BLACK
6
CONTINUOUS
10
126.9834999999999923
20
-97.5154999999999887
11
126.508499999999998
21
-97.5154999999999887
0
LINE
8
BLACK
6
CONTINUOUS
10
126.508499999999998
20
-97.5154999999999887
11
126.4176129999999887
21
-97.4974209999999886
0
LINE
8
BLACK
6
CONTINUOUS
10
126.4176129999999887
20
-97.4974209999999886
11
126.3405619999999914
21
-97.4459379999999982
0
LINE
8
BLACK
6
CONTINUOUS
10
126.3405619999999914
20
-97.4459379999999982
11
126.289079000000001
21
-97.3688870000000009
0
LINE
8
BLACK
6
CONTINUOUS
10
126.289079000000001
20
-97.3688870000000009
11
126.2710000000000008
21
-97.2779999999999916
0
LINE
8
BLACK
6
CONTINUOUS
10
126.2710000000000008
20
-97.2779999999999916
11
126.2710000000000008
21
-96.7779999999999916
0
LINE
8
BLACK
6
CONTINUOUS
10
126.2710000000000008
20
-96.7779999999999916
11
126.289079000000001
21
-96.6871129999999965
0
LINE
8
BLACK
6
CONTINUOUS
10
126.289079000000001
20
-96.6871129999999965
11
126.3405619999999914
21
-96.6100619999999992
0
LINE
8
BLACK
6
CONTINUOUS
10
126.3405619999999914
20
-96.6100619999999992
11
126.4176129999999887
21
-96.5585789999999946
0
LINE
8
BLACK
6
CONTINUOUS
10
126.4176129999999887
20
-96.5585789999999946
11
126.508499999999998
21
-96.5404999999999944
0
LINE
8
BLACK
6
CONTINUOUS
10
126.508499999999998
20
-96.5404999999999944
11
126.9834999999999923
21
-96.5404999999999944
0
LINE
8
BLACK
6
CONTINUOUS
10
126.9834999999999923
20
-96.5404999999999944
11
127.0743869999999873
21
-96.5585789999999946
0
LINE
8
BLACK
6
CONTINUOUS
10
127.0743869999999873
20
-94.7335789999999918
11
127.1514379999999989
21
-94.7850619999999964
0
LINE
8
BLACK
6
CONTINUOUS
10
127.1514379999999989
20
-94.7850619999999964
11
127.2029209999999892
21
-94.8621129999999937
0
LINE
8
BLACK
6
CONTINUOUS
10
127.2029209999999892
20
-94.8621129999999937
11
127.2209999999999894
21
-94.9529999999999887
0
LINE
8
BLACK
6
CONTINUOUS
10
127.2209999999999894
20
-94.9529999999999887
11
127.2209999999999894
21
-95.4529999999999887
0
LINE
8
BLACK
6
CONTINUOUS
10
127.2209999999999894
20
-95.4529999999999887
11
127.2029209999999892
21
-95.543886999999998
0
LINE
8
BLACK
6
CONTINUOUS
10
127.2029209999999892
20
-95.543886999999998
11
127.1514379999999989
21
-95.6209379999999953
0
LINE
8
BLACK
6
CONTINUOUS
10
127.1514379999999989
20
-95.6209379999999953
11
127.0743869999999873
21
-95.6724209999999999
0
LINE
8
BLACK
6
CONTINUOUS
10
127.0743869999999873
20
-95.6724209999999999
11
126.9834999999999923
21
-95.6905000000000001
0
LINE
8
BLACK
6
CONTINUOUS
10
126.9834999999999923
20
-95.6905000000000001
11
126.508499999999998
21
-95.6905000000000001
0
LINE
8
BLACK
6
CONTINUOUS
10
126.508499999999998
20
-95.6905000000000001
11
126.4176129999999887
21
-95.6724209999999999
0
LINE
8
BLACK
6
CONTINUOUS
10
126.4176129999999887
20
-95.6724209999999999
11
126.3405619999999914
21
-95.6209379999999953
0
LINE
8
BLACK
6
CONTINUOUS
10
126.3405619999999914
20
-95.6209379999999953
11
126.289079000000001
21
-95.543886999999998
0
LINE
8
BLACK
6
CONTINUOUS
10
126.289079000000001
20
-95.543886999999998
11
126.2710000000000008
21
-95.4529999999999887
0
LINE
8
BLACK
6
CONTINUOUS
10
126.2710000000000008
20
-95.4529999999999887
11
126.2710000000000008
21
-94.9529999999999887
0
LINE
8
BLACK
6
CONTINUOUS
10
126.2710000000000008
20
-94.9529999999999887
11
126.289079000000001
21
-94.8621129999999937
0
LINE
8
BLACK
6
CONTINUOUS
10
126.289079000000001
20
-94.8621129999999937
11
126.3405619999999914
21
-94.7850619999999964
0
LINE
8
BLACK
6
CONTINUOUS
10
126.3405619999999914
20
-94.7850619999999964
11
126.4176129999999887
21
-94.7335789999999918
0
LINE
8
BLACK
6
CONTINUOUS
10
126.4176129999999887
20
-94.7335789999999918
11
126.508499999999998
21
-94.7154999999999916
0
LINE
8
BLACK
6
CONTINUOUS
10
126.508499999999998
20
-94.7154999999999916
11
126.9834999999999923
21
-94.7154999999999916
0
LINE
8
BLACK
6
CONTINUOUS
10
126.9834999999999923
20
-94.7154999999999916
11
127.0743869999999873
21
-94.7335789999999918
0
LINE
8
BLACK
6
CONTINUOUS
10
127.0893869999999879
20
-47.2950790000000012
11
127.1664379999999994
21
-47.3465619999999987
0
LINE
8
BLACK
6
CONTINUOUS
10
127.1664379999999994
20
-47.3465619999999987
11
127.2179209999999898
21
-47.423612999999996
0
LINE
8
BLACK
6
CONTINUOUS
10
127.2179209999999898
20
-47.423612999999996
11
127.23599999999999
21
-47.5144999999999982
0
LINE
8
BLACK
6
CONTINUOUS
10
127.23599999999999
20
-47.5144999999999982
11
127.23599999999999
21
-47.9894999999999996
0
LINE
8
BLACK
6
CONTINUOUS
10
127.23599999999999
20
-47.9894999999999996
11
127.2179209999999898
21
-48.0803869999999947
0
LINE
8
BLACK
6
CONTINUOUS
10
127.2179209999999898
20
-48.0803869999999947
11
127.1664379999999994
21
-48.1574379999999991
0
LINE
8
BLACK
6
CONTINUOUS
10
127.1664379999999994
20
-48.1574379999999991
11
127.0893869999999879
21
-48.2089209999999966
0
LINE
8
BLACK
6
CONTINUOUS
10
127.0893869999999879
20
-48.2089209999999966
11
126.9984999999999928
21
-48.2269999999999968
0
LINE
8
BLACK
6
CONTINUOUS
10
126.9984999999999928
20
-48.2269999999999968
11
126.4984999999999928
21
-48.2269999999999968
0
LINE
8
BLACK
6
CONTINUOUS
10
126.4984999999999928
20
-48.2269999999999968
11
126.4076129999999978
21
-48.2089209999999966
0
LINE
8
BLACK
6
CONTINUOUS
10
126.4076129999999978
20
-48.2089209999999966
11
126.3305620000000005
21
-48.1574379999999991
0
LINE
8
BLACK
6
CONTINUOUS
10
126.3305620000000005
20
-48.1574379999999991
11
126.2790789999999959
21
-48.0803869999999947
0
LINE
8
BLACK
6
CONTINUOUS
10
126.2790789999999959
20
-48.0803869999999947
11
126.2609999999999957
21
-47.9894999999999996
0
LINE
8
BLACK
6
CONTINUOUS
10
126.2609999999999957
20
-47.9894999999999996
11
126.2609999999999957
21
-47.5144999999999982
0
LINE
8
BLACK
6
CONTINUOUS
10
126.2609999999999957
20
-47.5144999999999982
11
126.2790789999999959
21
-47.423612999999996
0
LINE
8
BLACK
6
CONTINUOUS
10
126.2790789999999959
20
-47.423612999999996
11
126.3305620000000005
21
-47.3465619999999987
0
LINE
8
BLACK
6
CONTINUOUS
10
126.3305620000000005
20
-47.3465619999999987
11
126.4076129999999978
21
-47.2950790000000012
0
LINE
8
BLACK
6
CONTINUOUS
10
126.4076129999999978
20
-47.2950790000000012
11
126.4984999999999928
21
-47.277000000000001
0
LINE
8
BLACK
6
CONTINUOUS
10
126.4984999999999928
20
-47.277000000000001
11
126.9984999999999928
21
-47.277000000000001
0
LINE
8
BLACK
6
CONTINUOUS
10
126.9984999999999928
20
-47.277000000000001
11
127.0893869999999879
21
-47.2950790000000012
0
LINE
8
BLACK
6
CONTINUOUS
10
128.9143870000000049
20
-47.2950790000000012
11
128.9914379999999881
21
-47.3465619999999987
0
LINE
8
BLACK
6
CONTINUOUS
10
128.9914379999999881
20
-47.3465619999999987
11
129.0429210000000069
21
-47.423612999999996
0
LINE
8
BLACK
6
CONTINUOUS
10
129.0429210000000069
20
-47.423612999999996
11
129.061000000000007
21
-47.5144999999999982
0
LINE
8
BLACK
6
CONTINUOUS
10
129.061000000000007
20
-47.5144999999999982
11
129.061000000000007
21
-47.9894999999999996
0
LINE
8
BLACK
6
CONTINUOUS
10
129.061000000000007
20
-47.9894999999999996
11
129.0429210000000069
21
-48.0803869999999947
0
LINE
8
BLACK
6
CONTINUOUS
10
129.0429210000000069
20
-48.0803869999999947
11
128.9914379999999881
21
-48.1574379999999991
0
LINE
8
BLACK
6
CONTINUOUS
10
128.9914379999999881
20
-48.1574379999999991
11
128.9143870000000049
21
-48.2089209999999966
0
LINE
8
BLACK
6
CONTINUOUS
10
128.9143870000000049
20
-48.2089209999999966
11
128.8234999999999957
21
-48.2269999999999968
0
LINE
8
BLACK
6
CONTINUOUS
10
128.8234999999999957
20
-48.2269999999999968
11
128.3234999999999957
21
-48.2269999999999968
0
LINE
8
BLACK
6
CONTINUOUS
10
128.3234999999999957
20
-48.2269999999999968
11
128.2326129999999864
21
-48.2089209999999966
0
LINE
8
BLACK
6
CONTINUOUS
10
128.2326129999999864
20
-48.2089209999999966
11
128.1555620000000033
21
-48.1574379999999991
0
LINE
8
BLACK
6
CONTINUOUS
10
128.1555620000000033
20
-48.1574379999999991
11
128.1040789999999845
21
-48.0803869999999947
0
LINE
8
BLACK
6
CONTINUOUS
10
128.1040789999999845
20
-48.0803869999999947
11
128.0859999999999843
21
-47.9894999999999996
0
LINE
8
BLACK
6
CONTINUOUS
10
128.0859999999999843
20
-47.9894999999999996
11
128.0859999999999843
21
-47.5144999999999982
0
LINE
8
BLACK
6
CONTINUOUS
10
128.0859999999999843
20
-47.5144999999999982
11
128.1040789999999845
21
-47.423612999999996
0
LINE
8
BLACK
6
CONTINUOUS
10
128.1040789999999845
20
-47.423612999999996
11
128.1555620000000033
21
-47.3465619999999987
0
LINE
8
BLACK
6
CONTINUOUS
10
128.1555620000000033
20
-47.3465619999999987
11
128.2326129999999864
21
-47.2950790000000012
0
LINE
8
BLACK
6
CONTINUOUS
10
128.2326129999999864
20
-47.2950790000000012
11
128.3234999999999957
21
-47.277000000000001
0
LINE
8
BLACK
6
CONTINUOUS
10
128.3234999999999957
20
-47.277000000000001
11
128.8234999999999957
21
-47.277000000000001
0
LINE
8
BLACK
6
CONTINUOUS
10
128.8234999999999957
20
-47.277000000000001
11
128.9143870000000049
21
-47.2950790000000012
0
LINE
8
BLACK
6
CONTINUOUS
10
131.9623870000000068
20
-47.2950790000000012
11
132.0394379999999899
21
-47.3465619999999987
0
LINE
8
BLACK
6
CONTINUOUS
10
132.0394379999999899
20
-47.3465619999999987
11
132.0909209999999803
21
-47.423612999999996
0
LINE
8
BLACK
6
CONTINUOUS
10
132.0909209999999803
20
-47.423612999999996
11
132.1089999999999804
21
-47.5144999999999982
0
LINE
8
BLACK
6
CONTINUOUS
10
132.1089999999999804
20
-47.5144999999999982
11
132.1089999999999804
21
-47.9894999999999996
0
LINE
8
BLACK
6
CONTINUOUS
10
132.1089999999999804
20
-47.9894999999999996
11
132.0909209999999803
21
-48.0803869999999947
0
LINE
8
BLACK
6
CONTINUOUS
10
132.0909209999999803
20
-48.0803869999999947
11
132.0394379999999899
21
-48.1574379999999991
0
LINE
8
BLACK
6
CONTINUOUS
10
132.0394379999999899
20
-48.1574379999999991
11
131.9623870000000068
21
-48.2089209999999966
0
LINE
8
BLACK
6
CONTINUOUS
10
131.9623870000000068
20
-48.2089209999999966
11
131.8714999999999975
21
-48.2269999999999968
0
LINE
8
BLACK
6
CONTINUOUS
10
131.8714999999999975
20
-48.2269999999999968
11
131.3714999999999975
21
-48.2269999999999968
0
LINE
8
BLACK
6
CONTINUOUS
10
131.3714999999999975
20
-48.2269999999999968
11
131.2806129999999882
21
-48.2089209999999966
0
LINE
8
BLACK
6
CONTINUOUS
10
131.2806129999999882
20
-48.2089209999999966
11
131.2035620000000051
21
-48.1574379999999991
0
LINE
8
BLACK
6
CONTINUOUS
10
131.2035620000000051
20
-48.1574379999999991
11
131.1520789999999863
21
-48.0803869999999947
0
LINE
8
BLACK
6
CONTINUOUS
10
131.1520789999999863
20
-48.0803869999999947
11
131.1339999999999861
21
-47.9894999999999996
0
LINE
8
BLACK
6
CONTINUOUS
10
131.1339999999999861
20
-47.9894999999999996
11
131.1339999999999861
21
-47.5144999999999982
0
LINE
8
BLACK
6
CONTINUOUS
10
131.1339999999999861
20
-47.5144999999999982
11
131.1520789999999863
21
-47.423612999999996
0
LINE
8
BLACK
6
CONTINUOUS
10
131.1520789999999863
20
-47.423612999999996
11
131.2035620000000051
21
-47.3465619999999987
0
LINE
8
BLACK
6
CONTINUOUS
10
131.2035620000000051
20
-47.3465619999999987
11
131.2806129999999882
21
-47.2950790000000012
0
LINE
8
BLACK
6
CONTINUOUS
10
131.2806129999999882
20
-47.2950790000000012
11
131.3714999999999975
21
-47.277000000000001
0
LINE
8
BLACK
6
CONTINUOUS
10
131.3714999999999975
20
-47.277000000000001
11
131.8714999999999975
21
-47.277000000000001
0
LINE
8
BLACK
6
CONTINUOUS
10
131.8714999999999975
20
-47.277000000000001
11
131.9623870000000068
21
-47.2950790000000012
0
LINE
8
BLACK
6
CONTINUOUS
10
133.7873869999999954
20
-47.2950790000000012
11
133.8644380000000069
21
-47.3465619999999987
0
LINE
8
BLACK
6
CONTINUOUS
10
133.8644380000000069
20
-47.3465619999999987
11
133.9159209999999973
21
-47.423612999999996
0
LINE
8
BLACK
6
CONTINUOUS
10
133.9159209999999973
20
-47.423612999999996
11
133.9339999999999975
21
-47.5144999999999982
0
LINE
8
BLACK
6
CONTINUOUS
10
133.9339999999999975
20
-47.5144999999999982
11
133.9339999999999975
21
-47.9894999999999996
0
LINE
8
BLACK
6
CONTINUOUS
10
133.9339999999999975
20
-47.9894999999999996
11
133.9159209999999973
21
-48.0803869999999947
0
LINE
8
BLACK
6
CONTINUOUS
10
133.9159209999999973
20
-48.0803869999999947
11
133.8644380000000069
21
-48.1574379999999991
0
LINE
8
BLACK
6
CONTINUOUS
10
133.8644380000000069
20
-48.1574379999999991
11
133.7873869999999954
21
-48.2089209999999966
0
LINE
8
BLACK
6
CONTINUOUS
10
133.7873869999999954
20
-48.2089209999999966
11
133.6964999999999861
21
-48.2269999999999968
0
LINE
8
BLACK
6
CONTINUOUS
10
133.6964999999999861
20
-48.2269999999999968
11
133.1964999999999861
21
-48.2269999999999968
0
LINE
8
BLACK
6
CONTINUOUS
10
133.1964999999999861
20
-48.2269999999999968
11
133.1056130000000053
21
-48.2089209999999966
0
LINE
8
BLACK
6
CONTINUOUS
10
133.1056130000000053
20
-48.2089209999999966
11
133.0285619999999938
21
-48.1574379999999991
0
LINE
8
BLACK
6
CONTINUOUS
10
133.0285619999999938
20
-48.1574379999999991
11
132.9770790000000034
21
-48.0803869999999947
0
LINE
8
BLACK
6
CONTINUOUS
10
132.9770790000000034
20
-48.0803869999999947
11
132.9590000000000032
21
-47.9894999999999996
0
LINE
8
BLACK
6
CONTINUOUS
10
132.9590000000000032
20
-47.9894999999999996
11
132.9590000000000032
21
-47.5144999999999982
0
LINE
8
BLACK
6
CONTINUOUS
10
132.9590000000000032
20
-47.5144999999999982
11
132.9770790000000034
21
-47.423612999999996
0
LINE
8
BLACK
6
CONTINUOUS
10
132.9770790000000034
20
-47.423612999999996
11
133.0285619999999938
21
-47.3465619999999987
0
LINE
8
BLACK
6
CONTINUOUS
10
133.0285619999999938
20
-47.3465619999999987
11
133.1056130000000053
21
-47.2950790000000012
0
LINE
8
BLACK
6
CONTINUOUS
10
133.1056130000000053
20
-47.2950790000000012
11
133.1964999999999861
21
-47.277000000000001
0
LINE
8
BLACK
6
CONTINUOUS
10
133.1964999999999861
20
-47.277000000000001
11
133.6964999999999861
21
-47.277000000000001
0
LINE
8
BLACK
6
CONTINUOUS
10
133.6964999999999861
20
-47.277000000000001
11
133.7873869999999954
21
-47.2950790000000012
  0
ENDSEC
  0
EOF
