  0
SECTION
  2
HEADER
  9
$ANGBASE
  50
0.0
  9
$ANGDIR
  70
1
  9
$MEASUREMENT
  70
1
  0
ENDSEC
  0
SECTION
  2
TABLES
  0
TABLE
  2
LTYPE
  70
4
  0
LTYPE
  5
40F
  2
CONTINUOUS
  70
0
  3
Solid line
  72
65
  73
0
  40
0.0
  0
LTYPE
  5
410
  2
DASHDOT
 70
0
  3
Dash Dot ____ _ ____ _
 72
65
 73
4
 40
2.0
 49
1.25
 49
-0.25
 49
0.25
 49
-0.25
  0
LTYPE
  5
411
  2
DASHED
 70
0
  3
Dashed __ __ __ __ __
 72
65
 73
2
 40
0.75
 49
0.5
 49
-0.25
  0
LTYPE
  5
43B
  2
DOTTED
 70
0
  3
Dotted .  .  .  .
 72
65
 73
2
 40
0.2
 49
0.0
 49
-0.2
  0
ENDTAB
  0
TABLE
  2
STYLE
  70
4
  0
STYLE
  2
KICAD
  70
0
  40
0
  41
1
  42
1
  50
0
  71
0
  3
isocp.shx
  0
STYLE
  2
KICADB
  70
0
  40
0
  41
1
  42
1
  50
0
  71
0
  3
isocp.shx
  0
STYLE
  2
KICADI
  70
0
  40
0
  41
1
  42
1
  50
15
  71
0
  3
isocp.shx
  0
STYLE
  2
KICADBI
  70
0
  40
0
  41
1
  42
1
  50
15
  71
0
  3
isocp.shx
  0
ENDTAB
  0
TABLE
  2
LAYER
  70
1
  0
LAYER
  2
BLACK
  70
0
  62
7
  6
CONTINUOUS
  0
ENDTAB
  0
ENDSEC
  0
SECTION
  2
ENTITIES
0
LINE
8
BLACK
6
CONTINUOUS
10
127.6724869999999896
20
-96.6959969999999913
11
127.6931790000000007
21
-96.7166890000000024
0
LINE
8
BLACK
6
CONTINUOUS
10
127.6931790000000007
20
-96.7166890000000024
11
127.7043779999999913
21
-96.7437249999999977
0
LINE
8
BLACK
6
CONTINUOUS
10
127.7043779999999913
20
-96.7437249999999977
11
127.7058189999999911
21
-96.7583569999999895
0
LINE
8
BLACK
6
CONTINUOUS
10
127.7058189999999911
20
-96.7583569999999895
11
127.7058189999999911
21
-97.2121209999999962
0
LINE
8
BLACK
6
CONTINUOUS
10
127.7058189999999911
20
-97.2121209999999962
11
127.9623829999999884
21
-96.9876280000000008
0
LINE
8
BLACK
6
CONTINUOUS
10
127.9623829999999884
20
-96.9876280000000008
11
127.9687069999999949
21
-96.9831059999999923
0
LINE
8
BLACK
6
CONTINUOUS
10
127.9687069999999949
20
-96.9831059999999923
11
127.9701029999999946
21
-96.98171099999999
0
LINE
8
BLACK
6
CONTINUOUS
10
127.9701029999999946
20
-96.98171099999999
11
127.9714259999999939
21
-96.9811619999999976
0
LINE
8
BLACK
6
CONTINUOUS
10
127.9714259999999939
20
-96.9811619999999976
11
127.9743439999999879
21
-96.9790769999999895
0
LINE
8
BLACK
6
CONTINUOUS
10
127.9743439999999879
20
-96.9790769999999895
11
127.985880999999992
21
-96.975174999999993
0
LINE
8
BLACK
6
CONTINUOUS
10
127.985880999999992
20
-96.975174999999993
11
127.99713899999999
21
-96.9705119999999994
0
LINE
8
BLACK
6
CONTINUOUS
10
127.99713899999999
20
-96.9705119999999994
11
127.9996699999999947
21
-96.9705119999999994
0
LINE
8
BLACK
6
CONTINUOUS
10
127.9996699999999947
20
-96.9705119999999994
11
128.0020649999999875
21
-96.9697019999999981
0
LINE
8
BLACK
6
CONTINUOUS
10
128.0020649999999875
20
-96.9697019999999981
11
128.0142179999999996
21
-96.9705119999999994
0
LINE
8
BLACK
6
CONTINUOUS
10
128.0142179999999996
20
-96.9705119999999994
11
128.0264029999999877
21
-96.9705119999999994
0
LINE
8
BLACK
6
CONTINUOUS
10
128.0264029999999877
20
-96.9705119999999994
11
128.0287390000000016
21
-96.9714790000000022
0
LINE
8
BLACK
6
CONTINUOUS
10
128.0287390000000016
20
-96.9714790000000022
11
128.0312629999999956
21
-96.9716480000000018
0
LINE
8
BLACK
6
CONTINUOUS
10
128.0312629999999956
20
-96.9716480000000018
11
128.0421879999999817
21
-96.9770499999999913
0
LINE
8
BLACK
6
CONTINUOUS
10
128.0421879999999817
20
-96.9770499999999913
11
128.0534389999999973
21
-96.98171099999999
0
LINE
8
BLACK
6
CONTINUOUS
10
128.0534389999999973
20
-96.98171099999999
11
128.0552250000000072
21
-96.9834969999999998
0
LINE
8
BLACK
6
CONTINUOUS
10
128.0552250000000072
20
-96.9834969999999998
11
128.0574949999999887
21
-96.9846199999999925
0
LINE
8
BLACK
6
CONTINUOUS
10
128.0574949999999887
20
-96.9846199999999925
11
128.0655199999999923
21
-96.9937919999999991
0
LINE
8
BLACK
6
CONTINUOUS
10
128.0655199999999923
20
-96.9937919999999991
11
128.0741309999999942
21
-97.002403000000001
0
LINE
8
BLACK
6
CONTINUOUS
10
128.0741309999999942
20
-97.002403000000001
11
128.0750989999999945
21
-97.0047390000000007
0
LINE
8
BLACK
6
CONTINUOUS
10
128.0750989999999945
20
-97.0047390000000007
11
128.0767649999999946
21
-97.0066439999999943
0
LINE
8
BLACK
6
CONTINUOUS
10
128.0767649999999946
20
-97.0066439999999943
11
128.0806660000000079
21
-97.0181809999999984
0
LINE
8
BLACK
6
CONTINUOUS
10
128.0806660000000079
20
-97.0181809999999984
11
128.085329999999999
21
-97.0294389999999964
0
LINE
8
BLACK
6
CONTINUOUS
10
128.085329999999999
20
-97.0294389999999964
11
128.0856809999999939
21
-97.0330089999999927
0
LINE
8
BLACK
6
CONTINUOUS
10
128.0856809999999939
20
-97.0330089999999927
11
128.0861400000000003
21
-97.034364999999994
0
LINE
8
BLACK
6
CONTINUOUS
10
128.0861400000000003
20
-97.034364999999994
11
128.0860079999999925
21
-97.0363320000000016
0
LINE
8
BLACK
6
CONTINUOUS
10
128.0860079999999925
20
-97.0363320000000016
11
128.0867709999999988
21
-97.0440710000000024
0
LINE
8
BLACK
6
CONTINUOUS
10
128.0867709999999988
20
-97.0440710000000024
11
128.0867709999999988
21
-97.1692230000000023
0
LINE
8
BLACK
6
CONTINUOUS
10
128.0867709999999988
20
-97.1692230000000023
11
128.1210289999999929
21
-97.2377389999999906
0
LINE
8
BLACK
6
CONTINUOUS
10
128.1210289999999929
20
-97.2377389999999906
11
128.1514359999999897
21
-97.2681460000000015
0
LINE
8
BLACK
6
CONTINUOUS
10
128.1514359999999897
20
-97.2681460000000015
11
128.2199520000000064
21
-97.3024039999999957
0
LINE
8
BLACK
6
CONTINUOUS
10
128.2199520000000064
20
-97.3024039999999957
11
128.4226369999999804
21
-97.3024039999999957
0
LINE
8
BLACK
6
CONTINUOUS
10
128.4226369999999804
20
-97.3024039999999957
11
128.4911529999999971
21
-97.2681449999999899
0
LINE
8
BLACK
6
CONTINUOUS
10
128.4911529999999971
20
-97.2681449999999899
11
128.5215609999999913
21
-97.2377379999999931
0
LINE
8
BLACK
6
CONTINUOUS
10
128.5215609999999913
20
-97.2377379999999931
11
128.5558189999999854
21
-97.1692230000000023
0
LINE
8
BLACK
6
CONTINUOUS
10
128.5558189999999854
20
-97.1692230000000023
11
128.5558189999999854
21
-96.9189190000000025
0
LINE
8
BLACK
6
CONTINUOUS
10
128.5558189999999854
20
-96.9189190000000025
11
128.5215609999999913
21
-96.850403
0
LINE
8
BLACK
6
CONTINUOUS
10
128.5215609999999913
20
-96.850403
11
128.48254799999998
21
-96.8113910000000004
0
LINE
8
BLACK
6
CONTINUOUS
10
128.48254799999998
20
-96.8113910000000004
11
128.4732199999999978
21
-96.8000249999999909
0
LINE
8
BLACK
6
CONTINUOUS
10
128.4732199999999978
20
-96.8000249999999909
11
128.4620209999999929
21
-96.7729889999999955
0
LINE
8
BLACK
6
CONTINUOUS
10
128.4620209999999929
20
-96.7729889999999955
11
128.4620209999999929
21
-96.7437259999999952
0
LINE
8
BLACK
6
CONTINUOUS
10
128.4620209999999929
20
-96.7437259999999952
11
128.4732190000000003
21
-96.7166899999999998
0
LINE
8
BLACK
6
CONTINUOUS
10
128.4732190000000003
20
-96.7166899999999998
11
128.4939119999999946
21
-96.6959969999999913
0
LINE
8
BLACK
6
CONTINUOUS
10
128.4939119999999946
20
-96.6959969999999913
11
128.5209480000000042
21
-96.6847980000000007
0
LINE
8
BLACK
6
CONTINUOUS
10
128.5209480000000042
20
-96.6847980000000007
11
128.5502109999999902
21
-96.6847980000000007
0
LINE
8
BLACK
6
CONTINUOUS
10
128.5502109999999902
20
-96.6847980000000007
11
128.5772469999999998
21
-96.6959959999999938
0
LINE
8
BLACK
6
CONTINUOUS
10
128.5772469999999998
20
-96.6959959999999938
11
128.5886119999999835
21
-96.7053229999999928
0
LINE
8
BLACK
6
CONTINUOUS
10
128.5886119999999835
20
-96.7053229999999928
11
128.6362320000000068
21
-96.7529419999999902
0
LINE
8
BLACK
6
CONTINUOUS
10
128.6362320000000068
20
-96.7529419999999902
11
128.6409500000000037
21
-96.7586909999999989
0
LINE
8
BLACK
6
CONTINUOUS
10
128.6409500000000037
20
-96.7586909999999989
11
128.6424499999999966
21
-96.7599919999999969
0
LINE
8
BLACK
6
CONTINUOUS
10
128.6424499999999966
20
-96.7599919999999969
11
128.6438719999999876
21
-96.762250999999992
0
LINE
8
BLACK
6
CONTINUOUS
10
128.6438719999999876
20
-96.762250999999992
11
128.645559999999989
21
-96.7643079999999998
0
LINE
8
BLACK
6
CONTINUOUS
10
128.645559999999989
20
-96.7643079999999998
11
128.646316999999982
21
-96.7661349999999914
0
LINE
8
BLACK
6
CONTINUOUS
10
128.646316999999982
20
-96.7661349999999914
11
128.6502820000000042
21
-96.7724350000000015
0
LINE
8
BLACK
6
CONTINUOUS
10
128.6502820000000042
20
-96.7724350000000015
11
128.6979010000000017
21
-96.8676729999999964
0
LINE
8
BLACK
6
CONTINUOUS
10
128.6979010000000017
20
-96.8676729999999964
11
128.703156000000007
21
-96.8814039999999892
0
LINE
8
BLACK
6
CONTINUOUS
10
128.703156000000007
20
-96.8814039999999892
11
128.7033470000000079
21
-96.8840929999999929
0
LINE
8
BLACK
6
CONTINUOUS
10
128.7033470000000079
20
-96.8840929999999929
11
128.7043779999999913
21
-96.88658199999999
0
LINE
8
BLACK
6
CONTINUOUS
10
128.7043779999999913
20
-96.88658199999999
11
128.7058189999999911
21
-96.901213999999996
0
LINE
8
BLACK
6
CONTINUOUS
10
128.7058189999999911
20
-96.901213999999996
11
128.7058189999999911
21
-97.1869279999999947
0
LINE
8
BLACK
6
CONTINUOUS
10
128.7058189999999911
20
-97.1869279999999947
11
128.7043779999999913
21
-97.2015600000000006
0
LINE
8
BLACK
6
CONTINUOUS
10
128.7043779999999913
20
-97.2015600000000006
11
128.7033470000000079
21
-97.2040480000000002
0
LINE
8
BLACK
6
CONTINUOUS
10
128.7033470000000079
20
-97.2040480000000002
11
128.703156000000007
21
-97.2067380000000014
0
LINE
8
BLACK
6
CONTINUOUS
10
128.703156000000007
20
-97.2067380000000014
11
128.6979010000000017
21
-97.2204689999999943
0
LINE
8
BLACK
6
CONTINUOUS
10
128.6979010000000017
20
-97.2204689999999943
11
128.6502820000000042
21
-97.3157069999999891
0
LINE
8
BLACK
6
CONTINUOUS
10
128.6502820000000042
20
-97.3157069999999891
11
128.646316999999982
21
-97.3220060000000018
0
LINE
8
BLACK
6
CONTINUOUS
10
128.646316999999982
20
-97.3220060000000018
11
128.645559999999989
21
-97.3238339999999909
0
LINE
8
BLACK
6
CONTINUOUS
10
128.645559999999989
20
-97.3238339999999909
11
128.6438719999999876
21
-97.3258900000000011
0
LINE
8
BLACK
6
CONTINUOUS
10
128.6438719999999876
20
-97.3258900000000011
11
128.6424499999999966
21
-97.3281499999999937
0
LINE
8
BLACK
6
CONTINUOUS
10
128.6424499999999966
20
-97.3281499999999937
11
128.6409500000000037
21
-97.3294499999999942
0
LINE
8
BLACK
6
CONTINUOUS
10
128.6409500000000037
20
-97.3294499999999942
11
128.6362320000000068
21
-97.3352000000000004
0
LINE
8
BLACK
6
CONTINUOUS
10
128.6362320000000068
20
-97.3352000000000004
11
128.5886119999999835
21
-97.3828189999999978
0
LINE
8
BLACK
6
CONTINUOUS
10
128.5886119999999835
20
-97.3828189999999978
11
128.5828630000000032
21
-97.3875359999999972
0
LINE
8
BLACK
6
CONTINUOUS
10
128.5828630000000032
20
-97.3875359999999972
11
128.581563999999986
21
-97.3890349999999927
0
LINE
8
BLACK
6
CONTINUOUS
10
128.581563999999986
20
-97.3890349999999927
11
128.5793050000000051
21
-97.3904560000000004
0
LINE
8
BLACK
6
CONTINUOUS
10
128.5793050000000051
20
-97.3904560000000004
11
128.5772469999999998
21
-97.3921459999999968
0
LINE
8
BLACK
6
CONTINUOUS
10
128.5772469999999998
20
-97.3921459999999968
11
128.5754169999999874
21
-97.3929029999999898
0
LINE
8
BLACK
6
CONTINUOUS
10
128.5754169999999874
20
-97.3929029999999898
11
128.5691209999999955
21
-97.3968670000000003
0
LINE
8
BLACK
6
CONTINUOUS
10
128.5691209999999955
20
-97.3968670000000003
11
128.4738830000000007
21
-97.4444859999999977
0
LINE
8
BLACK
6
CONTINUOUS
10
128.4738830000000007
20
-97.4444859999999977
11
128.4601509999999962
21
-97.4497409999999888
0
LINE
8
BLACK
6
CONTINUOUS
10
128.4601509999999962
20
-97.4497409999999888
11
128.45746299999999
21
-97.4499309999999923
0
LINE
8
BLACK
6
CONTINUOUS
10
128.45746299999999
20
-97.4499309999999923
11
128.4549739999999929
21
-97.4509630000000016
0
LINE
8
BLACK
6
CONTINUOUS
10
128.4549739999999929
20
-97.4509630000000016
11
128.4403419999999869
21
-97.4524040000000014
0
LINE
8
BLACK
6
CONTINUOUS
10
128.4403419999999869
20
-97.4524040000000014
11
128.2022469999999998
21
-97.4524040000000014
0
LINE
8
BLACK
6
CONTINUOUS
10
128.2022469999999998
20
-97.4524040000000014
11
128.1876149999999939
21
-97.4509630000000016
0
LINE
8
BLACK
6
CONTINUOUS
10
128.1876149999999939
20
-97.4509630000000016
11
128.1851259999999968
21
-97.4499319999999898
0
LINE
8
BLACK
6
CONTINUOUS
10
128.1851259999999968
20
-97.4499319999999898
11
128.1824369999999931
21
-97.4497409999999888
0
LINE
8
BLACK
6
CONTINUOUS
10
128.1824369999999931
20
-97.4497409999999888
11
128.168705999999986
21
-97.4444859999999977
0
LINE
8
BLACK
6
CONTINUOUS
10
128.168705999999986
20
-97.4444859999999977
11
128.0734679999999912
21
-97.3968670000000003
0
LINE
8
BLACK
6
CONTINUOUS
10
128.0734679999999912
20
-97.3968670000000003
11
128.067167999999981
21
-97.3929019999999923
0
LINE
8
BLACK
6
CONTINUOUS
10
128.067167999999981
20
-97.3929019999999923
11
128.0653409999999894
21
-97.3921449999999993
0
LINE
8
BLACK
6
CONTINUOUS
10
128.0653409999999894
20
-97.3921449999999993
11
128.0632839999999817
21
-97.3904560000000004
0
LINE
8
BLACK
6
CONTINUOUS
10
128.0632839999999817
20
-97.3904560000000004
11
128.0610250000000008
21
-97.3890349999999927
0
LINE
8
BLACK
6
CONTINUOUS
10
128.0610250000000008
20
-97.3890349999999927
11
128.059724999999986
21
-97.3875359999999972
0
LINE
8
BLACK
6
CONTINUOUS
10
128.059724999999986
20
-97.3875359999999972
11
128.0539760000000058
21
-97.3828180000000003
0
LINE
8
BLACK
6
CONTINUOUS
10
128.0539760000000058
20
-97.3828180000000003
11
128.0063570000000084
21
-97.3351989999999887
0
LINE
8
BLACK
6
CONTINUOUS
10
128.0063570000000084
20
-97.3351989999999887
11
128.0016379999999856
21
-97.3294489999999968
0
LINE
8
BLACK
6
CONTINUOUS
10
128.0016379999999856
20
-97.3294489999999968
11
128.0001399999999876
21
-97.3281499999999937
0
LINE
8
BLACK
6
CONTINUOUS
10
128.0001399999999876
20
-97.3281499999999937
11
127.9987179999999967
21
-97.3258900000000011
0
LINE
8
BLACK
6
CONTINUOUS
10
127.9987179999999967
20
-97.3258900000000011
11
127.9970299999999952
21
-97.3238339999999909
0
LINE
8
BLACK
6
CONTINUOUS
10
127.9970299999999952
20
-97.3238339999999909
11
127.9962719999999905
21
-97.3220060000000018
0
LINE
8
BLACK
6
CONTINUOUS
10
127.9962719999999905
20
-97.3220060000000018
11
127.9923079999999942
21
-97.3157069999999891
0
LINE
8
BLACK
6
CONTINUOUS
10
127.9923079999999942
20
-97.3157069999999891
11
127.9446889999999968
21
-97.2204689999999943
0
LINE
8
BLACK
6
CONTINUOUS
10
127.9446889999999968
20
-97.2204689999999943
11
127.9395159999999976
21
-97.2069509999999894
0
LINE
8
BLACK
6
CONTINUOUS
10
127.9395159999999976
20
-97.2069509999999894
11
127.6802069999999958
21
-97.4338470000000001
0
LINE
8
BLACK
6
CONTINUOUS
10
127.6802069999999958
20
-97.4338470000000001
11
127.6738819999999919
21
-97.438367999999997
0
LINE
8
BLACK
6
CONTINUOUS
10
127.6738819999999919
20
-97.438367999999997
11
127.6724869999999896
21
-97.4397639999999967
0
LINE
8
BLACK
6
CONTINUOUS
10
127.6724869999999896
20
-97.4397639999999967
11
127.6711629999999928
21
-97.4403119999999916
0
LINE
8
BLACK
6
CONTINUOUS
10
127.6711629999999928
20
-97.4403119999999916
11
127.6682459999999963
21
-97.4423979999999972
0
LINE
8
BLACK
6
CONTINUOUS
10
127.6682459999999963
20
-97.4423979999999972
11
127.6567079999999947
21
-97.4462989999999962
0
LINE
8
BLACK
6
CONTINUOUS
10
127.6567079999999947
20
-97.4462989999999962
11
127.6454509999999942
21
-97.4509630000000016
0
LINE
8
BLACK
6
CONTINUOUS
10
127.6454509999999942
20
-97.4509630000000016
11
127.6429199999999895
21
-97.4509630000000016
0
LINE
8
BLACK
6
CONTINUOUS
10
127.6429199999999895
20
-97.4509630000000016
11
127.6405249999999967
21
-97.4517729999999887
0
LINE
8
BLACK
6
CONTINUOUS
10
127.6405249999999967
20
-97.4517729999999887
11
127.6283719999999988
21
-97.4509630000000016
0
LINE
8
BLACK
6
CONTINUOUS
10
127.6283719999999988
20
-97.4509630000000016
11
127.6161869999999965
21
-97.4509630000000016
0
LINE
8
BLACK
6
CONTINUOUS
10
127.6161869999999965
20
-97.4509630000000016
11
127.6138499999999993
21
-97.4499950000000013
0
LINE
8
BLACK
6
CONTINUOUS
10
127.6138499999999993
20
-97.4499950000000013
11
127.6113269999999886
21
-97.4498269999999991
0
LINE
8
BLACK
6
CONTINUOUS
10
127.6113269999999886
20
-97.4498269999999991
11
127.6004009999999909
21
-97.4444239999999979
0
LINE
8
BLACK
6
CONTINUOUS
10
127.6004009999999909
20
-97.4444239999999979
11
127.5891510000000011
21
-97.4397639999999967
0
LINE
8
BLACK
6
CONTINUOUS
10
127.5891510000000011
20
-97.4397639999999967
11
127.5873639999999938
21
-97.4379769999999894
0
LINE
8
BLACK
6
CONTINUOUS
10
127.5873639999999938
20
-97.4379769999999894
11
127.5850949999999955
21
-97.4368549999999942
0
LINE
8
BLACK
6
CONTINUOUS
10
127.5850949999999955
20
-97.4368549999999942
11
127.5770689999999945
21
-97.4276819999999901
0
LINE
8
BLACK
6
CONTINUOUS
10
127.5770689999999945
20
-97.4276819999999901
11
127.5684589999999901
21
-97.4190719999999999
0
LINE
8
BLACK
6
CONTINUOUS
10
127.5684589999999901
20
-97.4190719999999999
11
127.5674899999999923
21
-97.4167349999999885
0
LINE
8
BLACK
6
CONTINUOUS
10
127.5674899999999923
20
-97.4167349999999885
11
127.5658249999999896
21
-97.4148309999999924
0
LINE
8
BLACK
6
CONTINUOUS
10
127.5658249999999896
20
-97.4148309999999924
11
127.5619229999999931
21
-97.4032929999999908
0
LINE
8
BLACK
6
CONTINUOUS
10
127.5619229999999931
20
-97.4032929999999908
11
127.5572599999999994
21
-97.3920359999999903
0
LINE
8
BLACK
6
CONTINUOUS
10
127.5572599999999994
20
-97.3920359999999903
11
127.5569079999999929
21
-97.3884649999999965
0
LINE
8
BLACK
6
CONTINUOUS
10
127.5569079999999929
20
-97.3884649999999965
11
127.5564499999999981
21
-97.3871099999999927
0
LINE
8
BLACK
6
CONTINUOUS
10
127.5564499999999981
20
-97.3871099999999927
11
127.5565809999999942
21
-97.3851420000000019
0
LINE
8
BLACK
6
CONTINUOUS
10
127.5565809999999942
20
-97.3851420000000019
11
127.5558189999999996
21
-97.3774039999999985
0
LINE
8
BLACK
6
CONTINUOUS
10
127.5558189999999996
20
-97.3774039999999985
11
127.5558189999999996
21
-96.7583569999999895
0
LINE
8
BLACK
6
CONTINUOUS
10
127.5558189999999996
20
-96.7583569999999895
11
127.5572599999999994
21
-96.7437249999999977
0
LINE
8
BLACK
6
CONTINUOUS
10
127.5572599999999994
20
-96.7437249999999977
11
127.5684589999999901
21
-96.7166890000000024
0
LINE
8
BLACK
6
CONTINUOUS
10
127.5684589999999901
20
-96.7166890000000024
11
127.5891510000000011
21
-96.6959969999999913
0
LINE
8
BLACK
6
CONTINUOUS
10
127.5891510000000011
20
-96.6959969999999913
11
127.6161869999999965
21
-96.6847980000000007
0
LINE
8
BLACK
6
CONTINUOUS
10
127.6161869999999965
20
-96.6847980000000007
11
127.6454509999999942
21
-96.6847980000000007
0
LINE
8
BLACK
6
CONTINUOUS
10
127.6454509999999942
20
-96.6847980000000007
11
127.6724869999999896
21
-96.6959969999999913
0
LINE
8
BLACK
6
CONTINUOUS
10
127.9363419999999962
20
-95.781257999999994
11
127.9625169999999912
21
-95.7943459999999902
0
LINE
8
BLACK
6
CONTINUOUS
10
127.9625169999999912
20
-95.7943459999999902
11
127.9816900000000004
21
-95.8164529999999957
0
LINE
8
BLACK
6
CONTINUOUS
10
127.9816900000000004
20
-95.8164529999999957
11
127.9909439999999989
21
-95.8442149999999913
0
LINE
8
BLACK
6
CONTINUOUS
10
127.9909439999999989
20
-95.8442149999999913
11
127.9888699999999915
21
-95.8734049999999911
0
LINE
8
BLACK
6
CONTINUOUS
10
127.9888699999999915
20
-95.8734049999999911
11
127.9836150000000004
21
-95.8871359999999981
0
LINE
8
BLACK
6
CONTINUOUS
10
127.9836150000000004
20
-95.8871359999999981
11
127.9359959999999887
21
-95.982373999999993
0
LINE
8
BLACK
6
CONTINUOUS
10
127.9359959999999887
20
-95.982373999999993
11
127.9320329999999899
21
-95.9886679999999899
0
LINE
8
BLACK
6
CONTINUOUS
10
127.9320329999999899
20
-95.9886679999999899
11
127.9312749999999994
21
-95.9905009999999947
0
LINE
8
BLACK
6
CONTINUOUS
10
127.9312749999999994
20
-95.9905009999999947
11
127.9295829999999938
21
-95.9925619999999924
0
LINE
8
BLACK
6
CONTINUOUS
10
127.9295829999999938
20
-95.9925619999999924
11
127.9281639999999953
21
-95.9948169999999976
0
LINE
8
BLACK
6
CONTINUOUS
10
127.9281639999999953
20
-95.9948169999999976
11
127.9266669999999948
21
-95.996114999999989
0
LINE
8
BLACK
6
CONTINUOUS
10
127.9266669999999948
20
-95.996114999999989
11
127.9219469999999887
21
-96.0018659999999926
0
LINE
8
BLACK
6
CONTINUOUS
10
127.9219469999999887
20
-96.0018659999999926
11
127.8595040000000012
21
-96.0643089999999944
0
LINE
8
BLACK
6
CONTINUOUS
10
127.8595040000000012
20
-96.0643089999999944
11
128.5558189999999854
21
-96.0643089999999944
0
LINE
8
BLACK
6
CONTINUOUS
10
128.5558189999999854
20
-96.0643089999999944
11
128.5558189999999854
21
-95.8535949999999985
0
LINE
8
BLACK
6
CONTINUOUS
10
128.5558189999999854
20
-95.8535949999999985
11
128.5572599999999852
21
-95.8389629999999926
0
LINE
8
BLACK
6
CONTINUOUS
10
128.5572599999999852
20
-95.8389629999999926
11
128.5684589999999901
21
-95.8119269999999972
0
LINE
8
BLACK
6
CONTINUOUS
10
128.5684589999999901
20
-95.8119269999999972
11
128.5891509999999869
21
-95.7912350000000004
0
LINE
8
BLACK
6
CONTINUOUS
10
128.5891509999999869
20
-95.7912350000000004
11
128.6161869999999965
21
-95.7800359999999955
0
LINE
8
BLACK
6
CONTINUOUS
10
128.6161869999999965
20
-95.7800359999999955
11
128.64545099999998
21
-95.7800359999999955
0
LINE
8
BLACK
6
CONTINUOUS
10
128.64545099999998
20
-95.7800359999999955
11
128.6724869999999896
21
-95.7912350000000004
0
LINE
8
BLACK
6
CONTINUOUS
10
128.6724869999999896
20
-95.7912350000000004
11
128.6931789999999864
21
-95.8119269999999972
0
LINE
8
BLACK
6
CONTINUOUS
10
128.6931789999999864
20
-95.8119269999999972
11
128.7043779999999913
21
-95.8389629999999926
0
LINE
8
BLACK
6
CONTINUOUS
10
128.7043779999999913
20
-95.8389629999999926
11
128.7058189999999911
21
-95.8535949999999985
0
LINE
8
BLACK
6
CONTINUOUS
10
128.7058189999999911
20
-95.8535949999999985
11
128.7058189999999911
21
-96.4250229999999959
0
LINE
8
BLACK
6
CONTINUOUS
10
128.7058189999999911
20
-96.4250229999999959
11
128.7043779999999913
21
-96.4396550000000019
0
LINE
8
BLACK
6
CONTINUOUS
10
128.7043779999999913
20
-96.4396550000000019
11
128.6931789999999864
21
-96.4666909999999973
0
LINE
8
BLACK
6
CONTINUOUS
10
128.6931789999999864
20
-96.4666909999999973
11
128.6724869999999896
21
-96.4873829999999941
0
LINE
8
BLACK
6
CONTINUOUS
10
128.6724869999999896
20
-96.4873829999999941
11
128.64545099999998
21
-96.498581999999999
0
LINE
8
BLACK
6
CONTINUOUS
10
128.64545099999998
20
-96.498581999999999
11
128.6161869999999965
21
-96.498581999999999
0
LINE
8
BLACK
6
CONTINUOUS
10
128.6161869999999965
20
-96.498581999999999
11
128.5891509999999869
21
-96.4873829999999941
0
LINE
8
BLACK
6
CONTINUOUS
10
128.5891509999999869
20
-96.4873829999999941
11
128.5684589999999901
21
-96.4666909999999973
0
LINE
8
BLACK
6
CONTINUOUS
10
128.5684589999999901
20
-96.4666909999999973
11
128.5572599999999852
21
-96.4396550000000019
0
LINE
8
BLACK
6
CONTINUOUS
10
128.5572599999999852
20
-96.4396550000000019
11
128.5558189999999854
21
-96.4250229999999959
0
LINE
8
BLACK
6
CONTINUOUS
10
128.5558189999999854
20
-96.4250229999999959
11
128.5558189999999854
21
-96.2143090000000001
0
LINE
8
BLACK
6
CONTINUOUS
10
128.5558189999999854
20
-96.2143090000000001
11
127.6308189999999883
21
-96.2143090000000001
0
LINE
8
BLACK
6
CONTINUOUS
10
127.6308189999999883
20
-96.2143090000000001
11
127.6307659999999942
21
-96.214303000000001
0
LINE
8
BLACK
6
CONTINUOUS
10
127.6307659999999942
20
-96.214303000000001
11
127.6307399999999888
21
-96.2143090000000001
0
LINE
8
BLACK
6
CONTINUOUS
10
127.6307399999999888
20
-96.2143090000000001
11
127.6306629999999984
21
-96.2142929999999978
0
LINE
8
BLACK
6
CONTINUOUS
10
127.6306629999999984
20
-96.2142929999999978
11
127.6161869999999965
21
-96.2128680000000003
0
LINE
8
BLACK
6
CONTINUOUS
10
127.6161869999999965
20
-96.2128680000000003
11
127.6093259999999958
21
-96.2100259999999992
0
LINE
8
BLACK
6
CONTINUOUS
10
127.6093259999999958
20
-96.2100259999999992
11
127.6020459999999872
21
-96.2085699999999946
0
LINE
8
BLACK
6
CONTINUOUS
10
127.6020459999999872
20
-96.2085699999999946
11
127.5959399999999988
21
-96.2044810000000012
0
LINE
8
BLACK
6
CONTINUOUS
10
127.5959399999999988
20
-96.2044810000000012
11
127.5891510000000011
21
-96.2016689999999954
0
LINE
8
BLACK
6
CONTINUOUS
10
127.5891510000000011
20
-96.2016689999999954
11
127.5838999999999999
21
-96.1964179999999942
0
LINE
8
BLACK
6
CONTINUOUS
10
127.5838999999999999
20
-96.1964179999999942
11
127.577731
21
-96.1922869999999932
0
LINE
8
BLACK
6
CONTINUOUS
10
127.577731
20
-96.1922869999999932
11
127.5736539999999906
21
-96.1861719999999991
0
LINE
8
BLACK
6
CONTINUOUS
10
127.5736539999999906
20
-96.1861719999999991
11
127.5684589999999901
21
-96.1809769999999986
0
LINE
8
BLACK
6
CONTINUOUS
10
127.5684589999999901
20
-96.1809769999999986
11
127.5656169999999889
21
-96.1741159999999979
0
LINE
8
BLACK
6
CONTINUOUS
10
127.5656169999999889
20
-96.1741159999999979
11
127.5614980000000003
21
-96.1679379999999924
0
LINE
8
BLACK
6
CONTINUOUS
10
127.5614980000000003
20
-96.1679379999999924
11
127.560071999999991
21
-96.1607289999999892
0
LINE
8
BLACK
6
CONTINUOUS
10
127.560071999999991
20
-96.1607289999999892
11
127.5572599999999994
21
-96.153940999999989
0
LINE
8
BLACK
6
CONTINUOUS
10
127.5572599999999994
20
-96.153940999999989
11
127.5572599999999994
21
-96.1465139999999963
0
LINE
8
BLACK
6
CONTINUOUS
10
127.5572599999999994
20
-96.1465139999999963
11
127.5558189999999996
21
-96.1392299999999977
0
LINE
8
BLACK
6
CONTINUOUS
10
127.5558189999999996
20
-96.1392299999999977
11
127.5572599999999994
21
-96.1320249999999987
0
LINE
8
BLACK
6
CONTINUOUS
10
127.5572599999999994
20
-96.1320249999999987
11
127.5572599999999994
21
-96.1246769999999913
0
LINE
8
BLACK
6
CONTINUOUS
10
127.5572599999999994
20
-96.1246769999999913
11
127.5601009999999889
21
-96.1178159999999906
0
LINE
8
BLACK
6
CONTINUOUS
10
127.5601009999999889
20
-96.1178159999999906
11
127.5615579999999909
21
-96.1105359999999962
0
LINE
8
BLACK
6
CONTINUOUS
10
127.5615579999999909
20
-96.1105359999999962
11
127.565646000000001
21
-96.1044299999999936
0
LINE
8
BLACK
6
CONTINUOUS
10
127.565646000000001
20
-96.1044299999999936
11
127.5684589999999901
21
-96.0976409999999959
0
LINE
8
BLACK
6
CONTINUOUS
10
127.5684589999999901
20
-96.0976409999999959
11
127.5737089999999938
21
-96.0923899999999946
0
LINE
8
BLACK
6
CONTINUOUS
10
127.5737089999999938
20
-96.0923899999999946
11
127.5778409999999923
21
-96.0862209999999948
0
LINE
8
BLACK
6
CONTINUOUS
10
127.5778409999999923
20
-96.0862209999999948
11
127.5890989999999903
21
-96.0769999999999982
0
LINE
8
BLACK
6
CONTINUOUS
10
127.5890989999999903
20
-96.0769999999999982
11
127.5891510000000011
21
-96.076948999999999
0
LINE
8
BLACK
6
CONTINUOUS
10
127.5891510000000011
20
-96.076948999999999
11
127.5891729999999882
21
-96.0769389999999959
0
LINE
8
BLACK
6
CONTINUOUS
10
127.5891729999999882
20
-96.0769389999999959
11
127.5892159999999933
21
-96.0769049999999964
0
LINE
8
BLACK
6
CONTINUOUS
10
127.5892159999999933
20
-96.0769049999999964
11
127.7258939999999967
21
-95.9857859999999903
0
LINE
8
BLACK
6
CONTINUOUS
10
127.7258939999999967
20
-95.9857859999999903
11
127.80727499999999
21
-95.9044059999999945
0
LINE
8
BLACK
6
CONTINUOUS
10
127.80727499999999
20
-95.9044059999999945
11
127.8494509999999877
21
-95.820053999999999
0
LINE
8
BLACK
6
CONTINUOUS
10
127.8494509999999877
20
-95.820053999999999
11
127.8572829999999954
21
-95.8076109999999943
0
LINE
8
BLACK
6
CONTINUOUS
10
127.8572829999999954
20
-95.8076109999999943
11
127.8793909999999983
21
-95.7884379999999993
0
LINE
8
BLACK
6
CONTINUOUS
10
127.8793909999999983
20
-95.7884379999999993
11
127.9071519999999964
21
-95.7791840000000008
0
LINE
8
BLACK
6
CONTINUOUS
10
127.9071519999999964
20
-95.7791840000000008
11
127.9363419999999962
21
-95.781257999999994
0
LINE
8
BLACK
6
CONTINUOUS
10
126.278932999999995
20
-95.837814999999992
11
126.2834999999999894
21
-95.8607760000000013
0
LINE
8
BLACK
6
CONTINUOUS
10
126.2834999999999894
20
-95.8607760000000013
11
126.2834999999999894
21
-96.3702239999999932
0
LINE
8
BLACK
6
CONTINUOUS
10
126.2834999999999894
20
-96.3702239999999932
11
126.278932999999995
21
-96.3931850000000026
0
LINE
8
BLACK
6
CONTINUOUS
10
126.278932999999995
20
-96.3931850000000026
11
126.2464609999999965
21
-96.4256570000000011
0
LINE
8
BLACK
6
CONTINUOUS
10
126.2464609999999965
20
-96.4256570000000011
11
126.200538999999992
21
-96.4256570000000011
0
LINE
8
BLACK
6
CONTINUOUS
10
126.200538999999992
20
-96.4256570000000011
11
126.1680669999999935
21
-96.3931850000000026
0
LINE
8
BLACK
6
CONTINUOUS
10
126.1680669999999935
20
-96.3931850000000026
11
126.1634999999999991
21
-96.3702239999999932
0
LINE
8
BLACK
6
CONTINUOUS
10
126.1634999999999991
20
-96.3702239999999932
11
126.1634999999999991
21
-95.8607760000000013
0
LINE
8
BLACK
6
CONTINUOUS
10
126.1634999999999991
20
-95.8607760000000013
11
126.1680669999999935
21
-95.837814999999992
0
LINE
8
BLACK
6
CONTINUOUS
10
126.1680669999999935
20
-95.837814999999992
11
126.200538999999992
21
-95.8053429999999935
0
LINE
8
BLACK
6
CONTINUOUS
10
126.200538999999992
20
-95.8053429999999935
11
126.2464609999999965
21
-95.8053429999999935
0
LINE
8
BLACK
6
CONTINUOUS
10
126.2464609999999965
20
-95.8053429999999935
11
126.278932999999995
21
-95.837814999999992
0
LINE
8
BLACK
6
CONTINUOUS
10
127.3239329999999967
20
-95.837814999999992
11
127.3284999999999911
21
-95.8607760000000013
0
LINE
8
BLACK
6
CONTINUOUS
10
127.3284999999999911
20
-95.8607760000000013
11
127.3284999999999911
21
-96.3702239999999932
0
LINE
8
BLACK
6
CONTINUOUS
10
127.3284999999999911
20
-96.3702239999999932
11
127.3239329999999967
21
-96.3931850000000026
0
LINE
8
BLACK
6
CONTINUOUS
10
127.3239329999999967
20
-96.3931850000000026
11
127.2914609999999982
21
-96.4256570000000011
0
LINE
8
BLACK
6
CONTINUOUS
10
127.2914609999999982
20
-96.4256570000000011
11
127.2455389999999937
21
-96.4256570000000011
0
LINE
8
BLACK
6
CONTINUOUS
10
127.2455389999999937
20
-96.4256570000000011
11
127.2130669999999952
21
-96.3931850000000026
0
LINE
8
BLACK
6
CONTINUOUS
10
127.2130669999999952
20
-96.3931850000000026
11
127.2085000000000008
21
-96.3702239999999932
0
LINE
8
BLACK
6
CONTINUOUS
10
127.2085000000000008
20
-96.3702239999999932
11
127.2085000000000008
21
-95.8607760000000013
0
LINE
8
BLACK
6
CONTINUOUS
10
127.2085000000000008
20
-95.8607760000000013
11
127.2130669999999952
21
-95.837814999999992
0
LINE
8
BLACK
6
CONTINUOUS
10
127.2130669999999952
20
-95.837814999999992
11
127.2455389999999937
21
-95.8053429999999935
0
LINE
8
BLACK
6
CONTINUOUS
10
127.2455389999999937
20
-95.8053429999999935
11
127.2914609999999982
21
-95.8053429999999935
0
LINE
8
BLACK
6
CONTINUOUS
10
127.2914609999999982
20
-95.8053429999999935
11
127.3239329999999967
21
-95.837814999999992
0
LINE
8
BLACK
6
CONTINUOUS
10
128.64545099999998
20
-94.8276549999999929
11
128.6724869999999896
21
-94.8388539999999978
0
LINE
8
BLACK
6
CONTINUOUS
10
128.6724869999999896
20
-94.8388539999999978
11
128.6931789999999864
21
-94.8595459999999946
0
LINE
8
BLACK
6
CONTINUOUS
10
128.6931789999999864
20
-94.8595459999999946
11
128.7043779999999913
21
-94.88658199999999
0
LINE
8
BLACK
6
CONTINUOUS
10
128.7043779999999913
20
-94.88658199999999
11
128.7043779999999913
21
-94.9158460000000019
0
LINE
8
BLACK
6
CONTINUOUS
10
128.7043779999999913
20
-94.9158460000000019
11
128.6931789999999864
21
-94.9428819999999973
0
LINE
8
BLACK
6
CONTINUOUS
10
128.6931789999999864
20
-94.9428819999999973
11
128.6724869999999896
21
-94.9635739999999942
0
LINE
8
BLACK
6
CONTINUOUS
10
128.6724869999999896
20
-94.9635739999999942
11
128.64545099999998
21
-94.974772999999999
0
LINE
8
BLACK
6
CONTINUOUS
10
128.64545099999998
20
-94.974772999999999
11
128.6308190000000025
21
-94.9762139999999988
0
LINE
8
BLACK
6
CONTINUOUS
10
128.6308190000000025
20
-94.9762139999999988
11
128.2296279999999911
21
-94.9762139999999988
0
LINE
8
BLACK
6
CONTINUOUS
10
128.2296279999999911
20
-94.9762139999999988
11
128.2296279999999911
21
-95.1002589999999941
0
LINE
8
BLACK
6
CONTINUOUS
10
128.2296279999999911
20
-95.1002589999999941
11
128.6738289999999836
21
-95.4111999999999938
0
LINE
8
BLACK
6
CONTINUOUS
10
128.6738289999999836
20
-95.4111999999999938
11
128.6849890000000016
21
-95.420771000000002
0
LINE
8
BLACK
6
CONTINUOUS
10
128.6849890000000016
20
-95.420771000000002
11
128.7007159999999999
21
-95.4454499999999939
0
LINE
8
BLACK
6
CONTINUOUS
10
128.7007159999999999
20
-95.4454499999999939
11
128.7058020000000056
21
-95.4742669999999976
0
LINE
8
BLACK
6
CONTINUOUS
10
128.7058020000000056
20
-95.4742669999999976
11
128.6994719999999859
21
-95.502837999999997
0
LINE
8
BLACK
6
CONTINUOUS
10
128.6994719999999859
20
-95.502837999999997
11
128.682690000000008
21
-95.5268119999999925
0
LINE
8
BLACK
6
CONTINUOUS
10
128.682690000000008
20
-95.5268119999999925
11
128.6580119999999852
21
-95.5425389999999908
0
LINE
8
BLACK
6
CONTINUOUS
10
128.6580119999999852
20
-95.5425389999999908
11
128.629193999999984
21
-95.547623999999999
0
LINE
8
BLACK
6
CONTINUOUS
10
128.629193999999984
20
-95.547623999999999
11
128.6006229999999846
21
-95.541294999999991
0
LINE
8
BLACK
6
CONTINUOUS
10
128.6006229999999846
20
-95.541294999999991
11
128.5878099999999904
21
-95.5340849999999904
0
LINE
8
BLACK
6
CONTINUOUS
10
128.5878099999999904
20
-95.5340849999999904
11
128.2295179999999846
21
-95.2832810000000023
0
LINE
8
BLACK
6
CONTINUOUS
10
128.2295179999999846
20
-95.2832810000000023
11
128.2281869999999913
21
-95.2967979999999955
0
LINE
8
BLACK
6
CONTINUOUS
10
128.2281869999999913
20
-95.2967979999999955
11
128.2271560000000079
21
-95.2992859999999951
0
LINE
8
BLACK
6
CONTINUOUS
10
128.2271560000000079
20
-95.2992859999999951
11
128.226965000000007
21
-95.3019759999999962
0
LINE
8
BLACK
6
CONTINUOUS
10
128.226965000000007
20
-95.3019759999999962
11
128.2217100000000016
21
-95.3157069999999891
0
LINE
8
BLACK
6
CONTINUOUS
10
128.2217100000000016
20
-95.3157069999999891
11
128.1740910000000042
21
-95.4109449999999981
0
LINE
8
BLACK
6
CONTINUOUS
10
128.1740910000000042
20
-95.4109449999999981
11
128.170125999999982
21
-95.4172439999999966
0
LINE
8
BLACK
6
CONTINUOUS
10
128.170125999999982
20
-95.4172439999999966
11
128.169368999999989
21
-95.4190719999999999
0
LINE
8
BLACK
6
CONTINUOUS
10
128.169368999999989
20
-95.4190719999999999
11
128.1676799999999901
21
-95.421127999999996
0
LINE
8
BLACK
6
CONTINUOUS
10
128.1676799999999901
20
-95.421127999999996
11
128.1662589999999966
21
-95.4233880000000028
0
LINE
8
BLACK
6
CONTINUOUS
10
128.1662589999999966
20
-95.4233880000000028
11
128.1647600000000011
21
-95.4246869999999916
0
LINE
8
BLACK
6
CONTINUOUS
10
128.1647600000000011
20
-95.4246869999999916
11
128.1600420000000042
21
-95.4304369999999977
0
LINE
8
BLACK
6
CONTINUOUS
10
128.1600420000000042
20
-95.4304369999999977
11
128.1124230000000068
21
-95.4780559999999952
0
LINE
8
BLACK
6
CONTINUOUS
10
128.1124230000000068
20
-95.4780559999999952
11
128.1066730000000007
21
-95.482773999999992
0
LINE
8
BLACK
6
CONTINUOUS
10
128.1066730000000007
20
-95.482773999999992
11
128.1053739999999834
21
-95.4842730000000017
0
LINE
8
BLACK
6
CONTINUOUS
10
128.1053739999999834
20
-95.4842730000000017
11
128.103114000000005
21
-95.4856939999999952
0
LINE
8
BLACK
6
CONTINUOUS
10
128.103114000000005
20
-95.4856939999999952
11
128.1010579999999948
21
-95.4873829999999941
0
LINE
8
BLACK
6
CONTINUOUS
10
128.1010579999999948
20
-95.4873829999999941
11
128.0992300000000057
21
-95.4881400000000014
0
LINE
8
BLACK
6
CONTINUOUS
10
128.0992300000000057
20
-95.4881400000000014
11
128.092930999999993
21
-95.4921049999999951
0
LINE
8
BLACK
6
CONTINUOUS
10
128.092930999999993
20
-95.4921049999999951
11
127.9976929999999982
21
-95.5397239999999925
0
LINE
8
BLACK
6
CONTINUOUS
10
127.9976929999999982
20
-95.5397239999999925
11
127.9839609999999936
21
-95.5449789999999979
0
LINE
8
BLACK
6
CONTINUOUS
10
127.9839609999999936
20
-95.5449789999999979
11
127.9812729999999874
21
-95.5451690000000013
0
LINE
8
BLACK
6
CONTINUOUS
10
127.9812729999999874
20
-95.5451690000000013
11
127.9787839999999903
21
-95.5462009999999964
0
LINE
8
BLACK
6
CONTINUOUS
10
127.9787839999999903
20
-95.5462009999999964
11
127.9641519999999986
21
-95.5476419999999962
0
LINE
8
BLACK
6
CONTINUOUS
10
127.9641519999999986
20
-95.5476419999999962
11
127.8212949999999921
21
-95.5476419999999962
0
LINE
8
BLACK
6
CONTINUOUS
10
127.8212949999999921
20
-95.5476419999999962
11
127.8066630000000004
21
-95.5462009999999964
0
LINE
8
BLACK
6
CONTINUOUS
10
127.8066630000000004
20
-95.5462009999999964
11
127.8041739999999891
21
-95.5451699999999988
0
LINE
8
BLACK
6
CONTINUOUS
10
127.8041739999999891
20
-95.5451699999999988
11
127.8014849999999996
21
-95.5449789999999979
0
LINE
8
BLACK
6
CONTINUOUS
10
127.8014849999999996
20
-95.5449789999999979
11
127.7877539999999925
21
-95.5397239999999925
0
LINE
8
BLACK
6
CONTINUOUS
10
127.7877539999999925
20
-95.5397239999999925
11
127.6925159999999977
21
-95.4921049999999951
0
LINE
8
BLACK
6
CONTINUOUS
10
127.6925159999999977
20
-95.4921049999999951
11
127.6862159999999875
21
-95.4881400000000014
0
LINE
8
BLACK
6
CONTINUOUS
10
127.6862159999999875
20
-95.4881400000000014
11
127.6843889999999959
21
-95.4873829999999941
0
LINE
8
BLACK
6
CONTINUOUS
10
127.6843889999999959
20
-95.4873829999999941
11
127.6823319999999882
21
-95.4856939999999952
0
LINE
8
BLACK
6
CONTINUOUS
10
127.6823319999999882
20
-95.4856939999999952
11
127.680072999999993
21
-95.4842730000000017
0
LINE
8
BLACK
6
CONTINUOUS
10
127.680072999999993
20
-95.4842730000000017
11
127.6787729999999925
21
-95.482773999999992
0
LINE
8
BLACK
6
CONTINUOUS
10
127.6787729999999925
20
-95.482773999999992
11
127.6730239999999981
21
-95.4780559999999952
0
LINE
8
BLACK
6
CONTINUOUS
10
127.6730239999999981
20
-95.4780559999999952
11
127.6254050000000007
21
-95.4304369999999977
0
LINE
8
BLACK
6
CONTINUOUS
10
127.6254050000000007
20
-95.4304369999999977
11
127.6206859999999921
21
-95.4246869999999916
0
LINE
8
BLACK
6
CONTINUOUS
10
127.6206859999999921
20
-95.4246869999999916
11
127.6191879999999941
21
-95.4233880000000028
0
LINE
8
BLACK
6
CONTINUOUS
10
127.6191879999999941
20
-95.4233880000000028
11
127.6177659999999889
21
-95.421127999999996
0
LINE
8
BLACK
6
CONTINUOUS
10
127.6177659999999889
20
-95.421127999999996
11
127.6160779999999875
21
-95.4190719999999999
0
LINE
8
BLACK
6
CONTINUOUS
10
127.6160779999999875
20
-95.4190719999999999
11
127.615319999999997
21
-95.4172439999999966
0
LINE
8
BLACK
6
CONTINUOUS
10
127.615319999999997
20
-95.4172439999999966
11
127.6113560000000007
21
-95.4109449999999981
0
LINE
8
BLACK
6
CONTINUOUS
10
127.6113560000000007
20
-95.4109449999999981
11
127.5637369999999891
21
-95.3157069999999891
0
LINE
8
BLACK
6
CONTINUOUS
10
127.5637369999999891
20
-95.3157069999999891
11
127.5584819999999979
21
-95.3019749999999988
0
LINE
8
BLACK
6
CONTINUOUS
10
127.5584819999999979
20
-95.3019749999999988
11
127.558290999999997
21
-95.2992869999999925
0
LINE
8
BLACK
6
CONTINUOUS
10
127.558290999999997
20
-95.2992869999999925
11
127.5572599999999994
21
-95.2967979999999955
0
LINE
8
BLACK
6
CONTINUOUS
10
127.5572599999999994
20
-95.2967979999999955
11
127.5558189999999996
21
-95.2821659999999895
0
LINE
8
BLACK
6
CONTINUOUS
10
127.5558189999999996
20
-95.2821659999999895
11
127.5558189999999996
21
-94.901213999999996
0
LINE
8
BLACK
6
CONTINUOUS
10
127.5558189999999996
20
-94.901213999999996
11
127.5572599999999994
21
-94.88658199999999
0
LINE
8
BLACK
6
CONTINUOUS
10
127.5572599999999994
20
-94.88658199999999
11
127.5684589999999901
21
-94.8595459999999946
0
LINE
8
BLACK
6
CONTINUOUS
10
127.5684589999999901
20
-94.8595459999999946
11
127.5891510000000011
21
-94.8388539999999978
0
LINE
8
BLACK
6
CONTINUOUS
10
127.5891510000000011
20
-94.8388539999999978
11
127.6161869999999965
21
-94.8276549999999929
0
LINE
8
BLACK
6
CONTINUOUS
10
127.6161869999999965
20
-94.8276549999999929
11
127.6308189999999883
21
-94.8262139999999931
0
LINE
8
BLACK
6
CONTINUOUS
10
127.6308189999999883
20
-94.8262139999999931
11
128.6308190000000025
21
-94.8262139999999931
0
LINE
8
BLACK
6
CONTINUOUS
10
128.6308190000000025
20
-94.8262139999999931
11
128.64545099999998
21
-94.8276549999999929
0
LINE
8
BLACK
6
CONTINUOUS
10
127.7058189999999911
20
-95.2644609999999972
11
127.7400769999999994
21
-95.3329769999999996
0
LINE
8
BLACK
6
CONTINUOUS
10
127.7400769999999994
20
-95.3329769999999996
11
127.7704839999999962
21
-95.3633839999999964
0
LINE
8
BLACK
6
CONTINUOUS
10
127.7704839999999962
20
-95.3633839999999964
11
127.8389999999999986
21
-95.3976419999999905
0
LINE
8
BLACK
6
CONTINUOUS
10
127.8389999999999986
20
-95.3976419999999905
11
127.946446999999992
21
-95.3976419999999905
0
LINE
8
BLACK
6
CONTINUOUS
10
127.946446999999992
20
-95.3976419999999905
11
128.0149629999999945
21
-95.3633839999999964
0
LINE
8
BLACK
6
CONTINUOUS
10
128.0149629999999945
20
-95.3633839999999964
11
128.0453699999999913
21
-95.3329769999999996
0
LINE
8
BLACK
6
CONTINUOUS
10
128.0453699999999913
20
-95.3329769999999996
11
128.0796279999999854
21
-95.2644609999999972
0
LINE
8
BLACK
6
CONTINUOUS
10
128.0796279999999854
20
-95.2644609999999972
11
128.0796279999999854
21
-94.9762139999999988
0
LINE
8
BLACK
6
CONTINUOUS
10
128.0796279999999854
20
-94.9762139999999988
11
127.7058189999999911
21
-94.9762139999999988
0
LINE
8
BLACK
6
CONTINUOUS
10
127.7058189999999911
20
-94.9762139999999988
11
127.7058189999999911
21
-95.2644609999999972
0
LINE
8
BLACK
6
CONTINUOUS
10
127.9386849999999924
20
-48.2190669999999955
11
127.9711569999999909
21
-48.2515390000000011
0
LINE
8
BLACK
6
CONTINUOUS
10
127.9711569999999909
20
-48.2515390000000011
11
127.9711569999999909
21
-48.2974609999999984
0
LINE
8
BLACK
6
CONTINUOUS
10
127.9711569999999909
20
-48.2974609999999984
11
127.9386849999999924
21
-48.3299329999999969
0
LINE
8
BLACK
6
CONTINUOUS
10
127.9386849999999924
20
-48.3299329999999969
11
127.9157239999999973
21
-48.3344999999999985
0
LINE
8
BLACK
6
CONTINUOUS
10
127.9157239999999973
20
-48.3344999999999985
11
127.4062759999999912
21
-48.3344999999999985
0
LINE
8
BLACK
6
CONTINUOUS
10
127.4062759999999912
20
-48.3344999999999985
11
127.3833149999999961
21
-48.3299329999999969
0
LINE
8
BLACK
6
CONTINUOUS
10
127.3833149999999961
20
-48.3299329999999969
11
127.3508429999999976
21
-48.2974609999999984
0
LINE
8
BLACK
6
CONTINUOUS
10
127.3508429999999976
20
-48.2974609999999984
11
127.3508429999999976
21
-48.2515390000000011
0
LINE
8
BLACK
6
CONTINUOUS
10
127.3508429999999976
20
-48.2515390000000011
11
127.3833149999999961
21
-48.2190669999999955
0
LINE
8
BLACK
6
CONTINUOUS
10
127.3833149999999961
20
-48.2190669999999955
11
127.4062759999999912
21
-48.214500000000001
0
LINE
8
BLACK
6
CONTINUOUS
10
127.4062759999999912
20
-48.214500000000001
11
127.9157239999999973
21
-48.214500000000001
0
LINE
8
BLACK
6
CONTINUOUS
10
127.9157239999999973
20
-48.214500000000001
11
127.9386849999999924
21
-48.2190669999999955
0
LINE
8
BLACK
6
CONTINUOUS
10
132.8116849999999829
20
-48.2190669999999955
11
132.8441569999999956
21
-48.2515390000000011
0
LINE
8
BLACK
6
CONTINUOUS
10
132.8441569999999956
20
-48.2515390000000011
11
132.8441569999999956
21
-48.2974609999999984
0
LINE
8
BLACK
6
CONTINUOUS
10
132.8441569999999956
20
-48.2974609999999984
11
132.8116849999999829
21
-48.3299329999999969
0
LINE
8
BLACK
6
CONTINUOUS
10
132.8116849999999829
20
-48.3299329999999969
11
132.788724000000002
21
-48.3344999999999985
0
LINE
8
BLACK
6
CONTINUOUS
10
132.788724000000002
20
-48.3344999999999985
11
132.2792759999999817
21
-48.3344999999999985
0
LINE
8
BLACK
6
CONTINUOUS
10
132.2792759999999817
20
-48.3344999999999985
11
132.2563150000000007
21
-48.3299329999999969
0
LINE
8
BLACK
6
CONTINUOUS
10
132.2563150000000007
20
-48.3299329999999969
11
132.223842999999988
21
-48.2974609999999984
0
LINE
8
BLACK
6
CONTINUOUS
10
132.223842999999988
20
-48.2974609999999984
11
132.223842999999988
21
-48.2515390000000011
0
LINE
8
BLACK
6
CONTINUOUS
10
132.223842999999988
20
-48.2515390000000011
11
132.2563150000000007
21
-48.2190669999999955
0
LINE
8
BLACK
6
CONTINUOUS
10
132.2563150000000007
20
-48.2190669999999955
11
132.2792759999999817
21
-48.214500000000001
0
LINE
8
BLACK
6
CONTINUOUS
10
132.2792759999999817
20
-48.214500000000001
11
132.788724000000002
21
-48.214500000000001
0
LINE
8
BLACK
6
CONTINUOUS
10
132.788724000000002
20
-48.214500000000001
11
132.8116849999999829
21
-48.2190669999999955
0
LINE
8
BLACK
6
CONTINUOUS
10
127.9386849999999924
20
-47.1740670000000009
11
127.9711569999999909
21
-47.2065389999999994
0
LINE
8
BLACK
6
CONTINUOUS
10
127.9711569999999909
20
-47.2065389999999994
11
127.9711569999999909
21
-47.2524609999999967
0
LINE
8
BLACK
6
CONTINUOUS
10
127.9711569999999909
20
-47.2524609999999967
11
127.9386849999999924
21
-47.2849329999999952
0
LINE
8
BLACK
6
CONTINUOUS
10
127.9386849999999924
20
-47.2849329999999952
11
127.9157239999999973
21
-47.2894999999999968
0
LINE
8
BLACK
6
CONTINUOUS
10
127.9157239999999973
20
-47.2894999999999968
11
127.4062759999999912
21
-47.2894999999999968
0
LINE
8
BLACK
6
CONTINUOUS
10
127.4062759999999912
20
-47.2894999999999968
11
127.3833149999999961
21
-47.2849329999999952
0
LINE
8
BLACK
6
CONTINUOUS
10
127.3833149999999961
20
-47.2849329999999952
11
127.3508429999999976
21
-47.2524609999999967
0
LINE
8
BLACK
6
CONTINUOUS
10
127.3508429999999976
20
-47.2524609999999967
11
127.3508429999999976
21
-47.2065389999999994
0
LINE
8
BLACK
6
CONTINUOUS
10
127.3508429999999976
20
-47.2065389999999994
11
127.3833149999999961
21
-47.1740670000000009
0
LINE
8
BLACK
6
CONTINUOUS
10
127.3833149999999961
20
-47.1740670000000009
11
127.4062759999999912
21
-47.1694999999999993
0
LINE
8
BLACK
6
CONTINUOUS
10
127.4062759999999912
20
-47.1694999999999993
11
127.9157239999999973
21
-47.1694999999999993
0
LINE
8
BLACK
6
CONTINUOUS
10
127.9157239999999973
20
-47.1694999999999993
11
127.9386849999999924
21
-47.1740670000000009
0
LINE
8
BLACK
6
CONTINUOUS
10
132.8116849999999829
20
-47.1740670000000009
11
132.8441569999999956
21
-47.2065389999999994
0
LINE
8
BLACK
6
CONTINUOUS
10
132.8441569999999956
20
-47.2065389999999994
11
132.8441569999999956
21
-47.2524609999999967
0
LINE
8
BLACK
6
CONTINUOUS
10
132.8441569999999956
20
-47.2524609999999967
11
132.8116849999999829
21
-47.2849329999999952
0
LINE
8
BLACK
6
CONTINUOUS
10
132.8116849999999829
20
-47.2849329999999952
11
132.788724000000002
21
-47.2894999999999968
0
LINE
8
BLACK
6
CONTINUOUS
10
132.788724000000002
20
-47.2894999999999968
11
132.2792759999999817
21
-47.2894999999999968
0
LINE
8
BLACK
6
CONTINUOUS
10
132.2792759999999817
20
-47.2894999999999968
11
132.2563150000000007
21
-47.2849329999999952
0
LINE
8
BLACK
6
CONTINUOUS
10
132.2563150000000007
20
-47.2849329999999952
11
132.223842999999988
21
-47.2524609999999967
0
LINE
8
BLACK
6
CONTINUOUS
10
132.223842999999988
20
-47.2524609999999967
11
132.223842999999988
21
-47.2065389999999994
0
LINE
8
BLACK
6
CONTINUOUS
10
132.223842999999988
20
-47.2065389999999994
11
132.2563150000000007
21
-47.1740670000000009
0
LINE
8
BLACK
6
CONTINUOUS
10
132.2563150000000007
20
-47.1740670000000009
11
132.2792759999999817
21
-47.1694999999999993
0
LINE
8
BLACK
6
CONTINUOUS
10
132.2792759999999817
20
-47.1694999999999993
11
132.788724000000002
21
-47.1694999999999993
0
LINE
8
BLACK
6
CONTINUOUS
10
132.788724000000002
20
-47.1694999999999993
11
132.8116849999999829
21
-47.1740670000000009
0
LINE
8
BLACK
6
CONTINUOUS
10
127.3184879999999879
20
-45.7032600000000002
11
127.3209769999999992
21
-45.7042909999999978
0
LINE
8
BLACK
6
CONTINUOUS
10
127.3209769999999992
20
-45.7042909999999978
11
127.3236649999999912
21
-45.7044819999999987
0
LINE
8
BLACK
6
CONTINUOUS
10
127.3236649999999912
20
-45.7044819999999987
11
127.3373969999999957
21
-45.709736999999997
0
LINE
8
BLACK
6
CONTINUOUS
10
127.3373969999999957
20
-45.709736999999997
11
127.4326349999999906
21
-45.7573560000000015
0
LINE
8
BLACK
6
CONTINUOUS
10
127.4326349999999906
20
-45.7573560000000015
11
127.4389339999999891
21
-45.7613199999999978
0
LINE
8
BLACK
6
CONTINUOUS
10
127.4389339999999891
20
-45.7613199999999978
11
127.4407619999999923
21
-45.7620779999999954
0
LINE
8
BLACK
6
CONTINUOUS
10
127.4407619999999923
20
-45.7620779999999954
11
127.4428179999999884
21
-45.7637659999999968
0
LINE
8
BLACK
6
CONTINUOUS
10
127.4428179999999884
20
-45.7637659999999968
11
127.4450779999999952
21
-45.7651879999999949
0
LINE
8
BLACK
6
CONTINUOUS
10
127.4450779999999952
20
-45.7651879999999949
11
127.4463769999999982
21
-45.766686
0
LINE
8
BLACK
6
CONTINUOUS
10
127.4463769999999982
20
-45.766686
11
127.4521269999999902
21
-45.7714050000000015
0
LINE
8
BLACK
6
CONTINUOUS
10
127.4521269999999902
20
-45.7714050000000015
11
127.4997459999999876
21
-45.8190239999999989
0
LINE
8
BLACK
6
CONTINUOUS
10
127.4997459999999876
20
-45.8190239999999989
11
127.5090730000000008
21
-45.8303889999999967
0
LINE
8
BLACK
6
CONTINUOUS
10
127.5090730000000008
20
-45.8303889999999967
11
127.5202719999999914
21
-45.8574249999999992
0
LINE
8
BLACK
6
CONTINUOUS
10
127.5202719999999914
20
-45.8574249999999992
11
127.5202719999999914
21
-45.8866879999999995
0
LINE
8
BLACK
6
CONTINUOUS
10
127.5202719999999914
20
-45.8866879999999995
11
127.5090730000000008
21
-45.9137239999999949
0
LINE
8
BLACK
6
CONTINUOUS
10
127.5090730000000008
20
-45.9137239999999949
11
127.4883799999999923
21
-45.9344169999999963
0
LINE
8
BLACK
6
CONTINUOUS
10
127.4883799999999923
20
-45.9344169999999963
11
127.4613439999999969
21
-45.9456160000000011
0
LINE
8
BLACK
6
CONTINUOUS
10
127.4613439999999969
20
-45.9456160000000011
11
127.4320809999999966
21
-45.9456160000000011
0
LINE
8
BLACK
6
CONTINUOUS
10
127.4320809999999966
20
-45.9456160000000011
11
127.4050450000000012
21
-45.9344169999999963
0
LINE
8
BLACK
6
CONTINUOUS
10
127.4050450000000012
20
-45.9344169999999963
11
127.3936799999999891
21
-45.9250899999999973
0
LINE
8
BLACK
6
CONTINUOUS
10
127.3936799999999891
20
-45.9250899999999973
11
127.3546669999999921
21
-45.8860770000000002
0
LINE
8
BLACK
6
CONTINUOUS
10
127.3546669999999921
20
-45.8860770000000002
11
127.2861509999999896
21
-45.851818999999999
0
LINE
8
BLACK
6
CONTINUOUS
10
127.2861509999999896
20
-45.851818999999999
11
127.0834659999999872
21
-45.851818999999999
0
LINE
8
BLACK
6
CONTINUOUS
10
127.0834659999999872
20
-45.851818999999999
11
127.0149499999999989
21
-45.8860770000000002
0
LINE
8
BLACK
6
CONTINUOUS
10
127.0149499999999989
20
-45.8860770000000002
11
126.984542999999988
21
-45.916483999999997
0
LINE
8
BLACK
6
CONTINUOUS
10
126.984542999999988
20
-45.916483999999997
11
126.9502849999999938
21
-45.9849999999999994
0
LINE
8
BLACK
6
CONTINUOUS
10
126.9502849999999938
20
-45.9849999999999994
11
126.9502849999999938
21
-46.0503619999999998
0
LINE
8
BLACK
6
CONTINUOUS
10
126.9502849999999938
20
-46.0503619999999998
11
126.9884559999999993
21
-46.1648759999999996
0
LINE
8
BLACK
6
CONTINUOUS
10
126.9884559999999993
20
-46.1648759999999996
11
127.5473649999999992
21
-46.7237859999999969
0
LINE
8
BLACK
6
CONTINUOUS
10
127.5473649999999992
20
-46.7237859999999969
11
127.5566929999999957
21
-46.7351509999999948
0
LINE
8
BLACK
6
CONTINUOUS
10
127.5566929999999957
20
-46.7351509999999948
11
127.5678909999999888
21
-46.7621879999999948
0
LINE
8
BLACK
6
CONTINUOUS
10
127.5678909999999888
20
-46.7621879999999948
11
127.5678909999999888
21
-46.791450999999995
0
LINE
8
BLACK
6
CONTINUOUS
10
127.5678909999999888
20
-46.791450999999995
11
127.5566919999999982
21
-46.8184869999999975
0
LINE
8
BLACK
6
CONTINUOUS
10
127.5566919999999982
20
-46.8184869999999975
11
127.5359999999999872
21
-46.8391799999999989
0
LINE
8
BLACK
6
CONTINUOUS
10
127.5359999999999872
20
-46.8391799999999989
11
127.5208079999999882
21
-46.8454720000000009
0
LINE
8
BLACK
6
CONTINUOUS
10
127.5208079999999882
20
-46.8454720000000009
11
127.5089639999999918
21
-46.8503779999999992
0
LINE
8
BLACK
6
CONTINUOUS
10
127.5089639999999918
20
-46.8503779999999992
11
127.494332
21
-46.851818999999999
0
LINE
8
BLACK
6
CONTINUOUS
10
127.494332
20
-46.851818999999999
11
126.875284999999991
21
-46.851818999999999
0
LINE
8
BLACK
6
CONTINUOUS
10
126.875284999999991
20
-46.851818999999999
11
126.8606529999999992
21
-46.8503779999999992
0
LINE
8
BLACK
6
CONTINUOUS
10
126.8606529999999992
20
-46.8503779999999992
11
126.8336169999999896
21
-46.8391789999999943
0
LINE
8
BLACK
6
CONTINUOUS
10
126.8336169999999896
20
-46.8391789999999943
11
126.8129249999999928
21
-46.8184869999999975
0
LINE
8
BLACK
6
CONTINUOUS
10
126.8129249999999928
20
-46.8184869999999975
11
126.8017259999999879
21
-46.791450999999995
0
LINE
8
BLACK
6
CONTINUOUS
10
126.8017259999999879
20
-46.791450999999995
11
126.8017259999999879
21
-46.7621869999999973
0
LINE
8
BLACK
6
CONTINUOUS
10
126.8017259999999879
20
-46.7621869999999973
11
126.8129249999999928
21
-46.7351509999999948
0
LINE
8
BLACK
6
CONTINUOUS
10
126.8129249999999928
20
-46.7351509999999948
11
126.8336169999999896
21
-46.714458999999998
0
LINE
8
BLACK
6
CONTINUOUS
10
126.8336169999999896
20
-46.714458999999998
11
126.8606529999999992
21
-46.7032600000000002
0
LINE
8
BLACK
6
CONTINUOUS
10
126.8606529999999992
20
-46.7032600000000002
11
126.875284999999991
21
-46.7018190000000004
0
LINE
8
BLACK
6
CONTINUOUS
10
126.875284999999991
20
-46.7018190000000004
11
127.3132659999999987
21
-46.7018190000000004
0
LINE
8
BLACK
6
CONTINUOUS
10
127.3132659999999987
20
-46.7018190000000004
11
126.8698709999999892
21
-46.2584230000000005
0
LINE
8
BLACK
6
CONTINUOUS
10
126.8698709999999892
20
-46.2584230000000005
11
126.8605439999999902
21
-46.2470579999999956
0
LINE
8
BLACK
6
CONTINUOUS
10
126.8605439999999902
20
-46.2470579999999956
11
126.8595119999999952
21
-46.2445669999999964
0
LINE
8
BLACK
6
CONTINUOUS
10
126.8595119999999952
20
-46.2445669999999964
11
126.8577469999999892
21
-46.2425319999999971
0
LINE
8
BLACK
6
CONTINUOUS
10
126.8577469999999892
20
-46.2425319999999971
11
126.851752999999988
21
-46.2291069999999991
0
LINE
8
BLACK
6
CONTINUOUS
10
126.851752999999988
20
-46.2291069999999991
11
126.8041339999999906
21
-46.0862499999999997
0
LINE
8
BLACK
6
CONTINUOUS
10
126.8041339999999906
20
-46.0862499999999997
11
126.8024839999999926
21
-46.0789959999999965
0
LINE
8
BLACK
6
CONTINUOUS
10
126.8024839999999926
20
-46.0789959999999965
11
126.8017259999999879
21
-46.0771650000000008
0
LINE
8
BLACK
6
CONTINUOUS
10
126.8017259999999879
20
-46.0771650000000008
11
126.8014639999999957
21
-46.0745099999999965
0
LINE
8
BLACK
6
CONTINUOUS
10
126.8014639999999957
20
-46.0745099999999965
11
126.8008739999999932
21
-46.071912999999995
0
LINE
8
BLACK
6
CONTINUOUS
10
126.8008739999999932
20
-46.071912999999995
11
126.801013999999995
21
-46.0699380000000005
0
LINE
8
BLACK
6
CONTINUOUS
10
126.801013999999995
20
-46.0699380000000005
11
126.8002849999999881
21
-46.0625329999999948
0
LINE
8
BLACK
6
CONTINUOUS
10
126.8002849999999881
20
-46.0625329999999948
11
126.8002849999999881
21
-45.967295
0
LINE
8
BLACK
6
CONTINUOUS
10
126.8002849999999881
20
-45.967295
11
126.8017259999999879
21
-45.9526630000000011
0
LINE
8
BLACK
6
CONTINUOUS
10
126.8017259999999879
20
-45.9526630000000011
11
126.8027569999999997
21
-45.9501729999999995
0
LINE
8
BLACK
6
CONTINUOUS
10
126.8027569999999997
20
-45.9501729999999995
11
126.8029480000000007
21
-45.9474859999999978
0
LINE
8
BLACK
6
CONTINUOUS
10
126.8029480000000007
20
-45.9474859999999978
11
126.8082029999999918
21
-45.9337540000000004
0
LINE
8
BLACK
6
CONTINUOUS
10
126.8082029999999918
20
-45.9337540000000004
11
126.8558219999999892
21
-45.8385159999999985
0
LINE
8
BLACK
6
CONTINUOUS
10
126.8558219999999892
20
-45.8385159999999985
11
126.8597859999999997
21
-45.8322159999999954
0
LINE
8
BLACK
6
CONTINUOUS
10
126.8597859999999997
20
-45.8322159999999954
11
126.8605439999999902
21
-45.8303889999999967
0
LINE
8
BLACK
6
CONTINUOUS
10
126.8605439999999902
20
-45.8303889999999967
11
126.8622319999999917
21
-45.8283319999999961
0
LINE
8
BLACK
6
CONTINUOUS
10
126.8622319999999917
20
-45.8283319999999961
11
126.8636539999999968
21
-45.8260730000000009
0
LINE
8
BLACK
6
CONTINUOUS
10
126.8636539999999968
20
-45.8260730000000009
11
126.8651519999999948
21
-45.8247730000000004
0
LINE
8
BLACK
6
CONTINUOUS
10
126.8651519999999948
20
-45.8247730000000004
11
126.8698709999999892
21
-45.8190239999999989
0
LINE
8
BLACK
6
CONTINUOUS
10
126.8698709999999892
20
-45.8190239999999989
11
126.9174900000000008
21
-45.7714050000000015
0
LINE
8
BLACK
6
CONTINUOUS
10
126.9174900000000008
20
-45.7714050000000015
11
126.9232389999999953
21
-45.766686
0
LINE
8
BLACK
6
CONTINUOUS
10
126.9232389999999953
20
-45.766686
11
126.9245389999999958
21
-45.7651879999999949
0
LINE
8
BLACK
6
CONTINUOUS
10
126.9245389999999958
20
-45.7651879999999949
11
126.9267979999999909
21
-45.7637659999999968
0
LINE
8
BLACK
6
CONTINUOUS
10
126.9267979999999909
20
-45.7637659999999968
11
126.9288549999999987
21
-45.7620779999999954
0
LINE
8
BLACK
6
CONTINUOUS
10
126.9288549999999987
20
-45.7620779999999954
11
126.9306819999999902
21
-45.7613199999999978
0
LINE
8
BLACK
6
CONTINUOUS
10
126.9306819999999902
20
-45.7613199999999978
11
126.9369820000000004
21
-45.7573560000000015
0
LINE
8
BLACK
6
CONTINUOUS
10
126.9369820000000004
20
-45.7573560000000015
11
127.0322199999999953
21
-45.709736999999997
0
LINE
8
BLACK
6
CONTINUOUS
10
127.0322199999999953
20
-45.709736999999997
11
127.0459509999999881
21
-45.7044819999999987
0
LINE
8
BLACK
6
CONTINUOUS
10
127.0459509999999881
20
-45.7044819999999987
11
127.0486399999999918
21
-45.7042900000000003
0
LINE
8
BLACK
6
CONTINUOUS
10
127.0486399999999918
20
-45.7042900000000003
11
127.0511289999999889
21
-45.7032600000000002
0
LINE
8
BLACK
6
CONTINUOUS
10
127.0511289999999889
20
-45.7032600000000002
11
127.0657609999999949
21
-45.7018190000000004
0
LINE
8
BLACK
6
CONTINUOUS
10
127.0657609999999949
20
-45.7018190000000004
11
127.3038559999999961
21
-45.7018190000000004
0
LINE
8
BLACK
6
CONTINUOUS
10
127.3038559999999961
20
-45.7018190000000004
11
127.3184879999999879
21
-45.7032600000000002
0
LINE
8
BLACK
6
CONTINUOUS
10
128.4137259999999969
20
-45.7032600000000002
11
128.4407620000000065
21
-45.714458999999998
0
LINE
8
BLACK
6
CONTINUOUS
10
128.4407620000000065
20
-45.714458999999998
11
128.4614540000000034
21
-45.7351509999999948
0
LINE
8
BLACK
6
CONTINUOUS
10
128.4614540000000034
20
-45.7351509999999948
11
128.4726530000000082
21
-45.7621869999999973
0
LINE
8
BLACK
6
CONTINUOUS
10
128.4726530000000082
20
-45.7621869999999973
11
128.474094000000008
21
-45.7768189999999962
0
LINE
8
BLACK
6
CONTINUOUS
10
128.474094000000008
20
-45.7768189999999962
11
128.474094000000008
21
-46.7768189999999962
0
LINE
8
BLACK
6
CONTINUOUS
10
128.474094000000008
20
-46.7768189999999962
11
128.4726530000000082
21
-46.791450999999995
0
LINE
8
BLACK
6
CONTINUOUS
10
128.4726530000000082
20
-46.791450999999995
11
128.4614540000000034
21
-46.8184869999999975
0
LINE
8
BLACK
6
CONTINUOUS
10
128.4614540000000034
20
-46.8184869999999975
11
128.4407620000000065
21
-46.8391789999999943
0
LINE
8
BLACK
6
CONTINUOUS
10
128.4407620000000065
20
-46.8391789999999943
11
128.4137259999999969
21
-46.8503779999999992
0
LINE
8
BLACK
6
CONTINUOUS
10
128.4137259999999969
20
-46.8503779999999992
11
128.384461999999985
21
-46.8503779999999992
0
LINE
8
BLACK
6
CONTINUOUS
10
128.384461999999985
20
-46.8503779999999992
11
128.3574260000000038
21
-46.8391789999999943
0
LINE
8
BLACK
6
CONTINUOUS
10
128.3574260000000038
20
-46.8391789999999943
11
128.336734000000007
21
-46.8184869999999975
0
LINE
8
BLACK
6
CONTINUOUS
10
128.336734000000007
20
-46.8184869999999975
11
128.3255350000000021
21
-46.791450999999995
0
LINE
8
BLACK
6
CONTINUOUS
10
128.3255350000000021
20
-46.791450999999995
11
128.3240940000000023
21
-46.7768189999999962
0
LINE
8
BLACK
6
CONTINUOUS
10
128.3240940000000023
20
-46.7768189999999962
11
128.3240940000000023
21
-46.375627999999999
0
LINE
8
BLACK
6
CONTINUOUS
10
128.3240940000000023
20
-46.375627999999999
11
128.2000479999999811
21
-46.375627999999999
0
LINE
8
BLACK
6
CONTINUOUS
10
128.2000479999999811
20
-46.375627999999999
11
127.8891079999999931
21
-46.8198289999999986
0
LINE
8
BLACK
6
CONTINUOUS
10
127.8891079999999931
20
-46.8198289999999986
11
127.8795369999999991
21
-46.8309889999999953
0
LINE
8
BLACK
6
CONTINUOUS
10
127.8795369999999991
20
-46.8309889999999953
11
127.854857999999993
21
-46.8467160000000007
0
LINE
8
BLACK
6
CONTINUOUS
10
127.854857999999993
20
-46.8467160000000007
11
127.8260409999999894
21
-46.8518009999999947
0
LINE
8
BLACK
6
CONTINUOUS
10
127.8260409999999894
20
-46.8518009999999947
11
127.7974699999999899
21
-46.8454720000000009
0
LINE
8
BLACK
6
CONTINUOUS
10
127.7974699999999899
20
-46.8454720000000009
11
127.7734959999999944
21
-46.8286899999999946
0
LINE
8
BLACK
6
CONTINUOUS
10
127.7734959999999944
20
-46.8286899999999946
11
127.7577689999999961
21
-46.8040109999999956
0
LINE
8
BLACK
6
CONTINUOUS
10
127.7577689999999961
20
-46.8040109999999956
11
127.7526839999999879
21
-46.7751939999999991
0
LINE
8
BLACK
6
CONTINUOUS
10
127.7526839999999879
20
-46.7751939999999991
11
127.7590129999999959
21
-46.7466229999999996
0
LINE
8
BLACK
6
CONTINUOUS
10
127.7590129999999959
20
-46.7466229999999996
11
127.766223999999994
21
-46.7338090000000008
0
LINE
8
BLACK
6
CONTINUOUS
10
127.766223999999994
20
-46.7338090000000008
11
128.0170269999999846
21
-46.3755179999999996
0
LINE
8
BLACK
6
CONTINUOUS
10
128.0170269999999846
20
-46.3755179999999996
11
128.0035100000000057
21
-46.3741869999999992
0
LINE
8
BLACK
6
CONTINUOUS
10
128.0035100000000057
20
-46.3741869999999992
11
128.0010209999999802
21
-46.3731559999999945
0
LINE
8
BLACK
6
CONTINUOUS
10
128.0010209999999802
20
-46.3731559999999945
11
127.9983319999999907
21
-46.3729650000000007
0
LINE
8
BLACK
6
CONTINUOUS
10
127.9983319999999907
20
-46.3729650000000007
11
127.9846009999999978
21
-46.3677099999999953
0
LINE
8
BLACK
6
CONTINUOUS
10
127.9846009999999978
20
-46.3677099999999953
11
127.8893629999999888
21
-46.3200909999999979
0
LINE
8
BLACK
6
CONTINUOUS
10
127.8893629999999888
20
-46.3200909999999979
11
127.8830629999999928
21
-46.316125999999997
0
LINE
8
BLACK
6
CONTINUOUS
10
127.8830629999999928
20
-46.316125999999997
11
127.8812360000000012
21
-46.3153689999999969
0
LINE
8
BLACK
6
CONTINUOUS
10
127.8812360000000012
20
-46.3153689999999969
11
127.8791789999999935
21
-46.313679999999998
0
LINE
8
BLACK
6
CONTINUOUS
10
127.8791789999999935
20
-46.313679999999998
11
127.8769199999999984
21
-46.3122589999999974
0
LINE
8
BLACK
6
CONTINUOUS
10
127.8769199999999984
20
-46.3122589999999974
11
127.8756199999999978
21
-46.3107599999999948
0
LINE
8
BLACK
6
CONTINUOUS
10
127.8756199999999978
20
-46.3107599999999948
11
127.8698709999999892
21
-46.3060419999999979
0
LINE
8
BLACK
6
CONTINUOUS
10
127.8698709999999892
20
-46.3060419999999979
11
127.8222519999999918
21
-46.2584230000000005
0
LINE
8
BLACK
6
CONTINUOUS
10
127.8222519999999918
20
-46.2584230000000005
11
127.8175329999999974
21
-46.2526729999999944
0
LINE
8
BLACK
6
CONTINUOUS
10
127.8175329999999974
20
-46.2526729999999944
11
127.8160349999999994
21
-46.2513739999999984
0
LINE
8
BLACK
6
CONTINUOUS
10
127.8160349999999994
20
-46.2513739999999984
11
127.8146129999999943
21
-46.2491139999999987
0
LINE
8
BLACK
6
CONTINUOUS
10
127.8146129999999943
20
-46.2491139999999987
11
127.8129249999999928
21
-46.2470579999999956
0
LINE
8
BLACK
6
CONTINUOUS
10
127.8129249999999928
20
-46.2470579999999956
11
127.8121669999999881
21
-46.2452299999999994
0
LINE
8
BLACK
6
CONTINUOUS
10
127.8121669999999881
20
-46.2452299999999994
11
127.8082029999999918
21
-46.2389310000000009
0
LINE
8
BLACK
6
CONTINUOUS
10
127.8082029999999918
20
-46.2389310000000009
11
127.7605839999999944
21
-46.143692999999999
0
LINE
8
BLACK
6
CONTINUOUS
10
127.7605839999999944
20
-46.143692999999999
11
127.755328999999989
21
-46.1299609999999944
0
LINE
8
BLACK
6
CONTINUOUS
10
127.755328999999989
20
-46.1299609999999944
11
127.7551379999999881
21
-46.1272729999999953
0
LINE
8
BLACK
6
CONTINUOUS
10
127.7551379999999881
20
-46.1272729999999953
11
127.7541069999999905
21
-46.1247839999999982
0
LINE
8
BLACK
6
CONTINUOUS
10
127.7541069999999905
20
-46.1247839999999982
11
127.7526659999999907
21
-46.1101519999999994
0
LINE
8
BLACK
6
CONTINUOUS
10
127.7526659999999907
20
-46.1101519999999994
11
127.7526659999999907
21
-45.967295
0
LINE
8
BLACK
6
CONTINUOUS
10
127.7526659999999907
20
-45.967295
11
127.7541069999999905
21
-45.9526630000000011
0
LINE
8
BLACK
6
CONTINUOUS
10
127.7541069999999905
20
-45.9526630000000011
11
127.7551379999999881
21
-45.9501729999999995
0
LINE
8
BLACK
6
CONTINUOUS
10
127.7551379999999881
20
-45.9501729999999995
11
127.755328999999989
21
-45.9474859999999978
0
LINE
8
BLACK
6
CONTINUOUS
10
127.755328999999989
20
-45.9474859999999978
11
127.7605839999999944
21
-45.9337540000000004
0
LINE
8
BLACK
6
CONTINUOUS
10
127.7605839999999944
20
-45.9337540000000004
11
127.8082029999999918
21
-45.8385159999999985
0
LINE
8
BLACK
6
CONTINUOUS
10
127.8082029999999918
20
-45.8385159999999985
11
127.8121669999999881
21
-45.8322159999999954
0
LINE
8
BLACK
6
CONTINUOUS
10
127.8121669999999881
20
-45.8322159999999954
11
127.8129249999999928
21
-45.8303889999999967
0
LINE
8
BLACK
6
CONTINUOUS
10
127.8129249999999928
20
-45.8303889999999967
11
127.8146129999999943
21
-45.8283319999999961
0
LINE
8
BLACK
6
CONTINUOUS
10
127.8146129999999943
20
-45.8283319999999961
11
127.8160349999999994
21
-45.8260730000000009
0
LINE
8
BLACK
6
CONTINUOUS
10
127.8160349999999994
20
-45.8260730000000009
11
127.8175329999999974
21
-45.8247730000000004
0
LINE
8
BLACK
6
CONTINUOUS
10
127.8175329999999974
20
-45.8247730000000004
11
127.8222519999999918
21
-45.8190239999999989
0
LINE
8
BLACK
6
CONTINUOUS
10
127.8222519999999918
20
-45.8190239999999989
11
127.8698709999999892
21
-45.7714050000000015
0
LINE
8
BLACK
6
CONTINUOUS
10
127.8698709999999892
20
-45.7714050000000015
11
127.8756199999999978
21
-45.766686
0
LINE
8
BLACK
6
CONTINUOUS
10
127.8756199999999978
20
-45.766686
11
127.8769199999999984
21
-45.7651879999999949
0
LINE
8
BLACK
6
CONTINUOUS
10
127.8769199999999984
20
-45.7651879999999949
11
127.8791789999999935
21
-45.7637659999999968
0
LINE
8
BLACK
6
CONTINUOUS
10
127.8791789999999935
20
-45.7637659999999968
11
127.8812360000000012
21
-45.7620779999999954
0
LINE
8
BLACK
6
CONTINUOUS
10
127.8812360000000012
20
-45.7620779999999954
11
127.8830629999999928
21
-45.7613199999999978
0
LINE
8
BLACK
6
CONTINUOUS
10
127.8830629999999928
20
-45.7613199999999978
11
127.8893629999999888
21
-45.7573560000000015
0
LINE
8
BLACK
6
CONTINUOUS
10
127.8893629999999888
20
-45.7573560000000015
11
127.9846009999999978
21
-45.709736999999997
0
LINE
8
BLACK
6
CONTINUOUS
10
127.9846009999999978
20
-45.709736999999997
11
127.9983319999999907
21
-45.7044819999999987
0
LINE
8
BLACK
6
CONTINUOUS
10
127.9983319999999907
20
-45.7044819999999987
11
128.0010209999999802
21
-45.7042900000000003
0
LINE
8
BLACK
6
CONTINUOUS
10
128.0010209999999802
20
-45.7042900000000003
11
128.0035100000000057
21
-45.7032600000000002
0
LINE
8
BLACK
6
CONTINUOUS
10
128.0035100000000057
20
-45.7032600000000002
11
128.0181419999999832
21
-45.7018190000000004
0
LINE
8
BLACK
6
CONTINUOUS
10
128.0181419999999832
20
-45.7018190000000004
11
128.399093999999991
21
-45.7018190000000004
0
LINE
8
BLACK
6
CONTINUOUS
10
128.399093999999991
20
-45.7018190000000004
11
128.4137259999999969
21
-45.7032600000000002
0
LINE
8
BLACK
6
CONTINUOUS
10
127.9673309999999873
20
-45.8860770000000002
11
127.9369239999999905
21
-45.916483999999997
0
LINE
8
BLACK
6
CONTINUOUS
10
127.9369239999999905
20
-45.916483999999997
11
127.9026659999999964
21
-45.9849999999999994
0
LINE
8
BLACK
6
CONTINUOUS
10
127.9026659999999964
20
-45.9849999999999994
11
127.9026659999999964
21
-46.0924469999999999
0
LINE
8
BLACK
6
CONTINUOUS
10
127.9026659999999964
20
-46.0924469999999999
11
127.9369239999999905
21
-46.1609629999999953
0
LINE
8
BLACK
6
CONTINUOUS
10
127.9369239999999905
20
-46.1609629999999953
11
127.9673309999999873
21
-46.1913699999999992
0
LINE
8
BLACK
6
CONTINUOUS
10
127.9673309999999873
20
-46.1913699999999992
11
128.0358469999999897
21
-46.2256280000000004
0
LINE
8
BLACK
6
CONTINUOUS
10
128.0358469999999897
20
-46.2256280000000004
11
128.3240940000000023
21
-46.2256280000000004
0
LINE
8
BLACK
6
CONTINUOUS
10
128.3240940000000023
20
-46.2256280000000004
11
128.3240940000000023
21
-45.851818999999999
0
LINE
8
BLACK
6
CONTINUOUS
10
128.3240940000000023
20
-45.851818999999999
11
128.0358469999999897
21
-45.851818999999999
0
LINE
8
BLACK
6
CONTINUOUS
10
128.0358469999999897
20
-45.851818999999999
11
127.9673309999999873
21
-45.8860770000000002
0
LINE
8
BLACK
6
CONTINUOUS
10
132.296007000000003
20
-45.609259999999999
11
132.3033549999999821
21
-45.609259999999999
0
LINE
8
BLACK
6
CONTINUOUS
10
132.3033549999999821
20
-45.609259999999999
11
132.3102149999999995
21
-45.6121009999999956
0
LINE
8
BLACK
6
CONTINUOUS
10
132.3102149999999995
20
-45.6121009999999956
11
132.3174960000000056
21
-45.6135579999999976
0
LINE
8
BLACK
6
CONTINUOUS
10
132.3174960000000056
20
-45.6135579999999976
11
132.3236009999999965
21
-45.6176460000000006
0
LINE
8
BLACK
6
CONTINUOUS
10
132.3236009999999965
20
-45.6176460000000006
11
132.3303909999999917
21
-45.6204589999999968
0
LINE
8
BLACK
6
CONTINUOUS
10
132.3303909999999917
20
-45.6204589999999968
11
132.3356409999999812
21
-45.6257090000000005
0
LINE
8
BLACK
6
CONTINUOUS
10
132.3356409999999812
20
-45.6257090000000005
11
132.341811000000007
21
-45.629840999999999
0
LINE
8
BLACK
6
CONTINUOUS
10
132.341811000000007
20
-45.629840999999999
11
132.3510310000000061
21
-45.641098999999997
0
LINE
8
BLACK
6
CONTINUOUS
10
132.3510310000000061
20
-45.641098999999997
11
132.3510829999999885
21
-45.6411510000000007
0
LINE
8
BLACK
6
CONTINUOUS
10
132.3510829999999885
20
-45.6411510000000007
11
132.3510919999999942
21
-45.6411729999999949
0
LINE
8
BLACK
6
CONTINUOUS
10
132.3510919999999942
20
-45.6411729999999949
11
132.3511269999999911
21
-45.641216
0
LINE
8
BLACK
6
CONTINUOUS
10
132.3511269999999911
20
-45.641216
11
132.4422449999999856
21
-45.7778939999999963
0
LINE
8
BLACK
6
CONTINUOUS
10
132.4422449999999856
20
-45.7778939999999963
11
132.5236260000000073
21
-45.8592749999999967
0
LINE
8
BLACK
6
CONTINUOUS
10
132.5236260000000073
20
-45.8592749999999967
11
132.6079780000000028
21
-45.9014509999999945
0
LINE
8
BLACK
6
CONTINUOUS
10
132.6079780000000028
20
-45.9014509999999945
11
132.6204209999999932
21
-45.909282999999995
0
LINE
8
BLACK
6
CONTINUOUS
10
132.6204209999999932
20
-45.909282999999995
11
132.6395939999999882
21
-45.9313909999999979
0
LINE
8
BLACK
6
CONTINUOUS
10
132.6395939999999882
20
-45.9313909999999979
11
132.6488479999999868
21
-45.959151999999996
0
LINE
8
BLACK
6
CONTINUOUS
10
132.6488479999999868
20
-45.959151999999996
11
132.6467739999999935
21
-45.9883419999999958
0
LINE
8
BLACK
6
CONTINUOUS
10
132.6467739999999935
20
-45.9883419999999958
11
132.6336859999999831
21
-46.0145169999999979
0
LINE
8
BLACK
6
CONTINUOUS
10
132.6336859999999831
20
-46.0145169999999979
11
132.6115790000000061
21
-46.03369
0
LINE
8
BLACK
6
CONTINUOUS
10
132.6115790000000061
20
-46.03369
11
132.583816999999982
21
-46.0429439999999985
0
LINE
8
BLACK
6
CONTINUOUS
10
132.583816999999982
20
-46.0429439999999985
11
132.5546269999999822
21
-46.0408699999999982
0
LINE
8
BLACK
6
CONTINUOUS
10
132.5546269999999822
20
-46.0408699999999982
11
132.5408960000000036
21
-46.035615
0
LINE
8
BLACK
6
CONTINUOUS
10
132.5408960000000036
20
-46.035615
11
132.4456579999999803
21
-45.9879959999999954
0
LINE
8
BLACK
6
CONTINUOUS
10
132.4456579999999803
20
-45.9879959999999954
11
132.439362999999986
21
-45.9840329999999966
0
LINE
8
BLACK
6
CONTINUOUS
10
132.439362999999986
20
-45.9840329999999966
11
132.437531000000007
21
-45.983274999999999
0
LINE
8
BLACK
6
CONTINUOUS
10
132.437531000000007
20
-45.983274999999999
11
132.4354689999999835
21
-45.9815830000000005
0
LINE
8
BLACK
6
CONTINUOUS
10
132.4354689999999835
20
-45.9815830000000005
11
132.4332149999999899
21
-45.9801639999999949
0
LINE
8
BLACK
6
CONTINUOUS
10
132.4332149999999899
20
-45.9801639999999949
11
132.4319160000000011
21
-45.9786669999999944
0
LINE
8
BLACK
6
CONTINUOUS
10
132.4319160000000011
20
-45.9786669999999944
11
132.4261659999999949
21
-45.9739469999999955
0
LINE
8
BLACK
6
CONTINUOUS
10
132.4261659999999949
20
-45.9739469999999955
11
132.3637229999999931
21
-45.9115040000000008
0
LINE
8
BLACK
6
CONTINUOUS
10
132.3637229999999931
20
-45.9115040000000008
11
132.3637229999999931
21
-46.6078189999999992
0
LINE
8
BLACK
6
CONTINUOUS
10
132.3637229999999931
20
-46.6078189999999992
11
132.574436999999989
21
-46.6078189999999992
0
LINE
8
BLACK
6
CONTINUOUS
10
132.574436999999989
20
-46.6078189999999992
11
132.589068999999995
21
-46.609259999999999
0
LINE
8
BLACK
6
CONTINUOUS
10
132.589068999999995
20
-46.609259999999999
11
132.6161050000000046
21
-46.6204589999999968
0
LINE
8
BLACK
6
CONTINUOUS
10
132.6161050000000046
20
-46.6204589999999968
11
132.6367970000000014
21
-46.6411510000000007
0
LINE
8
BLACK
6
CONTINUOUS
10
132.6367970000000014
20
-46.6411510000000007
11
132.6479960000000062
21
-46.6681869999999961
0
LINE
8
BLACK
6
CONTINUOUS
10
132.6479960000000062
20
-46.6681869999999961
11
132.6479960000000062
21
-46.6974510000000009
0
LINE
8
BLACK
6
CONTINUOUS
10
132.6479960000000062
20
-46.6974510000000009
11
132.6367970000000014
21
-46.7244869999999963
0
LINE
8
BLACK
6
CONTINUOUS
10
132.6367970000000014
20
-46.7244869999999963
11
132.6161050000000046
21
-46.7451790000000003
0
LINE
8
BLACK
6
CONTINUOUS
10
132.6161050000000046
20
-46.7451790000000003
11
132.589068999999995
21
-46.756377999999998
0
LINE
8
BLACK
6
CONTINUOUS
10
132.589068999999995
20
-46.756377999999998
11
132.574436999999989
21
-46.7578189999999978
0
LINE
8
BLACK
6
CONTINUOUS
10
132.574436999999989
20
-46.7578189999999978
11
132.0030089999999916
21
-46.7578189999999978
0
LINE
8
BLACK
6
CONTINUOUS
10
132.0030089999999916
20
-46.7578189999999978
11
131.9883769999999856
21
-46.756377999999998
0
LINE
8
BLACK
6
CONTINUOUS
10
131.9883769999999856
20
-46.756377999999998
11
131.9613410000000044
21
-46.7451790000000003
0
LINE
8
BLACK
6
CONTINUOUS
10
131.9613410000000044
20
-46.7451790000000003
11
131.9406490000000076
21
-46.7244869999999963
0
LINE
8
BLACK
6
CONTINUOUS
10
131.9406490000000076
20
-46.7244869999999963
11
131.9294500000000028
21
-46.6974510000000009
0
LINE
8
BLACK
6
CONTINUOUS
10
131.9294500000000028
20
-46.6974510000000009
11
131.9294500000000028
21
-46.6681869999999961
0
LINE
8
BLACK
6
CONTINUOUS
10
131.9294500000000028
20
-46.6681869999999961
11
131.9406490000000076
21
-46.6411510000000007
0
LINE
8
BLACK
6
CONTINUOUS
10
131.9406490000000076
20
-46.6411510000000007
11
131.9613410000000044
21
-46.6204589999999968
0
LINE
8
BLACK
6
CONTINUOUS
10
131.9613410000000044
20
-46.6204589999999968
11
131.9883769999999856
21
-46.609259999999999
0
LINE
8
BLACK
6
CONTINUOUS
10
131.9883769999999856
20
-46.609259999999999
11
132.0030089999999916
21
-46.6078189999999992
0
LINE
8
BLACK
6
CONTINUOUS
10
132.0030089999999916
20
-46.6078189999999992
11
132.2137229999999875
21
-46.6078189999999992
0
LINE
8
BLACK
6
CONTINUOUS
10
132.2137229999999875
20
-46.6078189999999992
11
132.2137229999999875
21
-45.682818999999995
0
LINE
8
BLACK
6
CONTINUOUS
10
132.2137229999999875
20
-45.682818999999995
11
132.2137280000000032
21
-45.6827660000000009
0
LINE
8
BLACK
6
CONTINUOUS
10
132.2137280000000032
20
-45.6827660000000009
11
132.2137229999999875
21
-45.6827399999999955
0
LINE
8
BLACK
6
CONTINUOUS
10
132.2137229999999875
20
-45.6827399999999955
11
132.2137380000000064
21
-45.682662999999998
0
LINE
8
BLACK
6
CONTINUOUS
10
132.2137380000000064
20
-45.682662999999998
11
132.2151639999999873
21
-45.6681869999999961
0
LINE
8
BLACK
6
CONTINUOUS
10
132.2151639999999873
20
-45.6681869999999961
11
132.2180050000000051
21
-45.6613259999999954
0
LINE
8
BLACK
6
CONTINUOUS
10
132.2180050000000051
20
-45.6613259999999954
11
132.2194619999999929
21
-45.654046000000001
0
LINE
8
BLACK
6
CONTINUOUS
10
132.2194619999999929
20
-45.654046000000001
11
132.2235499999999888
21
-45.6479399999999984
0
LINE
8
BLACK
6
CONTINUOUS
10
132.2235499999999888
20
-45.6479399999999984
11
132.2263629999999921
21
-45.6411510000000007
0
LINE
8
BLACK
6
CONTINUOUS
10
132.2263629999999921
20
-45.6411510000000007
11
132.2316129999999816
21
-45.6358999999999995
0
LINE
8
BLACK
6
CONTINUOUS
10
132.2316129999999816
20
-45.6358999999999995
11
132.2357449999999801
21
-45.6297309999999996
0
LINE
8
BLACK
6
CONTINUOUS
10
132.2357449999999801
20
-45.6297309999999996
11
132.2418590000000052
21
-45.6256539999999973
0
LINE
8
BLACK
6
CONTINUOUS
10
132.2418590000000052
20
-45.6256539999999973
11
132.2470549999999889
21
-45.6204589999999968
0
LINE
8
BLACK
6
CONTINUOUS
10
132.2470549999999889
20
-45.6204589999999968
11
132.2539150000000063
21
-45.6176169999999956
0
LINE
8
BLACK
6
CONTINUOUS
10
132.2539150000000063
20
-45.6176169999999956
11
132.260093999999981
21
-45.6134979999999999
0
LINE
8
BLACK
6
CONTINUOUS
10
132.260093999999981
20
-45.6134979999999999
11
132.2673020000000008
21
-45.6120719999999977
0
LINE
8
BLACK
6
CONTINUOUS
10
132.2673020000000008
20
-45.6120719999999977
11
132.2740909999999985
21
-45.609259999999999
0
LINE
8
BLACK
6
CONTINUOUS
10
132.2740909999999985
20
-45.609259999999999
11
132.2815180000000055
21
-45.609259999999999
0
LINE
8
BLACK
6
CONTINUOUS
10
132.2815180000000055
20
-45.609259999999999
11
132.288802000000004
21
-45.6078189999999992
0
LINE
8
BLACK
6
CONTINUOUS
10
132.288802000000004
20
-45.6078189999999992
11
132.296007000000003
21
-45.609259999999999
0
LINE
8
BLACK
6
CONTINUOUS
10
133.5414499999999975
20
-45.609259999999999
11
133.5684860000000072
21
-45.6204589999999968
0
LINE
8
BLACK
6
CONTINUOUS
10
133.5684860000000072
20
-45.6204589999999968
11
133.589178000000004
21
-45.6411510000000007
0
LINE
8
BLACK
6
CONTINUOUS
10
133.589178000000004
20
-45.6411510000000007
11
133.6003769999999804
21
-45.6681869999999961
0
LINE
8
BLACK
6
CONTINUOUS
10
133.6003769999999804
20
-45.6681869999999961
11
133.6018179999999802
21
-45.682818999999995
0
LINE
8
BLACK
6
CONTINUOUS
10
133.6018179999999802
20
-45.682818999999995
11
133.6018179999999802
21
-46.682818999999995
0
LINE
8
BLACK
6
CONTINUOUS
10
133.6018179999999802
20
-46.682818999999995
11
133.6003769999999804
21
-46.6974510000000009
0
LINE
8
BLACK
6
CONTINUOUS
10
133.6003769999999804
20
-46.6974510000000009
11
133.589178000000004
21
-46.7244869999999963
0
LINE
8
BLACK
6
CONTINUOUS
10
133.589178000000004
20
-46.7244869999999963
11
133.5684860000000072
21
-46.7451790000000003
0
LINE
8
BLACK
6
CONTINUOUS
10
133.5684860000000072
20
-46.7451790000000003
11
133.5414499999999975
21
-46.756377999999998
0
LINE
8
BLACK
6
CONTINUOUS
10
133.5414499999999975
20
-46.756377999999998
11
133.5121859999999856
21
-46.756377999999998
0
LINE
8
BLACK
6
CONTINUOUS
10
133.5121859999999856
20
-46.756377999999998
11
133.4851500000000044
21
-46.7451790000000003
0
LINE
8
BLACK
6
CONTINUOUS
10
133.4851500000000044
20
-46.7451790000000003
11
133.4644580000000076
21
-46.7244869999999963
0
LINE
8
BLACK
6
CONTINUOUS
10
133.4644580000000076
20
-46.7244869999999963
11
133.4532590000000027
21
-46.6974510000000009
0
LINE
8
BLACK
6
CONTINUOUS
10
133.4532590000000027
20
-46.6974510000000009
11
133.4518180000000029
21
-46.682818999999995
0
LINE
8
BLACK
6
CONTINUOUS
10
133.4518180000000029
20
-46.682818999999995
11
133.4518180000000029
21
-46.2816279999999978
0
LINE
8
BLACK
6
CONTINUOUS
10
133.4518180000000029
20
-46.2816279999999978
11
133.3277719999999817
21
-46.2816279999999978
0
LINE
8
BLACK
6
CONTINUOUS
10
133.3277719999999817
20
-46.2816279999999978
11
133.0168319999999937
21
-46.7258289999999974
0
LINE
8
BLACK
6
CONTINUOUS
10
133.0168319999999937
20
-46.7258289999999974
11
133.0072609999999997
21
-46.7369890000000012
0
LINE
8
BLACK
6
CONTINUOUS
10
133.0072609999999997
20
-46.7369890000000012
11
132.9825820000000078
21
-46.7527159999999995
0
LINE
8
BLACK
6
CONTINUOUS
10
132.9825820000000078
20
-46.7527159999999995
11
132.9537650000000042
21
-46.7578010000000006
0
LINE
8
BLACK
6
CONTINUOUS
10
132.9537650000000042
20
-46.7578010000000006
11
132.9251940000000047
21
-46.7514719999999997
0
LINE
8
BLACK
6
CONTINUOUS
10
132.9251940000000047
20
-46.7514719999999997
11
132.901219999999995
21
-46.7346900000000005
0
LINE
8
BLACK
6
CONTINUOUS
10
132.901219999999995
20
-46.7346900000000005
11
132.8854929999999968
21
-46.7100109999999944
0
LINE
8
BLACK
6
CONTINUOUS
10
132.8854929999999968
20
-46.7100109999999944
11
132.8804079999999885
21
-46.6811939999999979
0
LINE
8
BLACK
6
CONTINUOUS
10
132.8804079999999885
20
-46.6811939999999979
11
132.8867369999999823
21
-46.6526229999999984
0
LINE
8
BLACK
6
CONTINUOUS
10
132.8867369999999823
20
-46.6526229999999984
11
132.8939479999999946
21
-46.6398089999999996
0
LINE
8
BLACK
6
CONTINUOUS
10
132.8939479999999946
20
-46.6398089999999996
11
133.1447509999999852
21
-46.2815179999999984
0
LINE
8
BLACK
6
CONTINUOUS
10
133.1447509999999852
20
-46.2815179999999984
11
133.1312340000000063
21
-46.280186999999998
0
LINE
8
BLACK
6
CONTINUOUS
10
133.1312340000000063
20
-46.280186999999998
11
133.1287449999999808
21
-46.2791560000000004
0
LINE
8
BLACK
6
CONTINUOUS
10
133.1287449999999808
20
-46.2791560000000004
11
133.1260560000000055
21
-46.2789649999999995
0
LINE
8
BLACK
6
CONTINUOUS
10
133.1260560000000055
20
-46.2789649999999995
11
133.1123249999999985
21
-46.2737100000000012
0
LINE
8
BLACK
6
CONTINUOUS
10
133.1123249999999985
20
-46.2737100000000012
11
133.0170870000000036
21
-46.2260909999999967
0
LINE
8
BLACK
6
CONTINUOUS
10
133.0170870000000036
20
-46.2260909999999967
11
133.0107869999999934
21
-46.2221259999999958
0
LINE
8
BLACK
6
CONTINUOUS
10
133.0107869999999934
20
-46.2221259999999958
11
133.0089600000000019
21
-46.2213689999999957
0
LINE
8
BLACK
6
CONTINUOUS
10
133.0089600000000019
20
-46.2213689999999957
11
133.0069029999999941
21
-46.2196799999999968
0
LINE
8
BLACK
6
CONTINUOUS
10
133.0069029999999941
20
-46.2196799999999968
11
133.0046439999999848
21
-46.2182589999999962
0
LINE
8
BLACK
6
CONTINUOUS
10
133.0046439999999848
20
-46.2182589999999962
11
133.0033439999999985
21
-46.2167600000000007
0
LINE
8
BLACK
6
CONTINUOUS
10
133.0033439999999985
20
-46.2167600000000007
11
132.9975949999999898
21
-46.2120419999999967
0
LINE
8
BLACK
6
CONTINUOUS
10
132.9975949999999898
20
-46.2120419999999967
11
132.9499759999999924
21
-46.1644229999999993
0
LINE
8
BLACK
6
CONTINUOUS
10
132.9499759999999924
20
-46.1644229999999993
11
132.945256999999998
21
-46.1586730000000003
0
LINE
8
BLACK
6
CONTINUOUS
10
132.945256999999998
20
-46.1586730000000003
11
132.943759
21
-46.1573739999999972
0
LINE
8
BLACK
6
CONTINUOUS
10
132.943759
20
-46.1573739999999972
11
132.9423369999999807
21
-46.1551139999999975
0
LINE
8
BLACK
6
CONTINUOUS
10
132.9423369999999807
20
-46.1551139999999975
11
132.9406490000000076
21
-46.1530579999999944
0
LINE
8
BLACK
6
CONTINUOUS
10
132.9406490000000076
20
-46.1530579999999944
11
132.9398909999999887
21
-46.1512299999999982
0
LINE
8
BLACK
6
CONTINUOUS
10
132.9398909999999887
20
-46.1512299999999982
11
132.9359269999999924
21
-46.1449309999999997
0
LINE
8
BLACK
6
CONTINUOUS
10
132.9359269999999924
20
-46.1449309999999997
11
132.888307999999995
21
-46.0496929999999978
0
LINE
8
BLACK
6
CONTINUOUS
10
132.888307999999995
20
-46.0496929999999978
11
132.8830529999999897
21
-46.0359610000000004
0
LINE
8
BLACK
6
CONTINUOUS
10
132.8830529999999897
20
-46.0359610000000004
11
132.8828619999999887
21
-46.0332730000000012
0
LINE
8
BLACK
6
CONTINUOUS
10
132.8828619999999887
20
-46.0332730000000012
11
132.8818310000000054
21
-46.030783999999997
0
LINE
8
BLACK
6
CONTINUOUS
10
132.8818310000000054
20
-46.030783999999997
11
132.8803900000000056
21
-46.0161519999999982
0
LINE
8
BLACK
6
CONTINUOUS
10
132.8803900000000056
20
-46.0161519999999982
11
132.8803900000000056
21
-45.8732949999999988
0
LINE
8
BLACK
6
CONTINUOUS
10
132.8803900000000056
20
-45.8732949999999988
11
132.8818310000000054
21
-45.858663
0
LINE
8
BLACK
6
CONTINUOUS
10
132.8818310000000054
20
-45.858663
11
132.8828619999999887
21
-45.8561729999999983
0
LINE
8
BLACK
6
CONTINUOUS
10
132.8828619999999887
20
-45.8561729999999983
11
132.8830529999999897
21
-45.8534859999999966
0
LINE
8
BLACK
6
CONTINUOUS
10
132.8830529999999897
20
-45.8534859999999966
11
132.888307999999995
21
-45.8397539999999992
0
LINE
8
BLACK
6
CONTINUOUS
10
132.888307999999995
20
-45.8397539999999992
11
132.9359269999999924
21
-45.7445159999999973
0
LINE
8
BLACK
6
CONTINUOUS
10
132.9359269999999924
20
-45.7445159999999973
11
132.9398909999999887
21
-45.7382160000000013
0
LINE
8
BLACK
6
CONTINUOUS
10
132.9398909999999887
20
-45.7382160000000013
11
132.9406490000000076
21
-45.7363889999999955
0
LINE
8
BLACK
6
CONTINUOUS
10
132.9406490000000076
20
-45.7363889999999955
11
132.9423369999999807
21
-45.7343319999999949
0
LINE
8
BLACK
6
CONTINUOUS
10
132.9423369999999807
20
-45.7343319999999949
11
132.943759
21
-45.7320729999999998
0
LINE
8
BLACK
6
CONTINUOUS
10
132.943759
20
-45.7320729999999998
11
132.945256999999998
21
-45.7307729999999992
0
LINE
8
BLACK
6
CONTINUOUS
10
132.945256999999998
20
-45.7307729999999992
11
132.9499759999999924
21
-45.7250239999999977
0
LINE
8
BLACK
6
CONTINUOUS
10
132.9499759999999924
20
-45.7250239999999977
11
132.9975949999999898
21
-45.6774050000000003
0
LINE
8
BLACK
6
CONTINUOUS
10
132.9975949999999898
20
-45.6774050000000003
11
133.0033439999999985
21
-45.6726859999999988
0
LINE
8
BLACK
6
CONTINUOUS
10
133.0033439999999985
20
-45.6726859999999988
11
133.0046439999999848
21
-45.6711880000000008
0
LINE
8
BLACK
6
CONTINUOUS
10
133.0046439999999848
20
-45.6711880000000008
11
133.0069029999999941
21
-45.6697659999999956
0
LINE
8
BLACK
6
CONTINUOUS
10
133.0069029999999941
20
-45.6697659999999956
11
133.0089600000000019
21
-45.6680780000000013
0
LINE
8
BLACK
6
CONTINUOUS
10
133.0089600000000019
20
-45.6680780000000013
11
133.0107869999999934
21
-45.6673199999999966
0
LINE
8
BLACK
6
CONTINUOUS
10
133.0107869999999934
20
-45.6673199999999966
11
133.0170870000000036
21
-45.6633560000000003
0
LINE
8
BLACK
6
CONTINUOUS
10
133.0170870000000036
20
-45.6633560000000003
11
133.1123249999999985
21
-45.6157369999999958
0
LINE
8
BLACK
6
CONTINUOUS
10
133.1123249999999985
20
-45.6157369999999958
11
133.1260560000000055
21
-45.6104819999999975
0
LINE
8
BLACK
6
CONTINUOUS
10
133.1260560000000055
20
-45.6104819999999975
11
133.1287449999999808
21
-45.6102899999999991
0
LINE
8
BLACK
6
CONTINUOUS
10
133.1287449999999808
20
-45.6102899999999991
11
133.1312340000000063
21
-45.609259999999999
0
LINE
8
BLACK
6
CONTINUOUS
10
133.1312340000000063
20
-45.609259999999999
11
133.1458659999999838
21
-45.6078189999999992
0
LINE
8
BLACK
6
CONTINUOUS
10
133.1458659999999838
20
-45.6078189999999992
11
133.5268179999999916
21
-45.6078189999999992
0
LINE
8
BLACK
6
CONTINUOUS
10
133.5268179999999916
20
-45.6078189999999992
11
133.5414499999999975
21
-45.609259999999999
0
LINE
8
BLACK
6
CONTINUOUS
10
133.0950550000000021
20
-45.792076999999999
11
133.0646480000000054
21
-45.8224839999999958
0
LINE
8
BLACK
6
CONTINUOUS
10
133.0646480000000054
20
-45.8224839999999958
11
133.0303899999999828
21
-45.8909999999999982
0
LINE
8
BLACK
6
CONTINUOUS
10
133.0303899999999828
20
-45.8909999999999982
11
133.0303899999999828
21
-45.9984469999999988
0
LINE
8
BLACK
6
CONTINUOUS
10
133.0303899999999828
20
-45.9984469999999988
11
133.0646480000000054
21
-46.0669630000000012
0
LINE
8
BLACK
6
CONTINUOUS
10
133.0646480000000054
20
-46.0669630000000012
11
133.0950550000000021
21
-46.097369999999998
0
LINE
8
BLACK
6
CONTINUOUS
10
133.0950550000000021
20
-46.097369999999998
11
133.1635709999999904
21
-46.1316279999999992
0
LINE
8
BLACK
6
CONTINUOUS
10
133.1635709999999904
20
-46.1316279999999992
11
133.4518180000000029
21
-46.1316279999999992
0
LINE
8
BLACK
6
CONTINUOUS
10
133.4518180000000029
20
-46.1316279999999992
11
133.4518180000000029
21
-45.7578189999999978
0
LINE
8
BLACK
6
CONTINUOUS
10
133.4518180000000029
20
-45.7578189999999978
11
133.1635709999999904
21
-45.7578189999999978
0
LINE
8
BLACK
6
CONTINUOUS
10
133.1635709999999904
20
-45.7578189999999978
11
133.0950550000000021
21
-45.792076999999999
  0
ENDSEC
  0
EOF
