  0
SECTION
  2
HEADER
  9
$ANGBASE
  50
0.0
  9
$ANGDIR
  70
1
  9
$MEASUREMENT
  70
1
  0
ENDSEC
  0
SECTION
  2
TABLES
  0
TABLE
  2
LTYPE
  70
4
  0
LTYPE
  5
40F
  2
CONTINUOUS
  70
0
  3
Solid line
  72
65
  73
0
  40
0.0
  0
LTYPE
  5
410
  2
DASHDOT
 70
0
  3
Dash Dot ____ _ ____ _
 72
65
 73
4
 40
2.0
 49
1.25
 49
-0.25
 49
0.25
 49
-0.25
  0
LTYPE
  5
411
  2
DASHED
 70
0
  3
Dashed __ __ __ __ __
 72
65
 73
2
 40
0.75
 49
0.5
 49
-0.25
  0
LTYPE
  5
43B
  2
DOTTED
 70
0
  3
Dotted .  .  .  .
 72
65
 73
2
 40
0.2
 49
0.0
 49
-0.2
  0
ENDTAB
  0
TABLE
  2
STYLE
  70
4
  0
STYLE
  2
KICAD
  70
0
  40
0
  41
1
  42
1
  50
0
  71
0
  3
isocp.shx
  0
STYLE
  2
KICADB
  70
0
  40
0
  41
1
  42
1
  50
0
  71
0
  3
isocp.shx
  0
STYLE
  2
KICADI
  70
0
  40
0
  41
1
  42
1
  50
15
  71
0
  3
isocp.shx
  0
STYLE
  2
KICADBI
  70
0
  40
0
  41
1
  42
1
  50
15
  71
0
  3
isocp.shx
  0
ENDTAB
  0
TABLE
  2
LAYER
  70
1
  0
LAYER
  2
BLACK
  70
0
  62
7
  6
CONTINUOUS
  0
ENDTAB
  0
ENDSEC
  0
SECTION
  2
ENTITIES
0
LINE
8
BLACK
6
CONTINUOUS
10
214.
20
-42.9750000000000014
11
214.3161989999999832
21
-42.9915710000000004
0
LINE
8
BLACK
6
CONTINUOUS
10
214.3161989999999832
20
-42.9915710000000004
11
214.6289329999999893
21
-43.0411039999999971
0
LINE
8
BLACK
6
CONTINUOUS
10
214.6289329999999893
20
-43.0411039999999971
11
214.9347759999999994
21
-43.1230539999999962
0
LINE
8
BLACK
6
CONTINUOUS
10
214.9347759999999994
20
-43.1230539999999962
11
215.2303780000000017
21
-43.2365250000000003
0
LINE
8
BLACK
6
CONTINUOUS
10
215.2303780000000017
20
-43.2365250000000003
11
215.5124999999999886
21
-43.3802729999999954
0
LINE
8
BLACK
6
CONTINUOUS
10
215.5124999999999886
20
-43.3802729999999954
11
215.778049999999979
21
-43.5527239999999978
0
LINE
8
BLACK
6
CONTINUOUS
10
215.778049999999979
20
-43.5527239999999978
11
216.0241199999999822
21
-43.7519869999999997
0
LINE
8
BLACK
6
CONTINUOUS
10
216.0241199999999822
20
-43.7519869999999997
11
216.2480129999999861
21
-43.9758799999999965
0
LINE
8
BLACK
6
CONTINUOUS
10
216.2480129999999861
20
-43.9758799999999965
11
216.447275999999988
21
-44.2219499999999996
0
LINE
8
BLACK
6
CONTINUOUS
10
216.447275999999988
20
-44.2219499999999996
11
216.6197269999999833
21
-44.4874999999999972
0
LINE
8
BLACK
6
CONTINUOUS
10
216.6197269999999833
20
-44.4874999999999972
11
216.7634749999999997
21
-44.7696219999999983
0
LINE
8
BLACK
6
CONTINUOUS
10
216.7634749999999997
20
-44.7696219999999983
11
216.8769460000000038
21
-45.0652240000000006
0
LINE
8
BLACK
6
CONTINUOUS
10
216.8769460000000038
20
-45.0652240000000006
11
216.9588959999999815
21
-45.3710669999999965
0
LINE
8
BLACK
6
CONTINUOUS
10
216.9588959999999815
20
-45.3710669999999965
11
217.0084289999999783
21
-45.6838009999999954
0
LINE
8
BLACK
6
CONTINUOUS
10
217.0084289999999783
20
-45.6838009999999954
11
217.0249999999999773
21
-46.
0
LINE
8
BLACK
6
CONTINUOUS
10
217.0249999999999773
20
-46.
11
217.0249999999999773
21
-140.
0
LINE
8
BLACK
6
CONTINUOUS
10
217.0249999999999773
20
-140.
11
217.0084289999999783
21
-140.3161989999999832
0
LINE
8
BLACK
6
CONTINUOUS
10
217.0084289999999783
20
-140.3161989999999832
11
216.9588959999999815
21
-140.6289329999999893
0
LINE
8
BLACK
6
CONTINUOUS
10
216.9588959999999815
20
-140.6289329999999893
11
216.8769460000000038
21
-140.9347759999999994
0
LINE
8
BLACK
6
CONTINUOUS
10
216.8769460000000038
20
-140.9347759999999994
11
216.7634749999999997
21
-141.2303780000000017
0
LINE
8
BLACK
6
CONTINUOUS
10
216.7634749999999997
20
-141.2303780000000017
11
216.6197269999999833
21
-141.5124999999999886
0
LINE
8
BLACK
6
CONTINUOUS
10
216.6197269999999833
20
-141.5124999999999886
11
216.447275999999988
21
-141.7780500000000075
0
LINE
8
BLACK
6
CONTINUOUS
10
216.447275999999988
20
-141.7780500000000075
11
216.2480129999999861
21
-142.0241199999999822
0
LINE
8
BLACK
6
CONTINUOUS
10
216.2480129999999861
20
-142.0241199999999822
11
216.0241199999999822
21
-142.2480129999999861
0
LINE
8
BLACK
6
CONTINUOUS
10
216.0241199999999822
20
-142.2480129999999861
11
215.778049999999979
21
-142.447275999999988
0
LINE
8
BLACK
6
CONTINUOUS
10
215.778049999999979
20
-142.447275999999988
11
215.5124999999999886
21
-142.6197269999999833
0
LINE
8
BLACK
6
CONTINUOUS
10
215.5124999999999886
20
-142.6197269999999833
11
215.2303780000000017
21
-142.7634749999999997
0
LINE
8
BLACK
6
CONTINUOUS
10
215.2303780000000017
20
-142.7634749999999997
11
214.9347759999999994
21
-142.8769460000000038
0
LINE
8
BLACK
6
CONTINUOUS
10
214.9347759999999994
20
-142.8769460000000038
11
214.6289329999999893
21
-142.9588959999999815
0
LINE
8
BLACK
6
CONTINUOUS
10
214.6289329999999893
20
-142.9588959999999815
11
214.3161989999999832
21
-143.0084290000000067
0
LINE
8
BLACK
6
CONTINUOUS
10
214.3161989999999832
20
-143.0084290000000067
11
214.
21
-143.0250000000000057
0
LINE
8
BLACK
6
CONTINUOUS
10
214.
20
-143.0250000000000057
11
120.
21
-143.0250000000000057
0
LINE
8
BLACK
6
CONTINUOUS
10
120.
20
-143.0250000000000057
11
119.6838009999999883
21
-143.0084290000000067
0
LINE
8
BLACK
6
CONTINUOUS
10
119.6838009999999883
20
-143.0084290000000067
11
119.3710669999999965
21
-142.9588959999999815
0
LINE
8
BLACK
6
CONTINUOUS
10
119.3710669999999965
20
-142.9588959999999815
11
119.0652240000000006
21
-142.8769460000000038
0
LINE
8
BLACK
6
CONTINUOUS
10
119.0652240000000006
20
-142.8769460000000038
11
118.7696219999999983
21
-142.7634749999999997
0
LINE
8
BLACK
6
CONTINUOUS
10
118.7696219999999983
20
-142.7634749999999997
11
118.4874999999999972
21
-142.6197269999999833
0
LINE
8
BLACK
6
CONTINUOUS
10
118.4874999999999972
20
-142.6197269999999833
11
118.2219499999999925
21
-142.447275999999988
0
LINE
8
BLACK
6
CONTINUOUS
10
118.2219499999999925
20
-142.447275999999988
11
117.9758799999999894
21
-142.2480129999999861
0
LINE
8
BLACK
6
CONTINUOUS
10
117.9758799999999894
20
-142.2480129999999861
11
117.7519869999999997
21
-142.0241199999999822
0
LINE
8
BLACK
6
CONTINUOUS
10
117.7519869999999997
20
-142.0241199999999822
11
117.5527239999999978
21
-141.7780500000000075
0
LINE
8
BLACK
6
CONTINUOUS
10
117.5527239999999978
20
-141.7780500000000075
11
117.3802729999999883
21
-141.5124999999999886
0
LINE
8
BLACK
6
CONTINUOUS
10
117.3802729999999883
20
-141.5124999999999886
11
117.2365250000000003
21
-141.2303780000000017
0
LINE
8
BLACK
6
CONTINUOUS
10
117.2365250000000003
20
-141.2303780000000017
11
117.1230539999999962
21
-140.9347759999999994
0
LINE
8
BLACK
6
CONTINUOUS
10
117.1230539999999962
20
-140.9347759999999994
11
117.04110399999999
21
-140.6289329999999893
0
LINE
8
BLACK
6
CONTINUOUS
10
117.04110399999999
20
-140.6289329999999893
11
116.9915709999999933
21
-140.3161989999999832
0
LINE
8
BLACK
6
CONTINUOUS
10
116.9915709999999933
20
-140.3161989999999832
11
116.9749999999999943
21
-140.
0
LINE
8
BLACK
6
CONTINUOUS
10
116.9749999999999943
20
-140.
11
116.9749999999999943
21
-46.
0
LINE
8
BLACK
6
CONTINUOUS
10
116.9749999999999943
20
-46.
11
116.9915709999999933
21
-45.6838009999999954
0
LINE
8
BLACK
6
CONTINUOUS
10
116.9915709999999933
20
-45.6838009999999954
11
117.04110399999999
21
-45.3710669999999965
0
LINE
8
BLACK
6
CONTINUOUS
10
117.04110399999999
20
-45.3710669999999965
11
117.1230539999999962
21
-45.0652240000000006
0
LINE
8
BLACK
6
CONTINUOUS
10
117.1230539999999962
20
-45.0652240000000006
11
117.2365250000000003
21
-44.7696219999999983
0
LINE
8
BLACK
6
CONTINUOUS
10
117.2365250000000003
20
-44.7696219999999983
11
117.3802729999999883
21
-44.4874999999999972
0
LINE
8
BLACK
6
CONTINUOUS
10
117.3802729999999883
20
-44.4874999999999972
11
117.5527239999999978
21
-44.2219499999999996
0
LINE
8
BLACK
6
CONTINUOUS
10
117.5527239999999978
20
-44.2219499999999996
11
117.7519869999999997
21
-43.9758799999999965
0
LINE
8
BLACK
6
CONTINUOUS
10
117.7519869999999997
20
-43.9758799999999965
11
117.9758799999999894
21
-43.7519869999999997
0
LINE
8
BLACK
6
CONTINUOUS
10
117.9758799999999894
20
-43.7519869999999997
11
118.2219499999999925
21
-43.5527239999999978
0
LINE
8
BLACK
6
CONTINUOUS
10
118.2219499999999925
20
-43.5527239999999978
11
118.4874999999999972
21
-43.3802729999999954
0
LINE
8
BLACK
6
CONTINUOUS
10
118.4874999999999972
20
-43.3802729999999954
11
118.7696219999999983
21
-43.2365250000000003
0
LINE
8
BLACK
6
CONTINUOUS
10
118.7696219999999983
20
-43.2365250000000003
11
119.0652240000000006
21
-43.1230539999999962
0
LINE
8
BLACK
6
CONTINUOUS
10
119.0652240000000006
20
-43.1230539999999962
11
119.3710669999999965
21
-43.0411039999999971
0
LINE
8
BLACK
6
CONTINUOUS
10
119.3710669999999965
20
-43.0411039999999971
11
119.6838009999999883
21
-42.9915710000000004
0
LINE
8
BLACK
6
CONTINUOUS
10
119.6838009999999883
20
-42.9915710000000004
11
120.
21
-42.9750000000000014
0
LINE
8
BLACK
6
CONTINUOUS
10
120.
20
-42.9750000000000014
11
214.
21
-42.9750000000000014
0
LINE
8
BLACK
6
CONTINUOUS
10
120.
20
-43.0249999999999986
11
119.8440869999999876
21
-43.0249999999999986
0
LINE
8
BLACK
6
CONTINUOUS
10
119.8440869999999876
20
-43.0249999999999986
11
119.533968999999999
21
-43.0575939999999946
0
LINE
8
BLACK
6
CONTINUOUS
10
119.533968999999999
20
-43.0575939999999946
11
119.2289569999999941
21
-43.1224269999999947
0
LINE
8
BLACK
6
CONTINUOUS
10
119.2289569999999941
20
-43.1224269999999947
11
118.932391999999993
21
-43.2187860000000015
0
LINE
8
BLACK
6
CONTINUOUS
10
118.932391999999993
20
-43.2187860000000015
11
118.6475250000000017
21
-43.3456179999999947
0
LINE
8
BLACK
6
CONTINUOUS
10
118.6475250000000017
20
-43.3456179999999947
11
118.3774749999999898
21
-43.5015309999999999
0
LINE
8
BLACK
6
CONTINUOUS
10
118.3774749999999898
20
-43.5015309999999999
11
118.1252020000000016
21
-43.6848179999999999
0
LINE
8
BLACK
6
CONTINUOUS
10
118.1252020000000016
20
-43.6848179999999999
11
117.8934699999999935
21
-43.8934700000000007
0
LINE
8
BLACK
6
CONTINUOUS
10
117.8934699999999935
20
-43.8934700000000007
11
117.6848179999999928
21
-44.1252019999999945
0
LINE
8
BLACK
6
CONTINUOUS
10
117.6848179999999928
20
-44.1252019999999945
11
117.5015309999999999
21
-44.3774749999999969
0
LINE
8
BLACK
6
CONTINUOUS
10
117.5015309999999999
20
-44.3774749999999969
11
117.3456180000000018
21
-44.6475249999999946
0
LINE
8
BLACK
6
CONTINUOUS
10
117.3456180000000018
20
-44.6475249999999946
11
117.2187859999999944
21
-44.9323920000000001
0
LINE
8
BLACK
6
CONTINUOUS
10
117.2187859999999944
20
-44.9323920000000001
11
117.1224269999999876
21
-45.2289570000000012
0
LINE
8
BLACK
6
CONTINUOUS
10
117.1224269999999876
20
-45.2289570000000012
11
117.0575939999999946
21
-45.533968999999999
0
LINE
8
BLACK
6
CONTINUOUS
10
117.0575939999999946
20
-45.533968999999999
11
117.0249999999999915
21
-45.8440869999999947
0
LINE
8
BLACK
6
CONTINUOUS
10
117.0249999999999915
20
-45.8440869999999947
11
117.0249999999999915
21
-46.
0
LINE
8
BLACK
6
CONTINUOUS
10
117.0249999999999915
20
-46.
11
117.0249999999999915
21
-140.
0
LINE
8
BLACK
6
CONTINUOUS
10
117.0249999999999915
20
-140.
11
117.0249999999999915
21
-140.1559129999999982
0
LINE
8
BLACK
6
CONTINUOUS
10
117.0249999999999915
20
-140.1559129999999982
11
117.0575939999999946
21
-140.4660309999999868
0
LINE
8
BLACK
6
CONTINUOUS
10
117.0575939999999946
20
-140.4660309999999868
11
117.1224269999999876
21
-140.7710429999999917
0
LINE
8
BLACK
6
CONTINUOUS
10
117.1224269999999876
20
-140.7710429999999917
11
117.2187859999999944
21
-141.067608000000007
0
LINE
8
BLACK
6
CONTINUOUS
10
117.2187859999999944
20
-141.067608000000007
11
117.3456180000000018
21
-141.3524749999999983
0
LINE
8
BLACK
6
CONTINUOUS
10
117.3456180000000018
20
-141.3524749999999983
11
117.5015309999999999
21
-141.622524999999996
0
LINE
8
BLACK
6
CONTINUOUS
10
117.5015309999999999
20
-141.622524999999996
11
117.6848179999999928
21
-141.8747979999999984
0
LINE
8
BLACK
6
CONTINUOUS
10
117.6848179999999928
20
-141.8747979999999984
11
117.8934699999999935
21
-142.1065299999999922
0
LINE
8
BLACK
6
CONTINUOUS
10
117.8934699999999935
20
-142.1065299999999922
11
118.1252020000000016
21
-142.315181999999993
0
LINE
8
BLACK
6
CONTINUOUS
10
118.1252020000000016
20
-142.315181999999993
11
118.3774749999999898
21
-142.4984690000000001
0
LINE
8
BLACK
6
CONTINUOUS
10
118.3774749999999898
20
-142.4984690000000001
11
118.6475250000000017
21
-142.6543819999999982
0
LINE
8
BLACK
6
CONTINUOUS
10
118.6475250000000017
20
-142.6543819999999982
11
118.932391999999993
21
-142.7812140000000056
0
LINE
8
BLACK
6
CONTINUOUS
10
118.932391999999993
20
-142.7812140000000056
11
119.2289569999999941
21
-142.8775729999999839
0
LINE
8
BLACK
6
CONTINUOUS
10
119.2289569999999941
20
-142.8775729999999839
11
119.533968999999999
21
-142.9424060000000054
0
LINE
8
BLACK
6
CONTINUOUS
10
119.533968999999999
20
-142.9424060000000054
11
119.8440869999999876
21
-142.9749999999999943
0
LINE
8
BLACK
6
CONTINUOUS
10
119.8440869999999876
20
-142.9749999999999943
11
120.
21
-142.9749999999999943
0
LINE
8
BLACK
6
CONTINUOUS
10
120.
20
-142.9749999999999943
11
214.
21
-142.9749999999999943
0
LINE
8
BLACK
6
CONTINUOUS
10
214.
20
-142.9749999999999943
11
214.1559129999999982
21
-142.9749999999999943
0
LINE
8
BLACK
6
CONTINUOUS
10
214.1559129999999982
20
-142.9749999999999943
11
214.4660309999999868
21
-142.9424060000000054
0
LINE
8
BLACK
6
CONTINUOUS
10
214.4660309999999868
20
-142.9424060000000054
11
214.7710429999999917
21
-142.8775729999999839
0
LINE
8
BLACK
6
CONTINUOUS
10
214.7710429999999917
20
-142.8775729999999839
11
215.0676079999999786
21
-142.7812140000000056
0
LINE
8
BLACK
6
CONTINUOUS
10
215.0676079999999786
20
-142.7812140000000056
11
215.3524749999999983
21
-142.6543819999999982
0
LINE
8
BLACK
6
CONTINUOUS
10
215.3524749999999983
20
-142.6543819999999982
11
215.622524999999996
21
-142.4984690000000001
0
LINE
8
BLACK
6
CONTINUOUS
10
215.622524999999996
20
-142.4984690000000001
11
215.8747979999999984
21
-142.315181999999993
0
LINE
8
BLACK
6
CONTINUOUS
10
215.8747979999999984
20
-142.315181999999993
11
216.1065299999999922
21
-142.1065299999999922
0
LINE
8
BLACK
6
CONTINUOUS
10
216.1065299999999922
20
-142.1065299999999922
11
216.315181999999993
21
-141.8747979999999984
0
LINE
8
BLACK
6
CONTINUOUS
10
216.315181999999993
20
-141.8747979999999984
11
216.4984690000000001
21
-141.622524999999996
0
LINE
8
BLACK
6
CONTINUOUS
10
216.4984690000000001
20
-141.622524999999996
11
216.6543819999999982
21
-141.3524749999999983
0
LINE
8
BLACK
6
CONTINUOUS
10
216.6543819999999982
20
-141.3524749999999983
11
216.7812139999999772
21
-141.067608000000007
0
LINE
8
BLACK
6
CONTINUOUS
10
216.7812139999999772
20
-141.067608000000007
11
216.8775729999999839
21
-140.7710429999999917
0
LINE
8
BLACK
6
CONTINUOUS
10
216.8775729999999839
20
-140.7710429999999917
11
216.942405999999977
21
-140.4660309999999868
0
LINE
8
BLACK
6
CONTINUOUS
10
216.942405999999977
20
-140.4660309999999868
11
216.9749999999999943
21
-140.1559129999999982
0
LINE
8
BLACK
6
CONTINUOUS
10
216.9749999999999943
20
-140.1559129999999982
11
216.9749999999999943
21
-140.
0
LINE
8
BLACK
6
CONTINUOUS
10
216.9749999999999943
20
-140.
11
216.9749999999999943
21
-46.
0
LINE
8
BLACK
6
CONTINUOUS
10
216.9749999999999943
20
-46.
11
216.9749999999999943
21
-45.8440869999999947
0
LINE
8
BLACK
6
CONTINUOUS
10
216.9749999999999943
20
-45.8440869999999947
11
216.942405999999977
21
-45.533968999999999
0
LINE
8
BLACK
6
CONTINUOUS
10
216.942405999999977
20
-45.533968999999999
11
216.8775729999999839
21
-45.2289570000000012
0
LINE
8
BLACK
6
CONTINUOUS
10
216.8775729999999839
20
-45.2289570000000012
11
216.7812139999999772
21
-44.9323920000000001
0
LINE
8
BLACK
6
CONTINUOUS
10
216.7812139999999772
20
-44.9323920000000001
11
216.6543819999999982
21
-44.6475249999999946
0
LINE
8
BLACK
6
CONTINUOUS
10
216.6543819999999982
20
-44.6475249999999946
11
216.4984690000000001
21
-44.3774749999999969
0
LINE
8
BLACK
6
CONTINUOUS
10
216.4984690000000001
20
-44.3774749999999969
11
216.315181999999993
21
-44.1252019999999945
0
LINE
8
BLACK
6
CONTINUOUS
10
216.315181999999993
20
-44.1252019999999945
11
216.1065299999999922
21
-43.8934700000000007
0
LINE
8
BLACK
6
CONTINUOUS
10
216.1065299999999922
20
-43.8934700000000007
11
215.8747979999999984
21
-43.6848179999999999
0
LINE
8
BLACK
6
CONTINUOUS
10
215.8747979999999984
20
-43.6848179999999999
11
215.622524999999996
21
-43.5015309999999999
0
LINE
8
BLACK
6
CONTINUOUS
10
215.622524999999996
20
-43.5015309999999999
11
215.3524749999999983
21
-43.3456179999999947
0
LINE
8
BLACK
6
CONTINUOUS
10
215.3524749999999983
20
-43.3456179999999947
11
215.0676079999999786
21
-43.2187860000000015
0
LINE
8
BLACK
6
CONTINUOUS
10
215.0676079999999786
20
-43.2187860000000015
11
214.7710429999999917
21
-43.1224269999999947
0
LINE
8
BLACK
6
CONTINUOUS
10
214.7710429999999917
20
-43.1224269999999947
11
214.4660309999999868
21
-43.0575939999999946
0
LINE
8
BLACK
6
CONTINUOUS
10
214.4660309999999868
20
-43.0575939999999946
11
214.1559129999999982
21
-43.0249999999999986
0
LINE
8
BLACK
6
CONTINUOUS
10
214.1559129999999982
20
-43.0249999999999986
11
214.
21
-43.0249999999999986
0
LINE
8
BLACK
6
CONTINUOUS
10
214.
20
-43.0249999999999986
11
120.
21
-43.0249999999999986
  0
ENDSEC
  0
EOF
