%TF.GenerationSoftware,KiCad,Pcbnew,9.0.4*%
%TF.CreationDate,2026-01-03T23:46:06+09:00*%
%TF.ProjectId,rapidtrigger_keyboard,72617069-6474-4726-9967-6765725f6b65,rev?*%
%TF.SameCoordinates,Original*%
%TF.FileFunction,Legend,Top*%
%TF.FilePolarity,Positive*%
%FSLAX46Y46*%
G04 Gerber Fmt 4.6, Leading zero omitted, Abs format (unit mm)*
G04 Created by KiCad (PCBNEW 9.0.4) date 2026-01-03 23:46:06*
%MOMM*%
%LPD*%
G01*
G04 APERTURE LIST*
%ADD10C,0.150000*%
%ADD11C,0.120000*%
G04 APERTURE END LIST*
D10*
X123364666Y-49238819D02*
X123364666Y-49953104D01*
X123364666Y-49953104D02*
X123317047Y-50095961D01*
X123317047Y-50095961D02*
X123221809Y-50191200D01*
X123221809Y-50191200D02*
X123078952Y-50238819D01*
X123078952Y-50238819D02*
X122983714Y-50238819D01*
X124364666Y-50238819D02*
X123793238Y-50238819D01*
X124078952Y-50238819D02*
X124078952Y-49238819D01*
X124078952Y-49238819D02*
X123983714Y-49381676D01*
X123983714Y-49381676D02*
X123888476Y-49476914D01*
X123888476Y-49476914D02*
X123793238Y-49524533D01*
X148082095Y-122644819D02*
X148082095Y-123454342D01*
X148082095Y-123454342D02*
X148129714Y-123549580D01*
X148129714Y-123549580D02*
X148177333Y-123597200D01*
X148177333Y-123597200D02*
X148272571Y-123644819D01*
X148272571Y-123644819D02*
X148463047Y-123644819D01*
X148463047Y-123644819D02*
X148558285Y-123597200D01*
X148558285Y-123597200D02*
X148605904Y-123549580D01*
X148605904Y-123549580D02*
X148653523Y-123454342D01*
X148653523Y-123454342D02*
X148653523Y-122644819D01*
X149605904Y-122644819D02*
X149129714Y-122644819D01*
X149129714Y-122644819D02*
X149082095Y-123121009D01*
X149082095Y-123121009D02*
X149129714Y-123073390D01*
X149129714Y-123073390D02*
X149224952Y-123025771D01*
X149224952Y-123025771D02*
X149463047Y-123025771D01*
X149463047Y-123025771D02*
X149558285Y-123073390D01*
X149558285Y-123073390D02*
X149605904Y-123121009D01*
X149605904Y-123121009D02*
X149653523Y-123216247D01*
X149653523Y-123216247D02*
X149653523Y-123454342D01*
X149653523Y-123454342D02*
X149605904Y-123549580D01*
X149605904Y-123549580D02*
X149558285Y-123597200D01*
X149558285Y-123597200D02*
X149463047Y-123644819D01*
X149463047Y-123644819D02*
X149224952Y-123644819D01*
X149224952Y-123644819D02*
X149129714Y-123597200D01*
X149129714Y-123597200D02*
X149082095Y-123549580D01*
X208311905Y-120866819D02*
X208311905Y-121676342D01*
X208311905Y-121676342D02*
X208359524Y-121771580D01*
X208359524Y-121771580D02*
X208407143Y-121819200D01*
X208407143Y-121819200D02*
X208502381Y-121866819D01*
X208502381Y-121866819D02*
X208692857Y-121866819D01*
X208692857Y-121866819D02*
X208788095Y-121819200D01*
X208788095Y-121819200D02*
X208835714Y-121771580D01*
X208835714Y-121771580D02*
X208883333Y-121676342D01*
X208883333Y-121676342D02*
X208883333Y-120866819D01*
X209883333Y-121866819D02*
X209311905Y-121866819D01*
X209597619Y-121866819D02*
X209597619Y-120866819D01*
X209597619Y-120866819D02*
X209502381Y-121009676D01*
X209502381Y-121009676D02*
X209407143Y-121104914D01*
X209407143Y-121104914D02*
X209311905Y-121152533D01*
X210216667Y-120866819D02*
X210883333Y-120866819D01*
X210883333Y-120866819D02*
X210454762Y-121866819D01*
X208311905Y-82766819D02*
X208311905Y-83576342D01*
X208311905Y-83576342D02*
X208359524Y-83671580D01*
X208359524Y-83671580D02*
X208407143Y-83719200D01*
X208407143Y-83719200D02*
X208502381Y-83766819D01*
X208502381Y-83766819D02*
X208692857Y-83766819D01*
X208692857Y-83766819D02*
X208788095Y-83719200D01*
X208788095Y-83719200D02*
X208835714Y-83671580D01*
X208835714Y-83671580D02*
X208883333Y-83576342D01*
X208883333Y-83576342D02*
X208883333Y-82766819D01*
X209883333Y-83766819D02*
X209311905Y-83766819D01*
X209597619Y-83766819D02*
X209597619Y-82766819D01*
X209597619Y-82766819D02*
X209502381Y-82909676D01*
X209502381Y-82909676D02*
X209407143Y-83004914D01*
X209407143Y-83004914D02*
X209311905Y-83052533D01*
X210740476Y-82766819D02*
X210550000Y-82766819D01*
X210550000Y-82766819D02*
X210454762Y-82814438D01*
X210454762Y-82814438D02*
X210407143Y-82862057D01*
X210407143Y-82862057D02*
X210311905Y-83004914D01*
X210311905Y-83004914D02*
X210264286Y-83195390D01*
X210264286Y-83195390D02*
X210264286Y-83576342D01*
X210264286Y-83576342D02*
X210311905Y-83671580D01*
X210311905Y-83671580D02*
X210359524Y-83719200D01*
X210359524Y-83719200D02*
X210454762Y-83766819D01*
X210454762Y-83766819D02*
X210645238Y-83766819D01*
X210645238Y-83766819D02*
X210740476Y-83719200D01*
X210740476Y-83719200D02*
X210788095Y-83671580D01*
X210788095Y-83671580D02*
X210835714Y-83576342D01*
X210835714Y-83576342D02*
X210835714Y-83338247D01*
X210835714Y-83338247D02*
X210788095Y-83243009D01*
X210788095Y-83243009D02*
X210740476Y-83195390D01*
X210740476Y-83195390D02*
X210645238Y-83147771D01*
X210645238Y-83147771D02*
X210454762Y-83147771D01*
X210454762Y-83147771D02*
X210359524Y-83195390D01*
X210359524Y-83195390D02*
X210311905Y-83243009D01*
X210311905Y-83243009D02*
X210264286Y-83338247D01*
X180879905Y-70858819D02*
X180879905Y-71668342D01*
X180879905Y-71668342D02*
X180927524Y-71763580D01*
X180927524Y-71763580D02*
X180975143Y-71811200D01*
X180975143Y-71811200D02*
X181070381Y-71858819D01*
X181070381Y-71858819D02*
X181260857Y-71858819D01*
X181260857Y-71858819D02*
X181356095Y-71811200D01*
X181356095Y-71811200D02*
X181403714Y-71763580D01*
X181403714Y-71763580D02*
X181451333Y-71668342D01*
X181451333Y-71668342D02*
X181451333Y-70858819D01*
X181879905Y-70954057D02*
X181927524Y-70906438D01*
X181927524Y-70906438D02*
X182022762Y-70858819D01*
X182022762Y-70858819D02*
X182260857Y-70858819D01*
X182260857Y-70858819D02*
X182356095Y-70906438D01*
X182356095Y-70906438D02*
X182403714Y-70954057D01*
X182403714Y-70954057D02*
X182451333Y-71049295D01*
X182451333Y-71049295D02*
X182451333Y-71144533D01*
X182451333Y-71144533D02*
X182403714Y-71287390D01*
X182403714Y-71287390D02*
X181832286Y-71858819D01*
X181832286Y-71858819D02*
X182451333Y-71858819D01*
X182927524Y-71858819D02*
X183118000Y-71858819D01*
X183118000Y-71858819D02*
X183213238Y-71811200D01*
X183213238Y-71811200D02*
X183260857Y-71763580D01*
X183260857Y-71763580D02*
X183356095Y-71620723D01*
X183356095Y-71620723D02*
X183403714Y-71430247D01*
X183403714Y-71430247D02*
X183403714Y-71049295D01*
X183403714Y-71049295D02*
X183356095Y-70954057D01*
X183356095Y-70954057D02*
X183308476Y-70906438D01*
X183308476Y-70906438D02*
X183213238Y-70858819D01*
X183213238Y-70858819D02*
X183022762Y-70858819D01*
X183022762Y-70858819D02*
X182927524Y-70906438D01*
X182927524Y-70906438D02*
X182879905Y-70954057D01*
X182879905Y-70954057D02*
X182832286Y-71049295D01*
X182832286Y-71049295D02*
X182832286Y-71287390D01*
X182832286Y-71287390D02*
X182879905Y-71382628D01*
X182879905Y-71382628D02*
X182927524Y-71430247D01*
X182927524Y-71430247D02*
X183022762Y-71477866D01*
X183022762Y-71477866D02*
X183213238Y-71477866D01*
X183213238Y-71477866D02*
X183308476Y-71430247D01*
X183308476Y-71430247D02*
X183356095Y-71382628D01*
X183356095Y-71382628D02*
X183403714Y-71287390D01*
X180649714Y-126852819D02*
X180649714Y-125852819D01*
X180649714Y-125852819D02*
X180887809Y-125852819D01*
X180887809Y-125852819D02*
X181030666Y-125900438D01*
X181030666Y-125900438D02*
X181125904Y-125995676D01*
X181125904Y-125995676D02*
X181173523Y-126090914D01*
X181173523Y-126090914D02*
X181221142Y-126281390D01*
X181221142Y-126281390D02*
X181221142Y-126424247D01*
X181221142Y-126424247D02*
X181173523Y-126614723D01*
X181173523Y-126614723D02*
X181125904Y-126709961D01*
X181125904Y-126709961D02*
X181030666Y-126805200D01*
X181030666Y-126805200D02*
X180887809Y-126852819D01*
X180887809Y-126852819D02*
X180649714Y-126852819D01*
X182173523Y-126852819D02*
X181602095Y-126852819D01*
X181887809Y-126852819D02*
X181887809Y-125852819D01*
X181887809Y-125852819D02*
X181792571Y-125995676D01*
X181792571Y-125995676D02*
X181697333Y-126090914D01*
X181697333Y-126090914D02*
X181602095Y-126138533D01*
X183030666Y-125852819D02*
X182840190Y-125852819D01*
X182840190Y-125852819D02*
X182744952Y-125900438D01*
X182744952Y-125900438D02*
X182697333Y-125948057D01*
X182697333Y-125948057D02*
X182602095Y-126090914D01*
X182602095Y-126090914D02*
X182554476Y-126281390D01*
X182554476Y-126281390D02*
X182554476Y-126662342D01*
X182554476Y-126662342D02*
X182602095Y-126757580D01*
X182602095Y-126757580D02*
X182649714Y-126805200D01*
X182649714Y-126805200D02*
X182744952Y-126852819D01*
X182744952Y-126852819D02*
X182935428Y-126852819D01*
X182935428Y-126852819D02*
X183030666Y-126805200D01*
X183030666Y-126805200D02*
X183078285Y-126757580D01*
X183078285Y-126757580D02*
X183125904Y-126662342D01*
X183125904Y-126662342D02*
X183125904Y-126424247D01*
X183125904Y-126424247D02*
X183078285Y-126329009D01*
X183078285Y-126329009D02*
X183030666Y-126281390D01*
X183030666Y-126281390D02*
X182935428Y-126233771D01*
X182935428Y-126233771D02*
X182744952Y-126233771D01*
X182744952Y-126233771D02*
X182649714Y-126281390D01*
X182649714Y-126281390D02*
X182602095Y-126329009D01*
X182602095Y-126329009D02*
X182554476Y-126424247D01*
X199929905Y-80510819D02*
X199929905Y-81320342D01*
X199929905Y-81320342D02*
X199977524Y-81415580D01*
X199977524Y-81415580D02*
X200025143Y-81463200D01*
X200025143Y-81463200D02*
X200120381Y-81510819D01*
X200120381Y-81510819D02*
X200310857Y-81510819D01*
X200310857Y-81510819D02*
X200406095Y-81463200D01*
X200406095Y-81463200D02*
X200453714Y-81415580D01*
X200453714Y-81415580D02*
X200501333Y-81320342D01*
X200501333Y-81320342D02*
X200501333Y-80510819D01*
X200882286Y-80510819D02*
X201501333Y-80510819D01*
X201501333Y-80510819D02*
X201168000Y-80891771D01*
X201168000Y-80891771D02*
X201310857Y-80891771D01*
X201310857Y-80891771D02*
X201406095Y-80939390D01*
X201406095Y-80939390D02*
X201453714Y-80987009D01*
X201453714Y-80987009D02*
X201501333Y-81082247D01*
X201501333Y-81082247D02*
X201501333Y-81320342D01*
X201501333Y-81320342D02*
X201453714Y-81415580D01*
X201453714Y-81415580D02*
X201406095Y-81463200D01*
X201406095Y-81463200D02*
X201310857Y-81510819D01*
X201310857Y-81510819D02*
X201025143Y-81510819D01*
X201025143Y-81510819D02*
X200929905Y-81463200D01*
X200929905Y-81463200D02*
X200882286Y-81415580D01*
X202406095Y-80510819D02*
X201929905Y-80510819D01*
X201929905Y-80510819D02*
X201882286Y-80987009D01*
X201882286Y-80987009D02*
X201929905Y-80939390D01*
X201929905Y-80939390D02*
X202025143Y-80891771D01*
X202025143Y-80891771D02*
X202263238Y-80891771D01*
X202263238Y-80891771D02*
X202358476Y-80939390D01*
X202358476Y-80939390D02*
X202406095Y-80987009D01*
X202406095Y-80987009D02*
X202453714Y-81082247D01*
X202453714Y-81082247D02*
X202453714Y-81320342D01*
X202453714Y-81320342D02*
X202406095Y-81415580D01*
X202406095Y-81415580D02*
X202358476Y-81463200D01*
X202358476Y-81463200D02*
X202263238Y-81510819D01*
X202263238Y-81510819D02*
X202025143Y-81510819D01*
X202025143Y-81510819D02*
X201929905Y-81463200D01*
X201929905Y-81463200D02*
X201882286Y-81415580D01*
X177909642Y-126852819D02*
X177576309Y-126376628D01*
X177338214Y-126852819D02*
X177338214Y-125852819D01*
X177338214Y-125852819D02*
X177719166Y-125852819D01*
X177719166Y-125852819D02*
X177814404Y-125900438D01*
X177814404Y-125900438D02*
X177862023Y-125948057D01*
X177862023Y-125948057D02*
X177909642Y-126043295D01*
X177909642Y-126043295D02*
X177909642Y-126186152D01*
X177909642Y-126186152D02*
X177862023Y-126281390D01*
X177862023Y-126281390D02*
X177814404Y-126329009D01*
X177814404Y-126329009D02*
X177719166Y-126376628D01*
X177719166Y-126376628D02*
X177338214Y-126376628D01*
X178862023Y-126852819D02*
X178290595Y-126852819D01*
X178576309Y-126852819D02*
X178576309Y-125852819D01*
X178576309Y-125852819D02*
X178481071Y-125995676D01*
X178481071Y-125995676D02*
X178385833Y-126090914D01*
X178385833Y-126090914D02*
X178290595Y-126138533D01*
X179338214Y-126852819D02*
X179528690Y-126852819D01*
X179528690Y-126852819D02*
X179623928Y-126805200D01*
X179623928Y-126805200D02*
X179671547Y-126757580D01*
X179671547Y-126757580D02*
X179766785Y-126614723D01*
X179766785Y-126614723D02*
X179814404Y-126424247D01*
X179814404Y-126424247D02*
X179814404Y-126043295D01*
X179814404Y-126043295D02*
X179766785Y-125948057D01*
X179766785Y-125948057D02*
X179719166Y-125900438D01*
X179719166Y-125900438D02*
X179623928Y-125852819D01*
X179623928Y-125852819D02*
X179433452Y-125852819D01*
X179433452Y-125852819D02*
X179338214Y-125900438D01*
X179338214Y-125900438D02*
X179290595Y-125948057D01*
X179290595Y-125948057D02*
X179242976Y-126043295D01*
X179242976Y-126043295D02*
X179242976Y-126281390D01*
X179242976Y-126281390D02*
X179290595Y-126376628D01*
X179290595Y-126376628D02*
X179338214Y-126424247D01*
X179338214Y-126424247D02*
X179433452Y-126471866D01*
X179433452Y-126471866D02*
X179623928Y-126471866D01*
X179623928Y-126471866D02*
X179719166Y-126424247D01*
X179719166Y-126424247D02*
X179766785Y-126376628D01*
X179766785Y-126376628D02*
X179814404Y-126281390D01*
X199699714Y-50652819D02*
X199699714Y-49652819D01*
X199699714Y-49652819D02*
X199937809Y-49652819D01*
X199937809Y-49652819D02*
X200080666Y-49700438D01*
X200080666Y-49700438D02*
X200175904Y-49795676D01*
X200175904Y-49795676D02*
X200223523Y-49890914D01*
X200223523Y-49890914D02*
X200271142Y-50081390D01*
X200271142Y-50081390D02*
X200271142Y-50224247D01*
X200271142Y-50224247D02*
X200223523Y-50414723D01*
X200223523Y-50414723D02*
X200175904Y-50509961D01*
X200175904Y-50509961D02*
X200080666Y-50605200D01*
X200080666Y-50605200D02*
X199937809Y-50652819D01*
X199937809Y-50652819D02*
X199699714Y-50652819D01*
X201223523Y-50652819D02*
X200652095Y-50652819D01*
X200937809Y-50652819D02*
X200937809Y-49652819D01*
X200937809Y-49652819D02*
X200842571Y-49795676D01*
X200842571Y-49795676D02*
X200747333Y-49890914D01*
X200747333Y-49890914D02*
X200652095Y-49938533D01*
X201556857Y-49652819D02*
X202223523Y-49652819D01*
X202223523Y-49652819D02*
X201794952Y-50652819D01*
X161525714Y-88752819D02*
X161525714Y-87752819D01*
X161525714Y-87752819D02*
X161763809Y-87752819D01*
X161763809Y-87752819D02*
X161906666Y-87800438D01*
X161906666Y-87800438D02*
X162001904Y-87895676D01*
X162001904Y-87895676D02*
X162049523Y-87990914D01*
X162049523Y-87990914D02*
X162097142Y-88181390D01*
X162097142Y-88181390D02*
X162097142Y-88324247D01*
X162097142Y-88324247D02*
X162049523Y-88514723D01*
X162049523Y-88514723D02*
X162001904Y-88609961D01*
X162001904Y-88609961D02*
X161906666Y-88705200D01*
X161906666Y-88705200D02*
X161763809Y-88752819D01*
X161763809Y-88752819D02*
X161525714Y-88752819D01*
X163049523Y-88752819D02*
X162478095Y-88752819D01*
X162763809Y-88752819D02*
X162763809Y-87752819D01*
X162763809Y-87752819D02*
X162668571Y-87895676D01*
X162668571Y-87895676D02*
X162573333Y-87990914D01*
X162573333Y-87990914D02*
X162478095Y-88038533D01*
X163668571Y-87752819D02*
X163763809Y-87752819D01*
X163763809Y-87752819D02*
X163859047Y-87800438D01*
X163859047Y-87800438D02*
X163906666Y-87848057D01*
X163906666Y-87848057D02*
X163954285Y-87943295D01*
X163954285Y-87943295D02*
X164001904Y-88133771D01*
X164001904Y-88133771D02*
X164001904Y-88371866D01*
X164001904Y-88371866D02*
X163954285Y-88562342D01*
X163954285Y-88562342D02*
X163906666Y-88657580D01*
X163906666Y-88657580D02*
X163859047Y-88705200D01*
X163859047Y-88705200D02*
X163763809Y-88752819D01*
X163763809Y-88752819D02*
X163668571Y-88752819D01*
X163668571Y-88752819D02*
X163573333Y-88705200D01*
X163573333Y-88705200D02*
X163525714Y-88657580D01*
X163525714Y-88657580D02*
X163478095Y-88562342D01*
X163478095Y-88562342D02*
X163430476Y-88371866D01*
X163430476Y-88371866D02*
X163430476Y-88133771D01*
X163430476Y-88133771D02*
X163478095Y-87943295D01*
X163478095Y-87943295D02*
X163525714Y-87848057D01*
X163525714Y-87848057D02*
X163573333Y-87800438D01*
X163573333Y-87800438D02*
X163668571Y-87752819D01*
X119467333Y-58112819D02*
X119134000Y-57636628D01*
X118895905Y-58112819D02*
X118895905Y-57112819D01*
X118895905Y-57112819D02*
X119276857Y-57112819D01*
X119276857Y-57112819D02*
X119372095Y-57160438D01*
X119372095Y-57160438D02*
X119419714Y-57208057D01*
X119419714Y-57208057D02*
X119467333Y-57303295D01*
X119467333Y-57303295D02*
X119467333Y-57446152D01*
X119467333Y-57446152D02*
X119419714Y-57541390D01*
X119419714Y-57541390D02*
X119372095Y-57589009D01*
X119372095Y-57589009D02*
X119276857Y-57636628D01*
X119276857Y-57636628D02*
X118895905Y-57636628D01*
X119800667Y-57112819D02*
X120419714Y-57112819D01*
X120419714Y-57112819D02*
X120086381Y-57493771D01*
X120086381Y-57493771D02*
X120229238Y-57493771D01*
X120229238Y-57493771D02*
X120324476Y-57541390D01*
X120324476Y-57541390D02*
X120372095Y-57589009D01*
X120372095Y-57589009D02*
X120419714Y-57684247D01*
X120419714Y-57684247D02*
X120419714Y-57922342D01*
X120419714Y-57922342D02*
X120372095Y-58017580D01*
X120372095Y-58017580D02*
X120324476Y-58065200D01*
X120324476Y-58065200D02*
X120229238Y-58112819D01*
X120229238Y-58112819D02*
X119943524Y-58112819D01*
X119943524Y-58112819D02*
X119848286Y-58065200D01*
X119848286Y-58065200D02*
X119800667Y-58017580D01*
X142779905Y-108958819D02*
X142779905Y-109768342D01*
X142779905Y-109768342D02*
X142827524Y-109863580D01*
X142827524Y-109863580D02*
X142875143Y-109911200D01*
X142875143Y-109911200D02*
X142970381Y-109958819D01*
X142970381Y-109958819D02*
X143160857Y-109958819D01*
X143160857Y-109958819D02*
X143256095Y-109911200D01*
X143256095Y-109911200D02*
X143303714Y-109863580D01*
X143303714Y-109863580D02*
X143351333Y-109768342D01*
X143351333Y-109768342D02*
X143351333Y-108958819D01*
X143779905Y-109054057D02*
X143827524Y-109006438D01*
X143827524Y-109006438D02*
X143922762Y-108958819D01*
X143922762Y-108958819D02*
X144160857Y-108958819D01*
X144160857Y-108958819D02*
X144256095Y-109006438D01*
X144256095Y-109006438D02*
X144303714Y-109054057D01*
X144303714Y-109054057D02*
X144351333Y-109149295D01*
X144351333Y-109149295D02*
X144351333Y-109244533D01*
X144351333Y-109244533D02*
X144303714Y-109387390D01*
X144303714Y-109387390D02*
X143732286Y-109958819D01*
X143732286Y-109958819D02*
X144351333Y-109958819D01*
X145303714Y-109958819D02*
X144732286Y-109958819D01*
X145018000Y-109958819D02*
X145018000Y-108958819D01*
X145018000Y-108958819D02*
X144922762Y-109101676D01*
X144922762Y-109101676D02*
X144827524Y-109196914D01*
X144827524Y-109196914D02*
X144732286Y-109244533D01*
X125959905Y-112787819D02*
X125959905Y-113597342D01*
X125959905Y-113597342D02*
X126007524Y-113692580D01*
X126007524Y-113692580D02*
X126055143Y-113740200D01*
X126055143Y-113740200D02*
X126150381Y-113787819D01*
X126150381Y-113787819D02*
X126340857Y-113787819D01*
X126340857Y-113787819D02*
X126436095Y-113740200D01*
X126436095Y-113740200D02*
X126483714Y-113692580D01*
X126483714Y-113692580D02*
X126531333Y-113597342D01*
X126531333Y-113597342D02*
X126531333Y-112787819D01*
X126912286Y-112787819D02*
X127531333Y-112787819D01*
X127531333Y-112787819D02*
X127198000Y-113168771D01*
X127198000Y-113168771D02*
X127340857Y-113168771D01*
X127340857Y-113168771D02*
X127436095Y-113216390D01*
X127436095Y-113216390D02*
X127483714Y-113264009D01*
X127483714Y-113264009D02*
X127531333Y-113359247D01*
X127531333Y-113359247D02*
X127531333Y-113597342D01*
X127531333Y-113597342D02*
X127483714Y-113692580D01*
X127483714Y-113692580D02*
X127436095Y-113740200D01*
X127436095Y-113740200D02*
X127340857Y-113787819D01*
X127340857Y-113787819D02*
X127055143Y-113787819D01*
X127055143Y-113787819D02*
X126959905Y-113740200D01*
X126959905Y-113740200D02*
X126912286Y-113692580D01*
X127864667Y-112787819D02*
X128531333Y-112787819D01*
X128531333Y-112787819D02*
X128102762Y-113787819D01*
X177835642Y-50652819D02*
X177502309Y-50176628D01*
X177264214Y-50652819D02*
X177264214Y-49652819D01*
X177264214Y-49652819D02*
X177645166Y-49652819D01*
X177645166Y-49652819D02*
X177740404Y-49700438D01*
X177740404Y-49700438D02*
X177788023Y-49748057D01*
X177788023Y-49748057D02*
X177835642Y-49843295D01*
X177835642Y-49843295D02*
X177835642Y-49986152D01*
X177835642Y-49986152D02*
X177788023Y-50081390D01*
X177788023Y-50081390D02*
X177740404Y-50129009D01*
X177740404Y-50129009D02*
X177645166Y-50176628D01*
X177645166Y-50176628D02*
X177264214Y-50176628D01*
X178788023Y-50652819D02*
X178216595Y-50652819D01*
X178502309Y-50652819D02*
X178502309Y-49652819D01*
X178502309Y-49652819D02*
X178407071Y-49795676D01*
X178407071Y-49795676D02*
X178311833Y-49890914D01*
X178311833Y-49890914D02*
X178216595Y-49938533D01*
X179692785Y-49652819D02*
X179216595Y-49652819D01*
X179216595Y-49652819D02*
X179168976Y-50129009D01*
X179168976Y-50129009D02*
X179216595Y-50081390D01*
X179216595Y-50081390D02*
X179311833Y-50033771D01*
X179311833Y-50033771D02*
X179549928Y-50033771D01*
X179549928Y-50033771D02*
X179645166Y-50081390D01*
X179645166Y-50081390D02*
X179692785Y-50129009D01*
X179692785Y-50129009D02*
X179740404Y-50224247D01*
X179740404Y-50224247D02*
X179740404Y-50462342D01*
X179740404Y-50462342D02*
X179692785Y-50557580D01*
X179692785Y-50557580D02*
X179645166Y-50605200D01*
X179645166Y-50605200D02*
X179549928Y-50652819D01*
X179549928Y-50652819D02*
X179311833Y-50652819D01*
X179311833Y-50652819D02*
X179216595Y-50605200D01*
X179216595Y-50605200D02*
X179168976Y-50557580D01*
X162032645Y-84326819D02*
X162032645Y-85136342D01*
X162032645Y-85136342D02*
X162080264Y-85231580D01*
X162080264Y-85231580D02*
X162127883Y-85279200D01*
X162127883Y-85279200D02*
X162223121Y-85326819D01*
X162223121Y-85326819D02*
X162413597Y-85326819D01*
X162413597Y-85326819D02*
X162508835Y-85279200D01*
X162508835Y-85279200D02*
X162556454Y-85231580D01*
X162556454Y-85231580D02*
X162604073Y-85136342D01*
X162604073Y-85136342D02*
X162604073Y-84326819D01*
X163223121Y-84755390D02*
X163127883Y-84707771D01*
X163127883Y-84707771D02*
X163080264Y-84660152D01*
X163080264Y-84660152D02*
X163032645Y-84564914D01*
X163032645Y-84564914D02*
X163032645Y-84517295D01*
X163032645Y-84517295D02*
X163080264Y-84422057D01*
X163080264Y-84422057D02*
X163127883Y-84374438D01*
X163127883Y-84374438D02*
X163223121Y-84326819D01*
X163223121Y-84326819D02*
X163413597Y-84326819D01*
X163413597Y-84326819D02*
X163508835Y-84374438D01*
X163508835Y-84374438D02*
X163556454Y-84422057D01*
X163556454Y-84422057D02*
X163604073Y-84517295D01*
X163604073Y-84517295D02*
X163604073Y-84564914D01*
X163604073Y-84564914D02*
X163556454Y-84660152D01*
X163556454Y-84660152D02*
X163508835Y-84707771D01*
X163508835Y-84707771D02*
X163413597Y-84755390D01*
X163413597Y-84755390D02*
X163223121Y-84755390D01*
X163223121Y-84755390D02*
X163127883Y-84803009D01*
X163127883Y-84803009D02*
X163080264Y-84850628D01*
X163080264Y-84850628D02*
X163032645Y-84945866D01*
X163032645Y-84945866D02*
X163032645Y-85136342D01*
X163032645Y-85136342D02*
X163080264Y-85231580D01*
X163080264Y-85231580D02*
X163127883Y-85279200D01*
X163127883Y-85279200D02*
X163223121Y-85326819D01*
X163223121Y-85326819D02*
X163413597Y-85326819D01*
X163413597Y-85326819D02*
X163508835Y-85279200D01*
X163508835Y-85279200D02*
X163556454Y-85231580D01*
X163556454Y-85231580D02*
X163604073Y-85136342D01*
X163604073Y-85136342D02*
X163604073Y-84945866D01*
X163604073Y-84945866D02*
X163556454Y-84850628D01*
X163556454Y-84850628D02*
X163508835Y-84803009D01*
X163508835Y-84803009D02*
X163413597Y-84755390D01*
X180879905Y-51808819D02*
X180879905Y-52618342D01*
X180879905Y-52618342D02*
X180927524Y-52713580D01*
X180927524Y-52713580D02*
X180975143Y-52761200D01*
X180975143Y-52761200D02*
X181070381Y-52808819D01*
X181070381Y-52808819D02*
X181260857Y-52808819D01*
X181260857Y-52808819D02*
X181356095Y-52761200D01*
X181356095Y-52761200D02*
X181403714Y-52713580D01*
X181403714Y-52713580D02*
X181451333Y-52618342D01*
X181451333Y-52618342D02*
X181451333Y-51808819D01*
X181879905Y-51904057D02*
X181927524Y-51856438D01*
X181927524Y-51856438D02*
X182022762Y-51808819D01*
X182022762Y-51808819D02*
X182260857Y-51808819D01*
X182260857Y-51808819D02*
X182356095Y-51856438D01*
X182356095Y-51856438D02*
X182403714Y-51904057D01*
X182403714Y-51904057D02*
X182451333Y-51999295D01*
X182451333Y-51999295D02*
X182451333Y-52094533D01*
X182451333Y-52094533D02*
X182403714Y-52237390D01*
X182403714Y-52237390D02*
X181832286Y-52808819D01*
X181832286Y-52808819D02*
X182451333Y-52808819D01*
X183022762Y-52237390D02*
X182927524Y-52189771D01*
X182927524Y-52189771D02*
X182879905Y-52142152D01*
X182879905Y-52142152D02*
X182832286Y-52046914D01*
X182832286Y-52046914D02*
X182832286Y-51999295D01*
X182832286Y-51999295D02*
X182879905Y-51904057D01*
X182879905Y-51904057D02*
X182927524Y-51856438D01*
X182927524Y-51856438D02*
X183022762Y-51808819D01*
X183022762Y-51808819D02*
X183213238Y-51808819D01*
X183213238Y-51808819D02*
X183308476Y-51856438D01*
X183308476Y-51856438D02*
X183356095Y-51904057D01*
X183356095Y-51904057D02*
X183403714Y-51999295D01*
X183403714Y-51999295D02*
X183403714Y-52046914D01*
X183403714Y-52046914D02*
X183356095Y-52142152D01*
X183356095Y-52142152D02*
X183308476Y-52189771D01*
X183308476Y-52189771D02*
X183213238Y-52237390D01*
X183213238Y-52237390D02*
X183022762Y-52237390D01*
X183022762Y-52237390D02*
X182927524Y-52285009D01*
X182927524Y-52285009D02*
X182879905Y-52332628D01*
X182879905Y-52332628D02*
X182832286Y-52427866D01*
X182832286Y-52427866D02*
X182832286Y-52618342D01*
X182832286Y-52618342D02*
X182879905Y-52713580D01*
X182879905Y-52713580D02*
X182927524Y-52761200D01*
X182927524Y-52761200D02*
X183022762Y-52808819D01*
X183022762Y-52808819D02*
X183213238Y-52808819D01*
X183213238Y-52808819D02*
X183308476Y-52761200D01*
X183308476Y-52761200D02*
X183356095Y-52713580D01*
X183356095Y-52713580D02*
X183403714Y-52618342D01*
X183403714Y-52618342D02*
X183403714Y-52427866D01*
X183403714Y-52427866D02*
X183356095Y-52332628D01*
X183356095Y-52332628D02*
X183308476Y-52285009D01*
X183308476Y-52285009D02*
X183213238Y-52237390D01*
X177909642Y-69702819D02*
X177576309Y-69226628D01*
X177338214Y-69702819D02*
X177338214Y-68702819D01*
X177338214Y-68702819D02*
X177719166Y-68702819D01*
X177719166Y-68702819D02*
X177814404Y-68750438D01*
X177814404Y-68750438D02*
X177862023Y-68798057D01*
X177862023Y-68798057D02*
X177909642Y-68893295D01*
X177909642Y-68893295D02*
X177909642Y-69036152D01*
X177909642Y-69036152D02*
X177862023Y-69131390D01*
X177862023Y-69131390D02*
X177814404Y-69179009D01*
X177814404Y-69179009D02*
X177719166Y-69226628D01*
X177719166Y-69226628D02*
X177338214Y-69226628D01*
X178862023Y-69702819D02*
X178290595Y-69702819D01*
X178576309Y-69702819D02*
X178576309Y-68702819D01*
X178576309Y-68702819D02*
X178481071Y-68845676D01*
X178481071Y-68845676D02*
X178385833Y-68940914D01*
X178385833Y-68940914D02*
X178290595Y-68988533D01*
X179719166Y-68702819D02*
X179528690Y-68702819D01*
X179528690Y-68702819D02*
X179433452Y-68750438D01*
X179433452Y-68750438D02*
X179385833Y-68798057D01*
X179385833Y-68798057D02*
X179290595Y-68940914D01*
X179290595Y-68940914D02*
X179242976Y-69131390D01*
X179242976Y-69131390D02*
X179242976Y-69512342D01*
X179242976Y-69512342D02*
X179290595Y-69607580D01*
X179290595Y-69607580D02*
X179338214Y-69655200D01*
X179338214Y-69655200D02*
X179433452Y-69702819D01*
X179433452Y-69702819D02*
X179623928Y-69702819D01*
X179623928Y-69702819D02*
X179719166Y-69655200D01*
X179719166Y-69655200D02*
X179766785Y-69607580D01*
X179766785Y-69607580D02*
X179814404Y-69512342D01*
X179814404Y-69512342D02*
X179814404Y-69274247D01*
X179814404Y-69274247D02*
X179766785Y-69179009D01*
X179766785Y-69179009D02*
X179719166Y-69131390D01*
X179719166Y-69131390D02*
X179623928Y-69083771D01*
X179623928Y-69083771D02*
X179433452Y-69083771D01*
X179433452Y-69083771D02*
X179338214Y-69131390D01*
X179338214Y-69131390D02*
X179290595Y-69179009D01*
X179290595Y-69179009D02*
X179242976Y-69274247D01*
X143025905Y-107802819D02*
X143025905Y-106802819D01*
X143025905Y-106802819D02*
X143264000Y-106802819D01*
X143264000Y-106802819D02*
X143406857Y-106850438D01*
X143406857Y-106850438D02*
X143502095Y-106945676D01*
X143502095Y-106945676D02*
X143549714Y-107040914D01*
X143549714Y-107040914D02*
X143597333Y-107231390D01*
X143597333Y-107231390D02*
X143597333Y-107374247D01*
X143597333Y-107374247D02*
X143549714Y-107564723D01*
X143549714Y-107564723D02*
X143502095Y-107659961D01*
X143502095Y-107659961D02*
X143406857Y-107755200D01*
X143406857Y-107755200D02*
X143264000Y-107802819D01*
X143264000Y-107802819D02*
X143025905Y-107802819D01*
X143930667Y-106802819D02*
X144549714Y-106802819D01*
X144549714Y-106802819D02*
X144216381Y-107183771D01*
X144216381Y-107183771D02*
X144359238Y-107183771D01*
X144359238Y-107183771D02*
X144454476Y-107231390D01*
X144454476Y-107231390D02*
X144502095Y-107279009D01*
X144502095Y-107279009D02*
X144549714Y-107374247D01*
X144549714Y-107374247D02*
X144549714Y-107612342D01*
X144549714Y-107612342D02*
X144502095Y-107707580D01*
X144502095Y-107707580D02*
X144454476Y-107755200D01*
X144454476Y-107755200D02*
X144359238Y-107802819D01*
X144359238Y-107802819D02*
X144073524Y-107802819D01*
X144073524Y-107802819D02*
X143978286Y-107755200D01*
X143978286Y-107755200D02*
X143930667Y-107707580D01*
X180649714Y-69702819D02*
X180649714Y-68702819D01*
X180649714Y-68702819D02*
X180887809Y-68702819D01*
X180887809Y-68702819D02*
X181030666Y-68750438D01*
X181030666Y-68750438D02*
X181125904Y-68845676D01*
X181125904Y-68845676D02*
X181173523Y-68940914D01*
X181173523Y-68940914D02*
X181221142Y-69131390D01*
X181221142Y-69131390D02*
X181221142Y-69274247D01*
X181221142Y-69274247D02*
X181173523Y-69464723D01*
X181173523Y-69464723D02*
X181125904Y-69559961D01*
X181125904Y-69559961D02*
X181030666Y-69655200D01*
X181030666Y-69655200D02*
X180887809Y-69702819D01*
X180887809Y-69702819D02*
X180649714Y-69702819D01*
X182173523Y-69702819D02*
X181602095Y-69702819D01*
X181887809Y-69702819D02*
X181887809Y-68702819D01*
X181887809Y-68702819D02*
X181792571Y-68845676D01*
X181792571Y-68845676D02*
X181697333Y-68940914D01*
X181697333Y-68940914D02*
X181602095Y-68988533D01*
X182506857Y-68702819D02*
X183125904Y-68702819D01*
X183125904Y-68702819D02*
X182792571Y-69083771D01*
X182792571Y-69083771D02*
X182935428Y-69083771D01*
X182935428Y-69083771D02*
X183030666Y-69131390D01*
X183030666Y-69131390D02*
X183078285Y-69179009D01*
X183078285Y-69179009D02*
X183125904Y-69274247D01*
X183125904Y-69274247D02*
X183125904Y-69512342D01*
X183125904Y-69512342D02*
X183078285Y-69607580D01*
X183078285Y-69607580D02*
X183030666Y-69655200D01*
X183030666Y-69655200D02*
X182935428Y-69702819D01*
X182935428Y-69702819D02*
X182649714Y-69702819D01*
X182649714Y-69702819D02*
X182554476Y-69655200D01*
X182554476Y-69655200D02*
X182506857Y-69607580D01*
X199636455Y-46246819D02*
X199636455Y-47056342D01*
X199636455Y-47056342D02*
X199684074Y-47151580D01*
X199684074Y-47151580D02*
X199731693Y-47199200D01*
X199731693Y-47199200D02*
X199826931Y-47246819D01*
X199826931Y-47246819D02*
X200017407Y-47246819D01*
X200017407Y-47246819D02*
X200112645Y-47199200D01*
X200112645Y-47199200D02*
X200160264Y-47151580D01*
X200160264Y-47151580D02*
X200207883Y-47056342D01*
X200207883Y-47056342D02*
X200207883Y-46246819D01*
X201207883Y-47246819D02*
X200636455Y-47246819D01*
X200922169Y-47246819D02*
X200922169Y-46246819D01*
X200922169Y-46246819D02*
X200826931Y-46389676D01*
X200826931Y-46389676D02*
X200731693Y-46484914D01*
X200731693Y-46484914D02*
X200636455Y-46532533D01*
X202112645Y-46246819D02*
X201636455Y-46246819D01*
X201636455Y-46246819D02*
X201588836Y-46723009D01*
X201588836Y-46723009D02*
X201636455Y-46675390D01*
X201636455Y-46675390D02*
X201731693Y-46627771D01*
X201731693Y-46627771D02*
X201969788Y-46627771D01*
X201969788Y-46627771D02*
X202065026Y-46675390D01*
X202065026Y-46675390D02*
X202112645Y-46723009D01*
X202112645Y-46723009D02*
X202160264Y-46818247D01*
X202160264Y-46818247D02*
X202160264Y-47056342D01*
X202160264Y-47056342D02*
X202112645Y-47151580D01*
X202112645Y-47151580D02*
X202065026Y-47199200D01*
X202065026Y-47199200D02*
X201969788Y-47246819D01*
X201969788Y-47246819D02*
X201731693Y-47246819D01*
X201731693Y-47246819D02*
X201636455Y-47199200D01*
X201636455Y-47199200D02*
X201588836Y-47151580D01*
X131405333Y-71733580D02*
X131357714Y-71781200D01*
X131357714Y-71781200D02*
X131214857Y-71828819D01*
X131214857Y-71828819D02*
X131119619Y-71828819D01*
X131119619Y-71828819D02*
X130976762Y-71781200D01*
X130976762Y-71781200D02*
X130881524Y-71685961D01*
X130881524Y-71685961D02*
X130833905Y-71590723D01*
X130833905Y-71590723D02*
X130786286Y-71400247D01*
X130786286Y-71400247D02*
X130786286Y-71257390D01*
X130786286Y-71257390D02*
X130833905Y-71066914D01*
X130833905Y-71066914D02*
X130881524Y-70971676D01*
X130881524Y-70971676D02*
X130976762Y-70876438D01*
X130976762Y-70876438D02*
X131119619Y-70828819D01*
X131119619Y-70828819D02*
X131214857Y-70828819D01*
X131214857Y-70828819D02*
X131357714Y-70876438D01*
X131357714Y-70876438D02*
X131405333Y-70924057D01*
X132357714Y-71828819D02*
X131786286Y-71828819D01*
X132072000Y-71828819D02*
X132072000Y-70828819D01*
X132072000Y-70828819D02*
X131976762Y-70971676D01*
X131976762Y-70971676D02*
X131881524Y-71066914D01*
X131881524Y-71066914D02*
X131786286Y-71114533D01*
X161829905Y-70858819D02*
X161829905Y-71668342D01*
X161829905Y-71668342D02*
X161877524Y-71763580D01*
X161877524Y-71763580D02*
X161925143Y-71811200D01*
X161925143Y-71811200D02*
X162020381Y-71858819D01*
X162020381Y-71858819D02*
X162210857Y-71858819D01*
X162210857Y-71858819D02*
X162306095Y-71811200D01*
X162306095Y-71811200D02*
X162353714Y-71763580D01*
X162353714Y-71763580D02*
X162401333Y-71668342D01*
X162401333Y-71668342D02*
X162401333Y-70858819D01*
X162829905Y-70954057D02*
X162877524Y-70906438D01*
X162877524Y-70906438D02*
X162972762Y-70858819D01*
X162972762Y-70858819D02*
X163210857Y-70858819D01*
X163210857Y-70858819D02*
X163306095Y-70906438D01*
X163306095Y-70906438D02*
X163353714Y-70954057D01*
X163353714Y-70954057D02*
X163401333Y-71049295D01*
X163401333Y-71049295D02*
X163401333Y-71144533D01*
X163401333Y-71144533D02*
X163353714Y-71287390D01*
X163353714Y-71287390D02*
X162782286Y-71858819D01*
X162782286Y-71858819D02*
X163401333Y-71858819D01*
X164306095Y-70858819D02*
X163829905Y-70858819D01*
X163829905Y-70858819D02*
X163782286Y-71335009D01*
X163782286Y-71335009D02*
X163829905Y-71287390D01*
X163829905Y-71287390D02*
X163925143Y-71239771D01*
X163925143Y-71239771D02*
X164163238Y-71239771D01*
X164163238Y-71239771D02*
X164258476Y-71287390D01*
X164258476Y-71287390D02*
X164306095Y-71335009D01*
X164306095Y-71335009D02*
X164353714Y-71430247D01*
X164353714Y-71430247D02*
X164353714Y-71668342D01*
X164353714Y-71668342D02*
X164306095Y-71763580D01*
X164306095Y-71763580D02*
X164258476Y-71811200D01*
X164258476Y-71811200D02*
X164163238Y-71858819D01*
X164163238Y-71858819D02*
X163925143Y-71858819D01*
X163925143Y-71858819D02*
X163829905Y-71811200D01*
X163829905Y-71811200D02*
X163782286Y-71763580D01*
X143025905Y-88752819D02*
X143025905Y-87752819D01*
X143025905Y-87752819D02*
X143264000Y-87752819D01*
X143264000Y-87752819D02*
X143406857Y-87800438D01*
X143406857Y-87800438D02*
X143502095Y-87895676D01*
X143502095Y-87895676D02*
X143549714Y-87990914D01*
X143549714Y-87990914D02*
X143597333Y-88181390D01*
X143597333Y-88181390D02*
X143597333Y-88324247D01*
X143597333Y-88324247D02*
X143549714Y-88514723D01*
X143549714Y-88514723D02*
X143502095Y-88609961D01*
X143502095Y-88609961D02*
X143406857Y-88705200D01*
X143406857Y-88705200D02*
X143264000Y-88752819D01*
X143264000Y-88752819D02*
X143025905Y-88752819D01*
X143978286Y-87848057D02*
X144025905Y-87800438D01*
X144025905Y-87800438D02*
X144121143Y-87752819D01*
X144121143Y-87752819D02*
X144359238Y-87752819D01*
X144359238Y-87752819D02*
X144454476Y-87800438D01*
X144454476Y-87800438D02*
X144502095Y-87848057D01*
X144502095Y-87848057D02*
X144549714Y-87943295D01*
X144549714Y-87943295D02*
X144549714Y-88038533D01*
X144549714Y-88038533D02*
X144502095Y-88181390D01*
X144502095Y-88181390D02*
X143930667Y-88752819D01*
X143930667Y-88752819D02*
X144549714Y-88752819D01*
X162032645Y-46246819D02*
X162032645Y-47056342D01*
X162032645Y-47056342D02*
X162080264Y-47151580D01*
X162080264Y-47151580D02*
X162127883Y-47199200D01*
X162127883Y-47199200D02*
X162223121Y-47246819D01*
X162223121Y-47246819D02*
X162413597Y-47246819D01*
X162413597Y-47246819D02*
X162508835Y-47199200D01*
X162508835Y-47199200D02*
X162556454Y-47151580D01*
X162556454Y-47151580D02*
X162604073Y-47056342D01*
X162604073Y-47056342D02*
X162604073Y-46246819D01*
X163508835Y-46246819D02*
X163318359Y-46246819D01*
X163318359Y-46246819D02*
X163223121Y-46294438D01*
X163223121Y-46294438D02*
X163175502Y-46342057D01*
X163175502Y-46342057D02*
X163080264Y-46484914D01*
X163080264Y-46484914D02*
X163032645Y-46675390D01*
X163032645Y-46675390D02*
X163032645Y-47056342D01*
X163032645Y-47056342D02*
X163080264Y-47151580D01*
X163080264Y-47151580D02*
X163127883Y-47199200D01*
X163127883Y-47199200D02*
X163223121Y-47246819D01*
X163223121Y-47246819D02*
X163413597Y-47246819D01*
X163413597Y-47246819D02*
X163508835Y-47199200D01*
X163508835Y-47199200D02*
X163556454Y-47151580D01*
X163556454Y-47151580D02*
X163604073Y-47056342D01*
X163604073Y-47056342D02*
X163604073Y-46818247D01*
X163604073Y-46818247D02*
X163556454Y-46723009D01*
X163556454Y-46723009D02*
X163508835Y-46675390D01*
X163508835Y-46675390D02*
X163413597Y-46627771D01*
X163413597Y-46627771D02*
X163223121Y-46627771D01*
X163223121Y-46627771D02*
X163127883Y-46675390D01*
X163127883Y-46675390D02*
X163080264Y-46723009D01*
X163080264Y-46723009D02*
X163032645Y-46818247D01*
X180575714Y-50652819D02*
X180575714Y-49652819D01*
X180575714Y-49652819D02*
X180813809Y-49652819D01*
X180813809Y-49652819D02*
X180956666Y-49700438D01*
X180956666Y-49700438D02*
X181051904Y-49795676D01*
X181051904Y-49795676D02*
X181099523Y-49890914D01*
X181099523Y-49890914D02*
X181147142Y-50081390D01*
X181147142Y-50081390D02*
X181147142Y-50224247D01*
X181147142Y-50224247D02*
X181099523Y-50414723D01*
X181099523Y-50414723D02*
X181051904Y-50509961D01*
X181051904Y-50509961D02*
X180956666Y-50605200D01*
X180956666Y-50605200D02*
X180813809Y-50652819D01*
X180813809Y-50652819D02*
X180575714Y-50652819D01*
X182099523Y-50652819D02*
X181528095Y-50652819D01*
X181813809Y-50652819D02*
X181813809Y-49652819D01*
X181813809Y-49652819D02*
X181718571Y-49795676D01*
X181718571Y-49795676D02*
X181623333Y-49890914D01*
X181623333Y-49890914D02*
X181528095Y-49938533D01*
X182480476Y-49748057D02*
X182528095Y-49700438D01*
X182528095Y-49700438D02*
X182623333Y-49652819D01*
X182623333Y-49652819D02*
X182861428Y-49652819D01*
X182861428Y-49652819D02*
X182956666Y-49700438D01*
X182956666Y-49700438D02*
X183004285Y-49748057D01*
X183004285Y-49748057D02*
X183051904Y-49843295D01*
X183051904Y-49843295D02*
X183051904Y-49938533D01*
X183051904Y-49938533D02*
X183004285Y-50081390D01*
X183004285Y-50081390D02*
X182432857Y-50652819D01*
X182432857Y-50652819D02*
X183051904Y-50652819D01*
X162032645Y-65286819D02*
X162032645Y-66096342D01*
X162032645Y-66096342D02*
X162080264Y-66191580D01*
X162080264Y-66191580D02*
X162127883Y-66239200D01*
X162127883Y-66239200D02*
X162223121Y-66286819D01*
X162223121Y-66286819D02*
X162413597Y-66286819D01*
X162413597Y-66286819D02*
X162508835Y-66239200D01*
X162508835Y-66239200D02*
X162556454Y-66191580D01*
X162556454Y-66191580D02*
X162604073Y-66096342D01*
X162604073Y-66096342D02*
X162604073Y-65286819D01*
X162985026Y-65286819D02*
X163651692Y-65286819D01*
X163651692Y-65286819D02*
X163223121Y-66286819D01*
X205060714Y-124406819D02*
X205060714Y-123406819D01*
X205060714Y-123406819D02*
X205298809Y-123406819D01*
X205298809Y-123406819D02*
X205441666Y-123454438D01*
X205441666Y-123454438D02*
X205536904Y-123549676D01*
X205536904Y-123549676D02*
X205584523Y-123644914D01*
X205584523Y-123644914D02*
X205632142Y-123835390D01*
X205632142Y-123835390D02*
X205632142Y-123978247D01*
X205632142Y-123978247D02*
X205584523Y-124168723D01*
X205584523Y-124168723D02*
X205536904Y-124263961D01*
X205536904Y-124263961D02*
X205441666Y-124359200D01*
X205441666Y-124359200D02*
X205298809Y-124406819D01*
X205298809Y-124406819D02*
X205060714Y-124406819D01*
X206584523Y-124406819D02*
X206013095Y-124406819D01*
X206298809Y-124406819D02*
X206298809Y-123406819D01*
X206298809Y-123406819D02*
X206203571Y-123549676D01*
X206203571Y-123549676D02*
X206108333Y-123644914D01*
X206108333Y-123644914D02*
X206013095Y-123692533D01*
X207060714Y-124406819D02*
X207251190Y-124406819D01*
X207251190Y-124406819D02*
X207346428Y-124359200D01*
X207346428Y-124359200D02*
X207394047Y-124311580D01*
X207394047Y-124311580D02*
X207489285Y-124168723D01*
X207489285Y-124168723D02*
X207536904Y-123978247D01*
X207536904Y-123978247D02*
X207536904Y-123597295D01*
X207536904Y-123597295D02*
X207489285Y-123502057D01*
X207489285Y-123502057D02*
X207441666Y-123454438D01*
X207441666Y-123454438D02*
X207346428Y-123406819D01*
X207346428Y-123406819D02*
X207155952Y-123406819D01*
X207155952Y-123406819D02*
X207060714Y-123454438D01*
X207060714Y-123454438D02*
X207013095Y-123502057D01*
X207013095Y-123502057D02*
X206965476Y-123597295D01*
X206965476Y-123597295D02*
X206965476Y-123835390D01*
X206965476Y-123835390D02*
X207013095Y-123930628D01*
X207013095Y-123930628D02*
X207060714Y-123978247D01*
X207060714Y-123978247D02*
X207155952Y-124025866D01*
X207155952Y-124025866D02*
X207346428Y-124025866D01*
X207346428Y-124025866D02*
X207441666Y-123978247D01*
X207441666Y-123978247D02*
X207489285Y-123930628D01*
X207489285Y-123930628D02*
X207536904Y-123835390D01*
X158859642Y-107802819D02*
X158526309Y-107326628D01*
X158288214Y-107802819D02*
X158288214Y-106802819D01*
X158288214Y-106802819D02*
X158669166Y-106802819D01*
X158669166Y-106802819D02*
X158764404Y-106850438D01*
X158764404Y-106850438D02*
X158812023Y-106898057D01*
X158812023Y-106898057D02*
X158859642Y-106993295D01*
X158859642Y-106993295D02*
X158859642Y-107136152D01*
X158859642Y-107136152D02*
X158812023Y-107231390D01*
X158812023Y-107231390D02*
X158764404Y-107279009D01*
X158764404Y-107279009D02*
X158669166Y-107326628D01*
X158669166Y-107326628D02*
X158288214Y-107326628D01*
X159812023Y-107802819D02*
X159240595Y-107802819D01*
X159526309Y-107802819D02*
X159526309Y-106802819D01*
X159526309Y-106802819D02*
X159431071Y-106945676D01*
X159431071Y-106945676D02*
X159335833Y-107040914D01*
X159335833Y-107040914D02*
X159240595Y-107088533D01*
X160192976Y-106898057D02*
X160240595Y-106850438D01*
X160240595Y-106850438D02*
X160335833Y-106802819D01*
X160335833Y-106802819D02*
X160573928Y-106802819D01*
X160573928Y-106802819D02*
X160669166Y-106850438D01*
X160669166Y-106850438D02*
X160716785Y-106898057D01*
X160716785Y-106898057D02*
X160764404Y-106993295D01*
X160764404Y-106993295D02*
X160764404Y-107088533D01*
X160764404Y-107088533D02*
X160716785Y-107231390D01*
X160716785Y-107231390D02*
X160145357Y-107802819D01*
X160145357Y-107802819D02*
X160764404Y-107802819D01*
X205605142Y-115770819D02*
X205271809Y-115294628D01*
X205033714Y-115770819D02*
X205033714Y-114770819D01*
X205033714Y-114770819D02*
X205414666Y-114770819D01*
X205414666Y-114770819D02*
X205509904Y-114818438D01*
X205509904Y-114818438D02*
X205557523Y-114866057D01*
X205557523Y-114866057D02*
X205605142Y-114961295D01*
X205605142Y-114961295D02*
X205605142Y-115104152D01*
X205605142Y-115104152D02*
X205557523Y-115199390D01*
X205557523Y-115199390D02*
X205509904Y-115247009D01*
X205509904Y-115247009D02*
X205414666Y-115294628D01*
X205414666Y-115294628D02*
X205033714Y-115294628D01*
X205986095Y-114866057D02*
X206033714Y-114818438D01*
X206033714Y-114818438D02*
X206128952Y-114770819D01*
X206128952Y-114770819D02*
X206367047Y-114770819D01*
X206367047Y-114770819D02*
X206462285Y-114818438D01*
X206462285Y-114818438D02*
X206509904Y-114866057D01*
X206509904Y-114866057D02*
X206557523Y-114961295D01*
X206557523Y-114961295D02*
X206557523Y-115056533D01*
X206557523Y-115056533D02*
X206509904Y-115199390D01*
X206509904Y-115199390D02*
X205938476Y-115770819D01*
X205938476Y-115770819D02*
X206557523Y-115770819D01*
X206938476Y-114866057D02*
X206986095Y-114818438D01*
X206986095Y-114818438D02*
X207081333Y-114770819D01*
X207081333Y-114770819D02*
X207319428Y-114770819D01*
X207319428Y-114770819D02*
X207414666Y-114818438D01*
X207414666Y-114818438D02*
X207462285Y-114866057D01*
X207462285Y-114866057D02*
X207509904Y-114961295D01*
X207509904Y-114961295D02*
X207509904Y-115056533D01*
X207509904Y-115056533D02*
X207462285Y-115199390D01*
X207462285Y-115199390D02*
X206890857Y-115770819D01*
X206890857Y-115770819D02*
X207509904Y-115770819D01*
X199929905Y-118356819D02*
X199929905Y-119166342D01*
X199929905Y-119166342D02*
X199977524Y-119261580D01*
X199977524Y-119261580D02*
X200025143Y-119309200D01*
X200025143Y-119309200D02*
X200120381Y-119356819D01*
X200120381Y-119356819D02*
X200310857Y-119356819D01*
X200310857Y-119356819D02*
X200406095Y-119309200D01*
X200406095Y-119309200D02*
X200453714Y-119261580D01*
X200453714Y-119261580D02*
X200501333Y-119166342D01*
X200501333Y-119166342D02*
X200501333Y-118356819D01*
X200882286Y-118356819D02*
X201501333Y-118356819D01*
X201501333Y-118356819D02*
X201168000Y-118737771D01*
X201168000Y-118737771D02*
X201310857Y-118737771D01*
X201310857Y-118737771D02*
X201406095Y-118785390D01*
X201406095Y-118785390D02*
X201453714Y-118833009D01*
X201453714Y-118833009D02*
X201501333Y-118928247D01*
X201501333Y-118928247D02*
X201501333Y-119166342D01*
X201501333Y-119166342D02*
X201453714Y-119261580D01*
X201453714Y-119261580D02*
X201406095Y-119309200D01*
X201406095Y-119309200D02*
X201310857Y-119356819D01*
X201310857Y-119356819D02*
X201025143Y-119356819D01*
X201025143Y-119356819D02*
X200929905Y-119309200D01*
X200929905Y-119309200D02*
X200882286Y-119261580D01*
X202358476Y-118356819D02*
X202168000Y-118356819D01*
X202168000Y-118356819D02*
X202072762Y-118404438D01*
X202072762Y-118404438D02*
X202025143Y-118452057D01*
X202025143Y-118452057D02*
X201929905Y-118594914D01*
X201929905Y-118594914D02*
X201882286Y-118785390D01*
X201882286Y-118785390D02*
X201882286Y-119166342D01*
X201882286Y-119166342D02*
X201929905Y-119261580D01*
X201929905Y-119261580D02*
X201977524Y-119309200D01*
X201977524Y-119309200D02*
X202072762Y-119356819D01*
X202072762Y-119356819D02*
X202263238Y-119356819D01*
X202263238Y-119356819D02*
X202358476Y-119309200D01*
X202358476Y-119309200D02*
X202406095Y-119261580D01*
X202406095Y-119261580D02*
X202453714Y-119166342D01*
X202453714Y-119166342D02*
X202453714Y-118928247D01*
X202453714Y-118928247D02*
X202406095Y-118833009D01*
X202406095Y-118833009D02*
X202358476Y-118785390D01*
X202358476Y-118785390D02*
X202263238Y-118737771D01*
X202263238Y-118737771D02*
X202072762Y-118737771D01*
X202072762Y-118737771D02*
X201977524Y-118785390D01*
X201977524Y-118785390D02*
X201929905Y-118833009D01*
X201929905Y-118833009D02*
X201882286Y-118928247D01*
X177909642Y-88752819D02*
X177576309Y-88276628D01*
X177338214Y-88752819D02*
X177338214Y-87752819D01*
X177338214Y-87752819D02*
X177719166Y-87752819D01*
X177719166Y-87752819D02*
X177814404Y-87800438D01*
X177814404Y-87800438D02*
X177862023Y-87848057D01*
X177862023Y-87848057D02*
X177909642Y-87943295D01*
X177909642Y-87943295D02*
X177909642Y-88086152D01*
X177909642Y-88086152D02*
X177862023Y-88181390D01*
X177862023Y-88181390D02*
X177814404Y-88229009D01*
X177814404Y-88229009D02*
X177719166Y-88276628D01*
X177719166Y-88276628D02*
X177338214Y-88276628D01*
X178862023Y-88752819D02*
X178290595Y-88752819D01*
X178576309Y-88752819D02*
X178576309Y-87752819D01*
X178576309Y-87752819D02*
X178481071Y-87895676D01*
X178481071Y-87895676D02*
X178385833Y-87990914D01*
X178385833Y-87990914D02*
X178290595Y-88038533D01*
X179195357Y-87752819D02*
X179862023Y-87752819D01*
X179862023Y-87752819D02*
X179433452Y-88752819D01*
X177909642Y-107802819D02*
X177576309Y-107326628D01*
X177338214Y-107802819D02*
X177338214Y-106802819D01*
X177338214Y-106802819D02*
X177719166Y-106802819D01*
X177719166Y-106802819D02*
X177814404Y-106850438D01*
X177814404Y-106850438D02*
X177862023Y-106898057D01*
X177862023Y-106898057D02*
X177909642Y-106993295D01*
X177909642Y-106993295D02*
X177909642Y-107136152D01*
X177909642Y-107136152D02*
X177862023Y-107231390D01*
X177862023Y-107231390D02*
X177814404Y-107279009D01*
X177814404Y-107279009D02*
X177719166Y-107326628D01*
X177719166Y-107326628D02*
X177338214Y-107326628D01*
X178862023Y-107802819D02*
X178290595Y-107802819D01*
X178576309Y-107802819D02*
X178576309Y-106802819D01*
X178576309Y-106802819D02*
X178481071Y-106945676D01*
X178481071Y-106945676D02*
X178385833Y-107040914D01*
X178385833Y-107040914D02*
X178290595Y-107088533D01*
X179433452Y-107231390D02*
X179338214Y-107183771D01*
X179338214Y-107183771D02*
X179290595Y-107136152D01*
X179290595Y-107136152D02*
X179242976Y-107040914D01*
X179242976Y-107040914D02*
X179242976Y-106993295D01*
X179242976Y-106993295D02*
X179290595Y-106898057D01*
X179290595Y-106898057D02*
X179338214Y-106850438D01*
X179338214Y-106850438D02*
X179433452Y-106802819D01*
X179433452Y-106802819D02*
X179623928Y-106802819D01*
X179623928Y-106802819D02*
X179719166Y-106850438D01*
X179719166Y-106850438D02*
X179766785Y-106898057D01*
X179766785Y-106898057D02*
X179814404Y-106993295D01*
X179814404Y-106993295D02*
X179814404Y-107040914D01*
X179814404Y-107040914D02*
X179766785Y-107136152D01*
X179766785Y-107136152D02*
X179719166Y-107183771D01*
X179719166Y-107183771D02*
X179623928Y-107231390D01*
X179623928Y-107231390D02*
X179433452Y-107231390D01*
X179433452Y-107231390D02*
X179338214Y-107279009D01*
X179338214Y-107279009D02*
X179290595Y-107326628D01*
X179290595Y-107326628D02*
X179242976Y-107421866D01*
X179242976Y-107421866D02*
X179242976Y-107612342D01*
X179242976Y-107612342D02*
X179290595Y-107707580D01*
X179290595Y-107707580D02*
X179338214Y-107755200D01*
X179338214Y-107755200D02*
X179433452Y-107802819D01*
X179433452Y-107802819D02*
X179623928Y-107802819D01*
X179623928Y-107802819D02*
X179719166Y-107755200D01*
X179719166Y-107755200D02*
X179766785Y-107707580D01*
X179766785Y-107707580D02*
X179814404Y-107612342D01*
X179814404Y-107612342D02*
X179814404Y-107421866D01*
X179814404Y-107421866D02*
X179766785Y-107326628D01*
X179766785Y-107326628D02*
X179719166Y-107279009D01*
X179719166Y-107279009D02*
X179623928Y-107231390D01*
X158785642Y-88752819D02*
X158452309Y-88276628D01*
X158214214Y-88752819D02*
X158214214Y-87752819D01*
X158214214Y-87752819D02*
X158595166Y-87752819D01*
X158595166Y-87752819D02*
X158690404Y-87800438D01*
X158690404Y-87800438D02*
X158738023Y-87848057D01*
X158738023Y-87848057D02*
X158785642Y-87943295D01*
X158785642Y-87943295D02*
X158785642Y-88086152D01*
X158785642Y-88086152D02*
X158738023Y-88181390D01*
X158738023Y-88181390D02*
X158690404Y-88229009D01*
X158690404Y-88229009D02*
X158595166Y-88276628D01*
X158595166Y-88276628D02*
X158214214Y-88276628D01*
X159738023Y-88752819D02*
X159166595Y-88752819D01*
X159452309Y-88752819D02*
X159452309Y-87752819D01*
X159452309Y-87752819D02*
X159357071Y-87895676D01*
X159357071Y-87895676D02*
X159261833Y-87990914D01*
X159261833Y-87990914D02*
X159166595Y-88038533D01*
X160690404Y-88752819D02*
X160118976Y-88752819D01*
X160404690Y-88752819D02*
X160404690Y-87752819D01*
X160404690Y-87752819D02*
X160309452Y-87895676D01*
X160309452Y-87895676D02*
X160214214Y-87990914D01*
X160214214Y-87990914D02*
X160118976Y-88038533D01*
X180649714Y-89100819D02*
X180649714Y-88100819D01*
X180649714Y-88100819D02*
X180887809Y-88100819D01*
X180887809Y-88100819D02*
X181030666Y-88148438D01*
X181030666Y-88148438D02*
X181125904Y-88243676D01*
X181125904Y-88243676D02*
X181173523Y-88338914D01*
X181173523Y-88338914D02*
X181221142Y-88529390D01*
X181221142Y-88529390D02*
X181221142Y-88672247D01*
X181221142Y-88672247D02*
X181173523Y-88862723D01*
X181173523Y-88862723D02*
X181125904Y-88957961D01*
X181125904Y-88957961D02*
X181030666Y-89053200D01*
X181030666Y-89053200D02*
X180887809Y-89100819D01*
X180887809Y-89100819D02*
X180649714Y-89100819D01*
X182173523Y-89100819D02*
X181602095Y-89100819D01*
X181887809Y-89100819D02*
X181887809Y-88100819D01*
X181887809Y-88100819D02*
X181792571Y-88243676D01*
X181792571Y-88243676D02*
X181697333Y-88338914D01*
X181697333Y-88338914D02*
X181602095Y-88386533D01*
X183030666Y-88434152D02*
X183030666Y-89100819D01*
X182792571Y-88053200D02*
X182554476Y-88767485D01*
X182554476Y-88767485D02*
X183173523Y-88767485D01*
X159261833Y-50652819D02*
X158928500Y-50176628D01*
X158690405Y-50652819D02*
X158690405Y-49652819D01*
X158690405Y-49652819D02*
X159071357Y-49652819D01*
X159071357Y-49652819D02*
X159166595Y-49700438D01*
X159166595Y-49700438D02*
X159214214Y-49748057D01*
X159214214Y-49748057D02*
X159261833Y-49843295D01*
X159261833Y-49843295D02*
X159261833Y-49986152D01*
X159261833Y-49986152D02*
X159214214Y-50081390D01*
X159214214Y-50081390D02*
X159166595Y-50129009D01*
X159166595Y-50129009D02*
X159071357Y-50176628D01*
X159071357Y-50176628D02*
X158690405Y-50176628D01*
X159738024Y-50652819D02*
X159928500Y-50652819D01*
X159928500Y-50652819D02*
X160023738Y-50605200D01*
X160023738Y-50605200D02*
X160071357Y-50557580D01*
X160071357Y-50557580D02*
X160166595Y-50414723D01*
X160166595Y-50414723D02*
X160214214Y-50224247D01*
X160214214Y-50224247D02*
X160214214Y-49843295D01*
X160214214Y-49843295D02*
X160166595Y-49748057D01*
X160166595Y-49748057D02*
X160118976Y-49700438D01*
X160118976Y-49700438D02*
X160023738Y-49652819D01*
X160023738Y-49652819D02*
X159833262Y-49652819D01*
X159833262Y-49652819D02*
X159738024Y-49700438D01*
X159738024Y-49700438D02*
X159690405Y-49748057D01*
X159690405Y-49748057D02*
X159642786Y-49843295D01*
X159642786Y-49843295D02*
X159642786Y-50081390D01*
X159642786Y-50081390D02*
X159690405Y-50176628D01*
X159690405Y-50176628D02*
X159738024Y-50224247D01*
X159738024Y-50224247D02*
X159833262Y-50271866D01*
X159833262Y-50271866D02*
X160023738Y-50271866D01*
X160023738Y-50271866D02*
X160118976Y-50224247D01*
X160118976Y-50224247D02*
X160166595Y-50176628D01*
X160166595Y-50176628D02*
X160214214Y-50081390D01*
X143016455Y-69702819D02*
X143016455Y-68702819D01*
X143016455Y-68702819D02*
X143254550Y-68702819D01*
X143254550Y-68702819D02*
X143397407Y-68750438D01*
X143397407Y-68750438D02*
X143492645Y-68845676D01*
X143492645Y-68845676D02*
X143540264Y-68940914D01*
X143540264Y-68940914D02*
X143587883Y-69131390D01*
X143587883Y-69131390D02*
X143587883Y-69274247D01*
X143587883Y-69274247D02*
X143540264Y-69464723D01*
X143540264Y-69464723D02*
X143492645Y-69559961D01*
X143492645Y-69559961D02*
X143397407Y-69655200D01*
X143397407Y-69655200D02*
X143254550Y-69702819D01*
X143254550Y-69702819D02*
X143016455Y-69702819D01*
X144445026Y-68702819D02*
X144254550Y-68702819D01*
X144254550Y-68702819D02*
X144159312Y-68750438D01*
X144159312Y-68750438D02*
X144111693Y-68798057D01*
X144111693Y-68798057D02*
X144016455Y-68940914D01*
X144016455Y-68940914D02*
X143968836Y-69131390D01*
X143968836Y-69131390D02*
X143968836Y-69512342D01*
X143968836Y-69512342D02*
X144016455Y-69607580D01*
X144016455Y-69607580D02*
X144064074Y-69655200D01*
X144064074Y-69655200D02*
X144159312Y-69702819D01*
X144159312Y-69702819D02*
X144349788Y-69702819D01*
X144349788Y-69702819D02*
X144445026Y-69655200D01*
X144445026Y-69655200D02*
X144492645Y-69607580D01*
X144492645Y-69607580D02*
X144540264Y-69512342D01*
X144540264Y-69512342D02*
X144540264Y-69274247D01*
X144540264Y-69274247D02*
X144492645Y-69179009D01*
X144492645Y-69179009D02*
X144445026Y-69131390D01*
X144445026Y-69131390D02*
X144349788Y-69083771D01*
X144349788Y-69083771D02*
X144159312Y-69083771D01*
X144159312Y-69083771D02*
X144064074Y-69131390D01*
X144064074Y-69131390D02*
X144016455Y-69179009D01*
X144016455Y-69179009D02*
X143968836Y-69274247D01*
X162001905Y-50652819D02*
X162001905Y-49652819D01*
X162001905Y-49652819D02*
X162240000Y-49652819D01*
X162240000Y-49652819D02*
X162382857Y-49700438D01*
X162382857Y-49700438D02*
X162478095Y-49795676D01*
X162478095Y-49795676D02*
X162525714Y-49890914D01*
X162525714Y-49890914D02*
X162573333Y-50081390D01*
X162573333Y-50081390D02*
X162573333Y-50224247D01*
X162573333Y-50224247D02*
X162525714Y-50414723D01*
X162525714Y-50414723D02*
X162478095Y-50509961D01*
X162478095Y-50509961D02*
X162382857Y-50605200D01*
X162382857Y-50605200D02*
X162240000Y-50652819D01*
X162240000Y-50652819D02*
X162001905Y-50652819D01*
X163144762Y-50081390D02*
X163049524Y-50033771D01*
X163049524Y-50033771D02*
X163001905Y-49986152D01*
X163001905Y-49986152D02*
X162954286Y-49890914D01*
X162954286Y-49890914D02*
X162954286Y-49843295D01*
X162954286Y-49843295D02*
X163001905Y-49748057D01*
X163001905Y-49748057D02*
X163049524Y-49700438D01*
X163049524Y-49700438D02*
X163144762Y-49652819D01*
X163144762Y-49652819D02*
X163335238Y-49652819D01*
X163335238Y-49652819D02*
X163430476Y-49700438D01*
X163430476Y-49700438D02*
X163478095Y-49748057D01*
X163478095Y-49748057D02*
X163525714Y-49843295D01*
X163525714Y-49843295D02*
X163525714Y-49890914D01*
X163525714Y-49890914D02*
X163478095Y-49986152D01*
X163478095Y-49986152D02*
X163430476Y-50033771D01*
X163430476Y-50033771D02*
X163335238Y-50081390D01*
X163335238Y-50081390D02*
X163144762Y-50081390D01*
X163144762Y-50081390D02*
X163049524Y-50129009D01*
X163049524Y-50129009D02*
X163001905Y-50176628D01*
X163001905Y-50176628D02*
X162954286Y-50271866D01*
X162954286Y-50271866D02*
X162954286Y-50462342D01*
X162954286Y-50462342D02*
X163001905Y-50557580D01*
X163001905Y-50557580D02*
X163049524Y-50605200D01*
X163049524Y-50605200D02*
X163144762Y-50652819D01*
X163144762Y-50652819D02*
X163335238Y-50652819D01*
X163335238Y-50652819D02*
X163430476Y-50605200D01*
X163430476Y-50605200D02*
X163478095Y-50557580D01*
X163478095Y-50557580D02*
X163525714Y-50462342D01*
X163525714Y-50462342D02*
X163525714Y-50271866D01*
X163525714Y-50271866D02*
X163478095Y-50176628D01*
X163478095Y-50176628D02*
X163430476Y-50129009D01*
X163430476Y-50129009D02*
X163335238Y-50081390D01*
X129563905Y-69542819D02*
X129563905Y-68542819D01*
X129563905Y-68542819D02*
X129802000Y-68542819D01*
X129802000Y-68542819D02*
X129944857Y-68590438D01*
X129944857Y-68590438D02*
X130040095Y-68685676D01*
X130040095Y-68685676D02*
X130087714Y-68780914D01*
X130087714Y-68780914D02*
X130135333Y-68971390D01*
X130135333Y-68971390D02*
X130135333Y-69114247D01*
X130135333Y-69114247D02*
X130087714Y-69304723D01*
X130087714Y-69304723D02*
X130040095Y-69399961D01*
X130040095Y-69399961D02*
X129944857Y-69495200D01*
X129944857Y-69495200D02*
X129802000Y-69542819D01*
X129802000Y-69542819D02*
X129563905Y-69542819D01*
X130468667Y-68542819D02*
X131135333Y-68542819D01*
X131135333Y-68542819D02*
X130706762Y-69542819D01*
X134707333Y-59541580D02*
X134659714Y-59589200D01*
X134659714Y-59589200D02*
X134516857Y-59636819D01*
X134516857Y-59636819D02*
X134421619Y-59636819D01*
X134421619Y-59636819D02*
X134278762Y-59589200D01*
X134278762Y-59589200D02*
X134183524Y-59493961D01*
X134183524Y-59493961D02*
X134135905Y-59398723D01*
X134135905Y-59398723D02*
X134088286Y-59208247D01*
X134088286Y-59208247D02*
X134088286Y-59065390D01*
X134088286Y-59065390D02*
X134135905Y-58874914D01*
X134135905Y-58874914D02*
X134183524Y-58779676D01*
X134183524Y-58779676D02*
X134278762Y-58684438D01*
X134278762Y-58684438D02*
X134421619Y-58636819D01*
X134421619Y-58636819D02*
X134516857Y-58636819D01*
X134516857Y-58636819D02*
X134659714Y-58684438D01*
X134659714Y-58684438D02*
X134707333Y-58732057D01*
X135040667Y-58636819D02*
X135659714Y-58636819D01*
X135659714Y-58636819D02*
X135326381Y-59017771D01*
X135326381Y-59017771D02*
X135469238Y-59017771D01*
X135469238Y-59017771D02*
X135564476Y-59065390D01*
X135564476Y-59065390D02*
X135612095Y-59113009D01*
X135612095Y-59113009D02*
X135659714Y-59208247D01*
X135659714Y-59208247D02*
X135659714Y-59446342D01*
X135659714Y-59446342D02*
X135612095Y-59541580D01*
X135612095Y-59541580D02*
X135564476Y-59589200D01*
X135564476Y-59589200D02*
X135469238Y-59636819D01*
X135469238Y-59636819D02*
X135183524Y-59636819D01*
X135183524Y-59636819D02*
X135088286Y-59589200D01*
X135088286Y-59589200D02*
X135040667Y-59541580D01*
X180626455Y-122426819D02*
X180626455Y-123236342D01*
X180626455Y-123236342D02*
X180674074Y-123331580D01*
X180674074Y-123331580D02*
X180721693Y-123379200D01*
X180721693Y-123379200D02*
X180816931Y-123426819D01*
X180816931Y-123426819D02*
X181007407Y-123426819D01*
X181007407Y-123426819D02*
X181102645Y-123379200D01*
X181102645Y-123379200D02*
X181150264Y-123331580D01*
X181150264Y-123331580D02*
X181197883Y-123236342D01*
X181197883Y-123236342D02*
X181197883Y-122426819D01*
X182197883Y-123426819D02*
X181626455Y-123426819D01*
X181912169Y-123426819D02*
X181912169Y-122426819D01*
X181912169Y-122426819D02*
X181816931Y-122569676D01*
X181816931Y-122569676D02*
X181721693Y-122664914D01*
X181721693Y-122664914D02*
X181626455Y-122712533D01*
X183055026Y-122760152D02*
X183055026Y-123426819D01*
X182816931Y-122379200D02*
X182578836Y-123093485D01*
X182578836Y-123093485D02*
X183197883Y-123093485D01*
X199929905Y-51808819D02*
X199929905Y-52618342D01*
X199929905Y-52618342D02*
X199977524Y-52713580D01*
X199977524Y-52713580D02*
X200025143Y-52761200D01*
X200025143Y-52761200D02*
X200120381Y-52808819D01*
X200120381Y-52808819D02*
X200310857Y-52808819D01*
X200310857Y-52808819D02*
X200406095Y-52761200D01*
X200406095Y-52761200D02*
X200453714Y-52713580D01*
X200453714Y-52713580D02*
X200501333Y-52618342D01*
X200501333Y-52618342D02*
X200501333Y-51808819D01*
X200882286Y-51808819D02*
X201501333Y-51808819D01*
X201501333Y-51808819D02*
X201168000Y-52189771D01*
X201168000Y-52189771D02*
X201310857Y-52189771D01*
X201310857Y-52189771D02*
X201406095Y-52237390D01*
X201406095Y-52237390D02*
X201453714Y-52285009D01*
X201453714Y-52285009D02*
X201501333Y-52380247D01*
X201501333Y-52380247D02*
X201501333Y-52618342D01*
X201501333Y-52618342D02*
X201453714Y-52713580D01*
X201453714Y-52713580D02*
X201406095Y-52761200D01*
X201406095Y-52761200D02*
X201310857Y-52808819D01*
X201310857Y-52808819D02*
X201025143Y-52808819D01*
X201025143Y-52808819D02*
X200929905Y-52761200D01*
X200929905Y-52761200D02*
X200882286Y-52713580D01*
X202358476Y-52142152D02*
X202358476Y-52808819D01*
X202120381Y-51761200D02*
X201882286Y-52475485D01*
X201882286Y-52475485D02*
X202501333Y-52475485D01*
X161829905Y-89908819D02*
X161829905Y-90718342D01*
X161829905Y-90718342D02*
X161877524Y-90813580D01*
X161877524Y-90813580D02*
X161925143Y-90861200D01*
X161925143Y-90861200D02*
X162020381Y-90908819D01*
X162020381Y-90908819D02*
X162210857Y-90908819D01*
X162210857Y-90908819D02*
X162306095Y-90861200D01*
X162306095Y-90861200D02*
X162353714Y-90813580D01*
X162353714Y-90813580D02*
X162401333Y-90718342D01*
X162401333Y-90718342D02*
X162401333Y-89908819D01*
X162829905Y-90004057D02*
X162877524Y-89956438D01*
X162877524Y-89956438D02*
X162972762Y-89908819D01*
X162972762Y-89908819D02*
X163210857Y-89908819D01*
X163210857Y-89908819D02*
X163306095Y-89956438D01*
X163306095Y-89956438D02*
X163353714Y-90004057D01*
X163353714Y-90004057D02*
X163401333Y-90099295D01*
X163401333Y-90099295D02*
X163401333Y-90194533D01*
X163401333Y-90194533D02*
X163353714Y-90337390D01*
X163353714Y-90337390D02*
X162782286Y-90908819D01*
X162782286Y-90908819D02*
X163401333Y-90908819D01*
X164258476Y-89908819D02*
X164068000Y-89908819D01*
X164068000Y-89908819D02*
X163972762Y-89956438D01*
X163972762Y-89956438D02*
X163925143Y-90004057D01*
X163925143Y-90004057D02*
X163829905Y-90146914D01*
X163829905Y-90146914D02*
X163782286Y-90337390D01*
X163782286Y-90337390D02*
X163782286Y-90718342D01*
X163782286Y-90718342D02*
X163829905Y-90813580D01*
X163829905Y-90813580D02*
X163877524Y-90861200D01*
X163877524Y-90861200D02*
X163972762Y-90908819D01*
X163972762Y-90908819D02*
X164163238Y-90908819D01*
X164163238Y-90908819D02*
X164258476Y-90861200D01*
X164258476Y-90861200D02*
X164306095Y-90813580D01*
X164306095Y-90813580D02*
X164353714Y-90718342D01*
X164353714Y-90718342D02*
X164353714Y-90480247D01*
X164353714Y-90480247D02*
X164306095Y-90385009D01*
X164306095Y-90385009D02*
X164258476Y-90337390D01*
X164258476Y-90337390D02*
X164163238Y-90289771D01*
X164163238Y-90289771D02*
X163972762Y-90289771D01*
X163972762Y-90289771D02*
X163877524Y-90337390D01*
X163877524Y-90337390D02*
X163829905Y-90385009D01*
X163829905Y-90385009D02*
X163782286Y-90480247D01*
X203509714Y-83826819D02*
X203509714Y-82826819D01*
X203509714Y-82826819D02*
X203747809Y-82826819D01*
X203747809Y-82826819D02*
X203890666Y-82874438D01*
X203890666Y-82874438D02*
X203985904Y-82969676D01*
X203985904Y-82969676D02*
X204033523Y-83064914D01*
X204033523Y-83064914D02*
X204081142Y-83255390D01*
X204081142Y-83255390D02*
X204081142Y-83398247D01*
X204081142Y-83398247D02*
X204033523Y-83588723D01*
X204033523Y-83588723D02*
X203985904Y-83683961D01*
X203985904Y-83683961D02*
X203890666Y-83779200D01*
X203890666Y-83779200D02*
X203747809Y-83826819D01*
X203747809Y-83826819D02*
X203509714Y-83826819D01*
X205033523Y-83826819D02*
X204462095Y-83826819D01*
X204747809Y-83826819D02*
X204747809Y-82826819D01*
X204747809Y-82826819D02*
X204652571Y-82969676D01*
X204652571Y-82969676D02*
X204557333Y-83064914D01*
X204557333Y-83064914D02*
X204462095Y-83112533D01*
X205604952Y-83255390D02*
X205509714Y-83207771D01*
X205509714Y-83207771D02*
X205462095Y-83160152D01*
X205462095Y-83160152D02*
X205414476Y-83064914D01*
X205414476Y-83064914D02*
X205414476Y-83017295D01*
X205414476Y-83017295D02*
X205462095Y-82922057D01*
X205462095Y-82922057D02*
X205509714Y-82874438D01*
X205509714Y-82874438D02*
X205604952Y-82826819D01*
X205604952Y-82826819D02*
X205795428Y-82826819D01*
X205795428Y-82826819D02*
X205890666Y-82874438D01*
X205890666Y-82874438D02*
X205938285Y-82922057D01*
X205938285Y-82922057D02*
X205985904Y-83017295D01*
X205985904Y-83017295D02*
X205985904Y-83064914D01*
X205985904Y-83064914D02*
X205938285Y-83160152D01*
X205938285Y-83160152D02*
X205890666Y-83207771D01*
X205890666Y-83207771D02*
X205795428Y-83255390D01*
X205795428Y-83255390D02*
X205604952Y-83255390D01*
X205604952Y-83255390D02*
X205509714Y-83303009D01*
X205509714Y-83303009D02*
X205462095Y-83350628D01*
X205462095Y-83350628D02*
X205414476Y-83445866D01*
X205414476Y-83445866D02*
X205414476Y-83636342D01*
X205414476Y-83636342D02*
X205462095Y-83731580D01*
X205462095Y-83731580D02*
X205509714Y-83779200D01*
X205509714Y-83779200D02*
X205604952Y-83826819D01*
X205604952Y-83826819D02*
X205795428Y-83826819D01*
X205795428Y-83826819D02*
X205890666Y-83779200D01*
X205890666Y-83779200D02*
X205938285Y-83731580D01*
X205938285Y-83731580D02*
X205985904Y-83636342D01*
X205985904Y-83636342D02*
X205985904Y-83445866D01*
X205985904Y-83445866D02*
X205938285Y-83350628D01*
X205938285Y-83350628D02*
X205890666Y-83303009D01*
X205890666Y-83303009D02*
X205795428Y-83255390D01*
X180596455Y-84326819D02*
X180596455Y-85136342D01*
X180596455Y-85136342D02*
X180644074Y-85231580D01*
X180644074Y-85231580D02*
X180691693Y-85279200D01*
X180691693Y-85279200D02*
X180786931Y-85326819D01*
X180786931Y-85326819D02*
X180977407Y-85326819D01*
X180977407Y-85326819D02*
X181072645Y-85279200D01*
X181072645Y-85279200D02*
X181120264Y-85231580D01*
X181120264Y-85231580D02*
X181167883Y-85136342D01*
X181167883Y-85136342D02*
X181167883Y-84326819D01*
X182167883Y-85326819D02*
X181596455Y-85326819D01*
X181882169Y-85326819D02*
X181882169Y-84326819D01*
X181882169Y-84326819D02*
X181786931Y-84469676D01*
X181786931Y-84469676D02*
X181691693Y-84564914D01*
X181691693Y-84564914D02*
X181596455Y-84612533D01*
X182548836Y-84422057D02*
X182596455Y-84374438D01*
X182596455Y-84374438D02*
X182691693Y-84326819D01*
X182691693Y-84326819D02*
X182929788Y-84326819D01*
X182929788Y-84326819D02*
X183025026Y-84374438D01*
X183025026Y-84374438D02*
X183072645Y-84422057D01*
X183072645Y-84422057D02*
X183120264Y-84517295D01*
X183120264Y-84517295D02*
X183120264Y-84612533D01*
X183120264Y-84612533D02*
X183072645Y-84755390D01*
X183072645Y-84755390D02*
X182501217Y-85326819D01*
X182501217Y-85326819D02*
X183120264Y-85326819D01*
X180596455Y-65286819D02*
X180596455Y-66096342D01*
X180596455Y-66096342D02*
X180644074Y-66191580D01*
X180644074Y-66191580D02*
X180691693Y-66239200D01*
X180691693Y-66239200D02*
X180786931Y-66286819D01*
X180786931Y-66286819D02*
X180977407Y-66286819D01*
X180977407Y-66286819D02*
X181072645Y-66239200D01*
X181072645Y-66239200D02*
X181120264Y-66191580D01*
X181120264Y-66191580D02*
X181167883Y-66096342D01*
X181167883Y-66096342D02*
X181167883Y-65286819D01*
X182167883Y-66286819D02*
X181596455Y-66286819D01*
X181882169Y-66286819D02*
X181882169Y-65286819D01*
X181882169Y-65286819D02*
X181786931Y-65429676D01*
X181786931Y-65429676D02*
X181691693Y-65524914D01*
X181691693Y-65524914D02*
X181596455Y-65572533D01*
X183120264Y-66286819D02*
X182548836Y-66286819D01*
X182834550Y-66286819D02*
X182834550Y-65286819D01*
X182834550Y-65286819D02*
X182739312Y-65429676D01*
X182739312Y-65429676D02*
X182644074Y-65524914D01*
X182644074Y-65524914D02*
X182548836Y-65572533D01*
X142992645Y-65286819D02*
X142992645Y-66096342D01*
X142992645Y-66096342D02*
X143040264Y-66191580D01*
X143040264Y-66191580D02*
X143087883Y-66239200D01*
X143087883Y-66239200D02*
X143183121Y-66286819D01*
X143183121Y-66286819D02*
X143373597Y-66286819D01*
X143373597Y-66286819D02*
X143468835Y-66239200D01*
X143468835Y-66239200D02*
X143516454Y-66191580D01*
X143516454Y-66191580D02*
X143564073Y-66096342D01*
X143564073Y-66096342D02*
X143564073Y-65286819D01*
X143992645Y-65382057D02*
X144040264Y-65334438D01*
X144040264Y-65334438D02*
X144135502Y-65286819D01*
X144135502Y-65286819D02*
X144373597Y-65286819D01*
X144373597Y-65286819D02*
X144468835Y-65334438D01*
X144468835Y-65334438D02*
X144516454Y-65382057D01*
X144516454Y-65382057D02*
X144564073Y-65477295D01*
X144564073Y-65477295D02*
X144564073Y-65572533D01*
X144564073Y-65572533D02*
X144516454Y-65715390D01*
X144516454Y-65715390D02*
X143945026Y-66286819D01*
X143945026Y-66286819D02*
X144564073Y-66286819D01*
X180649714Y-107802819D02*
X180649714Y-106802819D01*
X180649714Y-106802819D02*
X180887809Y-106802819D01*
X180887809Y-106802819D02*
X181030666Y-106850438D01*
X181030666Y-106850438D02*
X181125904Y-106945676D01*
X181125904Y-106945676D02*
X181173523Y-107040914D01*
X181173523Y-107040914D02*
X181221142Y-107231390D01*
X181221142Y-107231390D02*
X181221142Y-107374247D01*
X181221142Y-107374247D02*
X181173523Y-107564723D01*
X181173523Y-107564723D02*
X181125904Y-107659961D01*
X181125904Y-107659961D02*
X181030666Y-107755200D01*
X181030666Y-107755200D02*
X180887809Y-107802819D01*
X180887809Y-107802819D02*
X180649714Y-107802819D01*
X182173523Y-107802819D02*
X181602095Y-107802819D01*
X181887809Y-107802819D02*
X181887809Y-106802819D01*
X181887809Y-106802819D02*
X181792571Y-106945676D01*
X181792571Y-106945676D02*
X181697333Y-107040914D01*
X181697333Y-107040914D02*
X181602095Y-107088533D01*
X183078285Y-106802819D02*
X182602095Y-106802819D01*
X182602095Y-106802819D02*
X182554476Y-107279009D01*
X182554476Y-107279009D02*
X182602095Y-107231390D01*
X182602095Y-107231390D02*
X182697333Y-107183771D01*
X182697333Y-107183771D02*
X182935428Y-107183771D01*
X182935428Y-107183771D02*
X183030666Y-107231390D01*
X183030666Y-107231390D02*
X183078285Y-107279009D01*
X183078285Y-107279009D02*
X183125904Y-107374247D01*
X183125904Y-107374247D02*
X183125904Y-107612342D01*
X183125904Y-107612342D02*
X183078285Y-107707580D01*
X183078285Y-107707580D02*
X183030666Y-107755200D01*
X183030666Y-107755200D02*
X182935428Y-107802819D01*
X182935428Y-107802819D02*
X182697333Y-107802819D01*
X182697333Y-107802819D02*
X182602095Y-107755200D01*
X182602095Y-107755200D02*
X182554476Y-107707580D01*
X204335142Y-80515319D02*
X204001809Y-80039128D01*
X203763714Y-80515319D02*
X203763714Y-79515319D01*
X203763714Y-79515319D02*
X204144666Y-79515319D01*
X204144666Y-79515319D02*
X204239904Y-79562938D01*
X204239904Y-79562938D02*
X204287523Y-79610557D01*
X204287523Y-79610557D02*
X204335142Y-79705795D01*
X204335142Y-79705795D02*
X204335142Y-79848652D01*
X204335142Y-79848652D02*
X204287523Y-79943890D01*
X204287523Y-79943890D02*
X204239904Y-79991509D01*
X204239904Y-79991509D02*
X204144666Y-80039128D01*
X204144666Y-80039128D02*
X203763714Y-80039128D01*
X204716095Y-79610557D02*
X204763714Y-79562938D01*
X204763714Y-79562938D02*
X204858952Y-79515319D01*
X204858952Y-79515319D02*
X205097047Y-79515319D01*
X205097047Y-79515319D02*
X205192285Y-79562938D01*
X205192285Y-79562938D02*
X205239904Y-79610557D01*
X205239904Y-79610557D02*
X205287523Y-79705795D01*
X205287523Y-79705795D02*
X205287523Y-79801033D01*
X205287523Y-79801033D02*
X205239904Y-79943890D01*
X205239904Y-79943890D02*
X204668476Y-80515319D01*
X204668476Y-80515319D02*
X205287523Y-80515319D01*
X206239904Y-80515319D02*
X205668476Y-80515319D01*
X205954190Y-80515319D02*
X205954190Y-79515319D01*
X205954190Y-79515319D02*
X205858952Y-79658176D01*
X205858952Y-79658176D02*
X205763714Y-79753414D01*
X205763714Y-79753414D02*
X205668476Y-79801033D01*
X132254666Y-73622819D02*
X132254666Y-74337104D01*
X132254666Y-74337104D02*
X132207047Y-74479961D01*
X132207047Y-74479961D02*
X132111809Y-74575200D01*
X132111809Y-74575200D02*
X131968952Y-74622819D01*
X131968952Y-74622819D02*
X131873714Y-74622819D01*
X132683238Y-73718057D02*
X132730857Y-73670438D01*
X132730857Y-73670438D02*
X132826095Y-73622819D01*
X132826095Y-73622819D02*
X133064190Y-73622819D01*
X133064190Y-73622819D02*
X133159428Y-73670438D01*
X133159428Y-73670438D02*
X133207047Y-73718057D01*
X133207047Y-73718057D02*
X133254666Y-73813295D01*
X133254666Y-73813295D02*
X133254666Y-73908533D01*
X133254666Y-73908533D02*
X133207047Y-74051390D01*
X133207047Y-74051390D02*
X132635619Y-74622819D01*
X132635619Y-74622819D02*
X133254666Y-74622819D01*
X140276383Y-69702819D02*
X139943050Y-69226628D01*
X139704955Y-69702819D02*
X139704955Y-68702819D01*
X139704955Y-68702819D02*
X140085907Y-68702819D01*
X140085907Y-68702819D02*
X140181145Y-68750438D01*
X140181145Y-68750438D02*
X140228764Y-68798057D01*
X140228764Y-68798057D02*
X140276383Y-68893295D01*
X140276383Y-68893295D02*
X140276383Y-69036152D01*
X140276383Y-69036152D02*
X140228764Y-69131390D01*
X140228764Y-69131390D02*
X140181145Y-69179009D01*
X140181145Y-69179009D02*
X140085907Y-69226628D01*
X140085907Y-69226628D02*
X139704955Y-69226628D01*
X140847812Y-69131390D02*
X140752574Y-69083771D01*
X140752574Y-69083771D02*
X140704955Y-69036152D01*
X140704955Y-69036152D02*
X140657336Y-68940914D01*
X140657336Y-68940914D02*
X140657336Y-68893295D01*
X140657336Y-68893295D02*
X140704955Y-68798057D01*
X140704955Y-68798057D02*
X140752574Y-68750438D01*
X140752574Y-68750438D02*
X140847812Y-68702819D01*
X140847812Y-68702819D02*
X141038288Y-68702819D01*
X141038288Y-68702819D02*
X141133526Y-68750438D01*
X141133526Y-68750438D02*
X141181145Y-68798057D01*
X141181145Y-68798057D02*
X141228764Y-68893295D01*
X141228764Y-68893295D02*
X141228764Y-68940914D01*
X141228764Y-68940914D02*
X141181145Y-69036152D01*
X141181145Y-69036152D02*
X141133526Y-69083771D01*
X141133526Y-69083771D02*
X141038288Y-69131390D01*
X141038288Y-69131390D02*
X140847812Y-69131390D01*
X140847812Y-69131390D02*
X140752574Y-69179009D01*
X140752574Y-69179009D02*
X140704955Y-69226628D01*
X140704955Y-69226628D02*
X140657336Y-69321866D01*
X140657336Y-69321866D02*
X140657336Y-69512342D01*
X140657336Y-69512342D02*
X140704955Y-69607580D01*
X140704955Y-69607580D02*
X140752574Y-69655200D01*
X140752574Y-69655200D02*
X140847812Y-69702819D01*
X140847812Y-69702819D02*
X141038288Y-69702819D01*
X141038288Y-69702819D02*
X141133526Y-69655200D01*
X141133526Y-69655200D02*
X141181145Y-69607580D01*
X141181145Y-69607580D02*
X141228764Y-69512342D01*
X141228764Y-69512342D02*
X141228764Y-69321866D01*
X141228764Y-69321866D02*
X141181145Y-69226628D01*
X141181145Y-69226628D02*
X141133526Y-69179009D01*
X141133526Y-69179009D02*
X141038288Y-69131390D01*
X162083905Y-108958819D02*
X162083905Y-109768342D01*
X162083905Y-109768342D02*
X162131524Y-109863580D01*
X162131524Y-109863580D02*
X162179143Y-109911200D01*
X162179143Y-109911200D02*
X162274381Y-109958819D01*
X162274381Y-109958819D02*
X162464857Y-109958819D01*
X162464857Y-109958819D02*
X162560095Y-109911200D01*
X162560095Y-109911200D02*
X162607714Y-109863580D01*
X162607714Y-109863580D02*
X162655333Y-109768342D01*
X162655333Y-109768342D02*
X162655333Y-108958819D01*
X163083905Y-109054057D02*
X163131524Y-109006438D01*
X163131524Y-109006438D02*
X163226762Y-108958819D01*
X163226762Y-108958819D02*
X163464857Y-108958819D01*
X163464857Y-108958819D02*
X163560095Y-109006438D01*
X163560095Y-109006438D02*
X163607714Y-109054057D01*
X163607714Y-109054057D02*
X163655333Y-109149295D01*
X163655333Y-109149295D02*
X163655333Y-109244533D01*
X163655333Y-109244533D02*
X163607714Y-109387390D01*
X163607714Y-109387390D02*
X163036286Y-109958819D01*
X163036286Y-109958819D02*
X163655333Y-109958819D01*
X163988667Y-108958819D02*
X164655333Y-108958819D01*
X164655333Y-108958819D02*
X164226762Y-109958819D01*
X140285833Y-88752819D02*
X139952500Y-88276628D01*
X139714405Y-88752819D02*
X139714405Y-87752819D01*
X139714405Y-87752819D02*
X140095357Y-87752819D01*
X140095357Y-87752819D02*
X140190595Y-87800438D01*
X140190595Y-87800438D02*
X140238214Y-87848057D01*
X140238214Y-87848057D02*
X140285833Y-87943295D01*
X140285833Y-87943295D02*
X140285833Y-88086152D01*
X140285833Y-88086152D02*
X140238214Y-88181390D01*
X140238214Y-88181390D02*
X140190595Y-88229009D01*
X140190595Y-88229009D02*
X140095357Y-88276628D01*
X140095357Y-88276628D02*
X139714405Y-88276628D01*
X141142976Y-88086152D02*
X141142976Y-88752819D01*
X140904881Y-87705200D02*
X140666786Y-88419485D01*
X140666786Y-88419485D02*
X141285833Y-88419485D01*
X149551609Y-136090819D02*
X149218276Y-135614628D01*
X148980181Y-136090819D02*
X148980181Y-135090819D01*
X148980181Y-135090819D02*
X149361133Y-135090819D01*
X149361133Y-135090819D02*
X149456371Y-135138438D01*
X149456371Y-135138438D02*
X149503990Y-135186057D01*
X149503990Y-135186057D02*
X149551609Y-135281295D01*
X149551609Y-135281295D02*
X149551609Y-135424152D01*
X149551609Y-135424152D02*
X149503990Y-135519390D01*
X149503990Y-135519390D02*
X149456371Y-135567009D01*
X149456371Y-135567009D02*
X149361133Y-135614628D01*
X149361133Y-135614628D02*
X148980181Y-135614628D01*
X150408752Y-135090819D02*
X150218276Y-135090819D01*
X150218276Y-135090819D02*
X150123038Y-135138438D01*
X150123038Y-135138438D02*
X150075419Y-135186057D01*
X150075419Y-135186057D02*
X149980181Y-135328914D01*
X149980181Y-135328914D02*
X149932562Y-135519390D01*
X149932562Y-135519390D02*
X149932562Y-135900342D01*
X149932562Y-135900342D02*
X149980181Y-135995580D01*
X149980181Y-135995580D02*
X150027800Y-136043200D01*
X150027800Y-136043200D02*
X150123038Y-136090819D01*
X150123038Y-136090819D02*
X150313514Y-136090819D01*
X150313514Y-136090819D02*
X150408752Y-136043200D01*
X150408752Y-136043200D02*
X150456371Y-135995580D01*
X150456371Y-135995580D02*
X150503990Y-135900342D01*
X150503990Y-135900342D02*
X150503990Y-135662247D01*
X150503990Y-135662247D02*
X150456371Y-135567009D01*
X150456371Y-135567009D02*
X150408752Y-135519390D01*
X150408752Y-135519390D02*
X150313514Y-135471771D01*
X150313514Y-135471771D02*
X150123038Y-135471771D01*
X150123038Y-135471771D02*
X150027800Y-135519390D01*
X150027800Y-135519390D02*
X149980181Y-135567009D01*
X149980181Y-135567009D02*
X149932562Y-135662247D01*
X151923905Y-127978819D02*
X151923905Y-128788342D01*
X151923905Y-128788342D02*
X151971524Y-128883580D01*
X151971524Y-128883580D02*
X152019143Y-128931200D01*
X152019143Y-128931200D02*
X152114381Y-128978819D01*
X152114381Y-128978819D02*
X152304857Y-128978819D01*
X152304857Y-128978819D02*
X152400095Y-128931200D01*
X152400095Y-128931200D02*
X152447714Y-128883580D01*
X152447714Y-128883580D02*
X152495333Y-128788342D01*
X152495333Y-128788342D02*
X152495333Y-127978819D01*
X152923905Y-128074057D02*
X152971524Y-128026438D01*
X152971524Y-128026438D02*
X153066762Y-127978819D01*
X153066762Y-127978819D02*
X153304857Y-127978819D01*
X153304857Y-127978819D02*
X153400095Y-128026438D01*
X153400095Y-128026438D02*
X153447714Y-128074057D01*
X153447714Y-128074057D02*
X153495333Y-128169295D01*
X153495333Y-128169295D02*
X153495333Y-128264533D01*
X153495333Y-128264533D02*
X153447714Y-128407390D01*
X153447714Y-128407390D02*
X152876286Y-128978819D01*
X152876286Y-128978819D02*
X153495333Y-128978819D01*
X153876286Y-128074057D02*
X153923905Y-128026438D01*
X153923905Y-128026438D02*
X154019143Y-127978819D01*
X154019143Y-127978819D02*
X154257238Y-127978819D01*
X154257238Y-127978819D02*
X154352476Y-128026438D01*
X154352476Y-128026438D02*
X154400095Y-128074057D01*
X154400095Y-128074057D02*
X154447714Y-128169295D01*
X154447714Y-128169295D02*
X154447714Y-128264533D01*
X154447714Y-128264533D02*
X154400095Y-128407390D01*
X154400095Y-128407390D02*
X153828667Y-128978819D01*
X153828667Y-128978819D02*
X154447714Y-128978819D01*
X140285833Y-50652819D02*
X139952500Y-50176628D01*
X139714405Y-50652819D02*
X139714405Y-49652819D01*
X139714405Y-49652819D02*
X140095357Y-49652819D01*
X140095357Y-49652819D02*
X140190595Y-49700438D01*
X140190595Y-49700438D02*
X140238214Y-49748057D01*
X140238214Y-49748057D02*
X140285833Y-49843295D01*
X140285833Y-49843295D02*
X140285833Y-49986152D01*
X140285833Y-49986152D02*
X140238214Y-50081390D01*
X140238214Y-50081390D02*
X140190595Y-50129009D01*
X140190595Y-50129009D02*
X140095357Y-50176628D01*
X140095357Y-50176628D02*
X139714405Y-50176628D01*
X140619167Y-49652819D02*
X141285833Y-49652819D01*
X141285833Y-49652819D02*
X140857262Y-50652819D01*
X152169905Y-135582819D02*
X152169905Y-134582819D01*
X152169905Y-134582819D02*
X152408000Y-134582819D01*
X152408000Y-134582819D02*
X152550857Y-134630438D01*
X152550857Y-134630438D02*
X152646095Y-134725676D01*
X152646095Y-134725676D02*
X152693714Y-134820914D01*
X152693714Y-134820914D02*
X152741333Y-135011390D01*
X152741333Y-135011390D02*
X152741333Y-135154247D01*
X152741333Y-135154247D02*
X152693714Y-135344723D01*
X152693714Y-135344723D02*
X152646095Y-135439961D01*
X152646095Y-135439961D02*
X152550857Y-135535200D01*
X152550857Y-135535200D02*
X152408000Y-135582819D01*
X152408000Y-135582819D02*
X152169905Y-135582819D01*
X153598476Y-134916152D02*
X153598476Y-135582819D01*
X153360381Y-134535200D02*
X153122286Y-135249485D01*
X153122286Y-135249485D02*
X153741333Y-135249485D01*
X142779905Y-70858819D02*
X142779905Y-71668342D01*
X142779905Y-71668342D02*
X142827524Y-71763580D01*
X142827524Y-71763580D02*
X142875143Y-71811200D01*
X142875143Y-71811200D02*
X142970381Y-71858819D01*
X142970381Y-71858819D02*
X143160857Y-71858819D01*
X143160857Y-71858819D02*
X143256095Y-71811200D01*
X143256095Y-71811200D02*
X143303714Y-71763580D01*
X143303714Y-71763580D02*
X143351333Y-71668342D01*
X143351333Y-71668342D02*
X143351333Y-70858819D01*
X144351333Y-71858819D02*
X143779905Y-71858819D01*
X144065619Y-71858819D02*
X144065619Y-70858819D01*
X144065619Y-70858819D02*
X143970381Y-71001676D01*
X143970381Y-71001676D02*
X143875143Y-71096914D01*
X143875143Y-71096914D02*
X143779905Y-71144533D01*
X144827524Y-71858819D02*
X145018000Y-71858819D01*
X145018000Y-71858819D02*
X145113238Y-71811200D01*
X145113238Y-71811200D02*
X145160857Y-71763580D01*
X145160857Y-71763580D02*
X145256095Y-71620723D01*
X145256095Y-71620723D02*
X145303714Y-71430247D01*
X145303714Y-71430247D02*
X145303714Y-71049295D01*
X145303714Y-71049295D02*
X145256095Y-70954057D01*
X145256095Y-70954057D02*
X145208476Y-70906438D01*
X145208476Y-70906438D02*
X145113238Y-70858819D01*
X145113238Y-70858819D02*
X144922762Y-70858819D01*
X144922762Y-70858819D02*
X144827524Y-70906438D01*
X144827524Y-70906438D02*
X144779905Y-70954057D01*
X144779905Y-70954057D02*
X144732286Y-71049295D01*
X144732286Y-71049295D02*
X144732286Y-71287390D01*
X144732286Y-71287390D02*
X144779905Y-71382628D01*
X144779905Y-71382628D02*
X144827524Y-71430247D01*
X144827524Y-71430247D02*
X144922762Y-71477866D01*
X144922762Y-71477866D02*
X145113238Y-71477866D01*
X145113238Y-71477866D02*
X145208476Y-71430247D01*
X145208476Y-71430247D02*
X145256095Y-71382628D01*
X145256095Y-71382628D02*
X145303714Y-71287390D01*
X124293333Y-67415580D02*
X124245714Y-67463200D01*
X124245714Y-67463200D02*
X124102857Y-67510819D01*
X124102857Y-67510819D02*
X124007619Y-67510819D01*
X124007619Y-67510819D02*
X123864762Y-67463200D01*
X123864762Y-67463200D02*
X123769524Y-67367961D01*
X123769524Y-67367961D02*
X123721905Y-67272723D01*
X123721905Y-67272723D02*
X123674286Y-67082247D01*
X123674286Y-67082247D02*
X123674286Y-66939390D01*
X123674286Y-66939390D02*
X123721905Y-66748914D01*
X123721905Y-66748914D02*
X123769524Y-66653676D01*
X123769524Y-66653676D02*
X123864762Y-66558438D01*
X123864762Y-66558438D02*
X124007619Y-66510819D01*
X124007619Y-66510819D02*
X124102857Y-66510819D01*
X124102857Y-66510819D02*
X124245714Y-66558438D01*
X124245714Y-66558438D02*
X124293333Y-66606057D01*
X125150476Y-66510819D02*
X124960000Y-66510819D01*
X124960000Y-66510819D02*
X124864762Y-66558438D01*
X124864762Y-66558438D02*
X124817143Y-66606057D01*
X124817143Y-66606057D02*
X124721905Y-66748914D01*
X124721905Y-66748914D02*
X124674286Y-66939390D01*
X124674286Y-66939390D02*
X124674286Y-67320342D01*
X124674286Y-67320342D02*
X124721905Y-67415580D01*
X124721905Y-67415580D02*
X124769524Y-67463200D01*
X124769524Y-67463200D02*
X124864762Y-67510819D01*
X124864762Y-67510819D02*
X125055238Y-67510819D01*
X125055238Y-67510819D02*
X125150476Y-67463200D01*
X125150476Y-67463200D02*
X125198095Y-67415580D01*
X125198095Y-67415580D02*
X125245714Y-67320342D01*
X125245714Y-67320342D02*
X125245714Y-67082247D01*
X125245714Y-67082247D02*
X125198095Y-66987009D01*
X125198095Y-66987009D02*
X125150476Y-66939390D01*
X125150476Y-66939390D02*
X125055238Y-66891771D01*
X125055238Y-66891771D02*
X124864762Y-66891771D01*
X124864762Y-66891771D02*
X124769524Y-66939390D01*
X124769524Y-66939390D02*
X124721905Y-66987009D01*
X124721905Y-66987009D02*
X124674286Y-67082247D01*
X132746761Y-130090057D02*
X132651523Y-130042438D01*
X132651523Y-130042438D02*
X132556285Y-129947200D01*
X132556285Y-129947200D02*
X132413428Y-129804342D01*
X132413428Y-129804342D02*
X132318190Y-129756723D01*
X132318190Y-129756723D02*
X132222952Y-129756723D01*
X132270571Y-129994819D02*
X132175333Y-129947200D01*
X132175333Y-129947200D02*
X132080095Y-129851961D01*
X132080095Y-129851961D02*
X132032476Y-129661485D01*
X132032476Y-129661485D02*
X132032476Y-129328152D01*
X132032476Y-129328152D02*
X132080095Y-129137676D01*
X132080095Y-129137676D02*
X132175333Y-129042438D01*
X132175333Y-129042438D02*
X132270571Y-128994819D01*
X132270571Y-128994819D02*
X132461047Y-128994819D01*
X132461047Y-128994819D02*
X132556285Y-129042438D01*
X132556285Y-129042438D02*
X132651523Y-129137676D01*
X132651523Y-129137676D02*
X132699142Y-129328152D01*
X132699142Y-129328152D02*
X132699142Y-129661485D01*
X132699142Y-129661485D02*
X132651523Y-129851961D01*
X132651523Y-129851961D02*
X132556285Y-129947200D01*
X132556285Y-129947200D02*
X132461047Y-129994819D01*
X132461047Y-129994819D02*
X132270571Y-129994819D01*
X133651523Y-129994819D02*
X133080095Y-129994819D01*
X133365809Y-129994819D02*
X133365809Y-128994819D01*
X133365809Y-128994819D02*
X133270571Y-129137676D01*
X133270571Y-129137676D02*
X133175333Y-129232914D01*
X133175333Y-129232914D02*
X133080095Y-129280533D01*
X118991142Y-94942819D02*
X118657809Y-94466628D01*
X118419714Y-94942819D02*
X118419714Y-93942819D01*
X118419714Y-93942819D02*
X118800666Y-93942819D01*
X118800666Y-93942819D02*
X118895904Y-93990438D01*
X118895904Y-93990438D02*
X118943523Y-94038057D01*
X118943523Y-94038057D02*
X118991142Y-94133295D01*
X118991142Y-94133295D02*
X118991142Y-94276152D01*
X118991142Y-94276152D02*
X118943523Y-94371390D01*
X118943523Y-94371390D02*
X118895904Y-94419009D01*
X118895904Y-94419009D02*
X118800666Y-94466628D01*
X118800666Y-94466628D02*
X118419714Y-94466628D01*
X119943523Y-94942819D02*
X119372095Y-94942819D01*
X119657809Y-94942819D02*
X119657809Y-93942819D01*
X119657809Y-93942819D02*
X119562571Y-94085676D01*
X119562571Y-94085676D02*
X119467333Y-94180914D01*
X119467333Y-94180914D02*
X119372095Y-94228533D01*
X120800666Y-94276152D02*
X120800666Y-94942819D01*
X120562571Y-93895200D02*
X120324476Y-94609485D01*
X120324476Y-94609485D02*
X120943523Y-94609485D01*
X124547333Y-65637580D02*
X124499714Y-65685200D01*
X124499714Y-65685200D02*
X124356857Y-65732819D01*
X124356857Y-65732819D02*
X124261619Y-65732819D01*
X124261619Y-65732819D02*
X124118762Y-65685200D01*
X124118762Y-65685200D02*
X124023524Y-65589961D01*
X124023524Y-65589961D02*
X123975905Y-65494723D01*
X123975905Y-65494723D02*
X123928286Y-65304247D01*
X123928286Y-65304247D02*
X123928286Y-65161390D01*
X123928286Y-65161390D02*
X123975905Y-64970914D01*
X123975905Y-64970914D02*
X124023524Y-64875676D01*
X124023524Y-64875676D02*
X124118762Y-64780438D01*
X124118762Y-64780438D02*
X124261619Y-64732819D01*
X124261619Y-64732819D02*
X124356857Y-64732819D01*
X124356857Y-64732819D02*
X124499714Y-64780438D01*
X124499714Y-64780438D02*
X124547333Y-64828057D01*
X125452095Y-64732819D02*
X124975905Y-64732819D01*
X124975905Y-64732819D02*
X124928286Y-65209009D01*
X124928286Y-65209009D02*
X124975905Y-65161390D01*
X124975905Y-65161390D02*
X125071143Y-65113771D01*
X125071143Y-65113771D02*
X125309238Y-65113771D01*
X125309238Y-65113771D02*
X125404476Y-65161390D01*
X125404476Y-65161390D02*
X125452095Y-65209009D01*
X125452095Y-65209009D02*
X125499714Y-65304247D01*
X125499714Y-65304247D02*
X125499714Y-65542342D01*
X125499714Y-65542342D02*
X125452095Y-65637580D01*
X125452095Y-65637580D02*
X125404476Y-65685200D01*
X125404476Y-65685200D02*
X125309238Y-65732819D01*
X125309238Y-65732819D02*
X125071143Y-65732819D01*
X125071143Y-65732819D02*
X124975905Y-65685200D01*
X124975905Y-65685200D02*
X124928286Y-65637580D01*
X135215333Y-55477580D02*
X135167714Y-55525200D01*
X135167714Y-55525200D02*
X135024857Y-55572819D01*
X135024857Y-55572819D02*
X134929619Y-55572819D01*
X134929619Y-55572819D02*
X134786762Y-55525200D01*
X134786762Y-55525200D02*
X134691524Y-55429961D01*
X134691524Y-55429961D02*
X134643905Y-55334723D01*
X134643905Y-55334723D02*
X134596286Y-55144247D01*
X134596286Y-55144247D02*
X134596286Y-55001390D01*
X134596286Y-55001390D02*
X134643905Y-54810914D01*
X134643905Y-54810914D02*
X134691524Y-54715676D01*
X134691524Y-54715676D02*
X134786762Y-54620438D01*
X134786762Y-54620438D02*
X134929619Y-54572819D01*
X134929619Y-54572819D02*
X135024857Y-54572819D01*
X135024857Y-54572819D02*
X135167714Y-54620438D01*
X135167714Y-54620438D02*
X135215333Y-54668057D01*
X135596286Y-54668057D02*
X135643905Y-54620438D01*
X135643905Y-54620438D02*
X135739143Y-54572819D01*
X135739143Y-54572819D02*
X135977238Y-54572819D01*
X135977238Y-54572819D02*
X136072476Y-54620438D01*
X136072476Y-54620438D02*
X136120095Y-54668057D01*
X136120095Y-54668057D02*
X136167714Y-54763295D01*
X136167714Y-54763295D02*
X136167714Y-54858533D01*
X136167714Y-54858533D02*
X136120095Y-55001390D01*
X136120095Y-55001390D02*
X135548667Y-55572819D01*
X135548667Y-55572819D02*
X136167714Y-55572819D01*
X142992645Y-84326819D02*
X142992645Y-85136342D01*
X142992645Y-85136342D02*
X143040264Y-85231580D01*
X143040264Y-85231580D02*
X143087883Y-85279200D01*
X143087883Y-85279200D02*
X143183121Y-85326819D01*
X143183121Y-85326819D02*
X143373597Y-85326819D01*
X143373597Y-85326819D02*
X143468835Y-85279200D01*
X143468835Y-85279200D02*
X143516454Y-85231580D01*
X143516454Y-85231580D02*
X143564073Y-85136342D01*
X143564073Y-85136342D02*
X143564073Y-84326819D01*
X143945026Y-84326819D02*
X144564073Y-84326819D01*
X144564073Y-84326819D02*
X144230740Y-84707771D01*
X144230740Y-84707771D02*
X144373597Y-84707771D01*
X144373597Y-84707771D02*
X144468835Y-84755390D01*
X144468835Y-84755390D02*
X144516454Y-84803009D01*
X144516454Y-84803009D02*
X144564073Y-84898247D01*
X144564073Y-84898247D02*
X144564073Y-85136342D01*
X144564073Y-85136342D02*
X144516454Y-85231580D01*
X144516454Y-85231580D02*
X144468835Y-85279200D01*
X144468835Y-85279200D02*
X144373597Y-85326819D01*
X144373597Y-85326819D02*
X144087883Y-85326819D01*
X144087883Y-85326819D02*
X143992645Y-85279200D01*
X143992645Y-85279200D02*
X143945026Y-85231580D01*
X140285833Y-107802819D02*
X139952500Y-107326628D01*
X139714405Y-107802819D02*
X139714405Y-106802819D01*
X139714405Y-106802819D02*
X140095357Y-106802819D01*
X140095357Y-106802819D02*
X140190595Y-106850438D01*
X140190595Y-106850438D02*
X140238214Y-106898057D01*
X140238214Y-106898057D02*
X140285833Y-106993295D01*
X140285833Y-106993295D02*
X140285833Y-107136152D01*
X140285833Y-107136152D02*
X140238214Y-107231390D01*
X140238214Y-107231390D02*
X140190595Y-107279009D01*
X140190595Y-107279009D02*
X140095357Y-107326628D01*
X140095357Y-107326628D02*
X139714405Y-107326628D01*
X141190595Y-106802819D02*
X140714405Y-106802819D01*
X140714405Y-106802819D02*
X140666786Y-107279009D01*
X140666786Y-107279009D02*
X140714405Y-107231390D01*
X140714405Y-107231390D02*
X140809643Y-107183771D01*
X140809643Y-107183771D02*
X141047738Y-107183771D01*
X141047738Y-107183771D02*
X141142976Y-107231390D01*
X141142976Y-107231390D02*
X141190595Y-107279009D01*
X141190595Y-107279009D02*
X141238214Y-107374247D01*
X141238214Y-107374247D02*
X141238214Y-107612342D01*
X141238214Y-107612342D02*
X141190595Y-107707580D01*
X141190595Y-107707580D02*
X141142976Y-107755200D01*
X141142976Y-107755200D02*
X141047738Y-107802819D01*
X141047738Y-107802819D02*
X140809643Y-107802819D01*
X140809643Y-107802819D02*
X140714405Y-107755200D01*
X140714405Y-107755200D02*
X140666786Y-107707580D01*
X125959905Y-101103819D02*
X125959905Y-101913342D01*
X125959905Y-101913342D02*
X126007524Y-102008580D01*
X126007524Y-102008580D02*
X126055143Y-102056200D01*
X126055143Y-102056200D02*
X126150381Y-102103819D01*
X126150381Y-102103819D02*
X126340857Y-102103819D01*
X126340857Y-102103819D02*
X126436095Y-102056200D01*
X126436095Y-102056200D02*
X126483714Y-102008580D01*
X126483714Y-102008580D02*
X126531333Y-101913342D01*
X126531333Y-101913342D02*
X126531333Y-101103819D01*
X126912286Y-101103819D02*
X127531333Y-101103819D01*
X127531333Y-101103819D02*
X127198000Y-101484771D01*
X127198000Y-101484771D02*
X127340857Y-101484771D01*
X127340857Y-101484771D02*
X127436095Y-101532390D01*
X127436095Y-101532390D02*
X127483714Y-101580009D01*
X127483714Y-101580009D02*
X127531333Y-101675247D01*
X127531333Y-101675247D02*
X127531333Y-101913342D01*
X127531333Y-101913342D02*
X127483714Y-102008580D01*
X127483714Y-102008580D02*
X127436095Y-102056200D01*
X127436095Y-102056200D02*
X127340857Y-102103819D01*
X127340857Y-102103819D02*
X127055143Y-102103819D01*
X127055143Y-102103819D02*
X126959905Y-102056200D01*
X126959905Y-102056200D02*
X126912286Y-102008580D01*
X128102762Y-101532390D02*
X128007524Y-101484771D01*
X128007524Y-101484771D02*
X127959905Y-101437152D01*
X127959905Y-101437152D02*
X127912286Y-101341914D01*
X127912286Y-101341914D02*
X127912286Y-101294295D01*
X127912286Y-101294295D02*
X127959905Y-101199057D01*
X127959905Y-101199057D02*
X128007524Y-101151438D01*
X128007524Y-101151438D02*
X128102762Y-101103819D01*
X128102762Y-101103819D02*
X128293238Y-101103819D01*
X128293238Y-101103819D02*
X128388476Y-101151438D01*
X128388476Y-101151438D02*
X128436095Y-101199057D01*
X128436095Y-101199057D02*
X128483714Y-101294295D01*
X128483714Y-101294295D02*
X128483714Y-101341914D01*
X128483714Y-101341914D02*
X128436095Y-101437152D01*
X128436095Y-101437152D02*
X128388476Y-101484771D01*
X128388476Y-101484771D02*
X128293238Y-101532390D01*
X128293238Y-101532390D02*
X128102762Y-101532390D01*
X128102762Y-101532390D02*
X128007524Y-101580009D01*
X128007524Y-101580009D02*
X127959905Y-101627628D01*
X127959905Y-101627628D02*
X127912286Y-101722866D01*
X127912286Y-101722866D02*
X127912286Y-101913342D01*
X127912286Y-101913342D02*
X127959905Y-102008580D01*
X127959905Y-102008580D02*
X128007524Y-102056200D01*
X128007524Y-102056200D02*
X128102762Y-102103819D01*
X128102762Y-102103819D02*
X128293238Y-102103819D01*
X128293238Y-102103819D02*
X128388476Y-102056200D01*
X128388476Y-102056200D02*
X128436095Y-102008580D01*
X128436095Y-102008580D02*
X128483714Y-101913342D01*
X128483714Y-101913342D02*
X128483714Y-101722866D01*
X128483714Y-101722866D02*
X128436095Y-101627628D01*
X128436095Y-101627628D02*
X128388476Y-101580009D01*
X128388476Y-101580009D02*
X128293238Y-101532390D01*
X161599714Y-107802819D02*
X161599714Y-106802819D01*
X161599714Y-106802819D02*
X161837809Y-106802819D01*
X161837809Y-106802819D02*
X161980666Y-106850438D01*
X161980666Y-106850438D02*
X162075904Y-106945676D01*
X162075904Y-106945676D02*
X162123523Y-107040914D01*
X162123523Y-107040914D02*
X162171142Y-107231390D01*
X162171142Y-107231390D02*
X162171142Y-107374247D01*
X162171142Y-107374247D02*
X162123523Y-107564723D01*
X162123523Y-107564723D02*
X162075904Y-107659961D01*
X162075904Y-107659961D02*
X161980666Y-107755200D01*
X161980666Y-107755200D02*
X161837809Y-107802819D01*
X161837809Y-107802819D02*
X161599714Y-107802819D01*
X163123523Y-107802819D02*
X162552095Y-107802819D01*
X162837809Y-107802819D02*
X162837809Y-106802819D01*
X162837809Y-106802819D02*
X162742571Y-106945676D01*
X162742571Y-106945676D02*
X162647333Y-107040914D01*
X162647333Y-107040914D02*
X162552095Y-107088533D01*
X164075904Y-107802819D02*
X163504476Y-107802819D01*
X163790190Y-107802819D02*
X163790190Y-106802819D01*
X163790190Y-106802819D02*
X163694952Y-106945676D01*
X163694952Y-106945676D02*
X163599714Y-107040914D01*
X163599714Y-107040914D02*
X163504476Y-107088533D01*
X142779905Y-89908819D02*
X142779905Y-90718342D01*
X142779905Y-90718342D02*
X142827524Y-90813580D01*
X142827524Y-90813580D02*
X142875143Y-90861200D01*
X142875143Y-90861200D02*
X142970381Y-90908819D01*
X142970381Y-90908819D02*
X143160857Y-90908819D01*
X143160857Y-90908819D02*
X143256095Y-90861200D01*
X143256095Y-90861200D02*
X143303714Y-90813580D01*
X143303714Y-90813580D02*
X143351333Y-90718342D01*
X143351333Y-90718342D02*
X143351333Y-89908819D01*
X143779905Y-90004057D02*
X143827524Y-89956438D01*
X143827524Y-89956438D02*
X143922762Y-89908819D01*
X143922762Y-89908819D02*
X144160857Y-89908819D01*
X144160857Y-89908819D02*
X144256095Y-89956438D01*
X144256095Y-89956438D02*
X144303714Y-90004057D01*
X144303714Y-90004057D02*
X144351333Y-90099295D01*
X144351333Y-90099295D02*
X144351333Y-90194533D01*
X144351333Y-90194533D02*
X144303714Y-90337390D01*
X144303714Y-90337390D02*
X143732286Y-90908819D01*
X143732286Y-90908819D02*
X144351333Y-90908819D01*
X144970381Y-89908819D02*
X145065619Y-89908819D01*
X145065619Y-89908819D02*
X145160857Y-89956438D01*
X145160857Y-89956438D02*
X145208476Y-90004057D01*
X145208476Y-90004057D02*
X145256095Y-90099295D01*
X145256095Y-90099295D02*
X145303714Y-90289771D01*
X145303714Y-90289771D02*
X145303714Y-90527866D01*
X145303714Y-90527866D02*
X145256095Y-90718342D01*
X145256095Y-90718342D02*
X145208476Y-90813580D01*
X145208476Y-90813580D02*
X145160857Y-90861200D01*
X145160857Y-90861200D02*
X145065619Y-90908819D01*
X145065619Y-90908819D02*
X144970381Y-90908819D01*
X144970381Y-90908819D02*
X144875143Y-90861200D01*
X144875143Y-90861200D02*
X144827524Y-90813580D01*
X144827524Y-90813580D02*
X144779905Y-90718342D01*
X144779905Y-90718342D02*
X144732286Y-90527866D01*
X144732286Y-90527866D02*
X144732286Y-90289771D01*
X144732286Y-90289771D02*
X144779905Y-90099295D01*
X144779905Y-90099295D02*
X144827524Y-90004057D01*
X144827524Y-90004057D02*
X144875143Y-89956438D01*
X144875143Y-89956438D02*
X144970381Y-89908819D01*
X143025905Y-50652819D02*
X143025905Y-49652819D01*
X143025905Y-49652819D02*
X143264000Y-49652819D01*
X143264000Y-49652819D02*
X143406857Y-49700438D01*
X143406857Y-49700438D02*
X143502095Y-49795676D01*
X143502095Y-49795676D02*
X143549714Y-49890914D01*
X143549714Y-49890914D02*
X143597333Y-50081390D01*
X143597333Y-50081390D02*
X143597333Y-50224247D01*
X143597333Y-50224247D02*
X143549714Y-50414723D01*
X143549714Y-50414723D02*
X143502095Y-50509961D01*
X143502095Y-50509961D02*
X143406857Y-50605200D01*
X143406857Y-50605200D02*
X143264000Y-50652819D01*
X143264000Y-50652819D02*
X143025905Y-50652819D01*
X144502095Y-49652819D02*
X144025905Y-49652819D01*
X144025905Y-49652819D02*
X143978286Y-50129009D01*
X143978286Y-50129009D02*
X144025905Y-50081390D01*
X144025905Y-50081390D02*
X144121143Y-50033771D01*
X144121143Y-50033771D02*
X144359238Y-50033771D01*
X144359238Y-50033771D02*
X144454476Y-50081390D01*
X144454476Y-50081390D02*
X144502095Y-50129009D01*
X144502095Y-50129009D02*
X144549714Y-50224247D01*
X144549714Y-50224247D02*
X144549714Y-50462342D01*
X144549714Y-50462342D02*
X144502095Y-50557580D01*
X144502095Y-50557580D02*
X144454476Y-50605200D01*
X144454476Y-50605200D02*
X144359238Y-50652819D01*
X144359238Y-50652819D02*
X144121143Y-50652819D01*
X144121143Y-50652819D02*
X144025905Y-50605200D01*
X144025905Y-50605200D02*
X143978286Y-50557580D01*
X121951905Y-60668819D02*
X121951905Y-61478342D01*
X121951905Y-61478342D02*
X121999524Y-61573580D01*
X121999524Y-61573580D02*
X122047143Y-61621200D01*
X122047143Y-61621200D02*
X122142381Y-61668819D01*
X122142381Y-61668819D02*
X122332857Y-61668819D01*
X122332857Y-61668819D02*
X122428095Y-61621200D01*
X122428095Y-61621200D02*
X122475714Y-61573580D01*
X122475714Y-61573580D02*
X122523333Y-61478342D01*
X122523333Y-61478342D02*
X122523333Y-60668819D01*
X122951905Y-60764057D02*
X122999524Y-60716438D01*
X122999524Y-60716438D02*
X123094762Y-60668819D01*
X123094762Y-60668819D02*
X123332857Y-60668819D01*
X123332857Y-60668819D02*
X123428095Y-60716438D01*
X123428095Y-60716438D02*
X123475714Y-60764057D01*
X123475714Y-60764057D02*
X123523333Y-60859295D01*
X123523333Y-60859295D02*
X123523333Y-60954533D01*
X123523333Y-60954533D02*
X123475714Y-61097390D01*
X123475714Y-61097390D02*
X122904286Y-61668819D01*
X122904286Y-61668819D02*
X123523333Y-61668819D01*
X123856667Y-60668819D02*
X124475714Y-60668819D01*
X124475714Y-60668819D02*
X124142381Y-61049771D01*
X124142381Y-61049771D02*
X124285238Y-61049771D01*
X124285238Y-61049771D02*
X124380476Y-61097390D01*
X124380476Y-61097390D02*
X124428095Y-61145009D01*
X124428095Y-61145009D02*
X124475714Y-61240247D01*
X124475714Y-61240247D02*
X124475714Y-61478342D01*
X124475714Y-61478342D02*
X124428095Y-61573580D01*
X124428095Y-61573580D02*
X124380476Y-61621200D01*
X124380476Y-61621200D02*
X124285238Y-61668819D01*
X124285238Y-61668819D02*
X123999524Y-61668819D01*
X123999524Y-61668819D02*
X123904286Y-61621200D01*
X123904286Y-61621200D02*
X123856667Y-61573580D01*
X161829905Y-51808819D02*
X161829905Y-52618342D01*
X161829905Y-52618342D02*
X161877524Y-52713580D01*
X161877524Y-52713580D02*
X161925143Y-52761200D01*
X161925143Y-52761200D02*
X162020381Y-52808819D01*
X162020381Y-52808819D02*
X162210857Y-52808819D01*
X162210857Y-52808819D02*
X162306095Y-52761200D01*
X162306095Y-52761200D02*
X162353714Y-52713580D01*
X162353714Y-52713580D02*
X162401333Y-52618342D01*
X162401333Y-52618342D02*
X162401333Y-51808819D01*
X162829905Y-51904057D02*
X162877524Y-51856438D01*
X162877524Y-51856438D02*
X162972762Y-51808819D01*
X162972762Y-51808819D02*
X163210857Y-51808819D01*
X163210857Y-51808819D02*
X163306095Y-51856438D01*
X163306095Y-51856438D02*
X163353714Y-51904057D01*
X163353714Y-51904057D02*
X163401333Y-51999295D01*
X163401333Y-51999295D02*
X163401333Y-52094533D01*
X163401333Y-52094533D02*
X163353714Y-52237390D01*
X163353714Y-52237390D02*
X162782286Y-52808819D01*
X162782286Y-52808819D02*
X163401333Y-52808819D01*
X164258476Y-52142152D02*
X164258476Y-52808819D01*
X164020381Y-51761200D02*
X163782286Y-52475485D01*
X163782286Y-52475485D02*
X164401333Y-52475485D01*
X142992645Y-46246819D02*
X142992645Y-47056342D01*
X142992645Y-47056342D02*
X143040264Y-47151580D01*
X143040264Y-47151580D02*
X143087883Y-47199200D01*
X143087883Y-47199200D02*
X143183121Y-47246819D01*
X143183121Y-47246819D02*
X143373597Y-47246819D01*
X143373597Y-47246819D02*
X143468835Y-47199200D01*
X143468835Y-47199200D02*
X143516454Y-47151580D01*
X143516454Y-47151580D02*
X143564073Y-47056342D01*
X143564073Y-47056342D02*
X143564073Y-46246819D01*
X144564073Y-47246819D02*
X143992645Y-47246819D01*
X144278359Y-47246819D02*
X144278359Y-46246819D01*
X144278359Y-46246819D02*
X144183121Y-46389676D01*
X144183121Y-46389676D02*
X144087883Y-46484914D01*
X144087883Y-46484914D02*
X143992645Y-46532533D01*
X142779905Y-51808819D02*
X142779905Y-52618342D01*
X142779905Y-52618342D02*
X142827524Y-52713580D01*
X142827524Y-52713580D02*
X142875143Y-52761200D01*
X142875143Y-52761200D02*
X142970381Y-52808819D01*
X142970381Y-52808819D02*
X143160857Y-52808819D01*
X143160857Y-52808819D02*
X143256095Y-52761200D01*
X143256095Y-52761200D02*
X143303714Y-52713580D01*
X143303714Y-52713580D02*
X143351333Y-52618342D01*
X143351333Y-52618342D02*
X143351333Y-51808819D01*
X144351333Y-52808819D02*
X143779905Y-52808819D01*
X144065619Y-52808819D02*
X144065619Y-51808819D01*
X144065619Y-51808819D02*
X143970381Y-51951676D01*
X143970381Y-51951676D02*
X143875143Y-52046914D01*
X143875143Y-52046914D02*
X143779905Y-52094533D01*
X144922762Y-52237390D02*
X144827524Y-52189771D01*
X144827524Y-52189771D02*
X144779905Y-52142152D01*
X144779905Y-52142152D02*
X144732286Y-52046914D01*
X144732286Y-52046914D02*
X144732286Y-51999295D01*
X144732286Y-51999295D02*
X144779905Y-51904057D01*
X144779905Y-51904057D02*
X144827524Y-51856438D01*
X144827524Y-51856438D02*
X144922762Y-51808819D01*
X144922762Y-51808819D02*
X145113238Y-51808819D01*
X145113238Y-51808819D02*
X145208476Y-51856438D01*
X145208476Y-51856438D02*
X145256095Y-51904057D01*
X145256095Y-51904057D02*
X145303714Y-51999295D01*
X145303714Y-51999295D02*
X145303714Y-52046914D01*
X145303714Y-52046914D02*
X145256095Y-52142152D01*
X145256095Y-52142152D02*
X145208476Y-52189771D01*
X145208476Y-52189771D02*
X145113238Y-52237390D01*
X145113238Y-52237390D02*
X144922762Y-52237390D01*
X144922762Y-52237390D02*
X144827524Y-52285009D01*
X144827524Y-52285009D02*
X144779905Y-52332628D01*
X144779905Y-52332628D02*
X144732286Y-52427866D01*
X144732286Y-52427866D02*
X144732286Y-52618342D01*
X144732286Y-52618342D02*
X144779905Y-52713580D01*
X144779905Y-52713580D02*
X144827524Y-52761200D01*
X144827524Y-52761200D02*
X144922762Y-52808819D01*
X144922762Y-52808819D02*
X145113238Y-52808819D01*
X145113238Y-52808819D02*
X145208476Y-52761200D01*
X145208476Y-52761200D02*
X145256095Y-52713580D01*
X145256095Y-52713580D02*
X145303714Y-52618342D01*
X145303714Y-52618342D02*
X145303714Y-52427866D01*
X145303714Y-52427866D02*
X145256095Y-52332628D01*
X145256095Y-52332628D02*
X145208476Y-52285009D01*
X145208476Y-52285009D02*
X145113238Y-52237390D01*
X120427905Y-89624819D02*
X120427905Y-90434342D01*
X120427905Y-90434342D02*
X120475524Y-90529580D01*
X120475524Y-90529580D02*
X120523143Y-90577200D01*
X120523143Y-90577200D02*
X120618381Y-90624819D01*
X120618381Y-90624819D02*
X120808857Y-90624819D01*
X120808857Y-90624819D02*
X120904095Y-90577200D01*
X120904095Y-90577200D02*
X120951714Y-90529580D01*
X120951714Y-90529580D02*
X120999333Y-90434342D01*
X120999333Y-90434342D02*
X120999333Y-89624819D01*
X121380286Y-89624819D02*
X121999333Y-89624819D01*
X121999333Y-89624819D02*
X121666000Y-90005771D01*
X121666000Y-90005771D02*
X121808857Y-90005771D01*
X121808857Y-90005771D02*
X121904095Y-90053390D01*
X121904095Y-90053390D02*
X121951714Y-90101009D01*
X121951714Y-90101009D02*
X121999333Y-90196247D01*
X121999333Y-90196247D02*
X121999333Y-90434342D01*
X121999333Y-90434342D02*
X121951714Y-90529580D01*
X121951714Y-90529580D02*
X121904095Y-90577200D01*
X121904095Y-90577200D02*
X121808857Y-90624819D01*
X121808857Y-90624819D02*
X121523143Y-90624819D01*
X121523143Y-90624819D02*
X121427905Y-90577200D01*
X121427905Y-90577200D02*
X121380286Y-90529580D01*
X122332667Y-89624819D02*
X122951714Y-89624819D01*
X122951714Y-89624819D02*
X122618381Y-90005771D01*
X122618381Y-90005771D02*
X122761238Y-90005771D01*
X122761238Y-90005771D02*
X122856476Y-90053390D01*
X122856476Y-90053390D02*
X122904095Y-90101009D01*
X122904095Y-90101009D02*
X122951714Y-90196247D01*
X122951714Y-90196247D02*
X122951714Y-90434342D01*
X122951714Y-90434342D02*
X122904095Y-90529580D01*
X122904095Y-90529580D02*
X122856476Y-90577200D01*
X122856476Y-90577200D02*
X122761238Y-90624819D01*
X122761238Y-90624819D02*
X122475524Y-90624819D01*
X122475524Y-90624819D02*
X122380286Y-90577200D01*
X122380286Y-90577200D02*
X122332667Y-90529580D01*
X162032645Y-103366819D02*
X162032645Y-104176342D01*
X162032645Y-104176342D02*
X162080264Y-104271580D01*
X162080264Y-104271580D02*
X162127883Y-104319200D01*
X162127883Y-104319200D02*
X162223121Y-104366819D01*
X162223121Y-104366819D02*
X162413597Y-104366819D01*
X162413597Y-104366819D02*
X162508835Y-104319200D01*
X162508835Y-104319200D02*
X162556454Y-104271580D01*
X162556454Y-104271580D02*
X162604073Y-104176342D01*
X162604073Y-104176342D02*
X162604073Y-103366819D01*
X163127883Y-104366819D02*
X163318359Y-104366819D01*
X163318359Y-104366819D02*
X163413597Y-104319200D01*
X163413597Y-104319200D02*
X163461216Y-104271580D01*
X163461216Y-104271580D02*
X163556454Y-104128723D01*
X163556454Y-104128723D02*
X163604073Y-103938247D01*
X163604073Y-103938247D02*
X163604073Y-103557295D01*
X163604073Y-103557295D02*
X163556454Y-103462057D01*
X163556454Y-103462057D02*
X163508835Y-103414438D01*
X163508835Y-103414438D02*
X163413597Y-103366819D01*
X163413597Y-103366819D02*
X163223121Y-103366819D01*
X163223121Y-103366819D02*
X163127883Y-103414438D01*
X163127883Y-103414438D02*
X163080264Y-103462057D01*
X163080264Y-103462057D02*
X163032645Y-103557295D01*
X163032645Y-103557295D02*
X163032645Y-103795390D01*
X163032645Y-103795390D02*
X163080264Y-103890628D01*
X163080264Y-103890628D02*
X163127883Y-103938247D01*
X163127883Y-103938247D02*
X163223121Y-103985866D01*
X163223121Y-103985866D02*
X163413597Y-103985866D01*
X163413597Y-103985866D02*
X163508835Y-103938247D01*
X163508835Y-103938247D02*
X163556454Y-103890628D01*
X163556454Y-103890628D02*
X163604073Y-103795390D01*
X180596455Y-103366819D02*
X180596455Y-104176342D01*
X180596455Y-104176342D02*
X180644074Y-104271580D01*
X180644074Y-104271580D02*
X180691693Y-104319200D01*
X180691693Y-104319200D02*
X180786931Y-104366819D01*
X180786931Y-104366819D02*
X180977407Y-104366819D01*
X180977407Y-104366819D02*
X181072645Y-104319200D01*
X181072645Y-104319200D02*
X181120264Y-104271580D01*
X181120264Y-104271580D02*
X181167883Y-104176342D01*
X181167883Y-104176342D02*
X181167883Y-103366819D01*
X182167883Y-104366819D02*
X181596455Y-104366819D01*
X181882169Y-104366819D02*
X181882169Y-103366819D01*
X181882169Y-103366819D02*
X181786931Y-103509676D01*
X181786931Y-103509676D02*
X181691693Y-103604914D01*
X181691693Y-103604914D02*
X181596455Y-103652533D01*
X182501217Y-103366819D02*
X183120264Y-103366819D01*
X183120264Y-103366819D02*
X182786931Y-103747771D01*
X182786931Y-103747771D02*
X182929788Y-103747771D01*
X182929788Y-103747771D02*
X183025026Y-103795390D01*
X183025026Y-103795390D02*
X183072645Y-103843009D01*
X183072645Y-103843009D02*
X183120264Y-103938247D01*
X183120264Y-103938247D02*
X183120264Y-104176342D01*
X183120264Y-104176342D02*
X183072645Y-104271580D01*
X183072645Y-104271580D02*
X183025026Y-104319200D01*
X183025026Y-104319200D02*
X182929788Y-104366819D01*
X182929788Y-104366819D02*
X182644074Y-104366819D01*
X182644074Y-104366819D02*
X182548836Y-104319200D01*
X182548836Y-104319200D02*
X182501217Y-104271580D01*
X124547333Y-64113580D02*
X124499714Y-64161200D01*
X124499714Y-64161200D02*
X124356857Y-64208819D01*
X124356857Y-64208819D02*
X124261619Y-64208819D01*
X124261619Y-64208819D02*
X124118762Y-64161200D01*
X124118762Y-64161200D02*
X124023524Y-64065961D01*
X124023524Y-64065961D02*
X123975905Y-63970723D01*
X123975905Y-63970723D02*
X123928286Y-63780247D01*
X123928286Y-63780247D02*
X123928286Y-63637390D01*
X123928286Y-63637390D02*
X123975905Y-63446914D01*
X123975905Y-63446914D02*
X124023524Y-63351676D01*
X124023524Y-63351676D02*
X124118762Y-63256438D01*
X124118762Y-63256438D02*
X124261619Y-63208819D01*
X124261619Y-63208819D02*
X124356857Y-63208819D01*
X124356857Y-63208819D02*
X124499714Y-63256438D01*
X124499714Y-63256438D02*
X124547333Y-63304057D01*
X125404476Y-63542152D02*
X125404476Y-64208819D01*
X125166381Y-63161200D02*
X124928286Y-63875485D01*
X124928286Y-63875485D02*
X125547333Y-63875485D01*
X162075905Y-69702819D02*
X162075905Y-68702819D01*
X162075905Y-68702819D02*
X162314000Y-68702819D01*
X162314000Y-68702819D02*
X162456857Y-68750438D01*
X162456857Y-68750438D02*
X162552095Y-68845676D01*
X162552095Y-68845676D02*
X162599714Y-68940914D01*
X162599714Y-68940914D02*
X162647333Y-69131390D01*
X162647333Y-69131390D02*
X162647333Y-69274247D01*
X162647333Y-69274247D02*
X162599714Y-69464723D01*
X162599714Y-69464723D02*
X162552095Y-69559961D01*
X162552095Y-69559961D02*
X162456857Y-69655200D01*
X162456857Y-69655200D02*
X162314000Y-69702819D01*
X162314000Y-69702819D02*
X162075905Y-69702819D01*
X163123524Y-69702819D02*
X163314000Y-69702819D01*
X163314000Y-69702819D02*
X163409238Y-69655200D01*
X163409238Y-69655200D02*
X163456857Y-69607580D01*
X163456857Y-69607580D02*
X163552095Y-69464723D01*
X163552095Y-69464723D02*
X163599714Y-69274247D01*
X163599714Y-69274247D02*
X163599714Y-68893295D01*
X163599714Y-68893295D02*
X163552095Y-68798057D01*
X163552095Y-68798057D02*
X163504476Y-68750438D01*
X163504476Y-68750438D02*
X163409238Y-68702819D01*
X163409238Y-68702819D02*
X163218762Y-68702819D01*
X163218762Y-68702819D02*
X163123524Y-68750438D01*
X163123524Y-68750438D02*
X163075905Y-68798057D01*
X163075905Y-68798057D02*
X163028286Y-68893295D01*
X163028286Y-68893295D02*
X163028286Y-69131390D01*
X163028286Y-69131390D02*
X163075905Y-69226628D01*
X163075905Y-69226628D02*
X163123524Y-69274247D01*
X163123524Y-69274247D02*
X163218762Y-69321866D01*
X163218762Y-69321866D02*
X163409238Y-69321866D01*
X163409238Y-69321866D02*
X163504476Y-69274247D01*
X163504476Y-69274247D02*
X163552095Y-69226628D01*
X163552095Y-69226628D02*
X163599714Y-69131390D01*
X196959642Y-50652819D02*
X196626309Y-50176628D01*
X196388214Y-50652819D02*
X196388214Y-49652819D01*
X196388214Y-49652819D02*
X196769166Y-49652819D01*
X196769166Y-49652819D02*
X196864404Y-49700438D01*
X196864404Y-49700438D02*
X196912023Y-49748057D01*
X196912023Y-49748057D02*
X196959642Y-49843295D01*
X196959642Y-49843295D02*
X196959642Y-49986152D01*
X196959642Y-49986152D02*
X196912023Y-50081390D01*
X196912023Y-50081390D02*
X196864404Y-50129009D01*
X196864404Y-50129009D02*
X196769166Y-50176628D01*
X196769166Y-50176628D02*
X196388214Y-50176628D01*
X197340595Y-49748057D02*
X197388214Y-49700438D01*
X197388214Y-49700438D02*
X197483452Y-49652819D01*
X197483452Y-49652819D02*
X197721547Y-49652819D01*
X197721547Y-49652819D02*
X197816785Y-49700438D01*
X197816785Y-49700438D02*
X197864404Y-49748057D01*
X197864404Y-49748057D02*
X197912023Y-49843295D01*
X197912023Y-49843295D02*
X197912023Y-49938533D01*
X197912023Y-49938533D02*
X197864404Y-50081390D01*
X197864404Y-50081390D02*
X197292976Y-50652819D01*
X197292976Y-50652819D02*
X197912023Y-50652819D01*
X198531071Y-49652819D02*
X198626309Y-49652819D01*
X198626309Y-49652819D02*
X198721547Y-49700438D01*
X198721547Y-49700438D02*
X198769166Y-49748057D01*
X198769166Y-49748057D02*
X198816785Y-49843295D01*
X198816785Y-49843295D02*
X198864404Y-50033771D01*
X198864404Y-50033771D02*
X198864404Y-50271866D01*
X198864404Y-50271866D02*
X198816785Y-50462342D01*
X198816785Y-50462342D02*
X198769166Y-50557580D01*
X198769166Y-50557580D02*
X198721547Y-50605200D01*
X198721547Y-50605200D02*
X198626309Y-50652819D01*
X198626309Y-50652819D02*
X198531071Y-50652819D01*
X198531071Y-50652819D02*
X198435833Y-50605200D01*
X198435833Y-50605200D02*
X198388214Y-50557580D01*
X198388214Y-50557580D02*
X198340595Y-50462342D01*
X198340595Y-50462342D02*
X198292976Y-50271866D01*
X198292976Y-50271866D02*
X198292976Y-50033771D01*
X198292976Y-50033771D02*
X198340595Y-49843295D01*
X198340595Y-49843295D02*
X198388214Y-49748057D01*
X198388214Y-49748057D02*
X198435833Y-49700438D01*
X198435833Y-49700438D02*
X198531071Y-49652819D01*
X180551905Y-108674819D02*
X180551905Y-109484342D01*
X180551905Y-109484342D02*
X180599524Y-109579580D01*
X180599524Y-109579580D02*
X180647143Y-109627200D01*
X180647143Y-109627200D02*
X180742381Y-109674819D01*
X180742381Y-109674819D02*
X180932857Y-109674819D01*
X180932857Y-109674819D02*
X181028095Y-109627200D01*
X181028095Y-109627200D02*
X181075714Y-109579580D01*
X181075714Y-109579580D02*
X181123333Y-109484342D01*
X181123333Y-109484342D02*
X181123333Y-108674819D01*
X181504286Y-108674819D02*
X182123333Y-108674819D01*
X182123333Y-108674819D02*
X181790000Y-109055771D01*
X181790000Y-109055771D02*
X181932857Y-109055771D01*
X181932857Y-109055771D02*
X182028095Y-109103390D01*
X182028095Y-109103390D02*
X182075714Y-109151009D01*
X182075714Y-109151009D02*
X182123333Y-109246247D01*
X182123333Y-109246247D02*
X182123333Y-109484342D01*
X182123333Y-109484342D02*
X182075714Y-109579580D01*
X182075714Y-109579580D02*
X182028095Y-109627200D01*
X182028095Y-109627200D02*
X181932857Y-109674819D01*
X181932857Y-109674819D02*
X181647143Y-109674819D01*
X181647143Y-109674819D02*
X181551905Y-109627200D01*
X181551905Y-109627200D02*
X181504286Y-109579580D01*
X183075714Y-109674819D02*
X182504286Y-109674819D01*
X182790000Y-109674819D02*
X182790000Y-108674819D01*
X182790000Y-108674819D02*
X182694762Y-108817676D01*
X182694762Y-108817676D02*
X182599524Y-108912914D01*
X182599524Y-108912914D02*
X182504286Y-108960533D01*
X132103905Y-65808819D02*
X132103905Y-64808819D01*
X132103905Y-64808819D02*
X132342000Y-64808819D01*
X132342000Y-64808819D02*
X132484857Y-64856438D01*
X132484857Y-64856438D02*
X132580095Y-64951676D01*
X132580095Y-64951676D02*
X132627714Y-65046914D01*
X132627714Y-65046914D02*
X132675333Y-65237390D01*
X132675333Y-65237390D02*
X132675333Y-65380247D01*
X132675333Y-65380247D02*
X132627714Y-65570723D01*
X132627714Y-65570723D02*
X132580095Y-65665961D01*
X132580095Y-65665961D02*
X132484857Y-65761200D01*
X132484857Y-65761200D02*
X132342000Y-65808819D01*
X132342000Y-65808819D02*
X132103905Y-65808819D01*
X133627714Y-65808819D02*
X133056286Y-65808819D01*
X133342000Y-65808819D02*
X133342000Y-64808819D01*
X133342000Y-64808819D02*
X133246762Y-64951676D01*
X133246762Y-64951676D02*
X133151524Y-65046914D01*
X133151524Y-65046914D02*
X133056286Y-65094533D01*
X128643142Y-135074819D02*
X128309809Y-134598628D01*
X128071714Y-135074819D02*
X128071714Y-134074819D01*
X128071714Y-134074819D02*
X128452666Y-134074819D01*
X128452666Y-134074819D02*
X128547904Y-134122438D01*
X128547904Y-134122438D02*
X128595523Y-134170057D01*
X128595523Y-134170057D02*
X128643142Y-134265295D01*
X128643142Y-134265295D02*
X128643142Y-134408152D01*
X128643142Y-134408152D02*
X128595523Y-134503390D01*
X128595523Y-134503390D02*
X128547904Y-134551009D01*
X128547904Y-134551009D02*
X128452666Y-134598628D01*
X128452666Y-134598628D02*
X128071714Y-134598628D01*
X129024095Y-134170057D02*
X129071714Y-134122438D01*
X129071714Y-134122438D02*
X129166952Y-134074819D01*
X129166952Y-134074819D02*
X129405047Y-134074819D01*
X129405047Y-134074819D02*
X129500285Y-134122438D01*
X129500285Y-134122438D02*
X129547904Y-134170057D01*
X129547904Y-134170057D02*
X129595523Y-134265295D01*
X129595523Y-134265295D02*
X129595523Y-134360533D01*
X129595523Y-134360533D02*
X129547904Y-134503390D01*
X129547904Y-134503390D02*
X128976476Y-135074819D01*
X128976476Y-135074819D02*
X129595523Y-135074819D01*
X129928857Y-134074819D02*
X130547904Y-134074819D01*
X130547904Y-134074819D02*
X130214571Y-134455771D01*
X130214571Y-134455771D02*
X130357428Y-134455771D01*
X130357428Y-134455771D02*
X130452666Y-134503390D01*
X130452666Y-134503390D02*
X130500285Y-134551009D01*
X130500285Y-134551009D02*
X130547904Y-134646247D01*
X130547904Y-134646247D02*
X130547904Y-134884342D01*
X130547904Y-134884342D02*
X130500285Y-134979580D01*
X130500285Y-134979580D02*
X130452666Y-135027200D01*
X130452666Y-135027200D02*
X130357428Y-135074819D01*
X130357428Y-135074819D02*
X130071714Y-135074819D01*
X130071714Y-135074819D02*
X129976476Y-135027200D01*
X129976476Y-135027200D02*
X129928857Y-134979580D01*
X180596455Y-46246819D02*
X180596455Y-47056342D01*
X180596455Y-47056342D02*
X180644074Y-47151580D01*
X180644074Y-47151580D02*
X180691693Y-47199200D01*
X180691693Y-47199200D02*
X180786931Y-47246819D01*
X180786931Y-47246819D02*
X180977407Y-47246819D01*
X180977407Y-47246819D02*
X181072645Y-47199200D01*
X181072645Y-47199200D02*
X181120264Y-47151580D01*
X181120264Y-47151580D02*
X181167883Y-47056342D01*
X181167883Y-47056342D02*
X181167883Y-46246819D01*
X182167883Y-47246819D02*
X181596455Y-47246819D01*
X181882169Y-47246819D02*
X181882169Y-46246819D01*
X181882169Y-46246819D02*
X181786931Y-46389676D01*
X181786931Y-46389676D02*
X181691693Y-46484914D01*
X181691693Y-46484914D02*
X181596455Y-46532533D01*
X182786931Y-46246819D02*
X182882169Y-46246819D01*
X182882169Y-46246819D02*
X182977407Y-46294438D01*
X182977407Y-46294438D02*
X183025026Y-46342057D01*
X183025026Y-46342057D02*
X183072645Y-46437295D01*
X183072645Y-46437295D02*
X183120264Y-46627771D01*
X183120264Y-46627771D02*
X183120264Y-46865866D01*
X183120264Y-46865866D02*
X183072645Y-47056342D01*
X183072645Y-47056342D02*
X183025026Y-47151580D01*
X183025026Y-47151580D02*
X182977407Y-47199200D01*
X182977407Y-47199200D02*
X182882169Y-47246819D01*
X182882169Y-47246819D02*
X182786931Y-47246819D01*
X182786931Y-47246819D02*
X182691693Y-47199200D01*
X182691693Y-47199200D02*
X182644074Y-47151580D01*
X182644074Y-47151580D02*
X182596455Y-47056342D01*
X182596455Y-47056342D02*
X182548836Y-46865866D01*
X182548836Y-46865866D02*
X182548836Y-46627771D01*
X182548836Y-46627771D02*
X182596455Y-46437295D01*
X182596455Y-46437295D02*
X182644074Y-46342057D01*
X182644074Y-46342057D02*
X182691693Y-46294438D01*
X182691693Y-46294438D02*
X182786931Y-46246819D01*
X158859642Y-69702819D02*
X158526309Y-69226628D01*
X158288214Y-69702819D02*
X158288214Y-68702819D01*
X158288214Y-68702819D02*
X158669166Y-68702819D01*
X158669166Y-68702819D02*
X158764404Y-68750438D01*
X158764404Y-68750438D02*
X158812023Y-68798057D01*
X158812023Y-68798057D02*
X158859642Y-68893295D01*
X158859642Y-68893295D02*
X158859642Y-69036152D01*
X158859642Y-69036152D02*
X158812023Y-69131390D01*
X158812023Y-69131390D02*
X158764404Y-69179009D01*
X158764404Y-69179009D02*
X158669166Y-69226628D01*
X158669166Y-69226628D02*
X158288214Y-69226628D01*
X159812023Y-69702819D02*
X159240595Y-69702819D01*
X159526309Y-69702819D02*
X159526309Y-68702819D01*
X159526309Y-68702819D02*
X159431071Y-68845676D01*
X159431071Y-68845676D02*
X159335833Y-68940914D01*
X159335833Y-68940914D02*
X159240595Y-68988533D01*
X160431071Y-68702819D02*
X160526309Y-68702819D01*
X160526309Y-68702819D02*
X160621547Y-68750438D01*
X160621547Y-68750438D02*
X160669166Y-68798057D01*
X160669166Y-68798057D02*
X160716785Y-68893295D01*
X160716785Y-68893295D02*
X160764404Y-69083771D01*
X160764404Y-69083771D02*
X160764404Y-69321866D01*
X160764404Y-69321866D02*
X160716785Y-69512342D01*
X160716785Y-69512342D02*
X160669166Y-69607580D01*
X160669166Y-69607580D02*
X160621547Y-69655200D01*
X160621547Y-69655200D02*
X160526309Y-69702819D01*
X160526309Y-69702819D02*
X160431071Y-69702819D01*
X160431071Y-69702819D02*
X160335833Y-69655200D01*
X160335833Y-69655200D02*
X160288214Y-69607580D01*
X160288214Y-69607580D02*
X160240595Y-69512342D01*
X160240595Y-69512342D02*
X160192976Y-69321866D01*
X160192976Y-69321866D02*
X160192976Y-69083771D01*
X160192976Y-69083771D02*
X160240595Y-68893295D01*
X160240595Y-68893295D02*
X160288214Y-68798057D01*
X160288214Y-68798057D02*
X160335833Y-68750438D01*
X160335833Y-68750438D02*
X160431071Y-68702819D01*
X180879905Y-89908819D02*
X180879905Y-90718342D01*
X180879905Y-90718342D02*
X180927524Y-90813580D01*
X180927524Y-90813580D02*
X180975143Y-90861200D01*
X180975143Y-90861200D02*
X181070381Y-90908819D01*
X181070381Y-90908819D02*
X181260857Y-90908819D01*
X181260857Y-90908819D02*
X181356095Y-90861200D01*
X181356095Y-90861200D02*
X181403714Y-90813580D01*
X181403714Y-90813580D02*
X181451333Y-90718342D01*
X181451333Y-90718342D02*
X181451333Y-89908819D01*
X181832286Y-89908819D02*
X182451333Y-89908819D01*
X182451333Y-89908819D02*
X182118000Y-90289771D01*
X182118000Y-90289771D02*
X182260857Y-90289771D01*
X182260857Y-90289771D02*
X182356095Y-90337390D01*
X182356095Y-90337390D02*
X182403714Y-90385009D01*
X182403714Y-90385009D02*
X182451333Y-90480247D01*
X182451333Y-90480247D02*
X182451333Y-90718342D01*
X182451333Y-90718342D02*
X182403714Y-90813580D01*
X182403714Y-90813580D02*
X182356095Y-90861200D01*
X182356095Y-90861200D02*
X182260857Y-90908819D01*
X182260857Y-90908819D02*
X181975143Y-90908819D01*
X181975143Y-90908819D02*
X181879905Y-90861200D01*
X181879905Y-90861200D02*
X181832286Y-90813580D01*
X183070381Y-89908819D02*
X183165619Y-89908819D01*
X183165619Y-89908819D02*
X183260857Y-89956438D01*
X183260857Y-89956438D02*
X183308476Y-90004057D01*
X183308476Y-90004057D02*
X183356095Y-90099295D01*
X183356095Y-90099295D02*
X183403714Y-90289771D01*
X183403714Y-90289771D02*
X183403714Y-90527866D01*
X183403714Y-90527866D02*
X183356095Y-90718342D01*
X183356095Y-90718342D02*
X183308476Y-90813580D01*
X183308476Y-90813580D02*
X183260857Y-90861200D01*
X183260857Y-90861200D02*
X183165619Y-90908819D01*
X183165619Y-90908819D02*
X183070381Y-90908819D01*
X183070381Y-90908819D02*
X182975143Y-90861200D01*
X182975143Y-90861200D02*
X182927524Y-90813580D01*
X182927524Y-90813580D02*
X182879905Y-90718342D01*
X182879905Y-90718342D02*
X182832286Y-90527866D01*
X182832286Y-90527866D02*
X182832286Y-90289771D01*
X182832286Y-90289771D02*
X182879905Y-90099295D01*
X182879905Y-90099295D02*
X182927524Y-90004057D01*
X182927524Y-90004057D02*
X182975143Y-89956438D01*
X182975143Y-89956438D02*
X183070381Y-89908819D01*
X120840667Y-135789200D02*
X120983524Y-135836819D01*
X120983524Y-135836819D02*
X121221619Y-135836819D01*
X121221619Y-135836819D02*
X121316857Y-135789200D01*
X121316857Y-135789200D02*
X121364476Y-135741580D01*
X121364476Y-135741580D02*
X121412095Y-135646342D01*
X121412095Y-135646342D02*
X121412095Y-135551104D01*
X121412095Y-135551104D02*
X121364476Y-135455866D01*
X121364476Y-135455866D02*
X121316857Y-135408247D01*
X121316857Y-135408247D02*
X121221619Y-135360628D01*
X121221619Y-135360628D02*
X121031143Y-135313009D01*
X121031143Y-135313009D02*
X120935905Y-135265390D01*
X120935905Y-135265390D02*
X120888286Y-135217771D01*
X120888286Y-135217771D02*
X120840667Y-135122533D01*
X120840667Y-135122533D02*
X120840667Y-135027295D01*
X120840667Y-135027295D02*
X120888286Y-134932057D01*
X120888286Y-134932057D02*
X120935905Y-134884438D01*
X120935905Y-134884438D02*
X121031143Y-134836819D01*
X121031143Y-134836819D02*
X121269238Y-134836819D01*
X121269238Y-134836819D02*
X121412095Y-134884438D01*
X121745429Y-134836819D02*
X121983524Y-135836819D01*
X121983524Y-135836819D02*
X122174000Y-135122533D01*
X122174000Y-135122533D02*
X122364476Y-135836819D01*
X122364476Y-135836819D02*
X122602572Y-134836819D01*
X123507333Y-135836819D02*
X122935905Y-135836819D01*
X123221619Y-135836819D02*
X123221619Y-134836819D01*
X123221619Y-134836819D02*
X123126381Y-134979676D01*
X123126381Y-134979676D02*
X123031143Y-135074914D01*
X123031143Y-135074914D02*
X122935905Y-135122533D01*
X180879905Y-128008819D02*
X180879905Y-128818342D01*
X180879905Y-128818342D02*
X180927524Y-128913580D01*
X180927524Y-128913580D02*
X180975143Y-128961200D01*
X180975143Y-128961200D02*
X181070381Y-129008819D01*
X181070381Y-129008819D02*
X181260857Y-129008819D01*
X181260857Y-129008819D02*
X181356095Y-128961200D01*
X181356095Y-128961200D02*
X181403714Y-128913580D01*
X181403714Y-128913580D02*
X181451333Y-128818342D01*
X181451333Y-128818342D02*
X181451333Y-128008819D01*
X181832286Y-128008819D02*
X182451333Y-128008819D01*
X182451333Y-128008819D02*
X182118000Y-128389771D01*
X182118000Y-128389771D02*
X182260857Y-128389771D01*
X182260857Y-128389771D02*
X182356095Y-128437390D01*
X182356095Y-128437390D02*
X182403714Y-128485009D01*
X182403714Y-128485009D02*
X182451333Y-128580247D01*
X182451333Y-128580247D02*
X182451333Y-128818342D01*
X182451333Y-128818342D02*
X182403714Y-128913580D01*
X182403714Y-128913580D02*
X182356095Y-128961200D01*
X182356095Y-128961200D02*
X182260857Y-129008819D01*
X182260857Y-129008819D02*
X181975143Y-129008819D01*
X181975143Y-129008819D02*
X181879905Y-128961200D01*
X181879905Y-128961200D02*
X181832286Y-128913580D01*
X182832286Y-128104057D02*
X182879905Y-128056438D01*
X182879905Y-128056438D02*
X182975143Y-128008819D01*
X182975143Y-128008819D02*
X183213238Y-128008819D01*
X183213238Y-128008819D02*
X183308476Y-128056438D01*
X183308476Y-128056438D02*
X183356095Y-128104057D01*
X183356095Y-128104057D02*
X183403714Y-128199295D01*
X183403714Y-128199295D02*
X183403714Y-128294533D01*
X183403714Y-128294533D02*
X183356095Y-128437390D01*
X183356095Y-128437390D02*
X182784667Y-129008819D01*
X182784667Y-129008819D02*
X183403714Y-129008819D01*
X142992645Y-103366819D02*
X142992645Y-104176342D01*
X142992645Y-104176342D02*
X143040264Y-104271580D01*
X143040264Y-104271580D02*
X143087883Y-104319200D01*
X143087883Y-104319200D02*
X143183121Y-104366819D01*
X143183121Y-104366819D02*
X143373597Y-104366819D01*
X143373597Y-104366819D02*
X143468835Y-104319200D01*
X143468835Y-104319200D02*
X143516454Y-104271580D01*
X143516454Y-104271580D02*
X143564073Y-104176342D01*
X143564073Y-104176342D02*
X143564073Y-103366819D01*
X144468835Y-103700152D02*
X144468835Y-104366819D01*
X144230740Y-103319200D02*
X143992645Y-104033485D01*
X143992645Y-104033485D02*
X144611692Y-104033485D01*
D11*
%TO.C,J1*%
X135054000Y-48924000D02*
X135054000Y-46924000D01*
X135054000Y-45024000D02*
X135054000Y-43124000D01*
X135054000Y-43124000D02*
X125654000Y-43124000D01*
X125654000Y-48924000D02*
X125654000Y-46924000D01*
X125654000Y-45024000D02*
X125654000Y-43124000D01*
%TO.C,U5*%
X160384500Y-138066000D02*
X160384500Y-123866000D01*
X160384500Y-123866000D02*
X146184500Y-123866000D01*
X146184500Y-138066000D02*
X160384500Y-138066000D01*
X146184500Y-123866000D02*
X146184500Y-138066000D01*
%TO.C,U17*%
X208014000Y-114312000D02*
X193814000Y-114312000D01*
X193814000Y-114312000D02*
X193814000Y-128512000D01*
X208014000Y-128512000D02*
X208014000Y-114312000D01*
X193814000Y-128512000D02*
X208014000Y-128512000D01*
%TO.C,U16*%
X208014000Y-76272000D02*
X193814000Y-76272000D01*
X193814000Y-76272000D02*
X193814000Y-90472000D01*
X208014000Y-90472000D02*
X208014000Y-76272000D01*
X193814000Y-90472000D02*
X208014000Y-90472000D01*
%TO.C,U29*%
X181790000Y-72244000D02*
X181140000Y-72244000D01*
X181790000Y-72244000D02*
X182440000Y-72244000D01*
X181790000Y-75364000D02*
X181140000Y-75364000D01*
X181790000Y-75364000D02*
X182440000Y-75364000D01*
X180627500Y-72294000D02*
X180387500Y-71964000D01*
X180867500Y-71964000D01*
X180627500Y-72294000D01*
G36*
X180627500Y-72294000D02*
G01*
X180387500Y-71964000D01*
X180867500Y-71964000D01*
X180627500Y-72294000D01*
G37*
%TO.C,D16*%
X181064000Y-125703000D02*
X183524000Y-125703000D01*
X183524000Y-124233000D02*
X181064000Y-124233000D01*
X183524000Y-125703000D02*
X183524000Y-124233000D01*
%TO.C,U35*%
X200840000Y-81896000D02*
X200190000Y-81896000D01*
X200840000Y-81896000D02*
X201490000Y-81896000D01*
X200840000Y-85016000D02*
X200190000Y-85016000D01*
X200840000Y-85016000D02*
X201490000Y-85016000D01*
X199677500Y-81946000D02*
X199437500Y-81616000D01*
X199917500Y-81616000D01*
X199677500Y-81946000D01*
G36*
X199677500Y-81946000D02*
G01*
X199437500Y-81616000D01*
X199917500Y-81616000D01*
X199677500Y-81946000D01*
G37*
%TO.C,R19*%
X178807224Y-124445500D02*
X178297776Y-124445500D01*
X178807224Y-125490500D02*
X178297776Y-125490500D01*
%TO.C,D17*%
X200114000Y-49503000D02*
X202574000Y-49503000D01*
X202574000Y-48033000D02*
X200114000Y-48033000D01*
X202574000Y-49503000D02*
X202574000Y-48033000D01*
%TO.C,D10*%
X161940000Y-87603000D02*
X164400000Y-87603000D01*
X164400000Y-86133000D02*
X161940000Y-86133000D01*
X164400000Y-87603000D02*
X164400000Y-86133000D01*
%TO.C,R3*%
X120889500Y-57506776D02*
X120889500Y-58016224D01*
X121934500Y-57506776D02*
X121934500Y-58016224D01*
%TO.C,U21*%
X143690000Y-110344000D02*
X143040000Y-110344000D01*
X143690000Y-110344000D02*
X144340000Y-110344000D01*
X143690000Y-113464000D02*
X143040000Y-113464000D01*
X143690000Y-113464000D02*
X144340000Y-113464000D01*
X142527500Y-110394000D02*
X142287500Y-110064000D01*
X142767500Y-110064000D01*
X142527500Y-110394000D01*
G36*
X142527500Y-110394000D02*
G01*
X142287500Y-110064000D01*
X142767500Y-110064000D01*
X142527500Y-110394000D01*
G37*
%TO.C,U37*%
X127198000Y-114173000D02*
X124548000Y-114173000D01*
X127198000Y-114173000D02*
X129848000Y-114173000D01*
X127198000Y-122593000D02*
X124548000Y-122593000D01*
X127198000Y-122593000D02*
X129848000Y-122593000D01*
X123648000Y-114348000D02*
X123408000Y-114018000D01*
X123888000Y-114018000D01*
X123648000Y-114348000D01*
G36*
X123648000Y-114348000D02*
G01*
X123408000Y-114018000D01*
X123888000Y-114018000D01*
X123648000Y-114348000D01*
G37*
%TO.C,R15*%
X178733224Y-48245500D02*
X178223776Y-48245500D01*
X178733224Y-49290500D02*
X178223776Y-49290500D01*
%TO.C,U8*%
X155694550Y-85772000D02*
X155694550Y-99972000D01*
X155694550Y-99972000D02*
X169894550Y-99972000D01*
X169894550Y-85772000D02*
X155694550Y-85772000D01*
X169894550Y-99972000D02*
X169894550Y-85772000D01*
%TO.C,U28*%
X181790000Y-53194000D02*
X181140000Y-53194000D01*
X181790000Y-53194000D02*
X182440000Y-53194000D01*
X181790000Y-56314000D02*
X181140000Y-56314000D01*
X181790000Y-56314000D02*
X182440000Y-56314000D01*
X180627500Y-53244000D02*
X180387500Y-52914000D01*
X180867500Y-52914000D01*
X180627500Y-53244000D01*
G36*
X180627500Y-53244000D02*
G01*
X180387500Y-52914000D01*
X180867500Y-52914000D01*
X180627500Y-53244000D01*
G37*
%TO.C,R16*%
X178807224Y-67295500D02*
X178297776Y-67295500D01*
X178807224Y-68340500D02*
X178297776Y-68340500D01*
%TO.C,D3*%
X142964000Y-106653000D02*
X145424000Y-106653000D01*
X145424000Y-105183000D02*
X142964000Y-105183000D01*
X145424000Y-106653000D02*
X145424000Y-105183000D01*
%TO.C,D13*%
X181064000Y-68553000D02*
X183524000Y-68553000D01*
X183524000Y-67083000D02*
X181064000Y-67083000D01*
X183524000Y-68553000D02*
X183524000Y-67083000D01*
%TO.C,U15*%
X193774550Y-47692000D02*
X193774550Y-61892000D01*
X193774550Y-61892000D02*
X207974550Y-61892000D01*
X207974550Y-47692000D02*
X193774550Y-47692000D01*
X207974550Y-61892000D02*
X207974550Y-47692000D01*
%TO.C,C1*%
X129077767Y-70864000D02*
X128785233Y-70864000D01*
X129077767Y-71884000D02*
X128785233Y-71884000D01*
%TO.C,U25*%
X162740000Y-72244000D02*
X162090000Y-72244000D01*
X162740000Y-72244000D02*
X163390000Y-72244000D01*
X162740000Y-75364000D02*
X162090000Y-75364000D01*
X162740000Y-75364000D02*
X163390000Y-75364000D01*
X161577500Y-72294000D02*
X161337500Y-71964000D01*
X161817500Y-71964000D01*
X161577500Y-72294000D01*
G36*
X161577500Y-72294000D02*
G01*
X161337500Y-71964000D01*
X161817500Y-71964000D01*
X161577500Y-72294000D01*
G37*
%TO.C,D2*%
X142964000Y-87603000D02*
X145424000Y-87603000D01*
X145424000Y-86133000D02*
X142964000Y-86133000D01*
X145424000Y-87603000D02*
X145424000Y-86133000D01*
%TO.C,U6*%
X155694550Y-47692000D02*
X155694550Y-61892000D01*
X155694550Y-61892000D02*
X169894550Y-61892000D01*
X169894550Y-47692000D02*
X155694550Y-47692000D01*
X169894550Y-61892000D02*
X169894550Y-47692000D01*
%TO.C,D12*%
X180990000Y-49503000D02*
X183450000Y-49503000D01*
X183450000Y-48033000D02*
X180990000Y-48033000D01*
X183450000Y-49503000D02*
X183450000Y-48033000D01*
%TO.C,U7*%
X155694550Y-66732000D02*
X155694550Y-80932000D01*
X155694550Y-80932000D02*
X169894550Y-80932000D01*
X169894550Y-66732000D02*
X155694550Y-66732000D01*
X169894550Y-80932000D02*
X169894550Y-66732000D01*
%TO.C,D19*%
X206275000Y-120502000D02*
X206275000Y-122962000D01*
X206275000Y-122962000D02*
X207745000Y-122962000D01*
X207745000Y-122962000D02*
X207745000Y-120502000D01*
%TO.C,R12*%
X159757224Y-105395500D02*
X159247776Y-105395500D01*
X159757224Y-106440500D02*
X159247776Y-106440500D01*
%TO.C,R22*%
X206487500Y-118245224D02*
X206487500Y-117735776D01*
X207532500Y-118245224D02*
X207532500Y-117735776D01*
%TO.C,U36*%
X200840000Y-119742000D02*
X200190000Y-119742000D01*
X200840000Y-119742000D02*
X201490000Y-119742000D01*
X200840000Y-122862000D02*
X200190000Y-122862000D01*
X200840000Y-122862000D02*
X201490000Y-122862000D01*
X199677500Y-119792000D02*
X199437500Y-119462000D01*
X199917500Y-119462000D01*
X199677500Y-119792000D01*
G36*
X199677500Y-119792000D02*
G01*
X199437500Y-119462000D01*
X199917500Y-119462000D01*
X199677500Y-119792000D01*
G37*
%TO.C,R17*%
X178807224Y-86345500D02*
X178297776Y-86345500D01*
X178807224Y-87390500D02*
X178297776Y-87390500D01*
%TO.C,R18*%
X178807224Y-105395500D02*
X178297776Y-105395500D01*
X178807224Y-106440500D02*
X178297776Y-106440500D01*
%TO.C,R11*%
X159683224Y-86345500D02*
X159173776Y-86345500D01*
X159683224Y-87390500D02*
X159173776Y-87390500D01*
%TO.C,D14*%
X181064000Y-87603000D02*
X183524000Y-87603000D01*
X183524000Y-86133000D02*
X181064000Y-86133000D01*
X183524000Y-87603000D02*
X183524000Y-86133000D01*
%TO.C,R9*%
X159683224Y-48245500D02*
X159173776Y-48245500D01*
X159683224Y-49290500D02*
X159173776Y-49290500D01*
%TO.C,D6*%
X142954550Y-68553000D02*
X145414550Y-68553000D01*
X145414550Y-67083000D02*
X142954550Y-67083000D01*
X145414550Y-68553000D02*
X145414550Y-67083000D01*
%TO.C,D8*%
X161940000Y-49503000D02*
X164400000Y-49503000D01*
X164400000Y-48033000D02*
X161940000Y-48033000D01*
X164400000Y-49503000D02*
X164400000Y-48033000D01*
%TO.C,D7*%
X129196000Y-68292000D02*
X125186000Y-68292000D01*
X129196000Y-70292000D02*
X125186000Y-70292000D01*
X129196000Y-70292000D02*
X129196000Y-68292000D01*
%TO.C,C3*%
X134066233Y-57148000D02*
X134358767Y-57148000D01*
X134066233Y-58168000D02*
X134358767Y-58168000D01*
%TO.C,U14*%
X174764550Y-123872000D02*
X174764550Y-138072000D01*
X174764550Y-138072000D02*
X188964550Y-138072000D01*
X188964550Y-123872000D02*
X174764550Y-123872000D01*
X188964550Y-138072000D02*
X188964550Y-123872000D01*
%TO.C,U34*%
X200840000Y-53194000D02*
X200190000Y-53194000D01*
X200840000Y-53194000D02*
X201490000Y-53194000D01*
X200840000Y-56314000D02*
X200190000Y-56314000D01*
X200840000Y-56314000D02*
X201490000Y-56314000D01*
X199677500Y-53244000D02*
X199437500Y-52914000D01*
X199917500Y-52914000D01*
X199677500Y-53244000D01*
G36*
X199677500Y-53244000D02*
G01*
X199437500Y-52914000D01*
X199917500Y-52914000D01*
X199677500Y-53244000D01*
G37*
%TO.C,U26*%
X162740000Y-91294000D02*
X162090000Y-91294000D01*
X162740000Y-91294000D02*
X163390000Y-91294000D01*
X162740000Y-94414000D02*
X162090000Y-94414000D01*
X162740000Y-94414000D02*
X163390000Y-94414000D01*
X161577500Y-91344000D02*
X161337500Y-91014000D01*
X161817500Y-91014000D01*
X161577500Y-91344000D01*
G36*
X161577500Y-91344000D02*
G01*
X161337500Y-91014000D01*
X161817500Y-91014000D01*
X161577500Y-91344000D01*
G37*
%TO.C,D18*%
X206275000Y-82572000D02*
X206275000Y-85032000D01*
X206275000Y-85032000D02*
X207745000Y-85032000D01*
X207745000Y-85032000D02*
X207745000Y-82572000D01*
%TO.C,U12*%
X174734550Y-85772000D02*
X174734550Y-99972000D01*
X174734550Y-99972000D02*
X188934550Y-99972000D01*
X188934550Y-85772000D02*
X174734550Y-85772000D01*
X188934550Y-99972000D02*
X188934550Y-85772000D01*
%TO.C,U11*%
X174734550Y-66732000D02*
X174734550Y-80932000D01*
X174734550Y-80932000D02*
X188934550Y-80932000D01*
X188934550Y-66732000D02*
X174734550Y-66732000D01*
X188934550Y-80932000D02*
X188934550Y-66732000D01*
%TO.C,U2*%
X136654550Y-66732000D02*
X136654550Y-80932000D01*
X136654550Y-80932000D02*
X150854550Y-80932000D01*
X150854550Y-66732000D02*
X136654550Y-66732000D01*
X150854550Y-80932000D02*
X150854550Y-66732000D01*
%TO.C,D15*%
X181064000Y-106653000D02*
X183524000Y-106653000D01*
X183524000Y-105183000D02*
X181064000Y-105183000D01*
X183524000Y-106653000D02*
X183524000Y-105183000D01*
%TO.C,R21*%
X206487500Y-80315224D02*
X206487500Y-79805776D01*
X207532500Y-80315224D02*
X207532500Y-79805776D01*
%TO.C,J2*%
X117164000Y-72584000D02*
X117164000Y-87944000D01*
X117164000Y-72584000D02*
X125794000Y-72584000D01*
X117164000Y-72704000D02*
X125794000Y-72704000D01*
X117164000Y-72822095D02*
X125794000Y-72822095D01*
X117164000Y-72940190D02*
X125794000Y-72940190D01*
X117164000Y-73058285D02*
X125794000Y-73058285D01*
X117164000Y-73176380D02*
X125794000Y-73176380D01*
X117164000Y-73294475D02*
X125794000Y-73294475D01*
X117164000Y-73412570D02*
X125794000Y-73412570D01*
X117164000Y-73530665D02*
X125794000Y-73530665D01*
X117164000Y-73648760D02*
X125794000Y-73648760D01*
X117164000Y-73766855D02*
X125794000Y-73766855D01*
X117164000Y-73884950D02*
X125794000Y-73884950D01*
X117164000Y-74003045D02*
X125794000Y-74003045D01*
X117164000Y-74121140D02*
X125794000Y-74121140D01*
X117164000Y-74239235D02*
X125794000Y-74239235D01*
X117164000Y-74357330D02*
X125794000Y-74357330D01*
X117164000Y-74475425D02*
X125794000Y-74475425D01*
X117164000Y-74593520D02*
X125794000Y-74593520D01*
X117164000Y-74711615D02*
X125794000Y-74711615D01*
X117164000Y-74829710D02*
X125794000Y-74829710D01*
X117164000Y-74947805D02*
X125794000Y-74947805D01*
X117164000Y-75065900D02*
X125794000Y-75065900D01*
X117164000Y-75184000D02*
X125794000Y-75184000D01*
X117164000Y-77724000D02*
X125794000Y-77724000D01*
X117164000Y-80264000D02*
X125794000Y-80264000D01*
X117164000Y-82804000D02*
X125794000Y-82804000D01*
X117164000Y-85344000D02*
X125794000Y-85344000D01*
X117164000Y-87944000D02*
X125794000Y-87944000D01*
X125794000Y-72584000D02*
X125794000Y-87944000D01*
X125794000Y-73554000D02*
X126204000Y-73554000D01*
X125794000Y-74274000D02*
X126204000Y-74274000D01*
X125794000Y-76094000D02*
X126204000Y-76094000D01*
X125794000Y-76814000D02*
X126204000Y-76814000D01*
X125794000Y-78634000D02*
X126204000Y-78634000D01*
X125794000Y-79354000D02*
X126204000Y-79354000D01*
X125794000Y-81174000D02*
X126204000Y-81174000D01*
X125794000Y-81894000D02*
X126204000Y-81894000D01*
X125794000Y-83714000D02*
X126204000Y-83714000D01*
X125794000Y-84434000D02*
X126204000Y-84434000D01*
X125794000Y-86254000D02*
X126204000Y-86254000D01*
X125794000Y-86974000D02*
X126204000Y-86974000D01*
X128304000Y-73554000D02*
X128684000Y-73554000D01*
X128304000Y-74274000D02*
X128684000Y-74274000D01*
X128304000Y-76094000D02*
X128744000Y-76094000D01*
X128304000Y-76814000D02*
X128744000Y-76814000D01*
X128304000Y-78634000D02*
X128744000Y-78634000D01*
X128304000Y-79354000D02*
X128744000Y-79354000D01*
X128304000Y-81174000D02*
X128744000Y-81174000D01*
X128304000Y-81894000D02*
X128744000Y-81894000D01*
X128304000Y-83714000D02*
X128744000Y-83714000D01*
X128304000Y-84434000D02*
X128744000Y-84434000D01*
X128304000Y-86254000D02*
X128744000Y-86254000D01*
X128304000Y-86974000D02*
X128744000Y-86974000D01*
X129794000Y-72584000D02*
X130904000Y-72584000D01*
X130904000Y-72584000D02*
X130904000Y-73914000D01*
%TO.C,R8*%
X140697774Y-67295500D02*
X140188326Y-67295500D01*
X140697774Y-68340500D02*
X140188326Y-68340500D01*
%TO.C,U27*%
X162740000Y-110344000D02*
X162090000Y-110344000D01*
X162740000Y-110344000D02*
X163390000Y-110344000D01*
X162740000Y-113464000D02*
X162090000Y-113464000D01*
X162740000Y-113464000D02*
X163390000Y-113464000D01*
X161577500Y-110394000D02*
X161337500Y-110064000D01*
X161817500Y-110064000D01*
X161577500Y-110394000D01*
G36*
X161577500Y-110394000D02*
G01*
X161337500Y-110064000D01*
X161817500Y-110064000D01*
X161577500Y-110394000D01*
G37*
%TO.C,R4*%
X140707224Y-86345500D02*
X140197776Y-86345500D01*
X140707224Y-87390500D02*
X140197776Y-87390500D01*
%TO.C,R6*%
X150227724Y-136383500D02*
X149718276Y-136383500D01*
X150227724Y-137428500D02*
X149718276Y-137428500D01*
%TO.C,U22*%
X153342000Y-129394000D02*
X152692000Y-129394000D01*
X153342000Y-129394000D02*
X153992000Y-129394000D01*
X153342000Y-132514000D02*
X152692000Y-132514000D01*
X153342000Y-132514000D02*
X153992000Y-132514000D01*
X152179500Y-129444000D02*
X151939500Y-129114000D01*
X152419500Y-129114000D01*
X152179500Y-129444000D01*
G36*
X152179500Y-129444000D02*
G01*
X151939500Y-129114000D01*
X152419500Y-129114000D01*
X152179500Y-129444000D01*
G37*
%TO.C,R7*%
X140707224Y-48245500D02*
X140197776Y-48245500D01*
X140707224Y-49290500D02*
X140197776Y-49290500D01*
%TO.C,D4*%
X152484500Y-137641000D02*
X154944500Y-137641000D01*
X154944500Y-136171000D02*
X152484500Y-136171000D01*
X154944500Y-137641000D02*
X154944500Y-136171000D01*
%TO.C,U19*%
X143690000Y-72244000D02*
X143040000Y-72244000D01*
X143690000Y-72244000D02*
X144340000Y-72244000D01*
X143690000Y-75364000D02*
X143040000Y-75364000D01*
X143690000Y-75364000D02*
X144340000Y-75364000D01*
X142527500Y-72294000D02*
X142287500Y-71964000D01*
X142767500Y-71964000D01*
X142527500Y-72294000D01*
G36*
X142527500Y-72294000D02*
G01*
X142287500Y-71964000D01*
X142767500Y-71964000D01*
X142527500Y-72294000D01*
G37*
%TO.C,C6*%
X127709752Y-66271000D02*
X127187248Y-66271000D01*
X127709752Y-67741000D02*
X127187248Y-67741000D01*
%TO.C,Q1*%
X131747500Y-130520000D02*
X131097500Y-130520000D01*
X131747500Y-130520000D02*
X132397500Y-130520000D01*
X131747500Y-133640000D02*
X131097500Y-133640000D01*
X131747500Y-133640000D02*
X132397500Y-133640000D01*
X130585000Y-130570000D02*
X130345000Y-130240000D01*
X130825000Y-130240000D01*
X130585000Y-130570000D01*
G36*
X130585000Y-130570000D02*
G01*
X130345000Y-130240000D01*
X130825000Y-130240000D01*
X130585000Y-130570000D01*
G37*
%TO.C,R14*%
X120381500Y-97941224D02*
X120381500Y-97431776D01*
X121426500Y-97941224D02*
X121426500Y-97431776D01*
%TO.C,C5*%
X127769767Y-64718000D02*
X127477233Y-64718000D01*
X127769767Y-65738000D02*
X127477233Y-65738000D01*
%TO.C,C2*%
X134066233Y-53084000D02*
X134358767Y-53084000D01*
X134066233Y-54104000D02*
X134358767Y-54104000D01*
%TO.C,U3*%
X136654550Y-85772000D02*
X136654550Y-99972000D01*
X136654550Y-99972000D02*
X150854550Y-99972000D01*
X150854550Y-85772000D02*
X136654550Y-85772000D01*
X150854550Y-99972000D02*
X150854550Y-85772000D01*
%TO.C,R5*%
X140707224Y-105395500D02*
X140197776Y-105395500D01*
X140707224Y-106440500D02*
X140197776Y-106440500D01*
%TO.C,U38*%
X127198000Y-102489000D02*
X124548000Y-102489000D01*
X127198000Y-102489000D02*
X129848000Y-102489000D01*
X127198000Y-110909000D02*
X124548000Y-110909000D01*
X127198000Y-110909000D02*
X129848000Y-110909000D01*
X123648000Y-102664000D02*
X123408000Y-102334000D01*
X123888000Y-102334000D01*
X123648000Y-102664000D01*
G36*
X123648000Y-102664000D02*
G01*
X123408000Y-102334000D01*
X123888000Y-102334000D01*
X123648000Y-102664000D01*
G37*
%TO.C,D11*%
X162014000Y-106653000D02*
X164474000Y-106653000D01*
X164474000Y-105183000D02*
X162014000Y-105183000D01*
X164474000Y-106653000D02*
X164474000Y-105183000D01*
%TO.C,U20*%
X143690000Y-91294000D02*
X143040000Y-91294000D01*
X143690000Y-91294000D02*
X144340000Y-91294000D01*
X143690000Y-94414000D02*
X143040000Y-94414000D01*
X143690000Y-94414000D02*
X144340000Y-94414000D01*
X142527500Y-91344000D02*
X142287500Y-91014000D01*
X142767500Y-91014000D01*
X142527500Y-91344000D01*
G36*
X142527500Y-91344000D02*
G01*
X142287500Y-91014000D01*
X142767500Y-91014000D01*
X142527500Y-91344000D01*
G37*
%TO.C,D5*%
X142964000Y-49503000D02*
X145424000Y-49503000D01*
X145424000Y-48033000D02*
X142964000Y-48033000D01*
X145424000Y-49503000D02*
X145424000Y-48033000D01*
%TO.C,U23*%
X125062000Y-56612000D02*
X126322000Y-56612000D01*
X125062000Y-60372000D02*
X125062000Y-56612000D01*
X131882000Y-56612000D02*
X130622000Y-56612000D01*
X131882000Y-60372000D02*
X131882000Y-56612000D01*
X125162000Y-61652000D02*
X124832000Y-61892000D01*
X124832000Y-61412000D01*
X125162000Y-61652000D01*
G36*
X125162000Y-61652000D02*
G01*
X124832000Y-61892000D01*
X124832000Y-61412000D01*
X125162000Y-61652000D01*
G37*
%TO.C,U24*%
X162740000Y-53194000D02*
X162090000Y-53194000D01*
X162740000Y-53194000D02*
X163390000Y-53194000D01*
X162740000Y-56314000D02*
X162090000Y-56314000D01*
X162740000Y-56314000D02*
X163390000Y-56314000D01*
X161577500Y-53244000D02*
X161337500Y-52914000D01*
X161817500Y-52914000D01*
X161577500Y-53244000D01*
G36*
X161577500Y-53244000D02*
G01*
X161337500Y-52914000D01*
X161817500Y-52914000D01*
X161577500Y-53244000D01*
G37*
%TO.C,U1*%
X136654550Y-47692000D02*
X136654550Y-61892000D01*
X136654550Y-61892000D02*
X150854550Y-61892000D01*
X150854550Y-47692000D02*
X136654550Y-47692000D01*
X150854550Y-61892000D02*
X150854550Y-47692000D01*
%TO.C,U18*%
X143690000Y-53194000D02*
X143040000Y-53194000D01*
X143690000Y-53194000D02*
X144340000Y-53194000D01*
X143690000Y-56314000D02*
X143040000Y-56314000D01*
X143690000Y-56314000D02*
X144340000Y-56314000D01*
X142527500Y-53244000D02*
X142287500Y-52914000D01*
X142767500Y-52914000D01*
X142527500Y-53244000D01*
G36*
X142527500Y-53244000D02*
G01*
X142287500Y-52914000D01*
X142767500Y-52914000D01*
X142527500Y-53244000D01*
G37*
%TO.C,U33*%
X123501000Y-91024000D02*
X123801000Y-91024000D01*
X123501000Y-91324000D02*
X123501000Y-91024000D01*
X123501000Y-97944000D02*
X123501000Y-98244000D01*
X123501000Y-98244000D02*
X123801000Y-98244000D01*
X130721000Y-91024000D02*
X130421000Y-91024000D01*
X130721000Y-91324000D02*
X130721000Y-91024000D01*
X130721000Y-97944000D02*
X130721000Y-98244000D01*
X130721000Y-98244000D02*
X130421000Y-98244000D01*
X123801000Y-98846500D02*
X123331000Y-99186500D01*
X123331000Y-98506500D01*
X123801000Y-98846500D01*
G36*
X123801000Y-98846500D02*
G01*
X123331000Y-99186500D01*
X123331000Y-98506500D01*
X123801000Y-98846500D01*
G37*
%TO.C,U9*%
X155694550Y-104812000D02*
X155694550Y-119012000D01*
X155694550Y-119012000D02*
X169894550Y-119012000D01*
X169894550Y-104812000D02*
X155694550Y-104812000D01*
X169894550Y-119012000D02*
X169894550Y-104812000D01*
%TO.C,U13*%
X174734550Y-104812000D02*
X174734550Y-119012000D01*
X174734550Y-119012000D02*
X188934550Y-119012000D01*
X188934550Y-104812000D02*
X174734550Y-104812000D01*
X188934550Y-119012000D02*
X188934550Y-104812000D01*
%TO.C,C4*%
X127769767Y-63194000D02*
X127477233Y-63194000D01*
X127769767Y-64214000D02*
X127477233Y-64214000D01*
%TO.C,D9*%
X162014000Y-68553000D02*
X164474000Y-68553000D01*
X164474000Y-67083000D02*
X162014000Y-67083000D01*
X164474000Y-68553000D02*
X164474000Y-67083000D01*
%TO.C,R20*%
X197857224Y-48245500D02*
X197347776Y-48245500D01*
X197857224Y-49290500D02*
X197347776Y-49290500D01*
%TO.C,U31*%
X181790000Y-110344000D02*
X181140000Y-110344000D01*
X181790000Y-110344000D02*
X182440000Y-110344000D01*
X181790000Y-113464000D02*
X181140000Y-113464000D01*
X181790000Y-113464000D02*
X182440000Y-113464000D01*
X180627500Y-110394000D02*
X180387500Y-110064000D01*
X180867500Y-110064000D01*
X180627500Y-110394000D01*
G36*
X180627500Y-110394000D02*
G01*
X180387500Y-110064000D01*
X180867500Y-110064000D01*
X180627500Y-110394000D01*
G37*
%TO.C,D1*%
X129772000Y-62994000D02*
X129772000Y-67004000D01*
X131772000Y-62994000D02*
X129772000Y-62994000D01*
X131772000Y-62994000D02*
X131772000Y-67004000D01*
%TO.C,R23*%
X128255500Y-132231224D02*
X128255500Y-131721776D01*
X129300500Y-132231224D02*
X129300500Y-131721776D01*
%TO.C,U10*%
X174734550Y-47692000D02*
X174734550Y-61892000D01*
X174734550Y-61892000D02*
X188934550Y-61892000D01*
X188934550Y-47692000D02*
X174734550Y-47692000D01*
X188934550Y-61892000D02*
X188934550Y-47692000D01*
%TO.C,R10*%
X159757224Y-67295500D02*
X159247776Y-67295500D01*
X159757224Y-68340500D02*
X159247776Y-68340500D01*
%TO.C,U30*%
X181790000Y-91294000D02*
X181140000Y-91294000D01*
X181790000Y-91294000D02*
X182440000Y-91294000D01*
X181790000Y-94414000D02*
X181140000Y-94414000D01*
X181790000Y-94414000D02*
X182440000Y-94414000D01*
X180627500Y-91344000D02*
X180387500Y-91014000D01*
X180867500Y-91014000D01*
X180627500Y-91344000D01*
G36*
X180627500Y-91344000D02*
G01*
X180387500Y-91014000D01*
X180867500Y-91014000D01*
X180627500Y-91344000D01*
G37*
%TO.C,SW1*%
X120666000Y-127492000D02*
X120666000Y-131992000D01*
X123166000Y-133242000D02*
X124666000Y-133242000D01*
X124666000Y-126242000D02*
X123166000Y-126242000D01*
X127166000Y-131992000D02*
X127166000Y-127492000D01*
%TO.C,U32*%
X181790000Y-129394000D02*
X181140000Y-129394000D01*
X181790000Y-129394000D02*
X182440000Y-129394000D01*
X181790000Y-132514000D02*
X181140000Y-132514000D01*
X181790000Y-132514000D02*
X182440000Y-132514000D01*
X180627500Y-129444000D02*
X180387500Y-129114000D01*
X180867500Y-129114000D01*
X180627500Y-129444000D01*
G36*
X180627500Y-129444000D02*
G01*
X180387500Y-129114000D01*
X180867500Y-129114000D01*
X180627500Y-129444000D01*
G37*
%TO.C,U4*%
X136654550Y-104812000D02*
X136654550Y-119012000D01*
X136654550Y-119012000D02*
X150854550Y-119012000D01*
X150854550Y-104812000D02*
X136654550Y-104812000D01*
X150854550Y-119012000D02*
X150854550Y-104812000D01*
%TD*%
M02*
