%TF.GenerationSoftware,KiCad,Pcbnew,9.0.4*%
%TF.CreationDate,2026-01-03T23:46:06+09:00*%
%TF.ProjectId,rapidtrigger_keyboard,72617069-6474-4726-9967-6765725f6b65,rev?*%
%TF.SameCoordinates,Original*%
%TF.FileFunction,Paste,Top*%
%TF.FilePolarity,Positive*%
%FSLAX46Y46*%
G04 Gerber Fmt 4.6, Leading zero omitted, Abs format (unit mm)*
G04 Created by KiCad (PCBNEW 9.0.4) date 2026-01-03 23:46:06*
%MOMM*%
%LPD*%
G01*
G04 APERTURE LIST*
G04 Aperture macros list*
%AMRoundRect*
0 Rectangle with rounded corners*
0 $1 Rounding radius*
0 $2 $3 $4 $5 $6 $7 $8 $9 X,Y pos of 4 corners*
0 Add a 4 corners polygon primitive as box body*
4,1,4,$2,$3,$4,$5,$6,$7,$8,$9,$2,$3,0*
0 Add four circle primitives for the rounded corners*
1,1,$1+$1,$2,$3*
1,1,$1+$1,$4,$5*
1,1,$1+$1,$6,$7*
1,1,$1+$1,$8,$9*
0 Add four rect primitives between the rounded corners*
20,1,$1+$1,$2,$3,$4,$5,0*
20,1,$1+$1,$4,$5,$6,$7,0*
20,1,$1+$1,$6,$7,$8,$9,0*
20,1,$1+$1,$8,$9,$2,$3,0*%
G04 Aperture macros list end*
%ADD10R,0.600000X1.450000*%
%ADD11R,0.300000X1.450000*%
%ADD12RoundRect,0.150000X-0.587500X-0.150000X0.587500X-0.150000X0.587500X0.150000X-0.587500X0.150000X0*%
%ADD13RoundRect,0.237500X0.287500X0.237500X-0.287500X0.237500X-0.287500X-0.237500X0.287500X-0.237500X0*%
%ADD14RoundRect,0.237500X0.250000X0.237500X-0.250000X0.237500X-0.250000X-0.237500X0.250000X-0.237500X0*%
%ADD15RoundRect,0.237500X-0.237500X0.250000X-0.237500X-0.250000X0.237500X-0.250000X0.237500X0.250000X0*%
%ADD16RoundRect,0.100000X-0.850000X-0.100000X0.850000X-0.100000X0.850000X0.100000X-0.850000X0.100000X0*%
%ADD17RoundRect,0.237500X0.300000X0.237500X-0.300000X0.237500X-0.300000X-0.237500X0.300000X-0.237500X0*%
%ADD18RoundRect,0.237500X0.237500X-0.287500X0.237500X0.287500X-0.237500X0.287500X-0.237500X-0.287500X0*%
%ADD19RoundRect,0.237500X0.237500X-0.250000X0.237500X0.250000X-0.237500X0.250000X-0.237500X-0.250000X0*%
%ADD20RoundRect,0.225000X0.225000X0.375000X-0.225000X0.375000X-0.225000X-0.375000X0.225000X-0.375000X0*%
%ADD21RoundRect,0.237500X-0.300000X-0.237500X0.300000X-0.237500X0.300000X0.237500X-0.300000X0.237500X0*%
%ADD22RoundRect,0.250000X0.337500X0.475000X-0.337500X0.475000X-0.337500X-0.475000X0.337500X-0.475000X0*%
%ADD23RoundRect,0.375000X0.375000X-0.625000X0.375000X0.625000X-0.375000X0.625000X-0.375000X-0.625000X0*%
%ADD24RoundRect,0.500000X1.400000X-0.500000X1.400000X0.500000X-1.400000X0.500000X-1.400000X-0.500000X0*%
%ADD25RoundRect,0.125000X0.125000X-0.625000X0.125000X0.625000X-0.125000X0.625000X-0.125000X-0.625000X0*%
%ADD26RoundRect,0.125000X0.625000X-0.125000X0.625000X0.125000X-0.625000X0.125000X-0.625000X-0.125000X0*%
%ADD27RoundRect,0.225000X-0.375000X0.225000X-0.375000X-0.225000X0.375000X-0.225000X0.375000X0.225000X0*%
G04 APERTURE END LIST*
D10*
%TO.C,J1*%
X133604000Y-51069000D03*
X132804000Y-51069000D03*
D11*
X131604000Y-51069000D03*
X130604000Y-51069000D03*
X130104000Y-51069000D03*
X129104000Y-51069000D03*
D10*
X127904000Y-51069000D03*
X127104000Y-51069000D03*
X127104000Y-51069000D03*
X127904000Y-51069000D03*
D11*
X128604000Y-51069000D03*
X129604000Y-51069000D03*
X131104000Y-51069000D03*
X132104000Y-51069000D03*
D10*
X132804000Y-51069000D03*
X133604000Y-51069000D03*
%TD*%
D12*
%TO.C,U29*%
X180852500Y-72854000D03*
X180852500Y-74754000D03*
X182727500Y-73804000D03*
%TD*%
D13*
%TO.C,D16*%
X182739000Y-124968000D03*
X180989000Y-124968000D03*
%TD*%
D12*
%TO.C,U35*%
X199902500Y-82506000D03*
X199902500Y-84406000D03*
X201777500Y-83456000D03*
%TD*%
D14*
%TO.C,R19*%
X179465000Y-124968000D03*
X177640000Y-124968000D03*
%TD*%
D13*
%TO.C,D17*%
X201789000Y-48768000D03*
X200039000Y-48768000D03*
%TD*%
%TO.C,D10*%
X163615000Y-86868000D03*
X161865000Y-86868000D03*
%TD*%
D15*
%TO.C,R3*%
X121412000Y-56849000D03*
X121412000Y-58674000D03*
%TD*%
D12*
%TO.C,U21*%
X142752500Y-110954000D03*
X142752500Y-112854000D03*
X144627500Y-111904000D03*
%TD*%
D16*
%TO.C,U37*%
X123698000Y-114808000D03*
X123698000Y-115458000D03*
X123698000Y-116108000D03*
X123698000Y-116758000D03*
X123698000Y-117408000D03*
X123698000Y-118058000D03*
X123698000Y-118708000D03*
X123698000Y-119358000D03*
X123698000Y-120008000D03*
X123698000Y-120658000D03*
X123698000Y-121308000D03*
X123698000Y-121958000D03*
X130698000Y-121958000D03*
X130698000Y-121308000D03*
X130698000Y-120658000D03*
X130698000Y-120008000D03*
X130698000Y-119358000D03*
X130698000Y-118708000D03*
X130698000Y-118058000D03*
X130698000Y-117408000D03*
X130698000Y-116758000D03*
X130698000Y-116108000D03*
X130698000Y-115458000D03*
X130698000Y-114808000D03*
%TD*%
D14*
%TO.C,R15*%
X179391000Y-48768000D03*
X177566000Y-48768000D03*
%TD*%
D12*
%TO.C,U28*%
X180852500Y-53804000D03*
X180852500Y-55704000D03*
X182727500Y-54754000D03*
%TD*%
D14*
%TO.C,R16*%
X179465000Y-67818000D03*
X177640000Y-67818000D03*
%TD*%
D13*
%TO.C,D3*%
X144639000Y-105918000D03*
X142889000Y-105918000D03*
%TD*%
%TO.C,D13*%
X182739000Y-67818000D03*
X180989000Y-67818000D03*
%TD*%
D17*
%TO.C,C1*%
X129794000Y-71374000D03*
X128069000Y-71374000D03*
%TD*%
D12*
%TO.C,U25*%
X161802500Y-72854000D03*
X161802500Y-74754000D03*
X163677500Y-73804000D03*
%TD*%
D13*
%TO.C,D2*%
X144639000Y-86868000D03*
X142889000Y-86868000D03*
%TD*%
%TO.C,D12*%
X182665000Y-48768000D03*
X180915000Y-48768000D03*
%TD*%
D18*
%TO.C,D19*%
X207010000Y-122177000D03*
X207010000Y-120427000D03*
%TD*%
D14*
%TO.C,R12*%
X160415000Y-105918000D03*
X158590000Y-105918000D03*
%TD*%
D19*
%TO.C,R22*%
X207010000Y-118903000D03*
X207010000Y-117078000D03*
%TD*%
D12*
%TO.C,U36*%
X199902500Y-120352000D03*
X199902500Y-122252000D03*
X201777500Y-121302000D03*
%TD*%
D14*
%TO.C,R17*%
X179465000Y-86868000D03*
X177640000Y-86868000D03*
%TD*%
%TO.C,R18*%
X179465000Y-105918000D03*
X177640000Y-105918000D03*
%TD*%
%TO.C,R11*%
X160341000Y-86868000D03*
X158516000Y-86868000D03*
%TD*%
D13*
%TO.C,D14*%
X182739000Y-86868000D03*
X180989000Y-86868000D03*
%TD*%
D14*
%TO.C,R9*%
X160341000Y-48768000D03*
X158516000Y-48768000D03*
%TD*%
D13*
%TO.C,D6*%
X144629550Y-67818000D03*
X142879550Y-67818000D03*
%TD*%
%TO.C,D8*%
X163615000Y-48768000D03*
X161865000Y-48768000D03*
%TD*%
D20*
%TO.C,D7*%
X128486000Y-69292000D03*
X125186000Y-69292000D03*
%TD*%
D21*
%TO.C,C3*%
X133350000Y-57658000D03*
X135075000Y-57658000D03*
%TD*%
D12*
%TO.C,U34*%
X199902500Y-53804000D03*
X199902500Y-55704000D03*
X201777500Y-54754000D03*
%TD*%
%TO.C,U26*%
X161802500Y-91904000D03*
X161802500Y-93804000D03*
X163677500Y-92854000D03*
%TD*%
D18*
%TO.C,D18*%
X207010000Y-84247000D03*
X207010000Y-82497000D03*
%TD*%
D13*
%TO.C,D15*%
X182739000Y-105918000D03*
X180989000Y-105918000D03*
%TD*%
D19*
%TO.C,R21*%
X207010000Y-80973000D03*
X207010000Y-79148000D03*
%TD*%
D14*
%TO.C,R8*%
X141355550Y-67818000D03*
X139530550Y-67818000D03*
%TD*%
D12*
%TO.C,U27*%
X161802500Y-110954000D03*
X161802500Y-112854000D03*
X163677500Y-111904000D03*
%TD*%
D14*
%TO.C,R4*%
X141365000Y-86868000D03*
X139540000Y-86868000D03*
%TD*%
%TO.C,R6*%
X150885500Y-136906000D03*
X149060500Y-136906000D03*
%TD*%
D12*
%TO.C,U22*%
X152404500Y-130004000D03*
X152404500Y-131904000D03*
X154279500Y-130954000D03*
%TD*%
D14*
%TO.C,R7*%
X141365000Y-48768000D03*
X139540000Y-48768000D03*
%TD*%
D13*
%TO.C,D4*%
X154159500Y-136906000D03*
X152409500Y-136906000D03*
%TD*%
D12*
%TO.C,U19*%
X142752500Y-72854000D03*
X142752500Y-74754000D03*
X144627500Y-73804000D03*
%TD*%
D22*
%TO.C,C6*%
X128486000Y-67006000D03*
X126411000Y-67006000D03*
%TD*%
D12*
%TO.C,Q1*%
X130810000Y-131130000D03*
X130810000Y-133030000D03*
X132685000Y-132080000D03*
%TD*%
D19*
%TO.C,R14*%
X120904000Y-98599000D03*
X120904000Y-96774000D03*
%TD*%
D17*
%TO.C,C5*%
X128486000Y-65228000D03*
X126761000Y-65228000D03*
%TD*%
D21*
%TO.C,C2*%
X133350000Y-53594000D03*
X135075000Y-53594000D03*
%TD*%
D14*
%TO.C,R5*%
X141365000Y-105918000D03*
X139540000Y-105918000D03*
%TD*%
D16*
%TO.C,U38*%
X123698000Y-103124000D03*
X123698000Y-103774000D03*
X123698000Y-104424000D03*
X123698000Y-105074000D03*
X123698000Y-105724000D03*
X123698000Y-106374000D03*
X123698000Y-107024000D03*
X123698000Y-107674000D03*
X123698000Y-108324000D03*
X123698000Y-108974000D03*
X123698000Y-109624000D03*
X123698000Y-110274000D03*
X130698000Y-110274000D03*
X130698000Y-109624000D03*
X130698000Y-108974000D03*
X130698000Y-108324000D03*
X130698000Y-107674000D03*
X130698000Y-107024000D03*
X130698000Y-106374000D03*
X130698000Y-105724000D03*
X130698000Y-105074000D03*
X130698000Y-104424000D03*
X130698000Y-103774000D03*
X130698000Y-103124000D03*
%TD*%
D13*
%TO.C,D11*%
X163689000Y-105918000D03*
X161939000Y-105918000D03*
%TD*%
D12*
%TO.C,U20*%
X142752500Y-91904000D03*
X142752500Y-93804000D03*
X144627500Y-92854000D03*
%TD*%
D13*
%TO.C,D5*%
X144639000Y-48768000D03*
X142889000Y-48768000D03*
%TD*%
D23*
%TO.C,U23*%
X126172000Y-61672000D03*
X128472000Y-61672000D03*
D24*
X128472000Y-55372000D03*
D23*
X130772000Y-61672000D03*
%TD*%
D12*
%TO.C,U24*%
X161802500Y-53804000D03*
X161802500Y-55704000D03*
X163677500Y-54754000D03*
%TD*%
%TO.C,U18*%
X142752500Y-53804000D03*
X142752500Y-55704000D03*
X144627500Y-54754000D03*
%TD*%
D25*
%TO.C,U33*%
X124311000Y-98809000D03*
X125111000Y-98809000D03*
X125911000Y-98809000D03*
X126711000Y-98809000D03*
X127511000Y-98809000D03*
X128311000Y-98809000D03*
X129111000Y-98809000D03*
X129911000Y-98809000D03*
D26*
X131286000Y-97434000D03*
X131286000Y-96634000D03*
X131286000Y-95834000D03*
X131286000Y-95034000D03*
X131286000Y-94234000D03*
X131286000Y-93434000D03*
X131286000Y-92634000D03*
X131286000Y-91834000D03*
D25*
X129911000Y-90459000D03*
X129111000Y-90459000D03*
X128311000Y-90459000D03*
X127511000Y-90459000D03*
X126711000Y-90459000D03*
X125911000Y-90459000D03*
X125111000Y-90459000D03*
X124311000Y-90459000D03*
D26*
X122936000Y-91834000D03*
X122936000Y-92634000D03*
X122936000Y-93434000D03*
X122936000Y-94234000D03*
X122936000Y-95034000D03*
X122936000Y-95834000D03*
X122936000Y-96634000D03*
X122936000Y-97434000D03*
%TD*%
D17*
%TO.C,C4*%
X128486000Y-63704000D03*
X126761000Y-63704000D03*
%TD*%
D13*
%TO.C,D9*%
X163689000Y-67818000D03*
X161939000Y-67818000D03*
%TD*%
D14*
%TO.C,R20*%
X198515000Y-48768000D03*
X196690000Y-48768000D03*
%TD*%
D12*
%TO.C,U31*%
X180852500Y-110954000D03*
X180852500Y-112854000D03*
X182727500Y-111904000D03*
%TD*%
D27*
%TO.C,D1*%
X130772000Y-63704000D03*
X130772000Y-67004000D03*
%TD*%
D19*
%TO.C,R23*%
X128778000Y-132889000D03*
X128778000Y-131064000D03*
%TD*%
D14*
%TO.C,R10*%
X160415000Y-67818000D03*
X158590000Y-67818000D03*
%TD*%
D12*
%TO.C,U30*%
X180852500Y-91904000D03*
X180852500Y-93804000D03*
X182727500Y-92854000D03*
%TD*%
%TO.C,U32*%
X180852500Y-130004000D03*
X180852500Y-131904000D03*
X182727500Y-130954000D03*
%TD*%
M02*
