%TF.GenerationSoftware,KiCad,Pcbnew,9.0.4*%
%TF.CreationDate,2026-01-03T23:46:06+09:00*%
%TF.ProjectId,rapidtrigger_keyboard,72617069-6474-4726-9967-6765725f6b65,rev?*%
%TF.SameCoordinates,Original*%
%TF.FileFunction,Copper,L2,Bot*%
%TF.FilePolarity,Positive*%
%FSLAX46Y46*%
G04 Gerber Fmt 4.6, Leading zero omitted, Abs format (unit mm)*
G04 Created by KiCad (PCBNEW 9.0.4) date 2026-01-03 23:46:06*
%MOMM*%
%LPD*%
G01*
G04 APERTURE LIST*
G04 Aperture macros list*
%AMRoundRect*
0 Rectangle with rounded corners*
0 $1 Rounding radius*
0 $2 $3 $4 $5 $6 $7 $8 $9 X,Y pos of 4 corners*
0 Add a 4 corners polygon primitive as box body*
4,1,4,$2,$3,$4,$5,$6,$7,$8,$9,$2,$3,0*
0 Add four circle primitives for the rounded corners*
1,1,$1+$1,$2,$3*
1,1,$1+$1,$4,$5*
1,1,$1+$1,$6,$7*
1,1,$1+$1,$8,$9*
0 Add four rect primitives between the rounded corners*
20,1,$1+$1,$2,$3,$4,$5,0*
20,1,$1+$1,$4,$5,$6,$7,0*
20,1,$1+$1,$6,$7,$8,$9,0*
20,1,$1+$1,$8,$9,$2,$3,0*%
G04 Aperture macros list end*
%TA.AperFunction,HeatsinkPad*%
%ADD10O,1.000000X2.100000*%
%TD*%
%TA.AperFunction,HeatsinkPad*%
%ADD11O,1.000000X1.600000*%
%TD*%
%TA.AperFunction,ComponentPad*%
%ADD12R,1.700000X1.700000*%
%TD*%
%TA.AperFunction,ComponentPad*%
%ADD13C,1.700000*%
%TD*%
%TA.AperFunction,ComponentPad*%
%ADD14C,2.000000*%
%TD*%
%TA.AperFunction,SMDPad,CuDef*%
%ADD15RoundRect,0.237500X-0.250000X-0.237500X0.250000X-0.237500X0.250000X0.237500X-0.250000X0.237500X0*%
%TD*%
%TA.AperFunction,SMDPad,CuDef*%
%ADD16RoundRect,0.237500X0.250000X0.237500X-0.250000X0.237500X-0.250000X-0.237500X0.250000X-0.237500X0*%
%TD*%
%TA.AperFunction,SMDPad,CuDef*%
%ADD17RoundRect,0.237500X0.237500X-0.250000X0.237500X0.250000X-0.237500X0.250000X-0.237500X-0.250000X0*%
%TD*%
%TA.AperFunction,ViaPad*%
%ADD18C,0.600000*%
%TD*%
%TA.AperFunction,ViaPad*%
%ADD19C,0.500000*%
%TD*%
%TA.AperFunction,Conductor*%
%ADD20C,0.300000*%
%TD*%
%TA.AperFunction,Conductor*%
%ADD21C,0.500000*%
%TD*%
%TA.AperFunction,Conductor*%
%ADD22C,0.250000*%
%TD*%
%TA.AperFunction,Conductor*%
%ADD23C,0.200000*%
%TD*%
G04 APERTURE END LIST*
D10*
%TO.P,J1,S1,SHIELD*%
%TO.N,GND*%
X134674000Y-50154000D03*
D11*
X134674000Y-45974000D03*
D10*
X126034000Y-50154000D03*
D11*
X126034000Y-45974000D03*
%TD*%
D12*
%TO.P,J2,1,Pin_1*%
%TO.N,+3V3*%
X129794000Y-73914000D03*
D13*
%TO.P,J2,2,Pin_2*%
%TO.N,unconnected-(J2-Pin_2-Pad2)*%
X127254000Y-73914000D03*
%TO.P,J2,3,Pin_3*%
%TO.N,SWCLK*%
X129794000Y-76454000D03*
%TO.P,J2,4,Pin_4*%
%TO.N,UART_TX*%
X127254000Y-76454000D03*
%TO.P,J2,5,Pin_5*%
%TO.N,GND*%
X129794000Y-78994000D03*
%TO.P,J2,6,Pin_6*%
%TO.N,UART_RX*%
X127254000Y-78994000D03*
%TO.P,J2,7,Pin_7*%
%TO.N,SWDIO*%
X129794000Y-81534000D03*
%TO.P,J2,8,Pin_8*%
%TO.N,+5V*%
X127254000Y-81534000D03*
%TO.P,J2,9,Pin_9*%
%TO.N,RESET*%
X129794000Y-84074000D03*
%TO.P,J2,10,Pin_10*%
%TO.N,MCO_IN*%
X127254000Y-84074000D03*
%TO.P,J2,11,Pin_11*%
%TO.N,unconnected-(J2-Pin_11-Pad11)*%
X129794000Y-86614000D03*
%TO.P,J2,12,Pin_12*%
%TO.N,GND*%
X127254000Y-86614000D03*
%TD*%
D14*
%TO.P,SW1,1,1*%
%TO.N,RESET*%
X121666000Y-132992000D03*
X121666000Y-126492000D03*
%TO.P,SW1,2,2*%
%TO.N,GND*%
X126166000Y-132992000D03*
X126166000Y-126492000D03*
%TD*%
D15*
%TO.P,R1,1*%
%TO.N,Net-(J1-CC1)*%
X131621500Y-47752000D03*
%TO.P,R1,2*%
%TO.N,GND*%
X133446500Y-47752000D03*
%TD*%
D16*
%TO.P,R2,1*%
%TO.N,Net-(J1-CC2)*%
X128573500Y-47752000D03*
%TO.P,R2,2*%
%TO.N,GND*%
X126748500Y-47752000D03*
%TD*%
D17*
%TO.P,R13,1*%
%TO.N,RESET*%
X126746000Y-97028000D03*
%TO.P,R13,2*%
%TO.N,+3V3*%
X126746000Y-95203000D03*
%TD*%
D18*
%TO.N,+3V3*%
X142752500Y-91904000D03*
X139540000Y-105918000D03*
X130698000Y-103074000D03*
X132842000Y-85598000D03*
X139192000Y-85852000D03*
X132842000Y-92710000D03*
X142752500Y-110954000D03*
X125476000Y-59436000D03*
X132588000Y-67056000D03*
X130698000Y-114758000D03*
D19*
X126746000Y-95203000D03*
D18*
X121412000Y-58674000D03*
X137160000Y-67056000D03*
D19*
%TO.N,GND*%
X131826000Y-62992000D03*
X117502540Y-78150762D03*
X176530000Y-87122000D03*
X124927159Y-55876905D03*
X203454000Y-97028000D03*
X214022587Y-115273857D03*
X211547714Y-78150762D03*
X179374365Y-90525127D03*
X174424619Y-50927159D03*
X133096000Y-64008000D03*
X135128000Y-59436000D03*
X164525127Y-50927159D03*
X211547714Y-102899492D03*
X164525127Y-100424619D03*
X209072841Y-90525127D03*
X150114000Y-103632000D03*
X122452286Y-142497460D03*
X186798984Y-132597968D03*
X119977413Y-65776397D03*
X199173349Y-115273857D03*
X147201016Y-83100508D03*
X209072841Y-50927159D03*
X136398000Y-83566000D03*
X191748730Y-102899492D03*
X125984000Y-82804000D03*
X211547714Y-142497460D03*
X162050254Y-83100508D03*
X196698476Y-122698476D03*
X196698476Y-142497460D03*
X135636000Y-108966000D03*
X120396000Y-117856000D03*
X214022587Y-120223603D03*
X196698476Y-102899492D03*
X194223603Y-65776397D03*
X134826651Y-135072841D03*
X186798984Y-137547714D03*
X137301524Y-53402032D03*
X189273857Y-55876905D03*
X117502540Y-122698476D03*
X129876905Y-95474873D03*
X143764000Y-60706000D03*
X162050254Y-137547714D03*
X199173349Y-60826651D03*
X140716000Y-92202000D03*
X122452286Y-53402032D03*
X169474873Y-75675889D03*
X211547714Y-122698476D03*
X133096000Y-99314000D03*
X206597968Y-58351778D03*
X169672000Y-120904000D03*
X191748730Y-127648222D03*
X189273857Y-140022587D03*
X147201016Y-73201016D03*
X184324111Y-90525127D03*
X209072841Y-135072841D03*
X127402032Y-127648222D03*
X216497460Y-73201016D03*
X144726143Y-130123095D03*
X203200000Y-125984000D03*
X167000000Y-78150762D03*
X178562000Y-125730000D03*
X134826651Y-140022587D03*
X117502540Y-53402032D03*
X143764000Y-103632000D03*
X191748730Y-142497460D03*
X149606000Y-109728000D03*
X159575381Y-100424619D03*
X145542000Y-62738000D03*
X133096000Y-88900000D03*
X194223603Y-85575381D03*
X159575381Y-75675889D03*
X139776397Y-140022587D03*
X153162000Y-106172000D03*
X117502540Y-102899492D03*
X124714000Y-58674000D03*
X209072841Y-80625635D03*
X216497460Y-58351778D03*
X186798984Y-107849238D03*
X186798984Y-68251270D03*
X122174000Y-120396000D03*
X216497460Y-107849238D03*
X159512000Y-92964000D03*
X162050254Y-102899492D03*
X129794000Y-112268000D03*
X124206000Y-96520000D03*
X124927159Y-80625635D03*
X184324111Y-50927159D03*
X152150762Y-127648222D03*
X137301524Y-127648222D03*
X121920000Y-99060000D03*
X149675889Y-90525127D03*
X130048000Y-49022000D03*
X194223603Y-115273857D03*
X117502540Y-112798984D03*
X174424619Y-115273857D03*
X169474873Y-90525127D03*
X204123095Y-130123095D03*
X164525127Y-125173349D03*
X194223603Y-80625635D03*
X171949746Y-127648222D03*
X211547714Y-88050254D03*
X179374365Y-50927159D03*
X133858000Y-125730000D03*
X174424619Y-70726143D03*
X204978000Y-122936000D03*
X211547714Y-107849238D03*
X216497460Y-88050254D03*
X176899492Y-58351778D03*
X211547714Y-137547714D03*
X191748730Y-117748730D03*
X211547714Y-127648222D03*
X174424619Y-135072841D03*
X147201016Y-142497460D03*
X124968000Y-110490000D03*
X176899492Y-107849238D03*
X176899492Y-137547714D03*
X211547714Y-97949746D03*
X122452286Y-43502540D03*
X209072841Y-65776397D03*
X206597968Y-102899492D03*
X142251270Y-83100508D03*
X154625635Y-140022587D03*
X122682000Y-112776000D03*
X138176000Y-90678000D03*
X162050254Y-117748730D03*
X140970000Y-60706000D03*
X201648222Y-117748730D03*
X171949746Y-132597968D03*
X174424619Y-75675889D03*
X181849238Y-137547714D03*
X216497460Y-83100508D03*
X154625635Y-70726143D03*
X189273857Y-50927159D03*
X136906000Y-116586000D03*
X122174000Y-105918000D03*
X154625635Y-65776397D03*
X189273857Y-135072841D03*
X179374365Y-115273857D03*
X206597968Y-73201016D03*
X149675889Y-45977413D03*
X117502540Y-132597968D03*
X147201016Y-112798984D03*
X152150762Y-58351778D03*
X142251270Y-107849238D03*
X179374365Y-65776397D03*
X191748730Y-97949746D03*
X194223603Y-75675889D03*
X167000000Y-68251270D03*
X209072841Y-115273857D03*
X184324111Y-115273857D03*
X145542000Y-64262000D03*
X119977413Y-100424619D03*
X216497460Y-102899492D03*
X204978000Y-117856000D03*
X189273857Y-75675889D03*
X174424619Y-45977413D03*
X149675889Y-60826651D03*
X169474873Y-80625635D03*
X201648222Y-63301524D03*
X129876905Y-135072841D03*
X191748730Y-137547714D03*
X127762000Y-105410000D03*
X209072841Y-45977413D03*
X141478000Y-53594000D03*
X199173349Y-75675889D03*
X206597968Y-68251270D03*
X169474873Y-65776397D03*
X119977413Y-75675889D03*
X119977413Y-60826651D03*
X144726143Y-125173349D03*
X154625635Y-55876905D03*
X184324111Y-135072841D03*
X130302000Y-132080000D03*
X164525127Y-55876905D03*
X171949746Y-107849238D03*
X157100508Y-122698476D03*
X149675889Y-95474873D03*
X119977413Y-135072841D03*
X152150762Y-43502540D03*
X162050254Y-78150762D03*
X139446000Y-117348000D03*
X137301524Y-78150762D03*
X171949746Y-43502540D03*
X201648222Y-142497460D03*
X211547714Y-117748730D03*
X137301524Y-112798984D03*
X138684000Y-120650000D03*
X209072841Y-140022587D03*
X169474873Y-60826651D03*
X162050254Y-132597968D03*
X117502540Y-48452286D03*
X157100508Y-43502540D03*
X130556000Y-101854000D03*
X147201016Y-43502540D03*
X199173349Y-105374365D03*
X176899492Y-97949746D03*
X169474873Y-130123095D03*
X162050254Y-93000000D03*
X124968000Y-104648000D03*
X209072841Y-100424619D03*
X206597968Y-53402032D03*
X124206000Y-102108000D03*
X176899492Y-117748730D03*
X140462000Y-81788000D03*
X214022587Y-135072841D03*
X206597968Y-107849238D03*
X167000000Y-83100508D03*
X154625635Y-45977413D03*
X129876905Y-125173349D03*
X145542000Y-88900000D03*
X181849238Y-122698476D03*
X162050254Y-58351778D03*
X157480000Y-106172000D03*
X133096000Y-84582000D03*
X163576000Y-120650000D03*
X129032000Y-103632000D03*
X138176000Y-108966000D03*
X149675889Y-140022587D03*
X167132000Y-87122000D03*
X117502540Y-107849238D03*
X164525127Y-45977413D03*
X138176000Y-105664000D03*
X184324111Y-55876905D03*
X198374000Y-54864000D03*
X214022587Y-90525127D03*
X196698476Y-83100508D03*
X214022587Y-55876905D03*
X122174000Y-114554000D03*
X149675889Y-135072841D03*
X165100000Y-111760000D03*
X154625635Y-90525127D03*
X209072841Y-130123095D03*
X130048000Y-93472000D03*
X143764000Y-64262000D03*
X127402032Y-88050254D03*
X136144000Y-81788000D03*
X157226000Y-62484000D03*
X142251270Y-43502540D03*
X144526000Y-117348000D03*
X132080000Y-57658000D03*
X171958000Y-109728000D03*
X189273857Y-120223603D03*
X145542000Y-103632000D03*
X140462000Y-103378000D03*
X131572000Y-66040000D03*
X171949746Y-122698476D03*
X184324111Y-120223603D03*
X145796000Y-106680000D03*
X214022587Y-105374365D03*
X131064000Y-55118000D03*
X161544000Y-109728000D03*
X124927159Y-130123095D03*
X122174000Y-109220000D03*
X181849238Y-127648222D03*
X127762000Y-113284000D03*
X186798984Y-127648222D03*
X201648222Y-58351778D03*
X176899492Y-83100508D03*
X132588000Y-126746000D03*
X119977413Y-80625635D03*
X169474873Y-50927159D03*
X139776397Y-45977413D03*
X164525127Y-75675889D03*
X216497460Y-127648222D03*
X149606000Y-108204000D03*
X145542000Y-81280000D03*
X133096000Y-76708000D03*
X159575381Y-90525127D03*
X138176000Y-102108000D03*
X155702000Y-108204000D03*
X211547714Y-93000000D03*
X171949746Y-78150762D03*
X139192000Y-62738000D03*
X138176000Y-64262000D03*
X191748730Y-78150762D03*
X157100508Y-142497460D03*
X129876905Y-65776397D03*
X154625635Y-80625635D03*
X174424619Y-95474873D03*
X174498000Y-125730000D03*
X124927159Y-45977413D03*
X129876905Y-100424619D03*
X149675889Y-80625635D03*
X143256000Y-120650000D03*
X127402032Y-43502540D03*
X167000000Y-102899492D03*
X127402032Y-58351778D03*
X211547714Y-43502540D03*
X214022587Y-70726143D03*
X206597968Y-137547714D03*
X199173349Y-110324111D03*
X179374365Y-100424619D03*
X130048000Y-45212000D03*
X121666000Y-110998000D03*
X124927159Y-50927159D03*
X186798984Y-142497460D03*
X124927159Y-140022587D03*
X189273857Y-70726143D03*
X134826651Y-130123095D03*
X154625635Y-95474873D03*
X127402032Y-68251270D03*
X138684000Y-99314000D03*
X140208000Y-56896000D03*
X199173349Y-130123095D03*
X196698476Y-127648222D03*
X129876905Y-140022587D03*
X167132000Y-62484000D03*
X162050254Y-127648222D03*
X216497460Y-137547714D03*
X120396000Y-112522000D03*
X216497460Y-93000000D03*
X122174000Y-102616000D03*
X169474873Y-45977413D03*
X142251270Y-142497460D03*
X206597968Y-127648222D03*
X179374365Y-130123095D03*
X179374365Y-55876905D03*
X119977413Y-90525127D03*
X170434000Y-125730000D03*
X171949746Y-58351778D03*
X137301524Y-68251270D03*
X126238000Y-94234000D03*
X137301524Y-43502540D03*
X133096000Y-91440000D03*
X191748730Y-68251270D03*
X134826651Y-115273857D03*
X141224000Y-101854000D03*
X179374365Y-60826651D03*
X181849238Y-83100508D03*
X184324111Y-65776397D03*
X152150762Y-78150762D03*
X211547714Y-48452286D03*
X159575381Y-60826651D03*
X117502540Y-137547714D03*
X181849238Y-117748730D03*
X142251270Y-127648222D03*
X171949746Y-102899492D03*
X138430000Y-81534000D03*
X124714000Y-84074000D03*
X159575381Y-65776397D03*
X171949746Y-117748730D03*
X172212000Y-62484000D03*
X141986000Y-98806000D03*
X122452286Y-137547714D03*
X159575381Y-80625635D03*
X169474873Y-100424619D03*
X178562000Y-111506000D03*
X152150762Y-112798984D03*
X143764000Y-68580000D03*
X137160000Y-131572000D03*
X128524000Y-116840000D03*
X152150762Y-73201016D03*
X137668000Y-56642000D03*
X203200000Y-102870000D03*
X119977413Y-85575381D03*
X211547714Y-132597968D03*
X179374365Y-80625635D03*
X194223603Y-55876905D03*
X117502540Y-117748730D03*
X149675889Y-65776397D03*
X141986000Y-88900000D03*
X152150762Y-122698476D03*
X191748730Y-43502540D03*
X124460000Y-91948000D03*
X124968000Y-107696000D03*
X119977413Y-50927159D03*
X164525127Y-140022587D03*
X203962000Y-54356000D03*
X205994000Y-120142000D03*
X137301524Y-142497460D03*
X194223603Y-90525127D03*
X125984000Y-85090000D03*
X130302000Y-87884000D03*
X132351778Y-142497460D03*
X201648222Y-73201016D03*
X147320000Y-87122000D03*
X189273857Y-115273857D03*
X157100508Y-127648222D03*
X135636000Y-106680000D03*
X181849238Y-107849238D03*
X137301524Y-48452286D03*
X149675889Y-115273857D03*
X204978000Y-116332000D03*
X181849238Y-43502540D03*
X214022587Y-110324111D03*
X196698476Y-43502540D03*
X154625635Y-115273857D03*
X209072841Y-125173349D03*
X153924000Y-131826000D03*
X211547714Y-83100508D03*
X199173349Y-135072841D03*
X143764000Y-101854000D03*
X164525127Y-115273857D03*
X157226000Y-87122000D03*
X162050254Y-142497460D03*
X167000000Y-43502540D03*
X164525127Y-95474873D03*
X174424619Y-90525127D03*
X196698476Y-137547714D03*
X196698476Y-132597968D03*
X142748000Y-73914000D03*
X132351778Y-73201016D03*
X214022587Y-95474873D03*
X152150762Y-83100508D03*
X132351778Y-112798984D03*
X204978000Y-121158000D03*
X119977413Y-130123095D03*
X129540000Y-68072000D03*
X191748730Y-83100508D03*
X133096000Y-86614000D03*
X189273857Y-80625635D03*
X127402032Y-93000000D03*
X196698476Y-93000000D03*
X140462000Y-68580000D03*
X186798984Y-117748730D03*
X164525127Y-135072841D03*
X137414000Y-59690000D03*
X137301524Y-137547714D03*
X117502540Y-93000000D03*
X177038000Y-109728000D03*
X132351778Y-137547714D03*
X157100508Y-83100508D03*
X189273857Y-95474873D03*
X194223603Y-120223603D03*
X174424619Y-65776397D03*
X152146000Y-62484000D03*
X189273857Y-45977413D03*
X214022587Y-80625635D03*
X139776397Y-125173349D03*
X146050000Y-54356000D03*
X194223603Y-140022587D03*
X159575381Y-130123095D03*
X154686000Y-129286000D03*
X184324111Y-105374365D03*
X157100508Y-102899492D03*
X199173349Y-65776397D03*
X117502540Y-97949746D03*
X216497460Y-132597968D03*
X157988000Y-117856000D03*
X167000000Y-58351778D03*
X216497460Y-53402032D03*
X184324111Y-140022587D03*
X147201016Y-58351778D03*
X127402032Y-142497460D03*
X144726143Y-45977413D03*
X154625635Y-75675889D03*
X139446000Y-104648000D03*
X194223603Y-45977413D03*
X194223603Y-100424619D03*
X169474873Y-135072841D03*
X169474873Y-140022587D03*
X154625635Y-125173349D03*
X129286000Y-88900000D03*
X186798984Y-122698476D03*
X174424619Y-140022587D03*
X191748730Y-122698476D03*
X122452286Y-48452286D03*
X127402032Y-137547714D03*
X196698476Y-107849238D03*
X135636000Y-110490000D03*
X161798000Y-62484000D03*
X117502540Y-83100508D03*
X136652000Y-62484000D03*
X199173349Y-80625635D03*
X189273857Y-60826651D03*
X142251270Y-93000000D03*
X214022587Y-130123095D03*
X167000000Y-117748730D03*
X211547714Y-68251270D03*
X154625635Y-135072841D03*
X149675889Y-70726143D03*
X214022587Y-125173349D03*
X211547714Y-112798984D03*
X161544000Y-108204000D03*
X162050254Y-97949746D03*
X196698476Y-112798984D03*
X147201016Y-78150762D03*
X216497460Y-63301524D03*
X176899492Y-102899492D03*
X179374365Y-140022587D03*
X176899492Y-122698476D03*
X196698476Y-73201016D03*
X196698476Y-78150762D03*
X167000000Y-142497460D03*
X162050254Y-122698476D03*
X128778000Y-97282000D03*
X121920000Y-97536000D03*
X143764000Y-80264000D03*
X216497460Y-48452286D03*
X201648222Y-137547714D03*
X152150762Y-68251270D03*
X128778000Y-96774000D03*
X167000000Y-127648222D03*
X145542000Y-85090000D03*
X140462000Y-87884000D03*
X143764000Y-62738000D03*
X216497460Y-68251270D03*
X179374365Y-95474873D03*
X152400000Y-87122000D03*
X201648222Y-93000000D03*
X174424619Y-60826651D03*
X206597968Y-97949746D03*
X164525127Y-80625635D03*
X147201016Y-97949746D03*
X143764000Y-114046000D03*
X139776397Y-130123095D03*
X181849238Y-142497460D03*
X167000000Y-97949746D03*
X171958000Y-87122000D03*
X214022587Y-75675889D03*
X199173349Y-70726143D03*
X155702000Y-109728000D03*
X159575381Y-55876905D03*
X184324111Y-60826651D03*
X181849238Y-58351778D03*
X154625635Y-50927159D03*
X145542000Y-108204000D03*
X201648222Y-132597968D03*
X203454000Y-121158000D03*
X131826000Y-130302000D03*
X201648222Y-122698476D03*
X214022587Y-65776397D03*
X135128000Y-61976000D03*
X214022587Y-60826651D03*
X199173349Y-140022587D03*
X157100508Y-137547714D03*
X129876905Y-130123095D03*
X117502540Y-58351778D03*
X211547714Y-53402032D03*
X169474873Y-55876905D03*
X128524000Y-120396000D03*
X117502540Y-73201016D03*
X199644000Y-125730000D03*
X152150762Y-142497460D03*
X189273857Y-90525127D03*
X186798984Y-97949746D03*
X140716000Y-90678000D03*
X143764000Y-94742000D03*
X216497460Y-117748730D03*
X149675889Y-125173349D03*
X147201016Y-122698476D03*
X137668000Y-84328000D03*
X129032000Y-108712000D03*
X139776397Y-75675889D03*
X139192000Y-101092000D03*
X164525127Y-60826651D03*
X159575381Y-135072841D03*
X139776397Y-65776397D03*
X196698476Y-68251270D03*
X144726143Y-140022587D03*
X138938000Y-60198000D03*
X171949746Y-142497460D03*
X117502540Y-63301524D03*
X209072841Y-75675889D03*
X186798984Y-58351778D03*
X179374365Y-45977413D03*
X171949746Y-73201016D03*
X174424619Y-120223603D03*
X159575381Y-45977413D03*
X149675889Y-75675889D03*
X120142000Y-103378000D03*
X119977413Y-95474873D03*
X201648222Y-68251270D03*
X189273857Y-110324111D03*
X134620000Y-64770000D03*
X132351778Y-122698476D03*
X159575381Y-50927159D03*
X169474873Y-95474873D03*
X159575381Y-125173349D03*
X138684000Y-96520000D03*
X129794000Y-60198000D03*
X140716000Y-96012000D03*
X216497460Y-112798984D03*
X139776397Y-135072841D03*
X132351778Y-68251270D03*
X174424619Y-130123095D03*
X124927159Y-125173349D03*
X152150762Y-97949746D03*
X147201016Y-68251270D03*
X152150762Y-93000000D03*
X171949746Y-68251270D03*
X203454000Y-117348000D03*
X196698476Y-97949746D03*
X141732000Y-112014000D03*
X184324111Y-70726143D03*
X206597968Y-112798984D03*
X125476000Y-93980000D03*
X203200000Y-107950000D03*
X137301524Y-73201016D03*
X157100508Y-78150762D03*
X204123095Y-45977413D03*
X191748730Y-112798984D03*
X186798984Y-83100508D03*
X157100508Y-58351778D03*
X194223603Y-50927159D03*
X117502540Y-68251270D03*
X181849238Y-102899492D03*
X131826000Y-52578000D03*
X199173349Y-45977413D03*
X121158000Y-124968000D03*
X134826651Y-55876905D03*
X117502540Y-88050254D03*
X164525127Y-130123095D03*
X167000000Y-107849238D03*
X206597968Y-63301524D03*
X184324111Y-80625635D03*
X214022587Y-50927159D03*
X189273857Y-85575381D03*
X124968000Y-86106000D03*
X199173349Y-90525127D03*
X184324111Y-45977413D03*
X189273857Y-65776397D03*
X214022587Y-85575381D03*
X162050254Y-43502540D03*
X211547714Y-58351778D03*
X142251270Y-58351778D03*
X138176000Y-86360000D03*
X159575381Y-140022587D03*
X191748730Y-58351778D03*
X142251270Y-78150762D03*
X169474873Y-70726143D03*
X147201016Y-93000000D03*
X214022587Y-100424619D03*
X122452286Y-88050254D03*
X209072841Y-55876905D03*
X196698476Y-117748730D03*
X174424619Y-55876905D03*
X186798984Y-78150762D03*
X138938000Y-133096000D03*
X126810000Y-100420000D03*
X117502540Y-127648222D03*
X132080000Y-60452000D03*
X174424619Y-100424619D03*
X149675889Y-130123095D03*
X206597968Y-48452286D03*
X167640000Y-124206000D03*
X145542000Y-109728000D03*
X171949746Y-112798984D03*
X159512000Y-112268000D03*
X176899492Y-43502540D03*
X164525127Y-65776397D03*
X171949746Y-83100508D03*
X133096000Y-81788000D03*
X147201016Y-137547714D03*
X199173349Y-100424619D03*
X204123095Y-135072841D03*
X184324111Y-85575381D03*
X138176000Y-94234000D03*
X132351778Y-43502540D03*
X194223603Y-105374365D03*
X211547714Y-73201016D03*
X194223603Y-130123095D03*
X140716000Y-100330000D03*
X169474873Y-115273857D03*
X189273857Y-105374365D03*
X149675889Y-50927159D03*
X167000000Y-132597968D03*
X171949746Y-93000000D03*
X206597968Y-43502540D03*
X209072841Y-105374365D03*
X176899492Y-142497460D03*
X184324111Y-95474873D03*
X179374365Y-85575381D03*
X209072841Y-120223603D03*
X164525127Y-70726143D03*
X127762000Y-110236000D03*
X143764000Y-85090000D03*
X204123095Y-140022587D03*
X171949746Y-137547714D03*
X184324111Y-110324111D03*
X216497460Y-122698476D03*
X201422000Y-55626000D03*
X184324111Y-75675889D03*
X199173349Y-50927159D03*
X144726143Y-135072841D03*
X139192000Y-94234000D03*
X206597968Y-142497460D03*
X124927159Y-135072841D03*
X186798984Y-43502540D03*
X157100508Y-68251270D03*
X176899492Y-127648222D03*
X119977413Y-55876905D03*
X186798984Y-102899492D03*
X145796000Y-48768000D03*
X132080000Y-102362000D03*
X119977413Y-70726143D03*
X211547714Y-63301524D03*
X179374365Y-135072841D03*
X216497460Y-97949746D03*
X136144000Y-66294000D03*
X179374365Y-120223603D03*
X147201016Y-127648222D03*
X216497460Y-78150762D03*
X196698476Y-63301524D03*
X167132000Y-109728000D03*
X145542000Y-101854000D03*
X181849238Y-78150762D03*
X119888000Y-107950000D03*
X203200000Y-112776000D03*
X143256000Y-54610000D03*
X201648222Y-43502540D03*
X139954000Y-110490000D03*
X154625635Y-60826651D03*
X164525127Y-90525127D03*
X199173349Y-95474873D03*
X209072841Y-60826651D03*
X119888000Y-120650000D03*
X149675889Y-100424619D03*
X209072841Y-85575381D03*
X206597968Y-78150762D03*
X189273857Y-100424619D03*
%TO.N,+5V*%
X132804000Y-51069000D03*
D18*
X130772000Y-61672000D03*
X125114925Y-71628000D03*
X125114925Y-70866000D03*
D19*
X127904000Y-51069000D03*
D18*
%TO.N,Net-(J1-CC2)*%
X128573500Y-47752000D03*
%TO.N,Net-(J1-CC1)*%
X131621500Y-47752000D03*
%TO.N,SWDIO*%
X125111000Y-90459000D03*
%TO.N,UART_RX*%
X129911000Y-98809000D03*
%TO.N,SWCLK*%
X124311000Y-90459000D03*
D19*
%TO.N,RESET*%
X126746000Y-97028000D03*
D18*
X128778000Y-94742000D03*
%TO.N,UART_TX*%
X129111000Y-98809000D03*
D19*
%TO.N,SELECT_0*%
X127000000Y-106934000D03*
X122936000Y-93434000D03*
X126738091Y-120657909D03*
%TO.N,SELECT_1*%
X122936000Y-94234000D03*
X125730000Y-109220000D03*
X125476000Y-121307909D03*
%TO.N,SELECT_2*%
X122936000Y-95034000D03*
X124460000Y-111252000D03*
X129075265Y-121368735D03*
%TO.N,SELECT_3*%
X123571000Y-111887000D03*
X122032837Y-96004108D03*
X130698000Y-122008000D03*
D18*
%TO.N,COM_FET*%
X207010000Y-122177000D03*
X163689000Y-105918000D03*
X132685000Y-132080000D03*
X182739000Y-105918000D03*
X182739000Y-86868000D03*
X144629550Y-67818000D03*
X182739000Y-67818000D03*
X163615000Y-48768000D03*
X163689000Y-67818000D03*
X144639000Y-48768000D03*
X182665000Y-48768000D03*
X182739000Y-124968000D03*
X144639000Y-86868000D03*
X144639000Y-105918000D03*
X201789000Y-48768000D03*
X207010000Y-84247000D03*
X163615000Y-86868000D03*
X154159500Y-136906000D03*
%TO.N,LED_PWM*%
X129623735Y-96603735D03*
X130810000Y-131130000D03*
%TD*%
D20*
%TO.N,+3V3*%
X130698000Y-103074000D02*
X130698000Y-109728000D01*
X130698000Y-103074000D02*
X136696000Y-103074000D01*
X141688000Y-91904000D02*
X141224000Y-91440000D01*
D21*
X125476000Y-59436000D02*
X122174000Y-59436000D01*
D20*
X141224000Y-91440000D02*
X134112000Y-91440000D01*
X128016000Y-100392000D02*
X130698000Y-103074000D01*
X134112000Y-91440000D02*
X132842000Y-92710000D01*
X138938000Y-85598000D02*
X139192000Y-85852000D01*
X130698000Y-109728000D02*
X141526500Y-109728000D01*
X142752500Y-91904000D02*
X141688000Y-91904000D01*
X137160000Y-67056000D02*
X132588000Y-67056000D01*
X128016000Y-96473000D02*
X128016000Y-100392000D01*
X126746000Y-95203000D02*
X128016000Y-96473000D01*
X132842000Y-85598000D02*
X138938000Y-85598000D01*
X141526500Y-109728000D02*
X142752500Y-110954000D01*
X136696000Y-103074000D02*
X139540000Y-105918000D01*
X130698000Y-109728000D02*
X130698000Y-114758000D01*
D21*
X122174000Y-59436000D02*
X121412000Y-58674000D01*
D22*
%TO.N,GND*%
X134674000Y-48979500D02*
X134674000Y-50154000D01*
X126748500Y-46688500D02*
X126034000Y-45974000D01*
X133446500Y-47752000D02*
X134674000Y-48979500D01*
X133446500Y-47201500D02*
X134674000Y-45974000D01*
X126748500Y-47752000D02*
X126748500Y-46688500D01*
X126748500Y-49439500D02*
X126034000Y-50154000D01*
X126748500Y-47752000D02*
X126748500Y-49439500D01*
X133446500Y-47752000D02*
X133446500Y-47201500D01*
D21*
%TO.N,+5V*%
X128320000Y-61672000D02*
X130772000Y-61672000D01*
X125114925Y-70866000D02*
X125114925Y-64877075D01*
X125114925Y-70866000D02*
X125114925Y-71628000D01*
X132804000Y-51069000D02*
X127904000Y-51069000D01*
X125114925Y-64877075D02*
X128320000Y-61672000D01*
D23*
%TO.N,SWDIO*%
X128405000Y-84788760D02*
X127730760Y-85463000D01*
X129794000Y-81534000D02*
X128405000Y-82923000D01*
X127730760Y-85463000D02*
X126777240Y-85463000D01*
X125111000Y-87129240D02*
X125111000Y-90459000D01*
X128405000Y-82923000D02*
X128405000Y-84788760D01*
X126777240Y-85463000D02*
X125111000Y-87129240D01*
%TO.N,UART_RX*%
X132241000Y-74059000D02*
X132241000Y-96479000D01*
X127254000Y-78994000D02*
X126103000Y-77843000D01*
X132241000Y-96479000D02*
X129911000Y-98809000D01*
X126777240Y-72763000D02*
X130945000Y-72763000D01*
X130945000Y-72763000D02*
X132241000Y-74059000D01*
X126103000Y-77843000D02*
X126103000Y-73437240D01*
X126103000Y-73437240D02*
X126777240Y-72763000D01*
%TO.N,SWCLK*%
X128524000Y-82042000D02*
X127762000Y-82804000D01*
X128524000Y-77724000D02*
X128524000Y-82042000D01*
X124311000Y-85389240D02*
X124311000Y-90459000D01*
X126896240Y-82804000D02*
X124311000Y-85389240D01*
X127762000Y-82804000D02*
X126896240Y-82804000D01*
X129794000Y-76454000D02*
X128524000Y-77724000D01*
%TO.N,RESET*%
X128778000Y-93726000D02*
X128524000Y-93472000D01*
X128524000Y-93472000D02*
X128524000Y-85344000D01*
X128524000Y-85344000D02*
X129794000Y-84074000D01*
X128778000Y-94742000D02*
X128778000Y-93726000D01*
%TO.N,UART_TX*%
X128405000Y-75303000D02*
X130270760Y-75303000D01*
X130945000Y-96131000D02*
X129111000Y-97965000D01*
X130945000Y-75977240D02*
X130945000Y-96131000D01*
X130270760Y-75303000D02*
X130945000Y-75977240D01*
X127254000Y-76454000D02*
X128405000Y-75303000D01*
X129111000Y-97965000D02*
X129111000Y-98809000D01*
D20*
%TO.N,SELECT_0*%
X127000000Y-103216000D02*
X127000000Y-106934000D01*
X125730000Y-95478001D02*
X125730000Y-101946000D01*
X122936000Y-93434000D02*
X123685999Y-93434000D01*
X123685999Y-93434000D02*
X125730000Y-95478001D01*
X125730000Y-101946000D02*
X127000000Y-103216000D01*
X127000000Y-106934000D02*
X127000000Y-120396000D01*
X127000000Y-120396000D02*
X126738091Y-120657909D01*
%TO.N,SELECT_1*%
X125730000Y-109220000D02*
X125730000Y-102654520D01*
X125730000Y-121053909D02*
X125476000Y-121307909D01*
X125730000Y-109220000D02*
X125730000Y-121053909D01*
X125730000Y-102654520D02*
X125229000Y-102153521D01*
X122985943Y-94234000D02*
X122936000Y-94234000D01*
X125229000Y-96477057D02*
X122985943Y-94234000D01*
X125229000Y-102153521D02*
X125229000Y-96477057D01*
%TO.N,SELECT_2*%
X125227057Y-121908909D02*
X128535091Y-121908909D01*
X122936000Y-109728000D02*
X124460000Y-111252000D01*
X128535091Y-121908909D02*
X129075265Y-121368735D01*
X124460000Y-111252000D02*
X124714000Y-111506000D01*
X124714000Y-111506000D02*
X124714000Y-121395852D01*
X122936000Y-95034000D02*
X122936000Y-109728000D01*
X124714000Y-121395852D02*
X125227057Y-121908909D01*
%TO.N,SELECT_3*%
X123571000Y-121976831D02*
X124530169Y-122936000D01*
X123571000Y-111887000D02*
X123571000Y-121976831D01*
X129770000Y-122936000D02*
X130698000Y-122008000D01*
X121158000Y-96878945D02*
X122032837Y-96004108D01*
X124530169Y-122936000D02*
X129770000Y-122936000D01*
X121158000Y-109474000D02*
X121158000Y-96878945D01*
X123571000Y-111887000D02*
X121158000Y-109474000D01*
%TO.N,COM_FET*%
X144639000Y-107188000D02*
X144639000Y-107442000D01*
X163615000Y-48768000D02*
X163689000Y-48842000D01*
X144893000Y-107442000D02*
X144639000Y-107696000D01*
X202190000Y-117357000D02*
X207010000Y-122177000D01*
X154229037Y-136906000D02*
X154159500Y-136906000D01*
X201789000Y-48768000D02*
X205486000Y-52465000D01*
X145034000Y-107442000D02*
X144639000Y-107442000D01*
X182739000Y-48842000D02*
X182739000Y-105918000D01*
X205426013Y-56068000D02*
X205486000Y-56068000D01*
X166167037Y-124968000D02*
X154229037Y-136906000D01*
X182665000Y-48768000D02*
X182739000Y-48842000D01*
X205486000Y-53516000D02*
X205426013Y-53516000D01*
X205486000Y-82723000D02*
X207010000Y-84247000D01*
X207010000Y-92163358D02*
X202190000Y-96983358D01*
X144639000Y-107696000D02*
X144639000Y-116036600D01*
X205486000Y-52465000D02*
X205486000Y-53516000D01*
X182739000Y-105918000D02*
X163689000Y-105918000D01*
X205426013Y-53516000D02*
X204678550Y-54263463D01*
X144639000Y-105918000D02*
X144639000Y-107188000D01*
X163689000Y-105918000D02*
X162165000Y-107442000D01*
X204219000Y-124968000D02*
X182739000Y-124968000D01*
X144639000Y-107442000D02*
X144639000Y-107696000D01*
X207010000Y-84247000D02*
X207010000Y-92163358D01*
X163689000Y-48842000D02*
X163689000Y-105918000D01*
X207010000Y-122177000D02*
X204219000Y-124968000D01*
X145034000Y-107442000D02*
X144893000Y-107442000D01*
X204678550Y-54263463D02*
X204678550Y-55320537D01*
X149587500Y-132334000D02*
X132939000Y-132334000D01*
X132939000Y-132334000D02*
X132685000Y-132080000D01*
X144893000Y-107442000D02*
X144639000Y-107188000D01*
X132685000Y-127990600D02*
X132685000Y-132080000D01*
X202190000Y-96983358D02*
X202190000Y-117357000D01*
X162165000Y-107442000D02*
X145034000Y-107442000D01*
X144639000Y-48768000D02*
X144639000Y-105918000D01*
X144639000Y-116036600D02*
X132685000Y-127990600D01*
X204678550Y-55320537D02*
X205426013Y-56068000D01*
X154159500Y-136906000D02*
X149587500Y-132334000D01*
X182739000Y-124968000D02*
X166167037Y-124968000D01*
X205486000Y-56068000D02*
X205486000Y-82723000D01*
%TO.N,LED_PWM*%
X130810000Y-128270000D02*
X130810000Y-131130000D01*
X118872000Y-118406603D02*
X124671397Y-124206000D01*
X118872000Y-95250000D02*
X118872000Y-118406603D01*
X121289000Y-92833000D02*
X118872000Y-95250000D01*
X126746000Y-124206000D02*
X130810000Y-128270000D01*
X125853000Y-92833000D02*
X121289000Y-92833000D01*
X129623735Y-96603735D02*
X125853000Y-92833000D01*
X124671397Y-124206000D02*
X126746000Y-124206000D01*
%TD*%
%TA.AperFunction,Conductor*%
%TO.N,GND*%
G36*
X122378866Y-93253185D02*
G01*
X122424621Y-93305989D01*
X122432709Y-93359981D01*
X122435500Y-93359981D01*
X122435500Y-93499891D01*
X122469608Y-93627187D01*
X122500017Y-93679856D01*
X122535500Y-93741314D01*
X122535502Y-93741316D01*
X122540505Y-93746319D01*
X122573990Y-93807642D01*
X122569006Y-93877334D01*
X122540505Y-93921681D01*
X122535502Y-93926683D01*
X122535500Y-93926686D01*
X122469608Y-94040812D01*
X122451206Y-94109491D01*
X122435500Y-94168108D01*
X122435500Y-94299892D01*
X122445451Y-94337029D01*
X122469608Y-94427187D01*
X122491440Y-94465000D01*
X122535500Y-94541314D01*
X122535502Y-94541316D01*
X122540505Y-94546319D01*
X122573990Y-94607642D01*
X122569006Y-94677334D01*
X122540505Y-94721681D01*
X122535502Y-94726683D01*
X122535500Y-94726686D01*
X122469608Y-94840812D01*
X122461466Y-94871200D01*
X122435500Y-94968108D01*
X122435500Y-95099892D01*
X122469608Y-95227186D01*
X122518887Y-95312540D01*
X122523037Y-95328027D01*
X122530477Y-95339604D01*
X122535500Y-95374539D01*
X122535500Y-95502057D01*
X122515815Y-95569096D01*
X122463011Y-95614851D01*
X122393853Y-95624795D01*
X122348363Y-95605638D01*
X122347189Y-95607672D01*
X122340152Y-95603609D01*
X122340151Y-95603608D01*
X122280375Y-95569096D01*
X122226024Y-95537716D01*
X122162376Y-95520662D01*
X122098729Y-95503608D01*
X121966945Y-95503608D01*
X121839649Y-95537716D01*
X121725523Y-95603608D01*
X121725520Y-95603610D01*
X121632339Y-95696791D01*
X121632337Y-95696794D01*
X121566444Y-95810922D01*
X121566444Y-95810923D01*
X121540935Y-95906122D01*
X121508842Y-95961708D01*
X120837522Y-96633029D01*
X120837518Y-96633035D01*
X120784792Y-96724357D01*
X120784793Y-96724358D01*
X120757500Y-96826218D01*
X120757500Y-109421273D01*
X120757500Y-109526727D01*
X120760280Y-109537103D01*
X120784793Y-109628589D01*
X120811156Y-109674250D01*
X120837520Y-109719913D01*
X120837522Y-109719915D01*
X123047005Y-111929398D01*
X123051637Y-111936330D01*
X123055875Y-111939273D01*
X123063081Y-111953458D01*
X123073885Y-111969626D01*
X123076996Y-111977136D01*
X123104608Y-112080186D01*
X123157952Y-112172580D01*
X123161061Y-112180086D01*
X123163256Y-112200505D01*
X123170500Y-112227539D01*
X123170500Y-121839348D01*
X123150815Y-121906387D01*
X123098011Y-121952142D01*
X123028853Y-121962086D01*
X122965297Y-121933061D01*
X122958819Y-121927029D01*
X119308819Y-118277029D01*
X119275334Y-118215706D01*
X119272500Y-118189348D01*
X119272500Y-95467255D01*
X119292185Y-95400216D01*
X119308819Y-95379574D01*
X121418574Y-93269819D01*
X121479897Y-93236334D01*
X121506255Y-93233500D01*
X122311827Y-93233500D01*
X122378866Y-93253185D01*
G37*
%TD.AperFunction*%
%TA.AperFunction,Conductor*%
G36*
X123541703Y-95356598D02*
G01*
X123548167Y-95362617D01*
X124120006Y-95934455D01*
X124792181Y-96606630D01*
X124825666Y-96667953D01*
X124828500Y-96694311D01*
X124828500Y-102206247D01*
X124855793Y-102308110D01*
X124882156Y-102353771D01*
X124908520Y-102399434D01*
X124908521Y-102399435D01*
X124908522Y-102399436D01*
X125293181Y-102784094D01*
X125326666Y-102845417D01*
X125329500Y-102871775D01*
X125329500Y-108879460D01*
X125312887Y-108941460D01*
X125263609Y-109026810D01*
X125263609Y-109026811D01*
X125263608Y-109026813D01*
X125263608Y-109026814D01*
X125229500Y-109154108D01*
X125229500Y-109285892D01*
X125263608Y-109413186D01*
X125312887Y-109498540D01*
X125329500Y-109560539D01*
X125329500Y-111313789D01*
X125309815Y-111380828D01*
X125257011Y-111426583D01*
X125187853Y-111436527D01*
X125124297Y-111407502D01*
X125103795Y-111384726D01*
X125091354Y-111366889D01*
X125087207Y-111351412D01*
X125034480Y-111260087D01*
X124976240Y-111201847D01*
X124969969Y-111192856D01*
X124963937Y-111174863D01*
X124951900Y-111154014D01*
X124926392Y-111058814D01*
X124860500Y-110944686D01*
X124767314Y-110851500D01*
X124653186Y-110785608D01*
X124557985Y-110760099D01*
X124502398Y-110728005D01*
X123372819Y-109598426D01*
X123339334Y-109537103D01*
X123336500Y-109510745D01*
X123336500Y-95450311D01*
X123356185Y-95383272D01*
X123408989Y-95337517D01*
X123478147Y-95327573D01*
X123541703Y-95356598D01*
G37*
%TD.AperFunction*%
%TA.AperFunction,Conductor*%
G36*
X122469613Y-96396619D02*
G01*
X122519609Y-96445426D01*
X122535500Y-96506158D01*
X122535500Y-109780726D01*
X122562793Y-109882589D01*
X122580234Y-109912796D01*
X122615520Y-109973913D01*
X122615522Y-109973915D01*
X123844070Y-111202463D01*
X123845533Y-111205143D01*
X123848143Y-111206734D01*
X123862172Y-111235615D01*
X123877555Y-111263786D01*
X123877337Y-111266832D01*
X123878672Y-111269581D01*
X123874861Y-111301450D01*
X123872571Y-111333478D01*
X123870739Y-111335924D01*
X123870377Y-111338956D01*
X123849943Y-111363704D01*
X123830699Y-111389411D01*
X123827836Y-111390478D01*
X123825892Y-111392834D01*
X123795314Y-111402608D01*
X123765235Y-111413828D01*
X123761372Y-111413459D01*
X123759340Y-111414109D01*
X123724296Y-111409919D01*
X123668986Y-111395099D01*
X123613398Y-111363005D01*
X121594819Y-109344426D01*
X121561334Y-109283103D01*
X121558500Y-109256745D01*
X121558500Y-97096199D01*
X121578185Y-97029160D01*
X121594815Y-97008522D01*
X122075236Y-96528100D01*
X122130823Y-96496008D01*
X122226020Y-96470501D01*
X122226020Y-96470500D01*
X122226023Y-96470500D01*
X122340151Y-96404608D01*
X122340151Y-96404607D01*
X122347190Y-96400544D01*
X122348568Y-96402931D01*
X122401167Y-96382589D01*
X122469613Y-96396619D01*
G37*
%TD.AperFunction*%
%TA.AperFunction,Conductor*%
G36*
X128530165Y-96076606D02*
G01*
X128532277Y-96078669D01*
X129036916Y-96583308D01*
X129070401Y-96644631D01*
X129073235Y-96670989D01*
X129073235Y-96676210D01*
X129110751Y-96816220D01*
X129110752Y-96816223D01*
X129183223Y-96941746D01*
X129183225Y-96941748D01*
X129183226Y-96941750D01*
X129285720Y-97044244D01*
X129304487Y-97055079D01*
X129352702Y-97105644D01*
X129365927Y-97174251D01*
X129339960Y-97239116D01*
X129330169Y-97250147D01*
X128830531Y-97749786D01*
X128830527Y-97749791D01*
X128784387Y-97829709D01*
X128784386Y-97829712D01*
X128760500Y-97918856D01*
X128760500Y-98329614D01*
X128753614Y-98353061D01*
X128750942Y-98377353D01*
X128743002Y-98389202D01*
X128740815Y-98396653D01*
X128732857Y-98407661D01*
X128728773Y-98412702D01*
X128670491Y-98470985D01*
X128643005Y-98518591D01*
X128636857Y-98526182D01*
X128615820Y-98540710D01*
X128597319Y-98558351D01*
X128587551Y-98560233D01*
X128579365Y-98565887D01*
X128553812Y-98566735D01*
X128528712Y-98571573D01*
X128519476Y-98567875D01*
X128509534Y-98568206D01*
X128487581Y-98555106D01*
X128463847Y-98545605D01*
X128458076Y-98537501D01*
X128449534Y-98532404D01*
X128438149Y-98509516D01*
X128423319Y-98488690D01*
X128421036Y-98475113D01*
X128418416Y-98469846D01*
X128419102Y-98463610D01*
X128416500Y-98448135D01*
X128416500Y-96420275D01*
X128416499Y-96420271D01*
X128412302Y-96404608D01*
X128399767Y-96357823D01*
X128389207Y-96318412D01*
X128337208Y-96228348D01*
X128320736Y-96160451D01*
X128343588Y-96094424D01*
X128398509Y-96051233D01*
X128468062Y-96044591D01*
X128530165Y-96076606D01*
G37*
%TD.AperFunction*%
%TA.AperFunction,Conductor*%
G36*
X129072106Y-87451960D02*
G01*
X129073131Y-87450550D01*
X129077069Y-87453411D01*
X129077072Y-87453414D01*
X129217212Y-87555232D01*
X129371555Y-87633873D01*
X129536299Y-87687402D01*
X129707389Y-87714500D01*
X129707390Y-87714500D01*
X129880610Y-87714500D01*
X129880611Y-87714500D01*
X130051701Y-87687402D01*
X130216445Y-87633873D01*
X130370788Y-87555232D01*
X130397614Y-87535741D01*
X130463419Y-87512261D01*
X130531473Y-87528086D01*
X130580169Y-87578191D01*
X130594500Y-87636059D01*
X130594500Y-95934455D01*
X130574815Y-96001494D01*
X130558181Y-96022136D01*
X130270147Y-96310169D01*
X130208824Y-96343654D01*
X130139132Y-96338670D01*
X130083199Y-96296798D01*
X130075082Y-96284493D01*
X130064244Y-96265720D01*
X129961750Y-96163226D01*
X129961748Y-96163225D01*
X129961746Y-96163223D01*
X129836223Y-96090752D01*
X129836224Y-96090752D01*
X129824741Y-96087675D01*
X129696210Y-96053235D01*
X129696207Y-96053235D01*
X129690989Y-96053235D01*
X129623950Y-96033550D01*
X129603308Y-96016916D01*
X129010221Y-95423829D01*
X128976736Y-95362506D01*
X128981720Y-95292814D01*
X129023592Y-95236881D01*
X129035880Y-95228774D01*
X129116015Y-95182509D01*
X129218509Y-95080015D01*
X129290984Y-94954485D01*
X129328500Y-94814475D01*
X129328500Y-94669525D01*
X129290984Y-94529515D01*
X129285657Y-94520289D01*
X129218511Y-94403988D01*
X129218506Y-94403982D01*
X129164819Y-94350295D01*
X129131334Y-94288972D01*
X129128500Y-94262614D01*
X129128500Y-93679858D01*
X129128500Y-93679856D01*
X129104614Y-93590712D01*
X129104611Y-93590706D01*
X129058473Y-93510794D01*
X129058470Y-93510791D01*
X129058469Y-93510788D01*
X128993212Y-93445531D01*
X128910818Y-93363136D01*
X128895147Y-93334435D01*
X128877333Y-93301812D01*
X128877333Y-93301806D01*
X128874500Y-93275455D01*
X128874500Y-87549377D01*
X128894185Y-87482338D01*
X128946989Y-87436583D01*
X129016147Y-87426639D01*
X129072106Y-87451960D01*
G37*
%TD.AperFunction*%
%TA.AperFunction,Conductor*%
G36*
X125702784Y-93253185D02*
G01*
X125723426Y-93269819D01*
X126706926Y-94253319D01*
X126740411Y-94314642D01*
X126735427Y-94384334D01*
X126693555Y-94440267D01*
X126628091Y-94464684D01*
X126619245Y-94465000D01*
X126461809Y-94465000D01*
X126403700Y-94471248D01*
X126272219Y-94520289D01*
X126159884Y-94604384D01*
X126075789Y-94716719D01*
X126026748Y-94848200D01*
X126020501Y-94906308D01*
X126020336Y-94909390D01*
X125997094Y-94975281D01*
X125941919Y-95018147D01*
X125872327Y-95024377D01*
X125810415Y-94991995D01*
X125808832Y-94990440D01*
X124263573Y-93445181D01*
X124230088Y-93383858D01*
X124235072Y-93314166D01*
X124276944Y-93258233D01*
X124342408Y-93233816D01*
X124351254Y-93233500D01*
X125635745Y-93233500D01*
X125702784Y-93253185D01*
G37*
%TD.AperFunction*%
%TA.AperFunction,Conductor*%
G36*
X126073325Y-84200523D02*
G01*
X126096271Y-84202164D01*
X126106349Y-84209709D01*
X126118479Y-84213083D01*
X126133790Y-84230251D01*
X126152204Y-84244036D01*
X126157715Y-84257078D01*
X126164984Y-84265228D01*
X126175410Y-84298947D01*
X126180597Y-84331698D01*
X126180598Y-84331701D01*
X126234127Y-84496445D01*
X126312768Y-84650788D01*
X126414586Y-84790928D01*
X126537072Y-84913414D01*
X126585120Y-84948323D01*
X126600040Y-84959163D01*
X126642705Y-85014494D01*
X126648684Y-85084107D01*
X126616078Y-85145902D01*
X126589155Y-85166868D01*
X126562029Y-85182529D01*
X126562026Y-85182531D01*
X124873181Y-86871377D01*
X124811858Y-86904862D01*
X124742166Y-86899878D01*
X124686233Y-86858006D01*
X124661816Y-86792542D01*
X124661500Y-86783696D01*
X124661500Y-85585784D01*
X124681185Y-85518745D01*
X124697819Y-85498103D01*
X125282510Y-84913412D01*
X125965258Y-84230663D01*
X125976305Y-84224631D01*
X125984414Y-84214999D01*
X126006391Y-84208203D01*
X126026579Y-84197180D01*
X126039137Y-84198078D01*
X126051165Y-84194359D01*
X126073325Y-84200523D01*
G37*
%TD.AperFunction*%
%TA.AperFunction,Conductor*%
G36*
X130531473Y-77368086D02*
G01*
X130580169Y-77418191D01*
X130594500Y-77476059D01*
X130594500Y-80511940D01*
X130574815Y-80578979D01*
X130522011Y-80624734D01*
X130452853Y-80634678D01*
X130397615Y-80612259D01*
X130370787Y-80592767D01*
X130216447Y-80514128D01*
X130216446Y-80514127D01*
X130216445Y-80514127D01*
X130051701Y-80460598D01*
X130051699Y-80460597D01*
X130051698Y-80460597D01*
X129920271Y-80439781D01*
X129880611Y-80433500D01*
X129707389Y-80433500D01*
X129667728Y-80439781D01*
X129536302Y-80460597D01*
X129371552Y-80514128D01*
X129217211Y-80592768D01*
X129159528Y-80634678D01*
X129077072Y-80694586D01*
X129077069Y-80694588D01*
X129073131Y-80697450D01*
X129072094Y-80696024D01*
X129015255Y-80721485D01*
X128946171Y-80711039D01*
X128893700Y-80664902D01*
X128874500Y-80598622D01*
X128874500Y-77920543D01*
X128894185Y-77853504D01*
X128910815Y-77832866D01*
X129241031Y-77502649D01*
X129302352Y-77469166D01*
X129367029Y-77472401D01*
X129371547Y-77473869D01*
X129371555Y-77473873D01*
X129536299Y-77527402D01*
X129707389Y-77554500D01*
X129707390Y-77554500D01*
X129880610Y-77554500D01*
X129880611Y-77554500D01*
X130051701Y-77527402D01*
X130216445Y-77473873D01*
X130370788Y-77395232D01*
X130397614Y-77375741D01*
X130463419Y-77352261D01*
X130531473Y-77368086D01*
G37*
%TD.AperFunction*%
%TA.AperFunction,Conductor*%
G36*
X214003243Y-43000669D02*
G01*
X214280182Y-43015184D01*
X214287575Y-43015794D01*
X214349875Y-43022813D01*
X214355353Y-43023555D01*
X214597128Y-43061848D01*
X214605289Y-43063423D01*
X214660830Y-43076100D01*
X214665181Y-43077179D01*
X214908157Y-43142284D01*
X214916999Y-43145013D01*
X214959629Y-43159930D01*
X214963079Y-43161195D01*
X215209378Y-43255739D01*
X215218711Y-43259770D01*
X215239307Y-43269689D01*
X215241754Y-43270900D01*
X215493968Y-43399411D01*
X215505203Y-43405898D01*
X215757608Y-43569812D01*
X215768109Y-43577441D01*
X216002010Y-43766850D01*
X216011655Y-43775535D01*
X216224464Y-43988344D01*
X216233149Y-43997989D01*
X216422558Y-44231890D01*
X216430187Y-44242391D01*
X216594101Y-44494796D01*
X216600591Y-44506036D01*
X216729075Y-44758199D01*
X216730309Y-44760691D01*
X216740223Y-44781277D01*
X216744268Y-44790643D01*
X216838791Y-45036887D01*
X216840068Y-45040369D01*
X216854985Y-45082999D01*
X216857719Y-45091860D01*
X216922806Y-45334766D01*
X216923923Y-45339269D01*
X216936569Y-45394679D01*
X216938150Y-45402872D01*
X216976440Y-45644627D01*
X216977187Y-45650142D01*
X216984204Y-45712424D01*
X216984814Y-45719816D01*
X216999330Y-45996755D01*
X216999500Y-46003246D01*
X216999500Y-139996753D01*
X216999330Y-140003244D01*
X216984814Y-140280182D01*
X216984204Y-140287574D01*
X216977187Y-140349856D01*
X216976440Y-140355371D01*
X216938150Y-140597126D01*
X216936569Y-140605319D01*
X216923923Y-140660729D01*
X216922806Y-140665232D01*
X216857719Y-140908138D01*
X216854985Y-140916999D01*
X216840068Y-140959629D01*
X216838791Y-140963111D01*
X216744268Y-141209355D01*
X216740223Y-141218721D01*
X216730309Y-141239307D01*
X216729075Y-141241799D01*
X216600591Y-141493964D01*
X216594105Y-141505197D01*
X216570250Y-141541932D01*
X216430187Y-141757609D01*
X216422558Y-141768109D01*
X216233149Y-142002010D01*
X216224464Y-142011655D01*
X216011655Y-142224464D01*
X216002010Y-142233149D01*
X215768109Y-142422558D01*
X215757609Y-142430187D01*
X215505197Y-142594105D01*
X215493964Y-142600591D01*
X215241799Y-142729075D01*
X215239307Y-142730309D01*
X215218721Y-142740223D01*
X215209355Y-142744268D01*
X214963111Y-142838791D01*
X214959629Y-142840068D01*
X214916999Y-142854985D01*
X214908138Y-142857719D01*
X214665232Y-142922806D01*
X214660729Y-142923923D01*
X214605319Y-142936569D01*
X214597126Y-142938150D01*
X214355371Y-142976440D01*
X214349856Y-142977187D01*
X214287574Y-142984204D01*
X214280182Y-142984814D01*
X214003244Y-142999330D01*
X213996753Y-142999500D01*
X120003246Y-142999500D01*
X119996757Y-142999330D01*
X119986676Y-142998801D01*
X119719816Y-142984814D01*
X119712424Y-142984204D01*
X119650142Y-142977187D01*
X119644627Y-142976440D01*
X119402872Y-142938150D01*
X119394679Y-142936569D01*
X119366044Y-142930033D01*
X119339245Y-142923917D01*
X119334766Y-142922806D01*
X119091860Y-142857719D01*
X119082999Y-142854985D01*
X119040369Y-142840068D01*
X119036887Y-142838791D01*
X118790643Y-142744268D01*
X118781277Y-142740223D01*
X118760691Y-142730309D01*
X118758199Y-142729075D01*
X118506036Y-142600591D01*
X118494796Y-142594101D01*
X118242391Y-142430187D01*
X118231890Y-142422558D01*
X117997989Y-142233149D01*
X117988344Y-142224464D01*
X117775535Y-142011655D01*
X117766850Y-142002010D01*
X117577441Y-141768109D01*
X117569812Y-141757608D01*
X117429750Y-141541932D01*
X117405896Y-141505199D01*
X117399408Y-141493963D01*
X117270900Y-141241754D01*
X117269689Y-141239307D01*
X117259775Y-141218721D01*
X117255739Y-141209378D01*
X117161195Y-140963079D01*
X117159930Y-140959629D01*
X117145013Y-140916999D01*
X117142284Y-140908157D01*
X117077179Y-140665181D01*
X117076100Y-140660830D01*
X117063423Y-140605289D01*
X117061848Y-140597126D01*
X117061686Y-140596104D01*
X117023555Y-140355353D01*
X117022811Y-140349856D01*
X117015794Y-140287574D01*
X117015184Y-140280181D01*
X117000670Y-140003243D01*
X117000500Y-139996753D01*
X117000500Y-139878711D01*
X118149500Y-139878711D01*
X118149500Y-140121288D01*
X118181161Y-140361785D01*
X118243947Y-140596104D01*
X118272581Y-140665232D01*
X118336776Y-140820212D01*
X118458064Y-141030289D01*
X118458066Y-141030292D01*
X118458067Y-141030293D01*
X118605733Y-141222736D01*
X118605739Y-141222743D01*
X118777256Y-141394260D01*
X118777262Y-141394265D01*
X118969711Y-141541936D01*
X119179788Y-141663224D01*
X119403900Y-141756054D01*
X119638211Y-141818838D01*
X119818586Y-141842584D01*
X119878711Y-141850500D01*
X119878712Y-141850500D01*
X120121289Y-141850500D01*
X120169388Y-141844167D01*
X120361789Y-141818838D01*
X120596100Y-141756054D01*
X120820212Y-141663224D01*
X121030289Y-141541936D01*
X121222738Y-141394265D01*
X121394265Y-141222738D01*
X121541936Y-141030289D01*
X121663224Y-140820212D01*
X121756054Y-140596100D01*
X121818838Y-140361789D01*
X121850500Y-140121288D01*
X121850500Y-139878712D01*
X121850500Y-139878711D01*
X212149500Y-139878711D01*
X212149500Y-140121288D01*
X212181161Y-140361785D01*
X212243947Y-140596104D01*
X212272581Y-140665232D01*
X212336776Y-140820212D01*
X212458064Y-141030289D01*
X212458066Y-141030292D01*
X212458067Y-141030293D01*
X212605733Y-141222736D01*
X212605739Y-141222743D01*
X212777256Y-141394260D01*
X212777262Y-141394265D01*
X212969711Y-141541936D01*
X213179788Y-141663224D01*
X213403900Y-141756054D01*
X213638211Y-141818838D01*
X213818586Y-141842584D01*
X213878711Y-141850500D01*
X213878712Y-141850500D01*
X214121289Y-141850500D01*
X214169388Y-141844167D01*
X214361789Y-141818838D01*
X214596100Y-141756054D01*
X214820212Y-141663224D01*
X215030289Y-141541936D01*
X215222738Y-141394265D01*
X215394265Y-141222738D01*
X215541936Y-141030289D01*
X215663224Y-140820212D01*
X215756054Y-140596100D01*
X215818838Y-140361789D01*
X215850500Y-140121288D01*
X215850500Y-139878712D01*
X215818838Y-139638211D01*
X215756054Y-139403900D01*
X215663224Y-139179788D01*
X215541936Y-138969711D01*
X215394265Y-138777262D01*
X215394260Y-138777256D01*
X215222743Y-138605739D01*
X215222736Y-138605733D01*
X215030293Y-138458067D01*
X215030292Y-138458066D01*
X215030289Y-138458064D01*
X214820212Y-138336776D01*
X214820205Y-138336773D01*
X214596104Y-138243947D01*
X214361785Y-138181161D01*
X214121289Y-138149500D01*
X214121288Y-138149500D01*
X213878712Y-138149500D01*
X213878711Y-138149500D01*
X213638214Y-138181161D01*
X213403895Y-138243947D01*
X213179794Y-138336773D01*
X213179785Y-138336777D01*
X212969706Y-138458067D01*
X212777263Y-138605733D01*
X212777256Y-138605739D01*
X212605739Y-138777256D01*
X212605733Y-138777263D01*
X212458067Y-138969706D01*
X212336777Y-139179785D01*
X212336773Y-139179794D01*
X212243947Y-139403895D01*
X212181161Y-139638214D01*
X212149500Y-139878711D01*
X121850500Y-139878711D01*
X121818838Y-139638211D01*
X121756054Y-139403900D01*
X121663224Y-139179788D01*
X121541936Y-138969711D01*
X121394265Y-138777262D01*
X121394260Y-138777256D01*
X121222743Y-138605739D01*
X121222736Y-138605733D01*
X121030293Y-138458067D01*
X121030292Y-138458066D01*
X121030289Y-138458064D01*
X120820212Y-138336776D01*
X120820205Y-138336773D01*
X120596104Y-138243947D01*
X120361785Y-138181161D01*
X120121289Y-138149500D01*
X120121288Y-138149500D01*
X119878712Y-138149500D01*
X119878711Y-138149500D01*
X119638214Y-138181161D01*
X119403895Y-138243947D01*
X119179794Y-138336773D01*
X119179785Y-138336777D01*
X118969706Y-138458067D01*
X118777263Y-138605733D01*
X118777256Y-138605739D01*
X118605739Y-138777256D01*
X118605733Y-138777263D01*
X118458067Y-138969706D01*
X118336777Y-139179785D01*
X118336773Y-139179794D01*
X118243947Y-139403895D01*
X118181161Y-139638214D01*
X118149500Y-139878711D01*
X117000500Y-139878711D01*
X117000500Y-137809685D01*
X139572000Y-137809685D01*
X139572000Y-138042314D01*
X139590281Y-138181161D01*
X139602363Y-138272930D01*
X139619471Y-138336777D01*
X139662568Y-138497620D01*
X139751583Y-138712521D01*
X139751588Y-138712532D01*
X139867887Y-138913966D01*
X139867898Y-138913982D01*
X140009496Y-139098517D01*
X140009502Y-139098524D01*
X140173975Y-139262997D01*
X140173981Y-139263002D01*
X140358526Y-139404608D01*
X140358533Y-139404612D01*
X140559967Y-139520911D01*
X140559972Y-139520913D01*
X140559975Y-139520915D01*
X140667428Y-139565423D01*
X140774879Y-139609931D01*
X140774880Y-139609931D01*
X140774882Y-139609932D01*
X140999570Y-139670137D01*
X141230193Y-139700500D01*
X141230200Y-139700500D01*
X141462800Y-139700500D01*
X141462807Y-139700500D01*
X141693430Y-139670137D01*
X141918118Y-139609932D01*
X142133025Y-139520915D01*
X142334474Y-139404608D01*
X142519019Y-139263002D01*
X142683502Y-139098519D01*
X142825108Y-138913974D01*
X142941415Y-138712525D01*
X143030432Y-138497618D01*
X143090637Y-138272930D01*
X143121000Y-138042307D01*
X143121000Y-137809693D01*
X143120999Y-137809685D01*
X163448000Y-137809685D01*
X163448000Y-138042314D01*
X163466281Y-138181161D01*
X163478363Y-138272930D01*
X163495471Y-138336777D01*
X163538568Y-138497620D01*
X163627583Y-138712521D01*
X163627588Y-138712532D01*
X163743887Y-138913966D01*
X163743898Y-138913982D01*
X163885496Y-139098517D01*
X163885502Y-139098524D01*
X164049975Y-139262997D01*
X164049981Y-139263002D01*
X164234526Y-139404608D01*
X164234533Y-139404612D01*
X164435967Y-139520911D01*
X164435972Y-139520913D01*
X164435975Y-139520915D01*
X164543428Y-139565423D01*
X164650879Y-139609931D01*
X164650880Y-139609931D01*
X164650882Y-139609932D01*
X164875570Y-139670137D01*
X165106193Y-139700500D01*
X165106200Y-139700500D01*
X165338800Y-139700500D01*
X165338807Y-139700500D01*
X165569430Y-139670137D01*
X165794118Y-139609932D01*
X166009025Y-139520915D01*
X166210474Y-139404608D01*
X166395019Y-139263002D01*
X166559502Y-139098519D01*
X166701108Y-138913974D01*
X166817415Y-138712525D01*
X166906432Y-138497618D01*
X166966637Y-138272930D01*
X166997000Y-138042307D01*
X166997000Y-137809693D01*
X166966637Y-137579070D01*
X166906432Y-137354382D01*
X166817415Y-137139475D01*
X166817413Y-137139472D01*
X166817411Y-137139467D01*
X166701112Y-136938033D01*
X166701108Y-136938026D01*
X166559502Y-136753481D01*
X166559497Y-136753475D01*
X166395024Y-136589002D01*
X166395017Y-136588996D01*
X166210482Y-136447398D01*
X166210480Y-136447396D01*
X166210474Y-136447392D01*
X166210469Y-136447389D01*
X166210466Y-136447387D01*
X166009032Y-136331088D01*
X166009021Y-136331083D01*
X165794120Y-136242068D01*
X165681774Y-136211965D01*
X165569430Y-136181863D01*
X165518180Y-136175115D01*
X165338814Y-136151500D01*
X165338807Y-136151500D01*
X165106193Y-136151500D01*
X165106185Y-136151500D01*
X164901194Y-136178489D01*
X164875570Y-136181863D01*
X164819398Y-136196914D01*
X164650879Y-136242068D01*
X164435978Y-136331083D01*
X164435967Y-136331088D01*
X164234533Y-136447387D01*
X164234517Y-136447398D01*
X164049982Y-136588996D01*
X164049975Y-136589002D01*
X163885502Y-136753475D01*
X163885496Y-136753482D01*
X163743898Y-136938017D01*
X163743887Y-136938033D01*
X163627588Y-137139467D01*
X163627583Y-137139478D01*
X163538568Y-137354379D01*
X163478363Y-137579071D01*
X163448000Y-137809685D01*
X143120999Y-137809685D01*
X143090637Y-137579070D01*
X143030432Y-137354382D01*
X142941415Y-137139475D01*
X142941413Y-137139472D01*
X142941411Y-137139467D01*
X142825112Y-136938033D01*
X142825108Y-136938026D01*
X142683502Y-136753481D01*
X142683497Y-136753475D01*
X142519024Y-136589002D01*
X142519017Y-136588996D01*
X142334482Y-136447398D01*
X142334480Y-136447396D01*
X142334474Y-136447392D01*
X142334469Y-136447389D01*
X142334466Y-136447387D01*
X142133032Y-136331088D01*
X142133021Y-136331083D01*
X141918120Y-136242068D01*
X141805774Y-136211965D01*
X141693430Y-136181863D01*
X141642180Y-136175115D01*
X141462814Y-136151500D01*
X141462807Y-136151500D01*
X141230193Y-136151500D01*
X141230185Y-136151500D01*
X141025194Y-136178489D01*
X140999570Y-136181863D01*
X140943398Y-136196914D01*
X140774879Y-136242068D01*
X140559978Y-136331083D01*
X140559967Y-136331088D01*
X140358533Y-136447387D01*
X140358517Y-136447398D01*
X140173982Y-136588996D01*
X140173975Y-136589002D01*
X140009502Y-136753475D01*
X140009496Y-136753482D01*
X139867898Y-136938017D01*
X139867887Y-136938033D01*
X139751588Y-137139467D01*
X139751583Y-137139478D01*
X139662568Y-137354379D01*
X139602363Y-137579071D01*
X139572000Y-137809685D01*
X117000500Y-137809685D01*
X117000500Y-132893577D01*
X120415500Y-132893577D01*
X120415500Y-133090422D01*
X120446290Y-133284826D01*
X120507117Y-133472029D01*
X120519900Y-133497116D01*
X120596476Y-133647405D01*
X120712172Y-133806646D01*
X120851354Y-133945828D01*
X121010595Y-134061524D01*
X121093455Y-134103743D01*
X121185970Y-134150882D01*
X121185972Y-134150882D01*
X121185975Y-134150884D01*
X121286317Y-134183487D01*
X121373173Y-134211709D01*
X121567578Y-134242500D01*
X121567583Y-134242500D01*
X121764422Y-134242500D01*
X121958826Y-134211709D01*
X122146025Y-134150884D01*
X122321405Y-134061524D01*
X122480646Y-133945828D01*
X122619828Y-133806646D01*
X122735524Y-133647405D01*
X122824884Y-133472025D01*
X122885709Y-133284826D01*
X122898686Y-133202894D01*
X122916500Y-133090422D01*
X122916500Y-132893577D01*
X122885709Y-132699173D01*
X122841615Y-132563467D01*
X122824884Y-132511975D01*
X122824882Y-132511972D01*
X122824882Y-132511970D01*
X122748485Y-132362033D01*
X122735524Y-132336595D01*
X122619828Y-132177354D01*
X122480646Y-132038172D01*
X122438464Y-132007525D01*
X132134500Y-132007525D01*
X132134500Y-132152475D01*
X132141201Y-132177482D01*
X132172017Y-132292488D01*
X132244488Y-132418011D01*
X132244490Y-132418013D01*
X132244491Y-132418015D01*
X132346985Y-132520509D01*
X132346986Y-132520510D01*
X132346988Y-132520511D01*
X132472511Y-132592982D01*
X132472512Y-132592982D01*
X132472515Y-132592984D01*
X132612525Y-132630500D01*
X132619744Y-132630500D01*
X132686783Y-132650185D01*
X132691990Y-132653846D01*
X132693085Y-132654478D01*
X132693087Y-132654480D01*
X132784412Y-132707207D01*
X132886273Y-132734500D01*
X132991727Y-132734500D01*
X149370245Y-132734500D01*
X149437284Y-132754185D01*
X149457926Y-132770819D01*
X153572681Y-136885574D01*
X153606166Y-136946897D01*
X153609000Y-136973255D01*
X153609000Y-136978475D01*
X153646516Y-137118485D01*
X153646517Y-137118488D01*
X153718988Y-137244011D01*
X153718990Y-137244013D01*
X153718991Y-137244015D01*
X153821485Y-137346509D01*
X153821486Y-137346510D01*
X153821488Y-137346511D01*
X153947011Y-137418982D01*
X153947012Y-137418982D01*
X153947015Y-137418984D01*
X154087025Y-137456500D01*
X154087028Y-137456500D01*
X154231972Y-137456500D01*
X154231975Y-137456500D01*
X154371985Y-137418984D01*
X154497515Y-137346509D01*
X154600009Y-137244015D01*
X154672484Y-137118485D01*
X154696659Y-137028261D01*
X154728750Y-136972678D01*
X158498529Y-133202900D01*
X190419600Y-133202900D01*
X190419600Y-133497099D01*
X190419601Y-133497116D01*
X190445906Y-133696928D01*
X190458002Y-133788800D01*
X190531078Y-134061524D01*
X190534152Y-134072994D01*
X190646734Y-134344794D01*
X190646742Y-134344810D01*
X190793840Y-134599589D01*
X190793851Y-134599605D01*
X190972948Y-134833009D01*
X190972954Y-134833016D01*
X191180983Y-135041045D01*
X191180989Y-135041050D01*
X191414403Y-135220155D01*
X191414410Y-135220159D01*
X191669189Y-135367257D01*
X191669205Y-135367265D01*
X191941005Y-135479847D01*
X191941007Y-135479847D01*
X191941013Y-135479850D01*
X192225200Y-135555998D01*
X192516894Y-135594400D01*
X192516901Y-135594400D01*
X192811099Y-135594400D01*
X192811106Y-135594400D01*
X193102800Y-135555998D01*
X193386987Y-135479850D01*
X193460318Y-135449475D01*
X193658794Y-135367265D01*
X193658797Y-135367263D01*
X193658803Y-135367261D01*
X193913597Y-135220155D01*
X194147011Y-135041050D01*
X194355050Y-134833011D01*
X194534155Y-134599597D01*
X194681261Y-134344803D01*
X194684087Y-134337982D01*
X194793847Y-134072994D01*
X194793846Y-134072994D01*
X194793850Y-134072987D01*
X194869998Y-133788800D01*
X194908400Y-133497106D01*
X194908400Y-133233685D01*
X206099500Y-133233685D01*
X206099500Y-133466314D01*
X206123115Y-133645680D01*
X206129863Y-133696930D01*
X206154480Y-133788800D01*
X206190068Y-133921620D01*
X206279083Y-134136521D01*
X206279088Y-134136532D01*
X206395387Y-134337966D01*
X206395398Y-134337982D01*
X206536996Y-134522517D01*
X206537002Y-134522524D01*
X206701475Y-134686997D01*
X206701481Y-134687002D01*
X206886026Y-134828608D01*
X206886033Y-134828612D01*
X207087467Y-134944911D01*
X207087472Y-134944913D01*
X207087475Y-134944915D01*
X207194928Y-134989423D01*
X207302379Y-135033931D01*
X207302380Y-135033931D01*
X207302382Y-135033932D01*
X207527070Y-135094137D01*
X207757693Y-135124500D01*
X207757700Y-135124500D01*
X207990300Y-135124500D01*
X207990307Y-135124500D01*
X208220930Y-135094137D01*
X208445618Y-135033932D01*
X208660525Y-134944915D01*
X208861974Y-134828608D01*
X209046519Y-134687002D01*
X209211002Y-134522519D01*
X209352608Y-134337974D01*
X209468915Y-134136525D01*
X209557932Y-133921618D01*
X209618137Y-133696930D01*
X209648500Y-133466307D01*
X209648500Y-133233693D01*
X209618137Y-133003070D01*
X209557932Y-132778382D01*
X209554799Y-132770819D01*
X209504831Y-132650185D01*
X209468915Y-132563475D01*
X209468913Y-132563472D01*
X209468911Y-132563467D01*
X209352612Y-132362033D01*
X209352608Y-132362026D01*
X209211002Y-132177481D01*
X209210997Y-132177475D01*
X209046524Y-132013002D01*
X209046517Y-132012996D01*
X208861982Y-131871398D01*
X208861980Y-131871396D01*
X208861974Y-131871392D01*
X208861969Y-131871389D01*
X208861966Y-131871387D01*
X208660532Y-131755088D01*
X208660521Y-131755083D01*
X208445620Y-131666068D01*
X208333274Y-131635965D01*
X208220930Y-131605863D01*
X208169680Y-131599115D01*
X207990314Y-131575500D01*
X207990307Y-131575500D01*
X207757693Y-131575500D01*
X207757685Y-131575500D01*
X207552694Y-131602489D01*
X207527070Y-131605863D01*
X207470898Y-131620914D01*
X207302379Y-131666068D01*
X207087478Y-131755083D01*
X207087467Y-131755088D01*
X206886033Y-131871387D01*
X206886017Y-131871398D01*
X206701482Y-132012996D01*
X206701475Y-132013002D01*
X206537002Y-132177475D01*
X206536996Y-132177482D01*
X206395398Y-132362017D01*
X206395387Y-132362033D01*
X206279088Y-132563467D01*
X206279083Y-132563478D01*
X206190068Y-132778379D01*
X206129863Y-133003071D01*
X206099500Y-133233685D01*
X194908400Y-133233685D01*
X194908400Y-133202894D01*
X194869998Y-132911200D01*
X194793850Y-132627013D01*
X194779754Y-132592982D01*
X194681265Y-132355205D01*
X194681257Y-132355189D01*
X194534159Y-132100410D01*
X194534155Y-132100403D01*
X194397627Y-131922476D01*
X194355051Y-131866990D01*
X194355045Y-131866983D01*
X194147016Y-131658954D01*
X194147009Y-131658948D01*
X193913605Y-131479851D01*
X193913603Y-131479849D01*
X193913597Y-131479845D01*
X193913592Y-131479842D01*
X193913589Y-131479840D01*
X193658810Y-131332742D01*
X193658794Y-131332734D01*
X193386994Y-131220152D01*
X193102796Y-131144001D01*
X192811116Y-131105601D01*
X192811111Y-131105600D01*
X192811106Y-131105600D01*
X192516894Y-131105600D01*
X192516888Y-131105600D01*
X192516883Y-131105601D01*
X192225203Y-131144001D01*
X191941005Y-131220152D01*
X191669205Y-131332734D01*
X191669189Y-131332742D01*
X191414410Y-131479840D01*
X191414394Y-131479851D01*
X191180990Y-131658948D01*
X191180983Y-131658954D01*
X190972954Y-131866983D01*
X190972948Y-131866990D01*
X190793851Y-132100394D01*
X190793840Y-132100410D01*
X190646742Y-132355189D01*
X190646734Y-132355205D01*
X190534152Y-132627005D01*
X190458001Y-132911203D01*
X190419601Y-133202883D01*
X190419600Y-133202900D01*
X158498529Y-133202900D01*
X160818008Y-130883421D01*
X175659050Y-130883421D01*
X175659050Y-131060578D01*
X175686764Y-131235556D01*
X175741506Y-131404039D01*
X175741507Y-131404042D01*
X175818879Y-131555890D01*
X175821936Y-131561890D01*
X175926067Y-131705214D01*
X176051336Y-131830483D01*
X176194660Y-131934614D01*
X176246039Y-131960793D01*
X176352507Y-132015042D01*
X176352510Y-132015043D01*
X176423696Y-132038172D01*
X176520995Y-132069786D01*
X176695971Y-132097500D01*
X176695972Y-132097500D01*
X176873128Y-132097500D01*
X176873129Y-132097500D01*
X177048105Y-132069786D01*
X177216592Y-132015042D01*
X177374440Y-131934614D01*
X177517764Y-131830483D01*
X177643033Y-131705214D01*
X177747164Y-131561890D01*
X177827592Y-131404042D01*
X177882336Y-131235555D01*
X177910050Y-131060579D01*
X177910050Y-130883421D01*
X185819050Y-130883421D01*
X185819050Y-131060578D01*
X185846764Y-131235556D01*
X185901506Y-131404039D01*
X185901507Y-131404042D01*
X185978879Y-131555890D01*
X185981936Y-131561890D01*
X186086067Y-131705214D01*
X186211336Y-131830483D01*
X186354660Y-131934614D01*
X186406039Y-131960793D01*
X186512507Y-132015042D01*
X186512510Y-132015043D01*
X186583696Y-132038172D01*
X186680995Y-132069786D01*
X186855971Y-132097500D01*
X186855972Y-132097500D01*
X187033128Y-132097500D01*
X187033129Y-132097500D01*
X187208105Y-132069786D01*
X187376592Y-132015042D01*
X187534440Y-131934614D01*
X187677764Y-131830483D01*
X187803033Y-131705214D01*
X187907164Y-131561890D01*
X187987592Y-131404042D01*
X188042336Y-131235555D01*
X188070050Y-131060579D01*
X188070050Y-130883421D01*
X188042336Y-130708445D01*
X187987592Y-130539958D01*
X187987592Y-130539957D01*
X187907163Y-130382109D01*
X187803033Y-130238786D01*
X187677764Y-130113517D01*
X187534440Y-130009386D01*
X187376592Y-129928957D01*
X187376589Y-129928956D01*
X187208106Y-129874214D01*
X187120617Y-129860357D01*
X187033129Y-129846500D01*
X186855971Y-129846500D01*
X186797645Y-129855738D01*
X186680993Y-129874214D01*
X186512510Y-129928956D01*
X186512507Y-129928957D01*
X186354659Y-130009386D01*
X186272888Y-130068796D01*
X186211336Y-130113517D01*
X186211334Y-130113519D01*
X186211333Y-130113519D01*
X186086069Y-130238783D01*
X186086069Y-130238784D01*
X186086067Y-130238786D01*
X186041346Y-130300338D01*
X185981936Y-130382109D01*
X185901507Y-130539957D01*
X185901506Y-130539960D01*
X185846764Y-130708443D01*
X185819050Y-130883421D01*
X177910050Y-130883421D01*
X177882336Y-130708445D01*
X177827592Y-130539958D01*
X177827592Y-130539957D01*
X177747163Y-130382109D01*
X177643033Y-130238786D01*
X177517764Y-130113517D01*
X177374440Y-130009386D01*
X177216592Y-129928957D01*
X177216589Y-129928956D01*
X177048106Y-129874214D01*
X176960617Y-129860357D01*
X176873129Y-129846500D01*
X176695971Y-129846500D01*
X176637645Y-129855738D01*
X176520993Y-129874214D01*
X176352510Y-129928956D01*
X176352507Y-129928957D01*
X176194659Y-130009386D01*
X176112888Y-130068796D01*
X176051336Y-130113517D01*
X176051334Y-130113519D01*
X176051333Y-130113519D01*
X175926069Y-130238783D01*
X175926069Y-130238784D01*
X175926067Y-130238786D01*
X175881346Y-130300338D01*
X175821936Y-130382109D01*
X175741507Y-130539957D01*
X175741506Y-130539960D01*
X175686764Y-130708443D01*
X175659050Y-130883421D01*
X160818008Y-130883421D01*
X166296610Y-125404819D01*
X166357933Y-125371334D01*
X166384291Y-125368500D01*
X182309614Y-125368500D01*
X182376653Y-125388185D01*
X182397295Y-125404819D01*
X182400985Y-125408509D01*
X182400986Y-125408510D01*
X182400988Y-125408511D01*
X182526511Y-125480982D01*
X182526512Y-125480982D01*
X182526515Y-125480984D01*
X182666525Y-125518500D01*
X182666528Y-125518500D01*
X182811472Y-125518500D01*
X182811475Y-125518500D01*
X182951485Y-125480984D01*
X183077015Y-125408509D01*
X183080705Y-125404819D01*
X183142028Y-125371334D01*
X183168386Y-125368500D01*
X200163918Y-125368500D01*
X200230957Y-125388185D01*
X200276712Y-125440989D01*
X200286656Y-125510147D01*
X200257631Y-125573703D01*
X200236806Y-125592815D01*
X200180786Y-125633517D01*
X200180784Y-125633519D01*
X200180783Y-125633519D01*
X200055519Y-125758783D01*
X200055519Y-125758784D01*
X200055517Y-125758786D01*
X200010796Y-125820338D01*
X199951386Y-125902109D01*
X199870957Y-126059957D01*
X199870956Y-126059960D01*
X199816214Y-126228443D01*
X199788500Y-126403421D01*
X199788500Y-126580578D01*
X199816214Y-126755556D01*
X199870956Y-126924039D01*
X199870957Y-126924042D01*
X199951386Y-127081890D01*
X200055517Y-127225214D01*
X200180786Y-127350483D01*
X200324110Y-127454614D01*
X200401529Y-127494061D01*
X200481957Y-127535042D01*
X200481960Y-127535043D01*
X200563459Y-127561523D01*
X200650445Y-127589786D01*
X200825421Y-127617500D01*
X200825422Y-127617500D01*
X201002578Y-127617500D01*
X201002579Y-127617500D01*
X201177555Y-127589786D01*
X201346042Y-127535042D01*
X201503890Y-127454614D01*
X201647214Y-127350483D01*
X201772483Y-127225214D01*
X201876614Y-127081890D01*
X201957042Y-126924042D01*
X202011786Y-126755555D01*
X202039500Y-126580579D01*
X202039500Y-126403421D01*
X202011786Y-126228445D01*
X201957042Y-126059958D01*
X201957042Y-126059957D01*
X201876613Y-125902109D01*
X201772483Y-125758786D01*
X201647214Y-125633517D01*
X201591195Y-125592816D01*
X201548531Y-125537488D01*
X201542552Y-125467874D01*
X201575158Y-125406080D01*
X201635997Y-125371722D01*
X201664082Y-125368500D01*
X204271725Y-125368500D01*
X204271727Y-125368500D01*
X204373588Y-125341207D01*
X204464913Y-125288480D01*
X206989574Y-122763819D01*
X207050897Y-122730334D01*
X207077255Y-122727500D01*
X207082472Y-122727500D01*
X207082475Y-122727500D01*
X207222485Y-122689984D01*
X207348015Y-122617509D01*
X207450509Y-122515015D01*
X207522984Y-122389485D01*
X207560500Y-122249475D01*
X207560500Y-122104525D01*
X207522984Y-121964515D01*
X207515840Y-121952142D01*
X207450511Y-121838988D01*
X207450506Y-121838982D01*
X207348017Y-121736493D01*
X207348011Y-121736488D01*
X207222488Y-121664017D01*
X207222489Y-121664017D01*
X207211006Y-121660940D01*
X207082475Y-121626500D01*
X207082472Y-121626500D01*
X207077255Y-121626500D01*
X207010216Y-121606815D01*
X206989574Y-121590181D01*
X202626819Y-117227426D01*
X202593334Y-117166103D01*
X202590500Y-117139745D01*
X202590500Y-109357685D01*
X206099500Y-109357685D01*
X206099500Y-109590314D01*
X206123115Y-109769680D01*
X206129863Y-109820930D01*
X206154480Y-109912800D01*
X206190068Y-110045620D01*
X206279083Y-110260521D01*
X206279088Y-110260532D01*
X206395387Y-110461966D01*
X206395398Y-110461982D01*
X206536996Y-110646517D01*
X206537002Y-110646524D01*
X206701475Y-110810997D01*
X206701482Y-110811003D01*
X206777011Y-110868958D01*
X206886026Y-110952608D01*
X206886033Y-110952612D01*
X207087467Y-111068911D01*
X207087472Y-111068913D01*
X207087475Y-111068915D01*
X207194928Y-111113423D01*
X207302379Y-111157931D01*
X207302380Y-111157931D01*
X207302382Y-111157932D01*
X207527070Y-111218137D01*
X207757693Y-111248500D01*
X207757700Y-111248500D01*
X207990300Y-111248500D01*
X207990307Y-111248500D01*
X208220930Y-111218137D01*
X208445618Y-111157932D01*
X208660525Y-111068915D01*
X208861974Y-110952608D01*
X209046519Y-110811002D01*
X209211002Y-110646519D01*
X209352608Y-110461974D01*
X209468915Y-110260525D01*
X209557932Y-110045618D01*
X209618137Y-109820930D01*
X209648500Y-109590307D01*
X209648500Y-109357693D01*
X209618137Y-109127070D01*
X209557932Y-108902382D01*
X209548437Y-108879460D01*
X209468916Y-108687478D01*
X209468911Y-108687467D01*
X209352612Y-108486033D01*
X209352608Y-108486026D01*
X209211002Y-108301481D01*
X209210997Y-108301475D01*
X209046524Y-108137002D01*
X209046517Y-108136996D01*
X208861982Y-107995398D01*
X208861980Y-107995396D01*
X208861974Y-107995392D01*
X208861969Y-107995389D01*
X208861966Y-107995387D01*
X208660532Y-107879088D01*
X208660521Y-107879083D01*
X208445620Y-107790068D01*
X208333274Y-107759965D01*
X208220930Y-107729863D01*
X208169680Y-107723115D01*
X207990314Y-107699500D01*
X207990307Y-107699500D01*
X207757693Y-107699500D01*
X207757685Y-107699500D01*
X207552694Y-107726489D01*
X207527070Y-107729863D01*
X207470898Y-107744914D01*
X207302379Y-107790068D01*
X207087478Y-107879083D01*
X207087467Y-107879088D01*
X206886033Y-107995387D01*
X206886017Y-107995398D01*
X206701482Y-108136996D01*
X206701475Y-108137002D01*
X206537002Y-108301475D01*
X206536996Y-108301482D01*
X206395398Y-108486017D01*
X206395387Y-108486033D01*
X206279088Y-108687467D01*
X206279083Y-108687478D01*
X206190068Y-108902379D01*
X206129863Y-109127071D01*
X206099500Y-109357685D01*
X202590500Y-109357685D01*
X202590500Y-97200613D01*
X202610185Y-97133574D01*
X202626819Y-97112932D01*
X204546066Y-95193685D01*
X206099500Y-95193685D01*
X206099500Y-95426314D01*
X206118299Y-95569096D01*
X206129863Y-95656930D01*
X206154480Y-95748800D01*
X206190068Y-95881620D01*
X206279083Y-96096521D01*
X206279088Y-96096532D01*
X206395387Y-96297966D01*
X206395398Y-96297982D01*
X206536996Y-96482517D01*
X206537002Y-96482524D01*
X206701475Y-96646997D01*
X206701482Y-96647003D01*
X206811374Y-96731326D01*
X206886026Y-96788608D01*
X206886033Y-96788612D01*
X207087467Y-96904911D01*
X207087472Y-96904913D01*
X207087475Y-96904915D01*
X207134070Y-96924215D01*
X207302379Y-96993931D01*
X207302380Y-96993931D01*
X207302382Y-96993932D01*
X207527070Y-97054137D01*
X207757693Y-97084500D01*
X207757700Y-97084500D01*
X207990300Y-97084500D01*
X207990307Y-97084500D01*
X208220930Y-97054137D01*
X208445618Y-96993932D01*
X208660525Y-96904915D01*
X208861974Y-96788608D01*
X209046519Y-96647002D01*
X209211002Y-96482519D01*
X209352608Y-96297974D01*
X209468915Y-96096525D01*
X209557932Y-95881618D01*
X209618137Y-95656930D01*
X209648500Y-95426307D01*
X209648500Y-95193693D01*
X209618137Y-94963070D01*
X209557932Y-94738382D01*
X209553087Y-94726686D01*
X209475065Y-94538323D01*
X209468915Y-94523475D01*
X209468913Y-94523472D01*
X209468911Y-94523467D01*
X209352612Y-94322033D01*
X209352608Y-94322026D01*
X209211002Y-94137481D01*
X209210997Y-94137475D01*
X209046524Y-93973002D01*
X209046517Y-93972996D01*
X208861982Y-93831398D01*
X208861980Y-93831396D01*
X208861974Y-93831392D01*
X208861969Y-93831389D01*
X208861966Y-93831387D01*
X208660532Y-93715088D01*
X208660521Y-93715083D01*
X208445620Y-93626068D01*
X208333274Y-93595965D01*
X208220930Y-93565863D01*
X208169680Y-93559115D01*
X207990314Y-93535500D01*
X207990307Y-93535500D01*
X207757693Y-93535500D01*
X207757685Y-93535500D01*
X207552694Y-93562489D01*
X207527070Y-93565863D01*
X207470898Y-93580914D01*
X207302379Y-93626068D01*
X207087478Y-93715083D01*
X207087467Y-93715088D01*
X206886033Y-93831387D01*
X206886017Y-93831398D01*
X206701482Y-93972996D01*
X206701475Y-93973002D01*
X206537002Y-94137475D01*
X206536996Y-94137482D01*
X206395398Y-94322017D01*
X206395387Y-94322033D01*
X206279088Y-94523467D01*
X206279083Y-94523478D01*
X206190068Y-94738379D01*
X206154479Y-94871203D01*
X206132164Y-94954485D01*
X206129863Y-94963071D01*
X206099500Y-95193685D01*
X204546066Y-95193685D01*
X204637798Y-95101953D01*
X205932109Y-93807642D01*
X207330480Y-92409271D01*
X207383206Y-92317946D01*
X207383207Y-92317945D01*
X207410500Y-92216085D01*
X207410500Y-84676386D01*
X207430185Y-84609347D01*
X207446819Y-84588705D01*
X207450509Y-84585015D01*
X207522984Y-84459485D01*
X207560500Y-84319475D01*
X207560500Y-84174525D01*
X207522984Y-84034515D01*
X207450509Y-83908985D01*
X207348015Y-83806491D01*
X207348013Y-83806490D01*
X207348011Y-83806488D01*
X207222488Y-83734017D01*
X207222489Y-83734017D01*
X207211006Y-83730940D01*
X207082475Y-83696500D01*
X207082472Y-83696500D01*
X207077255Y-83696500D01*
X207010216Y-83676815D01*
X206989574Y-83660181D01*
X205922819Y-82593426D01*
X205889334Y-82532103D01*
X205886500Y-82505745D01*
X205886500Y-71814559D01*
X205906185Y-71747520D01*
X205958989Y-71701765D01*
X206028147Y-71691821D01*
X206091703Y-71720846D01*
X206129477Y-71779624D01*
X206130275Y-71782466D01*
X206190068Y-72005620D01*
X206279083Y-72220521D01*
X206279088Y-72220532D01*
X206395387Y-72421966D01*
X206395398Y-72421982D01*
X206536996Y-72606517D01*
X206537002Y-72606524D01*
X206701475Y-72770997D01*
X206701481Y-72771002D01*
X206886026Y-72912608D01*
X206886033Y-72912612D01*
X207087467Y-73028911D01*
X207087472Y-73028913D01*
X207087475Y-73028915D01*
X207194928Y-73073423D01*
X207302379Y-73117931D01*
X207302380Y-73117931D01*
X207302382Y-73117932D01*
X207527070Y-73178137D01*
X207747320Y-73207134D01*
X207755277Y-73208182D01*
X207757693Y-73208500D01*
X207757700Y-73208500D01*
X207990300Y-73208500D01*
X207990307Y-73208500D01*
X208220930Y-73178137D01*
X208445618Y-73117932D01*
X208660525Y-73028915D01*
X208861974Y-72912608D01*
X209046519Y-72771002D01*
X209211002Y-72606519D01*
X209352608Y-72421974D01*
X209468915Y-72220525D01*
X209557932Y-72005618D01*
X209618137Y-71780930D01*
X209648500Y-71550307D01*
X209648500Y-71317693D01*
X209618137Y-71087070D01*
X209557932Y-70862382D01*
X209529411Y-70793527D01*
X209468916Y-70647478D01*
X209468911Y-70647467D01*
X209352612Y-70446033D01*
X209352608Y-70446026D01*
X209211002Y-70261481D01*
X209210997Y-70261475D01*
X209046524Y-70097002D01*
X209046517Y-70096996D01*
X208861982Y-69955398D01*
X208861980Y-69955396D01*
X208861974Y-69955392D01*
X208861969Y-69955389D01*
X208861966Y-69955387D01*
X208660532Y-69839088D01*
X208660521Y-69839083D01*
X208445620Y-69750068D01*
X208333274Y-69719965D01*
X208220930Y-69689863D01*
X208169680Y-69683115D01*
X207990314Y-69659500D01*
X207990307Y-69659500D01*
X207757693Y-69659500D01*
X207757685Y-69659500D01*
X207552694Y-69686489D01*
X207527070Y-69689863D01*
X207470898Y-69704914D01*
X207302379Y-69750068D01*
X207087478Y-69839083D01*
X207087467Y-69839088D01*
X206886033Y-69955387D01*
X206886017Y-69955398D01*
X206701482Y-70096996D01*
X206701475Y-70097002D01*
X206537002Y-70261475D01*
X206536996Y-70261482D01*
X206395398Y-70446017D01*
X206395387Y-70446033D01*
X206279088Y-70647467D01*
X206279083Y-70647478D01*
X206190069Y-70862377D01*
X206190068Y-70862382D01*
X206132164Y-71078485D01*
X206130275Y-71085534D01*
X206093910Y-71145194D01*
X206031063Y-71175723D01*
X205961687Y-71167428D01*
X205907809Y-71122943D01*
X205886535Y-71056391D01*
X205886500Y-71053440D01*
X205886500Y-56041500D01*
X205906185Y-55974461D01*
X205958989Y-55928706D01*
X206010500Y-55917500D01*
X206043128Y-55917500D01*
X206043129Y-55917500D01*
X206218105Y-55889786D01*
X206386592Y-55835042D01*
X206544440Y-55754614D01*
X206687764Y-55650483D01*
X206813033Y-55525214D01*
X206917164Y-55381890D01*
X206997592Y-55224042D01*
X207052336Y-55055555D01*
X207080050Y-54880579D01*
X207080050Y-54703421D01*
X207052336Y-54528445D01*
X206997592Y-54359958D01*
X206997592Y-54359957D01*
X206917163Y-54202109D01*
X206813033Y-54058786D01*
X206687764Y-53933517D01*
X206544440Y-53829386D01*
X206386592Y-53748957D01*
X206386589Y-53748956D01*
X206218106Y-53694214D01*
X206130617Y-53680357D01*
X206043129Y-53666500D01*
X206010500Y-53666500D01*
X205943461Y-53646815D01*
X205897706Y-53594011D01*
X205886500Y-53542500D01*
X205886500Y-52527729D01*
X205886501Y-52527716D01*
X205886501Y-52412274D01*
X205886501Y-52412273D01*
X205859207Y-52310413D01*
X205806480Y-52219087D01*
X205731913Y-52144520D01*
X205731912Y-52144519D01*
X205727582Y-52140189D01*
X205727571Y-52140179D01*
X202375819Y-48788426D01*
X202342334Y-48727103D01*
X202339500Y-48700745D01*
X202339500Y-48695527D01*
X202339500Y-48695525D01*
X202301984Y-48555515D01*
X202256941Y-48477499D01*
X202229511Y-48429988D01*
X202229506Y-48429982D01*
X202127017Y-48327493D01*
X202127011Y-48327488D01*
X202001488Y-48255017D01*
X202001489Y-48255017D01*
X201990006Y-48251940D01*
X201861475Y-48217500D01*
X201716525Y-48217500D01*
X201587993Y-48251940D01*
X201576511Y-48255017D01*
X201450988Y-48327488D01*
X201450982Y-48327493D01*
X201348493Y-48429982D01*
X201348488Y-48429988D01*
X201276017Y-48555511D01*
X201276016Y-48555515D01*
X201238500Y-48695525D01*
X201238500Y-48840475D01*
X201276016Y-48980485D01*
X201276017Y-48980488D01*
X201348488Y-49106011D01*
X201348490Y-49106013D01*
X201348491Y-49106015D01*
X201450985Y-49208509D01*
X201450986Y-49208510D01*
X201450988Y-49208511D01*
X201576511Y-49280982D01*
X201576512Y-49280982D01*
X201576515Y-49280984D01*
X201716525Y-49318500D01*
X201721745Y-49318500D01*
X201788784Y-49338185D01*
X201809426Y-49354819D01*
X205049181Y-52594573D01*
X205082666Y-52655896D01*
X205085500Y-52682254D01*
X205085500Y-53238758D01*
X205065815Y-53305797D01*
X205049181Y-53326439D01*
X204358072Y-54017547D01*
X204358068Y-54017553D01*
X204305342Y-54108875D01*
X204305343Y-54108876D01*
X204278050Y-54210736D01*
X204278050Y-55267810D01*
X204278050Y-55373264D01*
X204291696Y-55424194D01*
X204305343Y-55475126D01*
X204331706Y-55520787D01*
X204358070Y-55566450D01*
X204358072Y-55566452D01*
X205049181Y-56257561D01*
X205082666Y-56318884D01*
X205085500Y-56345242D01*
X205085500Y-82775726D01*
X205112793Y-82877589D01*
X205139156Y-82923250D01*
X205165520Y-82968913D01*
X205165522Y-82968915D01*
X206423181Y-84226574D01*
X206456666Y-84287897D01*
X206459500Y-84314255D01*
X206459500Y-84319475D01*
X206497016Y-84459485D01*
X206497017Y-84459488D01*
X206569488Y-84585011D01*
X206569493Y-84585017D01*
X206573181Y-84588705D01*
X206606666Y-84650028D01*
X206609500Y-84676386D01*
X206609500Y-91946103D01*
X206589815Y-92013142D01*
X206573181Y-92033784D01*
X201869522Y-96737442D01*
X201869520Y-96737445D01*
X201816793Y-96828768D01*
X201799743Y-96892400D01*
X201796392Y-96904911D01*
X201791219Y-96924216D01*
X201791218Y-96924218D01*
X201789500Y-96930626D01*
X201789500Y-115333530D01*
X201769815Y-115400569D01*
X201717011Y-115446324D01*
X201647853Y-115456268D01*
X201592614Y-115433848D01*
X201503890Y-115369386D01*
X201346042Y-115288957D01*
X201346039Y-115288956D01*
X201177556Y-115234214D01*
X201090067Y-115220357D01*
X201002579Y-115206500D01*
X200825421Y-115206500D01*
X200767095Y-115215738D01*
X200650443Y-115234214D01*
X200481960Y-115288956D01*
X200481957Y-115288957D01*
X200324109Y-115369386D01*
X200281190Y-115400569D01*
X200180786Y-115473517D01*
X200180784Y-115473519D01*
X200180783Y-115473519D01*
X200055519Y-115598783D01*
X200055519Y-115598784D01*
X200055517Y-115598786D01*
X200038501Y-115622207D01*
X199951386Y-115742109D01*
X199870957Y-115899957D01*
X199870956Y-115899960D01*
X199816214Y-116068443D01*
X199788500Y-116243421D01*
X199788500Y-116420578D01*
X199816214Y-116595556D01*
X199870956Y-116764039D01*
X199870957Y-116764042D01*
X199951386Y-116921890D01*
X200055517Y-117065214D01*
X200180786Y-117190483D01*
X200324110Y-117294614D01*
X200343067Y-117304273D01*
X200481957Y-117375042D01*
X200481960Y-117375043D01*
X200566201Y-117402414D01*
X200650445Y-117429786D01*
X200825421Y-117457500D01*
X200825422Y-117457500D01*
X201002578Y-117457500D01*
X201002579Y-117457500D01*
X201177555Y-117429786D01*
X201346042Y-117375042D01*
X201503890Y-117294614D01*
X201592614Y-117230151D01*
X201658420Y-117206671D01*
X201726474Y-117222496D01*
X201775169Y-117272601D01*
X201789500Y-117330469D01*
X201789500Y-117409727D01*
X201794875Y-117429786D01*
X201816793Y-117511589D01*
X201843156Y-117557250D01*
X201869520Y-117602913D01*
X201869522Y-117602915D01*
X206355926Y-122089319D01*
X206389411Y-122150642D01*
X206384427Y-122220334D01*
X206355926Y-122264681D01*
X204089426Y-124531181D01*
X204028103Y-124564666D01*
X204001745Y-124567500D01*
X183168386Y-124567500D01*
X183101347Y-124547815D01*
X183080705Y-124531181D01*
X183077017Y-124527493D01*
X183077011Y-124527488D01*
X182951488Y-124455017D01*
X182951489Y-124455017D01*
X182940006Y-124451940D01*
X182811475Y-124417500D01*
X182666525Y-124417500D01*
X182537993Y-124451940D01*
X182526511Y-124455017D01*
X182400988Y-124527488D01*
X182400982Y-124527493D01*
X182397295Y-124531181D01*
X182335972Y-124564666D01*
X182309614Y-124567500D01*
X166844424Y-124567500D01*
X166777385Y-124547815D01*
X166731630Y-124495011D01*
X166721686Y-124425853D01*
X166750711Y-124362297D01*
X166756743Y-124355819D01*
X166913545Y-124199016D01*
X166913550Y-124199011D01*
X167092655Y-123965597D01*
X167239761Y-123710803D01*
X167352350Y-123438987D01*
X167428498Y-123154800D01*
X167466900Y-122863106D01*
X167466900Y-122568894D01*
X167428498Y-122277200D01*
X167352350Y-121993013D01*
X167352347Y-121993005D01*
X167239765Y-121721205D01*
X167239757Y-121721189D01*
X167092659Y-121466410D01*
X167092655Y-121466403D01*
X166968272Y-121304304D01*
X166913551Y-121232990D01*
X166913545Y-121232983D01*
X166705516Y-121024954D01*
X166705509Y-121024948D01*
X166472105Y-120845851D01*
X166472103Y-120845849D01*
X166472097Y-120845845D01*
X166472092Y-120845842D01*
X166472089Y-120845840D01*
X166217310Y-120698742D01*
X166217294Y-120698734D01*
X165945494Y-120586152D01*
X165661296Y-120510001D01*
X165369616Y-120471601D01*
X165369611Y-120471600D01*
X165369606Y-120471600D01*
X165075394Y-120471600D01*
X165075388Y-120471600D01*
X165075383Y-120471601D01*
X164783703Y-120510001D01*
X164499505Y-120586152D01*
X164227705Y-120698734D01*
X164227689Y-120698742D01*
X163972910Y-120845840D01*
X163972894Y-120845851D01*
X163739490Y-121024948D01*
X163739483Y-121024954D01*
X163531454Y-121232983D01*
X163531448Y-121232990D01*
X163352351Y-121466394D01*
X163352340Y-121466410D01*
X163205242Y-121721189D01*
X163205234Y-121721205D01*
X163092652Y-121993005D01*
X163016501Y-122277203D01*
X162982869Y-122532666D01*
X162978100Y-122568894D01*
X162978100Y-122863106D01*
X163016502Y-123154800D01*
X163057875Y-123309207D01*
X163092652Y-123438994D01*
X163205234Y-123710794D01*
X163205242Y-123710810D01*
X163352340Y-123965589D01*
X163352351Y-123965605D01*
X163531448Y-124199009D01*
X163531454Y-124199016D01*
X163739483Y-124407045D01*
X163739490Y-124407051D01*
X163801999Y-124455016D01*
X163972903Y-124586155D01*
X163972910Y-124586159D01*
X164227689Y-124733257D01*
X164227705Y-124733265D01*
X164499505Y-124845847D01*
X164499507Y-124845847D01*
X164499513Y-124845850D01*
X164783700Y-124921998D01*
X165075394Y-124960400D01*
X165075401Y-124960400D01*
X165308882Y-124960400D01*
X165375921Y-124980085D01*
X165421676Y-125032889D01*
X165431620Y-125102047D01*
X165402595Y-125165603D01*
X165396563Y-125172081D01*
X159689596Y-130879046D01*
X159628273Y-130912531D01*
X159558581Y-130907547D01*
X159502648Y-130865675D01*
X159479442Y-130810763D01*
X159476468Y-130791985D01*
X159462286Y-130702445D01*
X159409492Y-130539960D01*
X159407543Y-130533960D01*
X159407542Y-130533957D01*
X159330171Y-130382110D01*
X159327114Y-130376110D01*
X159222983Y-130232786D01*
X159097714Y-130107517D01*
X158954390Y-130003386D01*
X158796542Y-129922957D01*
X158796539Y-129922956D01*
X158628056Y-129868214D01*
X158540567Y-129854357D01*
X158453079Y-129840500D01*
X158275921Y-129840500D01*
X158217595Y-129849738D01*
X158100943Y-129868214D01*
X157932460Y-129922956D01*
X157932457Y-129922957D01*
X157774609Y-130003386D01*
X157692838Y-130062796D01*
X157631286Y-130107517D01*
X157631284Y-130107519D01*
X157631283Y-130107519D01*
X157506019Y-130232783D01*
X157506019Y-130232784D01*
X157506017Y-130232786D01*
X157501658Y-130238786D01*
X157401886Y-130376109D01*
X157321457Y-130533957D01*
X157321456Y-130533960D01*
X157266714Y-130702443D01*
X157239000Y-130877421D01*
X157239000Y-131054578D01*
X157266714Y-131229556D01*
X157321456Y-131398039D01*
X157321457Y-131398042D01*
X157363142Y-131479851D01*
X157401886Y-131555890D01*
X157506017Y-131699214D01*
X157631286Y-131824483D01*
X157774610Y-131928614D01*
X157786384Y-131934613D01*
X157932457Y-132009042D01*
X157932460Y-132009043D01*
X157950924Y-132015042D01*
X158100945Y-132063786D01*
X158209265Y-132080942D01*
X158272398Y-132110871D01*
X158309330Y-132170182D01*
X158308332Y-132240045D01*
X158277547Y-132291096D01*
X154281949Y-136286694D01*
X154220626Y-136320179D01*
X154150934Y-136315195D01*
X154106587Y-136286694D01*
X149833415Y-132013522D01*
X149833413Y-132013520D01*
X149787750Y-131987156D01*
X149742089Y-131960793D01*
X149691157Y-131947146D01*
X149640227Y-131933500D01*
X149640226Y-131933500D01*
X149128059Y-131933500D01*
X149061020Y-131913815D01*
X149015265Y-131861011D01*
X149005321Y-131791853D01*
X149034346Y-131728297D01*
X149040378Y-131721819D01*
X149046404Y-131715793D01*
X149062983Y-131699214D01*
X149167114Y-131555890D01*
X149247542Y-131398042D01*
X149302286Y-131229555D01*
X149330000Y-131054579D01*
X149330000Y-130877421D01*
X149302286Y-130702445D01*
X149249492Y-130539960D01*
X149247543Y-130533960D01*
X149247542Y-130533957D01*
X149170171Y-130382110D01*
X149167114Y-130376110D01*
X149062983Y-130232786D01*
X148937714Y-130107517D01*
X148794390Y-130003386D01*
X148636542Y-129922957D01*
X148636539Y-129922956D01*
X148468056Y-129868214D01*
X148380567Y-129854357D01*
X148293079Y-129840500D01*
X148115921Y-129840500D01*
X148057595Y-129849738D01*
X147940943Y-129868214D01*
X147772460Y-129922956D01*
X147772457Y-129922957D01*
X147614609Y-130003386D01*
X147532838Y-130062796D01*
X147471286Y-130107517D01*
X147471284Y-130107519D01*
X147471283Y-130107519D01*
X147346019Y-130232783D01*
X147346019Y-130232784D01*
X147346017Y-130232786D01*
X147341658Y-130238786D01*
X147241886Y-130376109D01*
X147161457Y-130533957D01*
X147161456Y-130533960D01*
X147106714Y-130702443D01*
X147079000Y-130877421D01*
X147079000Y-131054578D01*
X147106714Y-131229556D01*
X147161456Y-131398039D01*
X147161457Y-131398042D01*
X147203142Y-131479851D01*
X147241886Y-131555890D01*
X147346017Y-131699214D01*
X147346019Y-131699216D01*
X147368622Y-131721819D01*
X147402107Y-131783142D01*
X147397123Y-131852834D01*
X147355251Y-131908767D01*
X147289787Y-131933184D01*
X147280941Y-131933500D01*
X133307672Y-131933500D01*
X133297928Y-131930638D01*
X133287851Y-131931906D01*
X133264966Y-131920960D01*
X133240633Y-131913815D01*
X133232304Y-131905338D01*
X133224820Y-131901758D01*
X133206070Y-131878634D01*
X133202184Y-131874679D01*
X133198157Y-131868162D01*
X133197984Y-131867515D01*
X133125509Y-131741985D01*
X133111603Y-131728079D01*
X133104012Y-131715793D01*
X133098433Y-131695468D01*
X133088334Y-131676972D01*
X133085500Y-131650614D01*
X133085500Y-128207854D01*
X133105185Y-128140815D01*
X133121814Y-128120178D01*
X138908843Y-122333148D01*
X138970164Y-122299665D01*
X139039856Y-122304649D01*
X139095789Y-122346521D01*
X139120206Y-122411985D01*
X139119461Y-122437016D01*
X139106496Y-122535500D01*
X139102100Y-122568894D01*
X139102100Y-122863106D01*
X139140502Y-123154800D01*
X139181875Y-123309207D01*
X139216652Y-123438994D01*
X139329234Y-123710794D01*
X139329242Y-123710810D01*
X139476340Y-123965589D01*
X139476351Y-123965605D01*
X139655448Y-124199009D01*
X139655454Y-124199016D01*
X139863483Y-124407045D01*
X139863490Y-124407051D01*
X139925999Y-124455016D01*
X140096903Y-124586155D01*
X140096910Y-124586159D01*
X140351689Y-124733257D01*
X140351705Y-124733265D01*
X140623505Y-124845847D01*
X140623507Y-124845847D01*
X140623513Y-124845850D01*
X140907700Y-124921998D01*
X141199394Y-124960400D01*
X141199401Y-124960400D01*
X141493599Y-124960400D01*
X141493606Y-124960400D01*
X141785300Y-124921998D01*
X142069487Y-124845850D01*
X142142818Y-124815475D01*
X142341294Y-124733265D01*
X142341297Y-124733263D01*
X142341303Y-124733261D01*
X142596097Y-124586155D01*
X142829511Y-124407050D01*
X143037550Y-124199011D01*
X143216655Y-123965597D01*
X143363761Y-123710803D01*
X143476350Y-123438987D01*
X143552498Y-123154800D01*
X143590900Y-122863106D01*
X143590900Y-122568894D01*
X143552498Y-122277200D01*
X143476350Y-121993013D01*
X143476347Y-121993005D01*
X143363765Y-121721205D01*
X143363757Y-121721189D01*
X143216659Y-121466410D01*
X143216655Y-121466403D01*
X143092272Y-121304304D01*
X143037551Y-121232990D01*
X143037545Y-121232983D01*
X142829516Y-121024954D01*
X142829509Y-121024948D01*
X142596105Y-120845851D01*
X142596103Y-120845849D01*
X142596097Y-120845845D01*
X142596092Y-120845842D01*
X142596089Y-120845840D01*
X142341310Y-120698742D01*
X142341294Y-120698734D01*
X142069494Y-120586152D01*
X141785296Y-120510001D01*
X141493616Y-120471601D01*
X141493611Y-120471600D01*
X141493606Y-120471600D01*
X141199394Y-120471600D01*
X141199388Y-120471600D01*
X141199383Y-120471601D01*
X141067516Y-120488961D01*
X140998480Y-120478195D01*
X140946225Y-120431815D01*
X140927340Y-120364546D01*
X140947821Y-120297745D01*
X140963645Y-120278346D01*
X144959480Y-116282513D01*
X145012207Y-116191188D01*
X145039500Y-116089327D01*
X145039500Y-115983873D01*
X145039500Y-111823421D01*
X147709050Y-111823421D01*
X147709050Y-112000578D01*
X147736764Y-112175556D01*
X147791506Y-112344039D01*
X147791507Y-112344042D01*
X147871936Y-112501890D01*
X147976067Y-112645214D01*
X148101336Y-112770483D01*
X148244660Y-112874614D01*
X148322079Y-112914061D01*
X148402507Y-112955042D01*
X148402510Y-112955043D01*
X148486751Y-112982414D01*
X148570995Y-113009786D01*
X148745971Y-113037500D01*
X148745972Y-113037500D01*
X148923128Y-113037500D01*
X148923129Y-113037500D01*
X149098105Y-113009786D01*
X149266592Y-112955042D01*
X149424440Y-112874614D01*
X149567764Y-112770483D01*
X149693033Y-112645214D01*
X149797164Y-112501890D01*
X149877592Y-112344042D01*
X149932336Y-112175555D01*
X149960050Y-112000579D01*
X149960050Y-111823421D01*
X156589050Y-111823421D01*
X156589050Y-112000578D01*
X156616764Y-112175556D01*
X156671506Y-112344039D01*
X156671507Y-112344042D01*
X156751936Y-112501890D01*
X156856067Y-112645214D01*
X156981336Y-112770483D01*
X157124660Y-112874614D01*
X157202079Y-112914061D01*
X157282507Y-112955042D01*
X157282510Y-112955043D01*
X157366751Y-112982414D01*
X157450995Y-113009786D01*
X157625971Y-113037500D01*
X157625972Y-113037500D01*
X157803128Y-113037500D01*
X157803129Y-113037500D01*
X157978105Y-113009786D01*
X158146592Y-112955042D01*
X158304440Y-112874614D01*
X158447764Y-112770483D01*
X158573033Y-112645214D01*
X158677164Y-112501890D01*
X158757592Y-112344042D01*
X158812336Y-112175555D01*
X158840050Y-112000579D01*
X158840050Y-111823421D01*
X166749050Y-111823421D01*
X166749050Y-112000578D01*
X166776764Y-112175556D01*
X166831506Y-112344039D01*
X166831507Y-112344042D01*
X166911936Y-112501890D01*
X167016067Y-112645214D01*
X167141336Y-112770483D01*
X167284660Y-112874614D01*
X167362079Y-112914061D01*
X167442507Y-112955042D01*
X167442510Y-112955043D01*
X167526751Y-112982414D01*
X167610995Y-113009786D01*
X167785971Y-113037500D01*
X167785972Y-113037500D01*
X167963128Y-113037500D01*
X167963129Y-113037500D01*
X168138105Y-113009786D01*
X168306592Y-112955042D01*
X168464440Y-112874614D01*
X168607764Y-112770483D01*
X168733033Y-112645214D01*
X168837164Y-112501890D01*
X168917592Y-112344042D01*
X168972336Y-112175555D01*
X169000050Y-112000579D01*
X169000050Y-111823421D01*
X175629050Y-111823421D01*
X175629050Y-112000578D01*
X175656764Y-112175556D01*
X175711506Y-112344039D01*
X175711507Y-112344042D01*
X175791936Y-112501890D01*
X175896067Y-112645214D01*
X176021336Y-112770483D01*
X176164660Y-112874614D01*
X176242079Y-112914061D01*
X176322507Y-112955042D01*
X176322510Y-112955043D01*
X176406751Y-112982414D01*
X176490995Y-113009786D01*
X176665971Y-113037500D01*
X176665972Y-113037500D01*
X176843128Y-113037500D01*
X176843129Y-113037500D01*
X177018105Y-113009786D01*
X177186592Y-112955042D01*
X177344440Y-112874614D01*
X177487764Y-112770483D01*
X177613033Y-112645214D01*
X177717164Y-112501890D01*
X177797592Y-112344042D01*
X177852336Y-112175555D01*
X177880050Y-112000579D01*
X177880050Y-111823421D01*
X185789050Y-111823421D01*
X185789050Y-112000578D01*
X185816764Y-112175556D01*
X185871506Y-112344039D01*
X185871507Y-112344042D01*
X185951936Y-112501890D01*
X186056067Y-112645214D01*
X186181336Y-112770483D01*
X186324660Y-112874614D01*
X186402079Y-112914061D01*
X186482507Y-112955042D01*
X186482510Y-112955043D01*
X186566751Y-112982414D01*
X186650995Y-113009786D01*
X186825971Y-113037500D01*
X186825972Y-113037500D01*
X187003128Y-113037500D01*
X187003129Y-113037500D01*
X187178105Y-113009786D01*
X187346592Y-112955042D01*
X187504440Y-112874614D01*
X187647764Y-112770483D01*
X187773033Y-112645214D01*
X187877164Y-112501890D01*
X187957592Y-112344042D01*
X188012336Y-112175555D01*
X188040050Y-112000579D01*
X188040050Y-111823421D01*
X188012336Y-111648445D01*
X187961265Y-111491261D01*
X187957593Y-111479960D01*
X187957592Y-111479957D01*
X187911456Y-111389411D01*
X187877164Y-111322110D01*
X187773033Y-111178786D01*
X187647764Y-111053517D01*
X187504440Y-110949386D01*
X187495210Y-110944683D01*
X187346592Y-110868957D01*
X187346589Y-110868956D01*
X187178106Y-110814214D01*
X187090617Y-110800357D01*
X187003129Y-110786500D01*
X186825971Y-110786500D01*
X186767645Y-110795738D01*
X186650993Y-110814214D01*
X186482510Y-110868956D01*
X186482507Y-110868957D01*
X186324659Y-110949386D01*
X186262019Y-110994897D01*
X186181336Y-111053517D01*
X186181334Y-111053519D01*
X186181333Y-111053519D01*
X186056069Y-111178783D01*
X186056069Y-111178784D01*
X186056067Y-111178786D01*
X186050749Y-111186106D01*
X185951936Y-111322109D01*
X185871507Y-111479957D01*
X185871506Y-111479960D01*
X185816764Y-111648443D01*
X185789050Y-111823421D01*
X177880050Y-111823421D01*
X177852336Y-111648445D01*
X177801265Y-111491261D01*
X177797593Y-111479960D01*
X177797592Y-111479957D01*
X177751456Y-111389411D01*
X177717164Y-111322110D01*
X177613033Y-111178786D01*
X177487764Y-111053517D01*
X177344440Y-110949386D01*
X177335210Y-110944683D01*
X177186592Y-110868957D01*
X177186589Y-110868956D01*
X177018106Y-110814214D01*
X176930617Y-110800357D01*
X176843129Y-110786500D01*
X176665971Y-110786500D01*
X176607645Y-110795738D01*
X176490993Y-110814214D01*
X176322510Y-110868956D01*
X176322507Y-110868957D01*
X176164659Y-110949386D01*
X176102019Y-110994897D01*
X176021336Y-111053517D01*
X176021334Y-111053519D01*
X176021333Y-111053519D01*
X175896069Y-111178783D01*
X175896069Y-111178784D01*
X175896067Y-111178786D01*
X175890749Y-111186106D01*
X175791936Y-111322109D01*
X175711507Y-111479957D01*
X175711506Y-111479960D01*
X175656764Y-111648443D01*
X175629050Y-111823421D01*
X169000050Y-111823421D01*
X168972336Y-111648445D01*
X168921265Y-111491261D01*
X168917593Y-111479960D01*
X168917592Y-111479957D01*
X168871456Y-111389411D01*
X168837164Y-111322110D01*
X168733033Y-111178786D01*
X168607764Y-111053517D01*
X168464440Y-110949386D01*
X168455210Y-110944683D01*
X168306592Y-110868957D01*
X168306589Y-110868956D01*
X168138106Y-110814214D01*
X168050617Y-110800357D01*
X167963129Y-110786500D01*
X167785971Y-110786500D01*
X167727645Y-110795738D01*
X167610993Y-110814214D01*
X167442510Y-110868956D01*
X167442507Y-110868957D01*
X167284659Y-110949386D01*
X167222019Y-110994897D01*
X167141336Y-111053517D01*
X167141334Y-111053519D01*
X167141333Y-111053519D01*
X167016069Y-111178783D01*
X167016069Y-111178784D01*
X167016067Y-111178786D01*
X167010749Y-111186106D01*
X166911936Y-111322109D01*
X166831507Y-111479957D01*
X166831506Y-111479960D01*
X166776764Y-111648443D01*
X166749050Y-111823421D01*
X158840050Y-111823421D01*
X158812336Y-111648445D01*
X158761265Y-111491261D01*
X158757593Y-111479960D01*
X158757592Y-111479957D01*
X158711456Y-111389411D01*
X158677164Y-111322110D01*
X158573033Y-111178786D01*
X158447764Y-111053517D01*
X158304440Y-110949386D01*
X158295210Y-110944683D01*
X158146592Y-110868957D01*
X158146589Y-110868956D01*
X157978106Y-110814214D01*
X157890617Y-110800357D01*
X157803129Y-110786500D01*
X157625971Y-110786500D01*
X157567645Y-110795738D01*
X157450993Y-110814214D01*
X157282510Y-110868956D01*
X157282507Y-110868957D01*
X157124659Y-110949386D01*
X157062019Y-110994897D01*
X156981336Y-111053517D01*
X156981334Y-111053519D01*
X156981333Y-111053519D01*
X156856069Y-111178783D01*
X156856069Y-111178784D01*
X156856067Y-111178786D01*
X156850749Y-111186106D01*
X156751936Y-111322109D01*
X156671507Y-111479957D01*
X156671506Y-111479960D01*
X156616764Y-111648443D01*
X156589050Y-111823421D01*
X149960050Y-111823421D01*
X149932336Y-111648445D01*
X149881265Y-111491261D01*
X149877593Y-111479960D01*
X149877592Y-111479957D01*
X149831456Y-111389411D01*
X149797164Y-111322110D01*
X149693033Y-111178786D01*
X149567764Y-111053517D01*
X149424440Y-110949386D01*
X149415210Y-110944683D01*
X149266592Y-110868957D01*
X149266589Y-110868956D01*
X149098106Y-110814214D01*
X149010617Y-110800357D01*
X148923129Y-110786500D01*
X148745971Y-110786500D01*
X148687645Y-110795738D01*
X148570993Y-110814214D01*
X148402510Y-110868956D01*
X148402507Y-110868957D01*
X148244659Y-110949386D01*
X148182019Y-110994897D01*
X148101336Y-111053517D01*
X148101334Y-111053519D01*
X148101333Y-111053519D01*
X147976069Y-111178783D01*
X147976069Y-111178784D01*
X147976067Y-111178786D01*
X147970749Y-111186106D01*
X147871936Y-111322109D01*
X147791507Y-111479957D01*
X147791506Y-111479960D01*
X147736764Y-111648443D01*
X147709050Y-111823421D01*
X145039500Y-111823421D01*
X145039500Y-109326900D01*
X190419600Y-109326900D01*
X190419600Y-109621099D01*
X190419601Y-109621116D01*
X190454024Y-109882589D01*
X190458002Y-109912800D01*
X190521073Y-110148185D01*
X190534152Y-110196994D01*
X190646734Y-110468794D01*
X190646742Y-110468810D01*
X190793840Y-110723589D01*
X190793851Y-110723605D01*
X190972948Y-110957009D01*
X190972954Y-110957016D01*
X191180983Y-111165045D01*
X191180990Y-111165051D01*
X191309664Y-111263786D01*
X191414403Y-111344155D01*
X191414410Y-111344159D01*
X191669189Y-111491257D01*
X191669205Y-111491265D01*
X191941005Y-111603847D01*
X191941007Y-111603847D01*
X191941013Y-111603850D01*
X192225200Y-111679998D01*
X192516894Y-111718400D01*
X192516901Y-111718400D01*
X192811099Y-111718400D01*
X192811106Y-111718400D01*
X193102800Y-111679998D01*
X193386987Y-111603850D01*
X193494507Y-111559314D01*
X193658794Y-111491265D01*
X193658797Y-111491263D01*
X193658803Y-111491261D01*
X193913597Y-111344155D01*
X194147011Y-111165050D01*
X194355050Y-110957011D01*
X194534155Y-110723597D01*
X194681261Y-110468803D01*
X194684087Y-110461982D01*
X194793847Y-110196994D01*
X194793846Y-110196994D01*
X194793850Y-110196987D01*
X194869998Y-109912800D01*
X194908400Y-109621106D01*
X194908400Y-109326894D01*
X194869998Y-109035200D01*
X194793850Y-108751013D01*
X194793847Y-108751005D01*
X194681265Y-108479205D01*
X194681257Y-108479189D01*
X194534159Y-108224410D01*
X194534155Y-108224403D01*
X194355050Y-107990989D01*
X194355045Y-107990983D01*
X194147016Y-107782954D01*
X194147009Y-107782948D01*
X193913605Y-107603851D01*
X193913603Y-107603849D01*
X193913597Y-107603845D01*
X193913592Y-107603842D01*
X193913589Y-107603840D01*
X193658810Y-107456742D01*
X193658794Y-107456734D01*
X193386994Y-107344152D01*
X193102796Y-107268001D01*
X192811116Y-107229601D01*
X192811111Y-107229600D01*
X192811106Y-107229600D01*
X192516894Y-107229600D01*
X192516888Y-107229600D01*
X192516883Y-107229601D01*
X192225203Y-107268001D01*
X191941005Y-107344152D01*
X191669205Y-107456734D01*
X191669189Y-107456742D01*
X191414410Y-107603840D01*
X191414394Y-107603851D01*
X191180990Y-107782948D01*
X191180983Y-107782954D01*
X190972954Y-107990983D01*
X190972948Y-107990990D01*
X190793851Y-108224394D01*
X190793840Y-108224410D01*
X190646742Y-108479189D01*
X190646734Y-108479205D01*
X190534152Y-108751005D01*
X190458001Y-109035203D01*
X190419601Y-109326883D01*
X190419600Y-109326900D01*
X145039500Y-109326900D01*
X145039500Y-107966500D01*
X145059185Y-107899461D01*
X145111989Y-107853706D01*
X145163500Y-107842500D01*
X162217725Y-107842500D01*
X162217727Y-107842500D01*
X162319588Y-107815207D01*
X162410913Y-107762480D01*
X163668574Y-106504819D01*
X163729897Y-106471334D01*
X163756255Y-106468500D01*
X163761472Y-106468500D01*
X163761475Y-106468500D01*
X163901485Y-106430984D01*
X164027015Y-106358509D01*
X164030705Y-106354819D01*
X164092028Y-106321334D01*
X164118386Y-106318500D01*
X182309614Y-106318500D01*
X182376653Y-106338185D01*
X182397295Y-106354819D01*
X182400985Y-106358509D01*
X182400986Y-106358510D01*
X182400988Y-106358511D01*
X182526511Y-106430982D01*
X182526512Y-106430982D01*
X182526515Y-106430984D01*
X182666525Y-106468500D01*
X182666528Y-106468500D01*
X182811472Y-106468500D01*
X182811475Y-106468500D01*
X182951485Y-106430984D01*
X183077015Y-106358509D01*
X183179509Y-106256015D01*
X183251984Y-106130485D01*
X183289500Y-105990475D01*
X183289500Y-105845525D01*
X183251984Y-105705515D01*
X183179509Y-105579985D01*
X183175819Y-105576295D01*
X183142334Y-105514972D01*
X183139500Y-105488614D01*
X183139500Y-95162900D01*
X190419600Y-95162900D01*
X190419600Y-95457099D01*
X190419601Y-95457116D01*
X190451154Y-95696791D01*
X190458002Y-95748800D01*
X190531242Y-96022136D01*
X190534152Y-96032994D01*
X190646734Y-96304794D01*
X190646742Y-96304810D01*
X190793840Y-96559589D01*
X190793851Y-96559605D01*
X190972948Y-96793009D01*
X190972954Y-96793016D01*
X191180983Y-97001045D01*
X191180990Y-97001051D01*
X191289742Y-97084499D01*
X191414403Y-97180155D01*
X191414410Y-97180159D01*
X191669189Y-97327257D01*
X191669205Y-97327265D01*
X191941005Y-97439847D01*
X191941007Y-97439847D01*
X191941013Y-97439850D01*
X192225200Y-97515998D01*
X192516894Y-97554400D01*
X192516901Y-97554400D01*
X192811099Y-97554400D01*
X192811106Y-97554400D01*
X193102800Y-97515998D01*
X193386987Y-97439850D01*
X193460318Y-97409475D01*
X193658794Y-97327265D01*
X193658797Y-97327263D01*
X193658803Y-97327261D01*
X193913597Y-97180155D01*
X194147011Y-97001050D01*
X194355050Y-96793011D01*
X194534155Y-96559597D01*
X194681261Y-96304803D01*
X194684087Y-96297982D01*
X194786292Y-96051233D01*
X194793850Y-96032987D01*
X194869998Y-95748800D01*
X194908400Y-95457106D01*
X194908400Y-95162894D01*
X194869998Y-94871200D01*
X194793850Y-94587013D01*
X194776669Y-94545534D01*
X194681265Y-94315205D01*
X194681257Y-94315189D01*
X194534159Y-94060410D01*
X194534155Y-94060403D01*
X194422616Y-93915043D01*
X194355051Y-93826990D01*
X194355045Y-93826983D01*
X194147016Y-93618954D01*
X194147009Y-93618948D01*
X193913605Y-93439851D01*
X193913603Y-93439849D01*
X193913597Y-93439845D01*
X193913592Y-93439842D01*
X193913589Y-93439840D01*
X193658810Y-93292742D01*
X193658794Y-93292734D01*
X193386994Y-93180152D01*
X193276365Y-93150509D01*
X193102800Y-93104002D01*
X193102799Y-93104001D01*
X193102796Y-93104001D01*
X192811116Y-93065601D01*
X192811111Y-93065600D01*
X192811106Y-93065600D01*
X192516894Y-93065600D01*
X192516888Y-93065600D01*
X192516883Y-93065601D01*
X192225203Y-93104001D01*
X191941005Y-93180152D01*
X191669205Y-93292734D01*
X191669189Y-93292742D01*
X191414410Y-93439840D01*
X191414394Y-93439851D01*
X191180990Y-93618948D01*
X191180983Y-93618954D01*
X190972954Y-93826983D01*
X190972948Y-93826990D01*
X190793851Y-94060394D01*
X190793840Y-94060410D01*
X190646742Y-94315189D01*
X190646734Y-94315205D01*
X190534152Y-94587005D01*
X190458001Y-94871203D01*
X190419601Y-95162883D01*
X190419600Y-95162900D01*
X183139500Y-95162900D01*
X183139500Y-92783421D01*
X185789050Y-92783421D01*
X185789050Y-92960578D01*
X185816764Y-93135556D01*
X185871506Y-93304039D01*
X185871507Y-93304042D01*
X185943422Y-93445181D01*
X185951936Y-93461890D01*
X186056067Y-93605214D01*
X186181336Y-93730483D01*
X186324660Y-93834614D01*
X186396426Y-93871181D01*
X186482507Y-93915042D01*
X186482510Y-93915043D01*
X186566751Y-93942414D01*
X186650995Y-93969786D01*
X186825971Y-93997500D01*
X186825972Y-93997500D01*
X187003128Y-93997500D01*
X187003129Y-93997500D01*
X187178105Y-93969786D01*
X187346592Y-93915042D01*
X187504440Y-93834614D01*
X187647764Y-93730483D01*
X187773033Y-93605214D01*
X187877164Y-93461890D01*
X187957592Y-93304042D01*
X188012336Y-93135555D01*
X188040050Y-92960579D01*
X188040050Y-92783421D01*
X188012336Y-92608445D01*
X187957592Y-92439958D01*
X187957592Y-92439957D01*
X187908958Y-92344509D01*
X187877164Y-92282110D01*
X187773033Y-92138786D01*
X187647764Y-92013517D01*
X187504440Y-91909386D01*
X187346592Y-91828957D01*
X187346589Y-91828956D01*
X187178106Y-91774214D01*
X187090617Y-91760357D01*
X187003129Y-91746500D01*
X186825971Y-91746500D01*
X186767645Y-91755738D01*
X186650993Y-91774214D01*
X186482510Y-91828956D01*
X186482507Y-91828957D01*
X186324659Y-91909386D01*
X186274123Y-91946103D01*
X186181336Y-92013517D01*
X186181334Y-92013519D01*
X186181333Y-92013519D01*
X186056069Y-92138783D01*
X186056069Y-92138784D01*
X186056067Y-92138786D01*
X186013760Y-92197016D01*
X185951936Y-92282109D01*
X185871507Y-92439957D01*
X185871506Y-92439960D01*
X185816764Y-92608443D01*
X185789050Y-92783421D01*
X183139500Y-92783421D01*
X183139500Y-88363421D01*
X199788500Y-88363421D01*
X199788500Y-88540578D01*
X199816214Y-88715556D01*
X199870956Y-88884039D01*
X199870957Y-88884042D01*
X199951386Y-89041890D01*
X200055517Y-89185214D01*
X200180786Y-89310483D01*
X200324110Y-89414614D01*
X200401529Y-89454061D01*
X200481957Y-89495042D01*
X200481960Y-89495043D01*
X200566201Y-89522414D01*
X200650445Y-89549786D01*
X200825421Y-89577500D01*
X200825422Y-89577500D01*
X201002578Y-89577500D01*
X201002579Y-89577500D01*
X201177555Y-89549786D01*
X201346042Y-89495042D01*
X201503890Y-89414614D01*
X201647214Y-89310483D01*
X201772483Y-89185214D01*
X201876614Y-89041890D01*
X201957042Y-88884042D01*
X202011786Y-88715555D01*
X202039500Y-88540579D01*
X202039500Y-88363421D01*
X202011786Y-88188445D01*
X201957042Y-88019958D01*
X201957042Y-88019957D01*
X201876613Y-87862109D01*
X201772483Y-87718786D01*
X201647214Y-87593517D01*
X201503890Y-87489386D01*
X201490058Y-87482338D01*
X201346042Y-87408957D01*
X201346039Y-87408956D01*
X201177556Y-87354214D01*
X201090067Y-87340357D01*
X201002579Y-87326500D01*
X200825421Y-87326500D01*
X200767095Y-87335738D01*
X200650443Y-87354214D01*
X200481960Y-87408956D01*
X200481957Y-87408957D01*
X200324109Y-87489386D01*
X200292625Y-87512261D01*
X200180786Y-87593517D01*
X200180784Y-87593519D01*
X200180783Y-87593519D01*
X200055519Y-87718783D01*
X200055519Y-87718784D01*
X200055517Y-87718786D01*
X200010796Y-87780338D01*
X199951386Y-87862109D01*
X199870957Y-88019957D01*
X199870956Y-88019960D01*
X199816214Y-88188443D01*
X199788500Y-88363421D01*
X183139500Y-88363421D01*
X183139500Y-87297386D01*
X183159185Y-87230347D01*
X183175819Y-87209705D01*
X183179509Y-87206015D01*
X183251984Y-87080485D01*
X183289500Y-86940475D01*
X183289500Y-86795525D01*
X183251984Y-86655515D01*
X183213499Y-86588858D01*
X183179511Y-86529988D01*
X183179506Y-86529982D01*
X183175819Y-86526295D01*
X183142334Y-86464972D01*
X183139500Y-86438614D01*
X183139500Y-78203421D01*
X199788500Y-78203421D01*
X199788500Y-78380578D01*
X199816214Y-78555556D01*
X199870956Y-78724039D01*
X199870957Y-78724042D01*
X199951386Y-78881890D01*
X200055517Y-79025214D01*
X200180786Y-79150483D01*
X200324110Y-79254614D01*
X200401529Y-79294061D01*
X200481957Y-79335042D01*
X200481960Y-79335043D01*
X200566201Y-79362414D01*
X200650445Y-79389786D01*
X200825421Y-79417500D01*
X200825422Y-79417500D01*
X201002578Y-79417500D01*
X201002579Y-79417500D01*
X201177555Y-79389786D01*
X201346042Y-79335042D01*
X201503890Y-79254614D01*
X201647214Y-79150483D01*
X201772483Y-79025214D01*
X201876614Y-78881890D01*
X201957042Y-78724042D01*
X202011786Y-78555555D01*
X202039500Y-78380579D01*
X202039500Y-78203421D01*
X202011786Y-78028445D01*
X201976727Y-77920543D01*
X201957043Y-77859960D01*
X201957042Y-77859957D01*
X201916061Y-77779529D01*
X201876614Y-77702110D01*
X201772483Y-77558786D01*
X201647214Y-77433517D01*
X201503890Y-77329386D01*
X201346042Y-77248957D01*
X201346039Y-77248956D01*
X201177556Y-77194214D01*
X201030548Y-77170930D01*
X201002579Y-77166500D01*
X200825421Y-77166500D01*
X200797458Y-77170929D01*
X200650443Y-77194214D01*
X200481960Y-77248956D01*
X200481957Y-77248957D01*
X200324109Y-77329386D01*
X200270844Y-77368086D01*
X200180786Y-77433517D01*
X200180784Y-77433519D01*
X200180783Y-77433519D01*
X200055519Y-77558783D01*
X200055519Y-77558784D01*
X200055517Y-77558786D01*
X200010796Y-77620338D01*
X199951386Y-77702109D01*
X199870957Y-77859957D01*
X199870956Y-77859960D01*
X199816214Y-78028443D01*
X199788500Y-78203421D01*
X183139500Y-78203421D01*
X183139500Y-73743421D01*
X185789050Y-73743421D01*
X185789050Y-73920579D01*
X185801726Y-74000610D01*
X185816764Y-74095556D01*
X185871506Y-74264039D01*
X185871507Y-74264042D01*
X185908399Y-74336445D01*
X185951936Y-74421890D01*
X186056067Y-74565214D01*
X186181336Y-74690483D01*
X186324660Y-74794614D01*
X186402079Y-74834061D01*
X186482507Y-74875042D01*
X186482510Y-74875043D01*
X186566751Y-74902414D01*
X186650995Y-74929786D01*
X186825971Y-74957500D01*
X186825972Y-74957500D01*
X187003128Y-74957500D01*
X187003129Y-74957500D01*
X187178105Y-74929786D01*
X187346592Y-74875042D01*
X187504440Y-74794614D01*
X187647764Y-74690483D01*
X187773033Y-74565214D01*
X187877164Y-74421890D01*
X187957592Y-74264042D01*
X188012336Y-74095555D01*
X188040050Y-73920579D01*
X188040050Y-73743421D01*
X188012336Y-73568445D01*
X187984964Y-73484201D01*
X187957593Y-73399960D01*
X187957592Y-73399957D01*
X187907654Y-73301949D01*
X187877164Y-73242110D01*
X187773033Y-73098786D01*
X187647764Y-72973517D01*
X187504440Y-72869386D01*
X187346592Y-72788957D01*
X187346589Y-72788956D01*
X187178106Y-72734214D01*
X187090617Y-72720357D01*
X187003129Y-72706500D01*
X186825971Y-72706500D01*
X186767645Y-72715738D01*
X186650993Y-72734214D01*
X186482510Y-72788956D01*
X186482507Y-72788957D01*
X186324659Y-72869386D01*
X186259110Y-72917011D01*
X186181336Y-72973517D01*
X186181334Y-72973519D01*
X186181333Y-72973519D01*
X186056069Y-73098783D01*
X186056069Y-73098784D01*
X186056067Y-73098786D01*
X186031075Y-73133185D01*
X185951936Y-73242109D01*
X185871507Y-73399957D01*
X185871506Y-73399960D01*
X185816764Y-73568443D01*
X185789050Y-73743421D01*
X183139500Y-73743421D01*
X183139500Y-71286900D01*
X190419600Y-71286900D01*
X190419600Y-71581099D01*
X190419601Y-71581116D01*
X190453747Y-71840485D01*
X190458002Y-71872800D01*
X190529861Y-72140982D01*
X190534152Y-72156994D01*
X190646734Y-72428794D01*
X190646742Y-72428810D01*
X190793840Y-72683589D01*
X190793851Y-72683605D01*
X190972948Y-72917009D01*
X190972954Y-72917016D01*
X191180983Y-73125045D01*
X191180990Y-73125051D01*
X191248072Y-73176525D01*
X191414403Y-73304155D01*
X191414410Y-73304159D01*
X191669189Y-73451257D01*
X191669205Y-73451265D01*
X191941005Y-73563847D01*
X191941007Y-73563847D01*
X191941013Y-73563850D01*
X192225200Y-73639998D01*
X192516894Y-73678400D01*
X192516901Y-73678400D01*
X192811099Y-73678400D01*
X192811106Y-73678400D01*
X193102800Y-73639998D01*
X193386987Y-73563850D01*
X193561524Y-73491555D01*
X193658794Y-73451265D01*
X193658797Y-73451263D01*
X193658803Y-73451261D01*
X193913597Y-73304155D01*
X194147011Y-73125050D01*
X194355050Y-72917011D01*
X194534155Y-72683597D01*
X194681261Y-72428803D01*
X194684087Y-72421982D01*
X194793847Y-72156994D01*
X194793846Y-72156994D01*
X194793850Y-72156987D01*
X194869998Y-71872800D01*
X194908400Y-71581106D01*
X194908400Y-71286894D01*
X194869998Y-70995200D01*
X194793850Y-70711013D01*
X194770033Y-70653513D01*
X194681265Y-70439205D01*
X194681257Y-70439189D01*
X194534159Y-70184410D01*
X194534155Y-70184403D01*
X194355050Y-69950989D01*
X194355045Y-69950983D01*
X194147016Y-69742954D01*
X194147009Y-69742948D01*
X193913605Y-69563851D01*
X193913603Y-69563849D01*
X193913597Y-69563845D01*
X193913592Y-69563842D01*
X193913589Y-69563840D01*
X193658810Y-69416742D01*
X193658794Y-69416734D01*
X193386994Y-69304152D01*
X193102796Y-69228001D01*
X192811116Y-69189601D01*
X192811111Y-69189600D01*
X192811106Y-69189600D01*
X192516894Y-69189600D01*
X192516888Y-69189600D01*
X192516883Y-69189601D01*
X192225203Y-69228001D01*
X191941005Y-69304152D01*
X191669205Y-69416734D01*
X191669189Y-69416742D01*
X191414410Y-69563840D01*
X191414394Y-69563851D01*
X191180990Y-69742948D01*
X191180983Y-69742954D01*
X190972954Y-69950983D01*
X190972948Y-69950990D01*
X190793851Y-70184394D01*
X190793840Y-70184410D01*
X190646742Y-70439189D01*
X190646734Y-70439205D01*
X190534152Y-70711005D01*
X190458001Y-70995203D01*
X190419601Y-71286883D01*
X190419600Y-71286900D01*
X183139500Y-71286900D01*
X183139500Y-68247386D01*
X183159185Y-68180347D01*
X183175819Y-68159705D01*
X183179509Y-68156015D01*
X183251984Y-68030485D01*
X183289500Y-67890475D01*
X183289500Y-67745525D01*
X183251984Y-67605515D01*
X183189050Y-67496511D01*
X183179511Y-67479988D01*
X183179506Y-67479982D01*
X183175819Y-67476295D01*
X183142334Y-67414972D01*
X183139500Y-67388614D01*
X183139500Y-54703421D01*
X185789050Y-54703421D01*
X185789050Y-54880578D01*
X185816764Y-55055556D01*
X185871506Y-55224039D01*
X185871507Y-55224042D01*
X185947540Y-55373263D01*
X185951936Y-55381890D01*
X186056067Y-55525214D01*
X186181336Y-55650483D01*
X186324660Y-55754614D01*
X186402079Y-55794061D01*
X186482507Y-55835042D01*
X186482510Y-55835043D01*
X186566751Y-55862414D01*
X186650995Y-55889786D01*
X186825971Y-55917500D01*
X186825972Y-55917500D01*
X187003128Y-55917500D01*
X187003129Y-55917500D01*
X187178105Y-55889786D01*
X187346592Y-55835042D01*
X187504440Y-55754614D01*
X187647764Y-55650483D01*
X187773033Y-55525214D01*
X187877164Y-55381890D01*
X187957592Y-55224042D01*
X188012336Y-55055555D01*
X188040050Y-54880579D01*
X188040050Y-54703421D01*
X194669050Y-54703421D01*
X194669050Y-54880578D01*
X194696764Y-55055556D01*
X194751506Y-55224039D01*
X194751507Y-55224042D01*
X194827540Y-55373263D01*
X194831936Y-55381890D01*
X194936067Y-55525214D01*
X195061336Y-55650483D01*
X195204660Y-55754614D01*
X195282079Y-55794061D01*
X195362507Y-55835042D01*
X195362510Y-55835043D01*
X195446751Y-55862414D01*
X195530995Y-55889786D01*
X195705971Y-55917500D01*
X195705972Y-55917500D01*
X195883128Y-55917500D01*
X195883129Y-55917500D01*
X196058105Y-55889786D01*
X196226592Y-55835042D01*
X196384440Y-55754614D01*
X196527764Y-55650483D01*
X196653033Y-55525214D01*
X196757164Y-55381890D01*
X196837592Y-55224042D01*
X196892336Y-55055555D01*
X196920050Y-54880579D01*
X196920050Y-54703421D01*
X196892336Y-54528445D01*
X196837592Y-54359958D01*
X196837592Y-54359957D01*
X196757163Y-54202109D01*
X196653033Y-54058786D01*
X196527764Y-53933517D01*
X196384440Y-53829386D01*
X196226592Y-53748957D01*
X196226589Y-53748956D01*
X196058106Y-53694214D01*
X195970617Y-53680357D01*
X195883129Y-53666500D01*
X195705971Y-53666500D01*
X195647645Y-53675738D01*
X195530993Y-53694214D01*
X195362510Y-53748956D01*
X195362507Y-53748957D01*
X195204659Y-53829386D01*
X195122888Y-53888796D01*
X195061336Y-53933517D01*
X195061334Y-53933519D01*
X195061333Y-53933519D01*
X194936069Y-54058783D01*
X194936069Y-54058784D01*
X194936067Y-54058786D01*
X194891346Y-54120338D01*
X194831936Y-54202109D01*
X194751507Y-54359957D01*
X194751506Y-54359960D01*
X194696764Y-54528443D01*
X194669050Y-54703421D01*
X188040050Y-54703421D01*
X188012336Y-54528445D01*
X187957592Y-54359958D01*
X187957592Y-54359957D01*
X187877163Y-54202109D01*
X187773033Y-54058786D01*
X187647764Y-53933517D01*
X187504440Y-53829386D01*
X187346592Y-53748957D01*
X187346589Y-53748956D01*
X187178106Y-53694214D01*
X187090617Y-53680357D01*
X187003129Y-53666500D01*
X186825971Y-53666500D01*
X186767645Y-53675738D01*
X186650993Y-53694214D01*
X186482510Y-53748956D01*
X186482507Y-53748957D01*
X186324659Y-53829386D01*
X186242888Y-53888796D01*
X186181336Y-53933517D01*
X186181334Y-53933519D01*
X186181333Y-53933519D01*
X186056069Y-54058783D01*
X186056069Y-54058784D01*
X186056067Y-54058786D01*
X186011346Y-54120338D01*
X185951936Y-54202109D01*
X185871507Y-54359957D01*
X185871506Y-54359960D01*
X185816764Y-54528443D01*
X185789050Y-54703421D01*
X183139500Y-54703421D01*
X183139500Y-49080366D01*
X183156114Y-49018364D01*
X183177984Y-48980485D01*
X183215500Y-48840475D01*
X183215500Y-48695525D01*
X183177984Y-48555515D01*
X183132941Y-48477499D01*
X183105511Y-48429988D01*
X183105506Y-48429982D01*
X183003017Y-48327493D01*
X183003011Y-48327488D01*
X182877488Y-48255017D01*
X182877489Y-48255017D01*
X182866006Y-48251940D01*
X182737475Y-48217500D01*
X182592525Y-48217500D01*
X182463993Y-48251940D01*
X182452511Y-48255017D01*
X182326988Y-48327488D01*
X182326982Y-48327493D01*
X182224493Y-48429982D01*
X182224488Y-48429988D01*
X182152017Y-48555511D01*
X182152016Y-48555515D01*
X182114500Y-48695525D01*
X182114500Y-48840475D01*
X182152016Y-48980485D01*
X182152017Y-48980488D01*
X182224488Y-49106011D01*
X182224493Y-49106017D01*
X182302181Y-49183705D01*
X182335666Y-49245028D01*
X182338500Y-49271386D01*
X182338500Y-67388614D01*
X182318815Y-67455653D01*
X182302181Y-67476295D01*
X182298493Y-67479982D01*
X182298488Y-67479988D01*
X182226017Y-67605511D01*
X182226016Y-67605515D01*
X182188500Y-67745525D01*
X182188500Y-67890475D01*
X182226016Y-68030485D01*
X182226017Y-68030488D01*
X182298488Y-68156011D01*
X182298493Y-68156017D01*
X182302181Y-68159705D01*
X182335666Y-68221028D01*
X182338500Y-68247386D01*
X182338500Y-86438614D01*
X182318815Y-86505653D01*
X182302181Y-86526295D01*
X182298493Y-86529982D01*
X182298488Y-86529988D01*
X182226017Y-86655511D01*
X182226016Y-86655515D01*
X182188500Y-86795525D01*
X182188500Y-86940475D01*
X182226016Y-87080485D01*
X182226017Y-87080488D01*
X182298488Y-87206011D01*
X182298493Y-87206017D01*
X182302181Y-87209705D01*
X182335666Y-87271028D01*
X182338500Y-87297386D01*
X182338500Y-105393500D01*
X182318815Y-105460539D01*
X182266011Y-105506294D01*
X182214500Y-105517500D01*
X164213500Y-105517500D01*
X164146461Y-105497815D01*
X164100706Y-105445011D01*
X164089500Y-105393500D01*
X164089500Y-99878711D01*
X170149500Y-99878711D01*
X170149500Y-100121288D01*
X170181161Y-100361785D01*
X170243947Y-100596104D01*
X170261265Y-100637912D01*
X170336776Y-100820212D01*
X170458064Y-101030289D01*
X170458066Y-101030292D01*
X170458067Y-101030293D01*
X170605733Y-101222736D01*
X170605739Y-101222743D01*
X170777256Y-101394260D01*
X170777262Y-101394265D01*
X170969711Y-101541936D01*
X171179788Y-101663224D01*
X171403900Y-101756054D01*
X171638211Y-101818838D01*
X171818586Y-101842584D01*
X171878711Y-101850500D01*
X171878712Y-101850500D01*
X172121289Y-101850500D01*
X172169388Y-101844167D01*
X172361789Y-101818838D01*
X172596100Y-101756054D01*
X172820212Y-101663224D01*
X173030289Y-101541936D01*
X173222738Y-101394265D01*
X173394265Y-101222738D01*
X173541936Y-101030289D01*
X173663224Y-100820212D01*
X173756054Y-100596100D01*
X173818838Y-100361789D01*
X173850500Y-100121288D01*
X173850500Y-99878712D01*
X173818838Y-99638211D01*
X173756054Y-99403900D01*
X173663224Y-99179788D01*
X173541936Y-98969711D01*
X173474228Y-98881472D01*
X173394266Y-98777263D01*
X173394260Y-98777256D01*
X173222743Y-98605739D01*
X173222736Y-98605733D01*
X173030293Y-98458067D01*
X173030292Y-98458066D01*
X173030289Y-98458064D01*
X172858661Y-98358974D01*
X172820214Y-98336777D01*
X172820205Y-98336773D01*
X172596104Y-98243947D01*
X172361785Y-98181161D01*
X172121289Y-98149500D01*
X172121288Y-98149500D01*
X171878712Y-98149500D01*
X171878711Y-98149500D01*
X171638214Y-98181161D01*
X171403895Y-98243947D01*
X171179794Y-98336773D01*
X171179785Y-98336777D01*
X170969706Y-98458067D01*
X170777263Y-98605733D01*
X170777256Y-98605739D01*
X170605739Y-98777256D01*
X170605733Y-98777263D01*
X170458067Y-98969706D01*
X170336777Y-99179785D01*
X170336773Y-99179794D01*
X170243947Y-99403895D01*
X170181161Y-99638214D01*
X170149500Y-99878711D01*
X164089500Y-99878711D01*
X164089500Y-92783421D01*
X166749050Y-92783421D01*
X166749050Y-92960578D01*
X166776764Y-93135556D01*
X166831506Y-93304039D01*
X166831507Y-93304042D01*
X166903422Y-93445181D01*
X166911936Y-93461890D01*
X167016067Y-93605214D01*
X167141336Y-93730483D01*
X167284660Y-93834614D01*
X167356426Y-93871181D01*
X167442507Y-93915042D01*
X167442510Y-93915043D01*
X167526751Y-93942414D01*
X167610995Y-93969786D01*
X167785971Y-93997500D01*
X167785972Y-93997500D01*
X167963128Y-93997500D01*
X167963129Y-93997500D01*
X168138105Y-93969786D01*
X168306592Y-93915042D01*
X168464440Y-93834614D01*
X168607764Y-93730483D01*
X168733033Y-93605214D01*
X168837164Y-93461890D01*
X168917592Y-93304042D01*
X168972336Y-93135555D01*
X169000050Y-92960579D01*
X169000050Y-92783421D01*
X175629050Y-92783421D01*
X175629050Y-92960578D01*
X175656764Y-93135556D01*
X175711506Y-93304039D01*
X175711507Y-93304042D01*
X175783422Y-93445181D01*
X175791936Y-93461890D01*
X175896067Y-93605214D01*
X176021336Y-93730483D01*
X176164660Y-93834614D01*
X176236426Y-93871181D01*
X176322507Y-93915042D01*
X176322510Y-93915043D01*
X176406751Y-93942414D01*
X176490995Y-93969786D01*
X176665971Y-93997500D01*
X176665972Y-93997500D01*
X176843128Y-93997500D01*
X176843129Y-93997500D01*
X177018105Y-93969786D01*
X177186592Y-93915042D01*
X177344440Y-93834614D01*
X177487764Y-93730483D01*
X177613033Y-93605214D01*
X177717164Y-93461890D01*
X177797592Y-93304042D01*
X177852336Y-93135555D01*
X177880050Y-92960579D01*
X177880050Y-92783421D01*
X177852336Y-92608445D01*
X177797592Y-92439958D01*
X177797592Y-92439957D01*
X177748958Y-92344509D01*
X177717164Y-92282110D01*
X177613033Y-92138786D01*
X177487764Y-92013517D01*
X177344440Y-91909386D01*
X177186592Y-91828957D01*
X177186589Y-91828956D01*
X177018106Y-91774214D01*
X176930617Y-91760357D01*
X176843129Y-91746500D01*
X176665971Y-91746500D01*
X176607645Y-91755738D01*
X176490993Y-91774214D01*
X176322510Y-91828956D01*
X176322507Y-91828957D01*
X176164659Y-91909386D01*
X176114123Y-91946103D01*
X176021336Y-92013517D01*
X176021334Y-92013519D01*
X176021333Y-92013519D01*
X175896069Y-92138783D01*
X175896069Y-92138784D01*
X175896067Y-92138786D01*
X175853760Y-92197016D01*
X175791936Y-92282109D01*
X175711507Y-92439957D01*
X175711506Y-92439960D01*
X175656764Y-92608443D01*
X175629050Y-92783421D01*
X169000050Y-92783421D01*
X168972336Y-92608445D01*
X168917592Y-92439958D01*
X168917592Y-92439957D01*
X168868958Y-92344509D01*
X168837164Y-92282110D01*
X168733033Y-92138786D01*
X168607764Y-92013517D01*
X168464440Y-91909386D01*
X168306592Y-91828957D01*
X168306589Y-91828956D01*
X168138106Y-91774214D01*
X168050617Y-91760357D01*
X167963129Y-91746500D01*
X167785971Y-91746500D01*
X167727645Y-91755738D01*
X167610993Y-91774214D01*
X167442510Y-91828956D01*
X167442507Y-91828957D01*
X167284659Y-91909386D01*
X167234123Y-91946103D01*
X167141336Y-92013517D01*
X167141334Y-92013519D01*
X167141333Y-92013519D01*
X167016069Y-92138783D01*
X167016069Y-92138784D01*
X167016067Y-92138786D01*
X166973760Y-92197016D01*
X166911936Y-92282109D01*
X166831507Y-92439957D01*
X166831506Y-92439960D01*
X166776764Y-92608443D01*
X166749050Y-92783421D01*
X164089500Y-92783421D01*
X164089500Y-87180366D01*
X164106114Y-87118364D01*
X164127984Y-87080485D01*
X164165500Y-86940475D01*
X164165500Y-86795525D01*
X164127984Y-86655515D01*
X164106112Y-86617632D01*
X164089500Y-86555633D01*
X164089500Y-73743421D01*
X166749050Y-73743421D01*
X166749050Y-73920579D01*
X166761726Y-74000610D01*
X166776764Y-74095556D01*
X166831506Y-74264039D01*
X166831507Y-74264042D01*
X166868399Y-74336445D01*
X166911936Y-74421890D01*
X167016067Y-74565214D01*
X167141336Y-74690483D01*
X167284660Y-74794614D01*
X167362079Y-74834061D01*
X167442507Y-74875042D01*
X167442510Y-74875043D01*
X167526751Y-74902414D01*
X167610995Y-74929786D01*
X167785971Y-74957500D01*
X167785972Y-74957500D01*
X167963128Y-74957500D01*
X167963129Y-74957500D01*
X168138105Y-74929786D01*
X168306592Y-74875042D01*
X168464440Y-74794614D01*
X168607764Y-74690483D01*
X168733033Y-74565214D01*
X168837164Y-74421890D01*
X168917592Y-74264042D01*
X168972336Y-74095555D01*
X169000050Y-73920579D01*
X169000050Y-73743421D01*
X175629050Y-73743421D01*
X175629050Y-73920579D01*
X175641726Y-74000610D01*
X175656764Y-74095556D01*
X175711506Y-74264039D01*
X175711507Y-74264042D01*
X175748399Y-74336445D01*
X175791936Y-74421890D01*
X175896067Y-74565214D01*
X176021336Y-74690483D01*
X176164660Y-74794614D01*
X176242079Y-74834061D01*
X176322507Y-74875042D01*
X176322510Y-74875043D01*
X176406751Y-74902414D01*
X176490995Y-74929786D01*
X176665971Y-74957500D01*
X176665972Y-74957500D01*
X176843128Y-74957500D01*
X176843129Y-74957500D01*
X177018105Y-74929786D01*
X177186592Y-74875042D01*
X177344440Y-74794614D01*
X177487764Y-74690483D01*
X177613033Y-74565214D01*
X177717164Y-74421890D01*
X177797592Y-74264042D01*
X177852336Y-74095555D01*
X177880050Y-73920579D01*
X177880050Y-73743421D01*
X177852336Y-73568445D01*
X177824964Y-73484201D01*
X177797593Y-73399960D01*
X177797592Y-73399957D01*
X177747654Y-73301949D01*
X177717164Y-73242110D01*
X177613033Y-73098786D01*
X177487764Y-72973517D01*
X177344440Y-72869386D01*
X177186592Y-72788957D01*
X177186589Y-72788956D01*
X177018106Y-72734214D01*
X176930617Y-72720357D01*
X176843129Y-72706500D01*
X176665971Y-72706500D01*
X176607645Y-72715738D01*
X176490993Y-72734214D01*
X176322510Y-72788956D01*
X176322507Y-72788957D01*
X176164659Y-72869386D01*
X176099110Y-72917011D01*
X176021336Y-72973517D01*
X176021334Y-72973519D01*
X176021333Y-72973519D01*
X175896069Y-73098783D01*
X175896069Y-73098784D01*
X175896067Y-73098786D01*
X175871075Y-73133185D01*
X175791936Y-73242109D01*
X175711507Y-73399957D01*
X175711506Y-73399960D01*
X175656764Y-73568443D01*
X175629050Y-73743421D01*
X169000050Y-73743421D01*
X168972336Y-73568445D01*
X168944964Y-73484201D01*
X168917593Y-73399960D01*
X168917592Y-73399957D01*
X168867654Y-73301949D01*
X168837164Y-73242110D01*
X168733033Y-73098786D01*
X168607764Y-72973517D01*
X168464440Y-72869386D01*
X168306592Y-72788957D01*
X168306589Y-72788956D01*
X168138106Y-72734214D01*
X168050617Y-72720357D01*
X167963129Y-72706500D01*
X167785971Y-72706500D01*
X167727645Y-72715738D01*
X167610993Y-72734214D01*
X167442510Y-72788956D01*
X167442507Y-72788957D01*
X167284659Y-72869386D01*
X167219110Y-72917011D01*
X167141336Y-72973517D01*
X167141334Y-72973519D01*
X167141333Y-72973519D01*
X167016069Y-73098783D01*
X167016069Y-73098784D01*
X167016067Y-73098786D01*
X166991075Y-73133185D01*
X166911936Y-73242109D01*
X166831507Y-73399957D01*
X166831506Y-73399960D01*
X166776764Y-73568443D01*
X166749050Y-73743421D01*
X164089500Y-73743421D01*
X164089500Y-68247386D01*
X164109185Y-68180347D01*
X164125819Y-68159705D01*
X164129509Y-68156015D01*
X164201984Y-68030485D01*
X164239500Y-67890475D01*
X164239500Y-67745525D01*
X164201984Y-67605515D01*
X164139050Y-67496511D01*
X164129511Y-67479988D01*
X164129506Y-67479982D01*
X164125819Y-67476295D01*
X164092334Y-67414972D01*
X164089500Y-67388614D01*
X164089500Y-54703421D01*
X166749050Y-54703421D01*
X166749050Y-54880578D01*
X166776764Y-55055556D01*
X166831506Y-55224039D01*
X166831507Y-55224042D01*
X166907540Y-55373263D01*
X166911936Y-55381890D01*
X167016067Y-55525214D01*
X167141336Y-55650483D01*
X167284660Y-55754614D01*
X167362079Y-55794061D01*
X167442507Y-55835042D01*
X167442510Y-55835043D01*
X167526751Y-55862414D01*
X167610995Y-55889786D01*
X167785971Y-55917500D01*
X167785972Y-55917500D01*
X167963128Y-55917500D01*
X167963129Y-55917500D01*
X168138105Y-55889786D01*
X168306592Y-55835042D01*
X168464440Y-55754614D01*
X168607764Y-55650483D01*
X168733033Y-55525214D01*
X168837164Y-55381890D01*
X168917592Y-55224042D01*
X168972336Y-55055555D01*
X169000050Y-54880579D01*
X169000050Y-54703421D01*
X175629050Y-54703421D01*
X175629050Y-54880578D01*
X175656764Y-55055556D01*
X175711506Y-55224039D01*
X175711507Y-55224042D01*
X175787540Y-55373263D01*
X175791936Y-55381890D01*
X175896067Y-55525214D01*
X176021336Y-55650483D01*
X176164660Y-55754614D01*
X176242079Y-55794061D01*
X176322507Y-55835042D01*
X176322510Y-55835043D01*
X176406751Y-55862414D01*
X176490995Y-55889786D01*
X176665971Y-55917500D01*
X176665972Y-55917500D01*
X176843128Y-55917500D01*
X176843129Y-55917500D01*
X177018105Y-55889786D01*
X177186592Y-55835042D01*
X177344440Y-55754614D01*
X177487764Y-55650483D01*
X177613033Y-55525214D01*
X177717164Y-55381890D01*
X177797592Y-55224042D01*
X177852336Y-55055555D01*
X177880050Y-54880579D01*
X177880050Y-54703421D01*
X177852336Y-54528445D01*
X177797592Y-54359958D01*
X177797592Y-54359957D01*
X177717163Y-54202109D01*
X177613033Y-54058786D01*
X177487764Y-53933517D01*
X177344440Y-53829386D01*
X177186592Y-53748957D01*
X177186589Y-53748956D01*
X177018106Y-53694214D01*
X176930617Y-53680357D01*
X176843129Y-53666500D01*
X176665971Y-53666500D01*
X176607645Y-53675738D01*
X176490993Y-53694214D01*
X176322510Y-53748956D01*
X176322507Y-53748957D01*
X176164659Y-53829386D01*
X176082888Y-53888796D01*
X176021336Y-53933517D01*
X176021334Y-53933519D01*
X176021333Y-53933519D01*
X175896069Y-54058783D01*
X175896069Y-54058784D01*
X175896067Y-54058786D01*
X175851346Y-54120338D01*
X175791936Y-54202109D01*
X175711507Y-54359957D01*
X175711506Y-54359960D01*
X175656764Y-54528443D01*
X175629050Y-54703421D01*
X169000050Y-54703421D01*
X168972336Y-54528445D01*
X168917592Y-54359958D01*
X168917592Y-54359957D01*
X168837163Y-54202109D01*
X168733033Y-54058786D01*
X168607764Y-53933517D01*
X168464440Y-53829386D01*
X168306592Y-53748957D01*
X168306589Y-53748956D01*
X168138106Y-53694214D01*
X168050617Y-53680357D01*
X167963129Y-53666500D01*
X167785971Y-53666500D01*
X167727645Y-53675738D01*
X167610993Y-53694214D01*
X167442510Y-53748956D01*
X167442507Y-53748957D01*
X167284659Y-53829386D01*
X167202888Y-53888796D01*
X167141336Y-53933517D01*
X167141334Y-53933519D01*
X167141333Y-53933519D01*
X167016069Y-54058783D01*
X167016069Y-54058784D01*
X167016067Y-54058786D01*
X166971346Y-54120338D01*
X166911936Y-54202109D01*
X166831507Y-54359957D01*
X166831506Y-54359960D01*
X166776764Y-54528443D01*
X166749050Y-54703421D01*
X164089500Y-54703421D01*
X164089500Y-49080366D01*
X164106114Y-49018364D01*
X164127984Y-48980485D01*
X164165500Y-48840475D01*
X164165500Y-48695525D01*
X164127984Y-48555515D01*
X164082941Y-48477499D01*
X164055511Y-48429988D01*
X164055506Y-48429982D01*
X163953017Y-48327493D01*
X163953011Y-48327488D01*
X163827488Y-48255017D01*
X163827489Y-48255017D01*
X163816006Y-48251940D01*
X163687475Y-48217500D01*
X163542525Y-48217500D01*
X163413993Y-48251940D01*
X163402511Y-48255017D01*
X163276988Y-48327488D01*
X163276982Y-48327493D01*
X163174493Y-48429982D01*
X163174488Y-48429988D01*
X163102017Y-48555511D01*
X163102016Y-48555515D01*
X163064500Y-48695525D01*
X163064500Y-48840475D01*
X163102016Y-48980485D01*
X163102017Y-48980488D01*
X163174488Y-49106011D01*
X163174493Y-49106017D01*
X163252181Y-49183705D01*
X163285666Y-49245028D01*
X163288500Y-49271386D01*
X163288500Y-67388614D01*
X163268815Y-67455653D01*
X163252181Y-67476295D01*
X163248493Y-67479982D01*
X163248488Y-67479988D01*
X163176017Y-67605511D01*
X163176016Y-67605515D01*
X163138500Y-67745525D01*
X163138500Y-67890475D01*
X163176016Y-68030485D01*
X163176017Y-68030488D01*
X163248488Y-68156011D01*
X163248493Y-68156017D01*
X163252181Y-68159705D01*
X163285666Y-68221028D01*
X163288500Y-68247386D01*
X163288500Y-86364614D01*
X163268815Y-86431653D01*
X163252181Y-86452295D01*
X163174493Y-86529982D01*
X163174488Y-86529988D01*
X163102017Y-86655511D01*
X163102016Y-86655515D01*
X163064500Y-86795525D01*
X163064500Y-86940475D01*
X163102016Y-87080485D01*
X163102017Y-87080488D01*
X163174488Y-87206011D01*
X163174493Y-87206017D01*
X163252181Y-87283705D01*
X163285666Y-87345028D01*
X163288500Y-87371386D01*
X163288500Y-105488614D01*
X163268815Y-105555653D01*
X163252181Y-105576295D01*
X163248493Y-105579982D01*
X163248488Y-105579988D01*
X163176017Y-105705511D01*
X163176016Y-105705515D01*
X163138500Y-105845525D01*
X163138500Y-105845527D01*
X163138500Y-105850745D01*
X163118815Y-105917784D01*
X163102181Y-105938426D01*
X162035426Y-107005181D01*
X161974103Y-107038666D01*
X161947745Y-107041500D01*
X145163500Y-107041500D01*
X145096461Y-107021815D01*
X145050706Y-106969011D01*
X145039500Y-106917500D01*
X145039500Y-106347386D01*
X145059185Y-106280347D01*
X145075819Y-106259705D01*
X145079509Y-106256015D01*
X145151984Y-106130485D01*
X145189500Y-105990475D01*
X145189500Y-105845525D01*
X145151984Y-105705515D01*
X145079509Y-105579985D01*
X145075819Y-105576295D01*
X145042334Y-105514972D01*
X145039500Y-105488614D01*
X145039500Y-92783421D01*
X147709050Y-92783421D01*
X147709050Y-92960578D01*
X147736764Y-93135556D01*
X147791506Y-93304039D01*
X147791507Y-93304042D01*
X147863422Y-93445181D01*
X147871936Y-93461890D01*
X147976067Y-93605214D01*
X148101336Y-93730483D01*
X148244660Y-93834614D01*
X148316426Y-93871181D01*
X148402507Y-93915042D01*
X148402510Y-93915043D01*
X148486751Y-93942414D01*
X148570995Y-93969786D01*
X148745971Y-93997500D01*
X148745972Y-93997500D01*
X148923128Y-93997500D01*
X148923129Y-93997500D01*
X149098105Y-93969786D01*
X149266592Y-93915042D01*
X149424440Y-93834614D01*
X149567764Y-93730483D01*
X149693033Y-93605214D01*
X149797164Y-93461890D01*
X149877592Y-93304042D01*
X149932336Y-93135555D01*
X149960050Y-92960579D01*
X149960050Y-92783421D01*
X156589050Y-92783421D01*
X156589050Y-92960578D01*
X156616764Y-93135556D01*
X156671506Y-93304039D01*
X156671507Y-93304042D01*
X156743422Y-93445181D01*
X156751936Y-93461890D01*
X156856067Y-93605214D01*
X156981336Y-93730483D01*
X157124660Y-93834614D01*
X157196426Y-93871181D01*
X157282507Y-93915042D01*
X157282510Y-93915043D01*
X157366751Y-93942414D01*
X157450995Y-93969786D01*
X157625971Y-93997500D01*
X157625972Y-93997500D01*
X157803128Y-93997500D01*
X157803129Y-93997500D01*
X157978105Y-93969786D01*
X158146592Y-93915042D01*
X158304440Y-93834614D01*
X158447764Y-93730483D01*
X158573033Y-93605214D01*
X158677164Y-93461890D01*
X158757592Y-93304042D01*
X158812336Y-93135555D01*
X158840050Y-92960579D01*
X158840050Y-92783421D01*
X158812336Y-92608445D01*
X158757592Y-92439958D01*
X158757592Y-92439957D01*
X158708958Y-92344509D01*
X158677164Y-92282110D01*
X158573033Y-92138786D01*
X158447764Y-92013517D01*
X158304440Y-91909386D01*
X158146592Y-91828957D01*
X158146589Y-91828956D01*
X157978106Y-91774214D01*
X157890617Y-91760357D01*
X157803129Y-91746500D01*
X157625971Y-91746500D01*
X157567645Y-91755738D01*
X157450993Y-91774214D01*
X157282510Y-91828956D01*
X157282507Y-91828957D01*
X157124659Y-91909386D01*
X157074123Y-91946103D01*
X156981336Y-92013517D01*
X156981334Y-92013519D01*
X156981333Y-92013519D01*
X156856069Y-92138783D01*
X156856069Y-92138784D01*
X156856067Y-92138786D01*
X156813760Y-92197016D01*
X156751936Y-92282109D01*
X156671507Y-92439957D01*
X156671506Y-92439960D01*
X156616764Y-92608443D01*
X156589050Y-92783421D01*
X149960050Y-92783421D01*
X149932336Y-92608445D01*
X149877592Y-92439958D01*
X149877592Y-92439957D01*
X149828958Y-92344509D01*
X149797164Y-92282110D01*
X149693033Y-92138786D01*
X149567764Y-92013517D01*
X149424440Y-91909386D01*
X149266592Y-91828957D01*
X149266589Y-91828956D01*
X149098106Y-91774214D01*
X149010617Y-91760357D01*
X148923129Y-91746500D01*
X148745971Y-91746500D01*
X148687645Y-91755738D01*
X148570993Y-91774214D01*
X148402510Y-91828956D01*
X148402507Y-91828957D01*
X148244659Y-91909386D01*
X148194123Y-91946103D01*
X148101336Y-92013517D01*
X148101334Y-92013519D01*
X148101333Y-92013519D01*
X147976069Y-92138783D01*
X147976069Y-92138784D01*
X147976067Y-92138786D01*
X147933760Y-92197016D01*
X147871936Y-92282109D01*
X147791507Y-92439957D01*
X147791506Y-92439960D01*
X147736764Y-92608443D01*
X147709050Y-92783421D01*
X145039500Y-92783421D01*
X145039500Y-87297386D01*
X145059185Y-87230347D01*
X145075819Y-87209705D01*
X145079509Y-87206015D01*
X145151984Y-87080485D01*
X145189500Y-86940475D01*
X145189500Y-86795525D01*
X145151984Y-86655515D01*
X145113499Y-86588858D01*
X145079511Y-86529988D01*
X145079506Y-86529982D01*
X145075819Y-86526295D01*
X145042334Y-86464972D01*
X145039500Y-86438614D01*
X145039500Y-73743421D01*
X147709050Y-73743421D01*
X147709050Y-73920579D01*
X147721726Y-74000610D01*
X147736764Y-74095556D01*
X147791506Y-74264039D01*
X147791507Y-74264042D01*
X147828399Y-74336445D01*
X147871936Y-74421890D01*
X147976067Y-74565214D01*
X148101336Y-74690483D01*
X148244660Y-74794614D01*
X148322079Y-74834061D01*
X148402507Y-74875042D01*
X148402510Y-74875043D01*
X148486751Y-74902414D01*
X148570995Y-74929786D01*
X148745971Y-74957500D01*
X148745972Y-74957500D01*
X148923128Y-74957500D01*
X148923129Y-74957500D01*
X149098105Y-74929786D01*
X149266592Y-74875042D01*
X149424440Y-74794614D01*
X149567764Y-74690483D01*
X149693033Y-74565214D01*
X149797164Y-74421890D01*
X149877592Y-74264042D01*
X149932336Y-74095555D01*
X149960050Y-73920579D01*
X149960050Y-73743421D01*
X156589050Y-73743421D01*
X156589050Y-73920579D01*
X156601726Y-74000610D01*
X156616764Y-74095556D01*
X156671506Y-74264039D01*
X156671507Y-74264042D01*
X156708399Y-74336445D01*
X156751936Y-74421890D01*
X156856067Y-74565214D01*
X156981336Y-74690483D01*
X157124660Y-74794614D01*
X157202079Y-74834061D01*
X157282507Y-74875042D01*
X157282510Y-74875043D01*
X157366751Y-74902414D01*
X157450995Y-74929786D01*
X157625971Y-74957500D01*
X157625972Y-74957500D01*
X157803128Y-74957500D01*
X157803129Y-74957500D01*
X157978105Y-74929786D01*
X158146592Y-74875042D01*
X158304440Y-74794614D01*
X158447764Y-74690483D01*
X158573033Y-74565214D01*
X158677164Y-74421890D01*
X158757592Y-74264042D01*
X158812336Y-74095555D01*
X158840050Y-73920579D01*
X158840050Y-73743421D01*
X158812336Y-73568445D01*
X158784964Y-73484201D01*
X158757593Y-73399960D01*
X158757592Y-73399957D01*
X158707654Y-73301949D01*
X158677164Y-73242110D01*
X158573033Y-73098786D01*
X158447764Y-72973517D01*
X158304440Y-72869386D01*
X158146592Y-72788957D01*
X158146589Y-72788956D01*
X157978106Y-72734214D01*
X157890617Y-72720357D01*
X157803129Y-72706500D01*
X157625971Y-72706500D01*
X157567645Y-72715738D01*
X157450993Y-72734214D01*
X157282510Y-72788956D01*
X157282507Y-72788957D01*
X157124659Y-72869386D01*
X157059110Y-72917011D01*
X156981336Y-72973517D01*
X156981334Y-72973519D01*
X156981333Y-72973519D01*
X156856069Y-73098783D01*
X156856069Y-73098784D01*
X156856067Y-73098786D01*
X156831075Y-73133185D01*
X156751936Y-73242109D01*
X156671507Y-73399957D01*
X156671506Y-73399960D01*
X156616764Y-73568443D01*
X156589050Y-73743421D01*
X149960050Y-73743421D01*
X149932336Y-73568445D01*
X149904964Y-73484201D01*
X149877593Y-73399960D01*
X149877592Y-73399957D01*
X149827654Y-73301949D01*
X149797164Y-73242110D01*
X149693033Y-73098786D01*
X149567764Y-72973517D01*
X149424440Y-72869386D01*
X149266592Y-72788957D01*
X149266589Y-72788956D01*
X149098106Y-72734214D01*
X149010617Y-72720357D01*
X148923129Y-72706500D01*
X148745971Y-72706500D01*
X148687645Y-72715738D01*
X148570993Y-72734214D01*
X148402510Y-72788956D01*
X148402507Y-72788957D01*
X148244659Y-72869386D01*
X148179110Y-72917011D01*
X148101336Y-72973517D01*
X148101334Y-72973519D01*
X148101333Y-72973519D01*
X147976069Y-73098783D01*
X147976069Y-73098784D01*
X147976067Y-73098786D01*
X147951075Y-73133185D01*
X147871936Y-73242109D01*
X147791507Y-73399957D01*
X147791506Y-73399960D01*
X147736764Y-73568443D01*
X147709050Y-73743421D01*
X145039500Y-73743421D01*
X145039500Y-68237932D01*
X145059185Y-68170893D01*
X145065126Y-68162444D01*
X145070058Y-68156016D01*
X145142532Y-68030488D01*
X145142531Y-68030488D01*
X145142534Y-68030485D01*
X145180050Y-67890475D01*
X145180050Y-67745525D01*
X145142534Y-67605515D01*
X145070059Y-67479985D01*
X145070058Y-67479984D01*
X145070056Y-67479980D01*
X145065123Y-67473551D01*
X145039930Y-67408382D01*
X145039500Y-67398067D01*
X145039500Y-54703421D01*
X147709050Y-54703421D01*
X147709050Y-54880578D01*
X147736764Y-55055556D01*
X147791506Y-55224039D01*
X147791507Y-55224042D01*
X147867540Y-55373263D01*
X147871936Y-55381890D01*
X147976067Y-55525214D01*
X148101336Y-55650483D01*
X148244660Y-55754614D01*
X148322079Y-55794061D01*
X148402507Y-55835042D01*
X148402510Y-55835043D01*
X148486751Y-55862414D01*
X148570995Y-55889786D01*
X148745971Y-55917500D01*
X148745972Y-55917500D01*
X148923128Y-55917500D01*
X148923129Y-55917500D01*
X149098105Y-55889786D01*
X149266592Y-55835042D01*
X149424440Y-55754614D01*
X149567764Y-55650483D01*
X149693033Y-55525214D01*
X149797164Y-55381890D01*
X149877592Y-55224042D01*
X149932336Y-55055555D01*
X149960050Y-54880579D01*
X149960050Y-54703421D01*
X156589050Y-54703421D01*
X156589050Y-54880578D01*
X156616764Y-55055556D01*
X156671506Y-55224039D01*
X156671507Y-55224042D01*
X156747540Y-55373263D01*
X156751936Y-55381890D01*
X156856067Y-55525214D01*
X156981336Y-55650483D01*
X157124660Y-55754614D01*
X157202079Y-55794061D01*
X157282507Y-55835042D01*
X157282510Y-55835043D01*
X157366751Y-55862414D01*
X157450995Y-55889786D01*
X157625971Y-55917500D01*
X157625972Y-55917500D01*
X157803128Y-55917500D01*
X157803129Y-55917500D01*
X157978105Y-55889786D01*
X158146592Y-55835042D01*
X158304440Y-55754614D01*
X158447764Y-55650483D01*
X158573033Y-55525214D01*
X158677164Y-55381890D01*
X158757592Y-55224042D01*
X158812336Y-55055555D01*
X158840050Y-54880579D01*
X158840050Y-54703421D01*
X158812336Y-54528445D01*
X158757592Y-54359958D01*
X158757592Y-54359957D01*
X158677163Y-54202109D01*
X158573033Y-54058786D01*
X158447764Y-53933517D01*
X158304440Y-53829386D01*
X158146592Y-53748957D01*
X158146589Y-53748956D01*
X157978106Y-53694214D01*
X157890617Y-53680357D01*
X157803129Y-53666500D01*
X157625971Y-53666500D01*
X157567645Y-53675738D01*
X157450993Y-53694214D01*
X157282510Y-53748956D01*
X157282507Y-53748957D01*
X157124659Y-53829386D01*
X157042888Y-53888796D01*
X156981336Y-53933517D01*
X156981334Y-53933519D01*
X156981333Y-53933519D01*
X156856069Y-54058783D01*
X156856069Y-54058784D01*
X156856067Y-54058786D01*
X156811346Y-54120338D01*
X156751936Y-54202109D01*
X156671507Y-54359957D01*
X156671506Y-54359960D01*
X156616764Y-54528443D01*
X156589050Y-54703421D01*
X149960050Y-54703421D01*
X149932336Y-54528445D01*
X149877592Y-54359958D01*
X149877592Y-54359957D01*
X149797163Y-54202109D01*
X149693033Y-54058786D01*
X149567764Y-53933517D01*
X149424440Y-53829386D01*
X149266592Y-53748957D01*
X149266589Y-53748956D01*
X149098106Y-53694214D01*
X149010617Y-53680357D01*
X148923129Y-53666500D01*
X148745971Y-53666500D01*
X148687645Y-53675738D01*
X148570993Y-53694214D01*
X148402510Y-53748956D01*
X148402507Y-53748957D01*
X148244659Y-53829386D01*
X148162888Y-53888796D01*
X148101336Y-53933517D01*
X148101334Y-53933519D01*
X148101333Y-53933519D01*
X147976069Y-54058783D01*
X147976069Y-54058784D01*
X147976067Y-54058786D01*
X147931346Y-54120338D01*
X147871936Y-54202109D01*
X147791507Y-54359957D01*
X147791506Y-54359960D01*
X147736764Y-54528443D01*
X147709050Y-54703421D01*
X145039500Y-54703421D01*
X145039500Y-49197386D01*
X145059185Y-49130347D01*
X145075819Y-49109705D01*
X145079509Y-49106015D01*
X145151984Y-48980485D01*
X145189500Y-48840475D01*
X145189500Y-48695525D01*
X145151984Y-48555515D01*
X145106941Y-48477499D01*
X145079511Y-48429988D01*
X145079506Y-48429982D01*
X144977017Y-48327493D01*
X144977011Y-48327488D01*
X144851488Y-48255017D01*
X144851489Y-48255017D01*
X144840006Y-48251940D01*
X144711475Y-48217500D01*
X144566525Y-48217500D01*
X144437993Y-48251940D01*
X144426511Y-48255017D01*
X144300988Y-48327488D01*
X144300982Y-48327493D01*
X144198493Y-48429982D01*
X144198488Y-48429988D01*
X144126017Y-48555511D01*
X144126016Y-48555515D01*
X144088500Y-48695525D01*
X144088500Y-48840475D01*
X144126016Y-48980485D01*
X144126017Y-48980488D01*
X144198488Y-49106011D01*
X144198493Y-49106017D01*
X144202181Y-49109705D01*
X144235666Y-49171028D01*
X144238500Y-49197386D01*
X144238500Y-67379164D01*
X144218815Y-67446203D01*
X144202181Y-67466845D01*
X144189043Y-67479982D01*
X144189038Y-67479988D01*
X144116567Y-67605511D01*
X144116566Y-67605515D01*
X144079050Y-67745525D01*
X144079050Y-67890475D01*
X144116566Y-68030485D01*
X144116567Y-68030488D01*
X144189038Y-68156011D01*
X144189043Y-68156017D01*
X144202181Y-68169155D01*
X144235666Y-68230478D01*
X144238500Y-68256836D01*
X144238500Y-86438614D01*
X144218815Y-86505653D01*
X144202181Y-86526295D01*
X144198493Y-86529982D01*
X144198488Y-86529988D01*
X144126017Y-86655511D01*
X144126016Y-86655515D01*
X144088500Y-86795525D01*
X144088500Y-86940475D01*
X144126016Y-87080485D01*
X144126017Y-87080488D01*
X144198488Y-87206011D01*
X144198493Y-87206017D01*
X144202181Y-87209705D01*
X144235666Y-87271028D01*
X144238500Y-87297386D01*
X144238500Y-105488614D01*
X144218815Y-105555653D01*
X144202181Y-105576295D01*
X144198493Y-105579982D01*
X144198488Y-105579988D01*
X144126017Y-105705511D01*
X144126016Y-105705515D01*
X144088500Y-105845525D01*
X144088500Y-105990475D01*
X144126016Y-106130485D01*
X144126017Y-106130488D01*
X144198488Y-106256011D01*
X144198493Y-106256017D01*
X144202181Y-106259705D01*
X144235666Y-106321028D01*
X144238500Y-106347386D01*
X144238500Y-115819345D01*
X144218815Y-115886384D01*
X144202181Y-115907026D01*
X132364522Y-127744684D01*
X132364518Y-127744690D01*
X132311792Y-127836012D01*
X132311793Y-127836013D01*
X132284500Y-127937873D01*
X132284500Y-131650614D01*
X132264815Y-131717653D01*
X132248181Y-131738295D01*
X132244493Y-131741982D01*
X132244488Y-131741988D01*
X132172017Y-131867511D01*
X132170096Y-131874679D01*
X132134500Y-132007525D01*
X122438464Y-132007525D01*
X122321405Y-131922476D01*
X122304407Y-131913815D01*
X122146029Y-131833117D01*
X121958826Y-131772290D01*
X121764422Y-131741500D01*
X121764417Y-131741500D01*
X121567583Y-131741500D01*
X121567578Y-131741500D01*
X121373173Y-131772290D01*
X121185970Y-131833117D01*
X121010594Y-131922476D01*
X120957856Y-131960793D01*
X120851354Y-132038172D01*
X120851352Y-132038174D01*
X120851351Y-132038174D01*
X120712174Y-132177351D01*
X120712174Y-132177352D01*
X120712172Y-132177354D01*
X120666624Y-132240045D01*
X120596476Y-132336594D01*
X120507117Y-132511970D01*
X120446290Y-132699173D01*
X120415500Y-132893577D01*
X117000500Y-132893577D01*
X117000500Y-126393577D01*
X120415500Y-126393577D01*
X120415500Y-126590422D01*
X120446290Y-126784826D01*
X120507117Y-126972029D01*
X120596476Y-127147405D01*
X120712172Y-127306646D01*
X120851354Y-127445828D01*
X121010595Y-127561524D01*
X121066061Y-127589785D01*
X121185970Y-127650882D01*
X121185972Y-127650882D01*
X121185975Y-127650884D01*
X121286317Y-127683487D01*
X121373173Y-127711709D01*
X121567578Y-127742500D01*
X121567583Y-127742500D01*
X121764422Y-127742500D01*
X121958826Y-127711709D01*
X122146025Y-127650884D01*
X122321405Y-127561524D01*
X122480646Y-127445828D01*
X122619828Y-127306646D01*
X122735524Y-127147405D01*
X122824884Y-126972025D01*
X122885709Y-126784826D01*
X122890345Y-126755555D01*
X122916500Y-126590422D01*
X122916500Y-126393577D01*
X122885709Y-126199173D01*
X122824882Y-126011970D01*
X122735523Y-125836594D01*
X122619828Y-125677354D01*
X122480646Y-125538172D01*
X122321405Y-125422476D01*
X122286751Y-125404819D01*
X122146029Y-125333117D01*
X121958826Y-125272290D01*
X121764422Y-125241500D01*
X121764417Y-125241500D01*
X121567583Y-125241500D01*
X121567578Y-125241500D01*
X121373173Y-125272290D01*
X121185970Y-125333117D01*
X121010594Y-125422476D01*
X120948110Y-125467874D01*
X120851354Y-125538172D01*
X120851352Y-125538174D01*
X120851351Y-125538174D01*
X120712174Y-125677351D01*
X120712174Y-125677352D01*
X120712172Y-125677354D01*
X120662485Y-125745741D01*
X120596476Y-125836594D01*
X120507117Y-126011970D01*
X120446290Y-126199173D01*
X120415500Y-126393577D01*
X117000500Y-126393577D01*
X117000500Y-95197273D01*
X118471500Y-95197273D01*
X118471500Y-118459329D01*
X118498793Y-118561192D01*
X118525156Y-118606853D01*
X118551520Y-118652516D01*
X124425484Y-124526480D01*
X124516809Y-124579207D01*
X124618670Y-124606500D01*
X126528745Y-124606500D01*
X126595784Y-124626185D01*
X126616426Y-124642819D01*
X130373181Y-128399574D01*
X130406666Y-128460897D01*
X130409500Y-128487255D01*
X130409500Y-130700614D01*
X130389815Y-130767653D01*
X130373181Y-130788295D01*
X130369493Y-130791982D01*
X130369488Y-130791988D01*
X130297017Y-130917511D01*
X130297016Y-130917515D01*
X130259500Y-131057525D01*
X130259500Y-131202475D01*
X130297016Y-131342485D01*
X130297017Y-131342488D01*
X130369488Y-131468011D01*
X130369490Y-131468013D01*
X130369491Y-131468015D01*
X130471985Y-131570509D01*
X130471986Y-131570510D01*
X130471988Y-131570511D01*
X130597511Y-131642982D01*
X130597512Y-131642982D01*
X130597515Y-131642984D01*
X130737525Y-131680500D01*
X130737528Y-131680500D01*
X130882472Y-131680500D01*
X130882475Y-131680500D01*
X131022485Y-131642984D01*
X131148015Y-131570509D01*
X131250509Y-131468015D01*
X131322984Y-131342485D01*
X131360500Y-131202475D01*
X131360500Y-131057525D01*
X131322984Y-130917515D01*
X131320106Y-130912531D01*
X131250511Y-130791988D01*
X131250506Y-130791982D01*
X131246819Y-130788295D01*
X131213334Y-130726972D01*
X131210500Y-130700614D01*
X131210500Y-128217275D01*
X131210500Y-128217273D01*
X131183207Y-128115413D01*
X131183207Y-128115412D01*
X131130480Y-128024087D01*
X126991913Y-123885520D01*
X126946250Y-123859156D01*
X126900589Y-123832793D01*
X126849657Y-123819146D01*
X126798727Y-123805500D01*
X126798726Y-123805500D01*
X124888652Y-123805500D01*
X124821613Y-123785815D01*
X124800971Y-123769181D01*
X124579971Y-123548181D01*
X124546486Y-123486858D01*
X124551470Y-123417166D01*
X124593342Y-123361233D01*
X124658806Y-123336816D01*
X124667652Y-123336500D01*
X129822725Y-123336500D01*
X129822727Y-123336500D01*
X129924588Y-123309207D01*
X130015913Y-123256480D01*
X130740399Y-122531992D01*
X130795986Y-122499900D01*
X130891183Y-122474393D01*
X130891183Y-122474392D01*
X130891186Y-122474392D01*
X131005314Y-122408500D01*
X131098500Y-122315314D01*
X131164392Y-122201186D01*
X131198500Y-122073892D01*
X131198500Y-121942108D01*
X131164392Y-121814814D01*
X131098500Y-121700686D01*
X131005314Y-121607500D01*
X130926369Y-121561921D01*
X130891187Y-121541608D01*
X130767284Y-121508409D01*
X130763892Y-121507500D01*
X130632108Y-121507500D01*
X130504812Y-121541608D01*
X130390686Y-121607500D01*
X130390683Y-121607502D01*
X130297502Y-121700683D01*
X130297500Y-121700686D01*
X130231607Y-121814814D01*
X130231607Y-121814815D01*
X130206098Y-121910014D01*
X130174005Y-121965600D01*
X129640426Y-122499181D01*
X129579103Y-122532666D01*
X129552745Y-122535500D01*
X128685909Y-122535500D01*
X128618870Y-122515815D01*
X128573115Y-122463011D01*
X128563171Y-122393853D01*
X128592196Y-122330297D01*
X128650974Y-122292523D01*
X128653795Y-122291730D01*
X128689679Y-122282116D01*
X128781004Y-122229389D01*
X129117663Y-121892728D01*
X129173252Y-121860635D01*
X129268448Y-121835128D01*
X129268448Y-121835127D01*
X129268451Y-121835127D01*
X129382579Y-121769235D01*
X129475765Y-121676049D01*
X129541657Y-121561921D01*
X129575765Y-121434627D01*
X129575765Y-121302843D01*
X129541657Y-121175549D01*
X129475765Y-121061421D01*
X129382579Y-120968235D01*
X129277226Y-120907409D01*
X129268452Y-120902343D01*
X129204804Y-120885289D01*
X129141157Y-120868235D01*
X129009373Y-120868235D01*
X128882077Y-120902343D01*
X128767951Y-120968235D01*
X128767948Y-120968237D01*
X128674767Y-121061418D01*
X128674765Y-121061421D01*
X128608872Y-121175549D01*
X128608872Y-121175550D01*
X128583363Y-121270749D01*
X128575346Y-121284633D01*
X128572422Y-121298080D01*
X128551270Y-121326335D01*
X128405515Y-121472091D01*
X128344195Y-121505575D01*
X128317836Y-121508409D01*
X126141256Y-121508409D01*
X126074217Y-121488724D01*
X126028462Y-121435920D01*
X126018518Y-121366762D01*
X126045983Y-121306620D01*
X126045531Y-121306273D01*
X126047041Y-121304304D01*
X126047543Y-121303206D01*
X126049482Y-121301123D01*
X126050475Y-121299829D01*
X126050477Y-121299824D01*
X126050480Y-121299822D01*
X126103207Y-121208497D01*
X126130500Y-121106636D01*
X126130500Y-121057494D01*
X126150185Y-120990455D01*
X126202989Y-120944700D01*
X126272147Y-120934756D01*
X126335703Y-120963781D01*
X126342181Y-120969813D01*
X126430777Y-121058409D01*
X126544905Y-121124301D01*
X126672199Y-121158409D01*
X126672201Y-121158409D01*
X126803981Y-121158409D01*
X126803983Y-121158409D01*
X126931277Y-121124301D01*
X127045405Y-121058409D01*
X127138591Y-120965223D01*
X127204483Y-120851095D01*
X127207050Y-120841517D01*
X127229990Y-120755897D01*
X127262083Y-120700309D01*
X127320480Y-120641913D01*
X127373207Y-120550588D01*
X127400500Y-120448727D01*
X127400500Y-120343273D01*
X127400500Y-107274539D01*
X127417112Y-107212540D01*
X127466392Y-107127186D01*
X127500500Y-106999892D01*
X127500500Y-106868108D01*
X127466392Y-106740814D01*
X127417113Y-106655460D01*
X127400500Y-106593460D01*
X127400500Y-103163275D01*
X127400500Y-103163273D01*
X127373207Y-103061413D01*
X127373207Y-103061412D01*
X127320480Y-102970087D01*
X126166819Y-101816426D01*
X126133334Y-101755103D01*
X126130500Y-101728745D01*
X126130500Y-97836446D01*
X126150185Y-97769407D01*
X126202989Y-97723652D01*
X126272147Y-97713708D01*
X126297834Y-97720265D01*
X126403694Y-97759749D01*
X126403697Y-97759749D01*
X126403701Y-97759751D01*
X126431984Y-97762791D01*
X126461809Y-97765999D01*
X126461826Y-97766000D01*
X127030174Y-97766000D01*
X127030190Y-97765999D01*
X127088299Y-97759751D01*
X127088304Y-97759749D01*
X127219778Y-97710712D01*
X127332116Y-97626616D01*
X127392234Y-97546307D01*
X127448167Y-97504438D01*
X127517859Y-97499454D01*
X127579182Y-97532939D01*
X127612666Y-97594263D01*
X127615500Y-97620620D01*
X127615500Y-100444726D01*
X127642793Y-100546589D01*
X127669156Y-100592250D01*
X127695520Y-100637913D01*
X128908107Y-101850500D01*
X130111181Y-103053573D01*
X130144666Y-103114896D01*
X130147500Y-103141254D01*
X130147500Y-103146475D01*
X130152002Y-103163275D01*
X130185017Y-103286488D01*
X130257488Y-103412011D01*
X130257493Y-103412017D01*
X130261181Y-103415705D01*
X130294666Y-103477028D01*
X130297500Y-103503386D01*
X130297500Y-114328614D01*
X130277815Y-114395653D01*
X130261181Y-114416295D01*
X130257493Y-114419982D01*
X130257488Y-114419988D01*
X130185017Y-114545511D01*
X130185016Y-114545515D01*
X130147500Y-114685525D01*
X130147500Y-114830475D01*
X130185016Y-114970485D01*
X130185017Y-114970488D01*
X130257488Y-115096011D01*
X130257490Y-115096013D01*
X130257491Y-115096015D01*
X130359985Y-115198509D01*
X130359986Y-115198510D01*
X130359988Y-115198511D01*
X130485511Y-115270982D01*
X130485512Y-115270982D01*
X130485515Y-115270984D01*
X130625525Y-115308500D01*
X130625528Y-115308500D01*
X130770472Y-115308500D01*
X130770475Y-115308500D01*
X130910485Y-115270984D01*
X131036015Y-115198509D01*
X131138509Y-115096015D01*
X131210984Y-114970485D01*
X131248500Y-114830475D01*
X131248500Y-114685525D01*
X131210984Y-114545515D01*
X131138509Y-114419985D01*
X131134819Y-114416295D01*
X131101334Y-114354972D01*
X131098500Y-114328614D01*
X131098500Y-111823421D01*
X137549050Y-111823421D01*
X137549050Y-112000578D01*
X137576764Y-112175556D01*
X137631506Y-112344039D01*
X137631507Y-112344042D01*
X137711936Y-112501890D01*
X137816067Y-112645214D01*
X137941336Y-112770483D01*
X138084660Y-112874614D01*
X138162079Y-112914061D01*
X138242507Y-112955042D01*
X138242510Y-112955043D01*
X138326751Y-112982414D01*
X138410995Y-113009786D01*
X138585971Y-113037500D01*
X138585972Y-113037500D01*
X138763128Y-113037500D01*
X138763129Y-113037500D01*
X138938105Y-113009786D01*
X139106592Y-112955042D01*
X139264440Y-112874614D01*
X139407764Y-112770483D01*
X139533033Y-112645214D01*
X139637164Y-112501890D01*
X139717592Y-112344042D01*
X139772336Y-112175555D01*
X139800050Y-112000579D01*
X139800050Y-111823421D01*
X139772336Y-111648445D01*
X139721265Y-111491261D01*
X139717593Y-111479960D01*
X139717592Y-111479957D01*
X139671456Y-111389411D01*
X139637164Y-111322110D01*
X139533033Y-111178786D01*
X139407764Y-111053517D01*
X139264440Y-110949386D01*
X139255210Y-110944683D01*
X139106592Y-110868957D01*
X139106589Y-110868956D01*
X138938106Y-110814214D01*
X138850617Y-110800357D01*
X138763129Y-110786500D01*
X138585971Y-110786500D01*
X138527645Y-110795738D01*
X138410993Y-110814214D01*
X138242510Y-110868956D01*
X138242507Y-110868957D01*
X138084659Y-110949386D01*
X138022019Y-110994897D01*
X137941336Y-111053517D01*
X137941334Y-111053519D01*
X137941333Y-111053519D01*
X137816069Y-111178783D01*
X137816069Y-111178784D01*
X137816067Y-111178786D01*
X137810749Y-111186106D01*
X137711936Y-111322109D01*
X137631507Y-111479957D01*
X137631506Y-111479960D01*
X137576764Y-111648443D01*
X137549050Y-111823421D01*
X131098500Y-111823421D01*
X131098500Y-110252500D01*
X131118185Y-110185461D01*
X131170989Y-110139706D01*
X131222500Y-110128500D01*
X141309245Y-110128500D01*
X141376284Y-110148185D01*
X141396926Y-110164819D01*
X142165681Y-110933574D01*
X142199166Y-110994897D01*
X142202000Y-111021255D01*
X142202000Y-111026475D01*
X142239132Y-111165051D01*
X142239517Y-111166488D01*
X142311988Y-111292011D01*
X142311990Y-111292013D01*
X142311991Y-111292015D01*
X142414485Y-111394509D01*
X142414486Y-111394510D01*
X142414488Y-111394511D01*
X142540011Y-111466982D01*
X142540012Y-111466982D01*
X142540015Y-111466984D01*
X142680025Y-111504500D01*
X142680028Y-111504500D01*
X142824972Y-111504500D01*
X142824975Y-111504500D01*
X142964985Y-111466984D01*
X143090515Y-111394509D01*
X143193009Y-111292015D01*
X143265484Y-111166485D01*
X143303000Y-111026475D01*
X143303000Y-110881525D01*
X143265484Y-110741515D01*
X143255134Y-110723589D01*
X143193011Y-110615988D01*
X143193006Y-110615982D01*
X143090517Y-110513493D01*
X143090511Y-110513488D01*
X142964988Y-110441017D01*
X142964989Y-110441017D01*
X142953506Y-110437940D01*
X142824975Y-110403500D01*
X142824972Y-110403500D01*
X142819755Y-110403500D01*
X142752716Y-110383815D01*
X142732074Y-110367181D01*
X141772415Y-109407522D01*
X141772413Y-109407520D01*
X141726750Y-109381156D01*
X141681089Y-109354793D01*
X141630157Y-109341146D01*
X141579227Y-109327500D01*
X141579226Y-109327500D01*
X131222500Y-109327500D01*
X131155461Y-109307815D01*
X131109706Y-109255011D01*
X131098500Y-109203500D01*
X131098500Y-103598500D01*
X131118185Y-103531461D01*
X131170989Y-103485706D01*
X131222500Y-103474500D01*
X136478745Y-103474500D01*
X136545784Y-103494185D01*
X136566426Y-103510819D01*
X138953181Y-105897574D01*
X138986666Y-105958897D01*
X138989500Y-105985255D01*
X138989500Y-105990475D01*
X139027016Y-106130485D01*
X139027017Y-106130488D01*
X139099488Y-106256011D01*
X139099490Y-106256013D01*
X139099491Y-106256015D01*
X139201985Y-106358509D01*
X139201986Y-106358510D01*
X139201988Y-106358511D01*
X139327511Y-106430982D01*
X139327512Y-106430982D01*
X139327515Y-106430984D01*
X139467525Y-106468500D01*
X139467528Y-106468500D01*
X139612472Y-106468500D01*
X139612475Y-106468500D01*
X139752485Y-106430984D01*
X139878015Y-106358509D01*
X139980509Y-106256015D01*
X140052984Y-106130485D01*
X140090500Y-105990475D01*
X140090500Y-105845525D01*
X140052984Y-105705515D01*
X139980509Y-105579985D01*
X139878015Y-105477491D01*
X139878013Y-105477490D01*
X139878011Y-105477488D01*
X139752488Y-105405017D01*
X139752489Y-105405017D01*
X139741006Y-105401940D01*
X139612475Y-105367500D01*
X139612472Y-105367500D01*
X139607255Y-105367500D01*
X139540216Y-105347815D01*
X139519574Y-105331181D01*
X136941915Y-102753522D01*
X136941913Y-102753520D01*
X136896250Y-102727156D01*
X136850589Y-102700793D01*
X136799657Y-102687146D01*
X136748727Y-102673500D01*
X136748726Y-102673500D01*
X131127386Y-102673500D01*
X131060347Y-102653815D01*
X131039705Y-102637181D01*
X131036017Y-102633493D01*
X131036011Y-102633488D01*
X130910488Y-102561017D01*
X130910489Y-102561017D01*
X130899006Y-102557940D01*
X130770475Y-102523500D01*
X130770472Y-102523500D01*
X130765254Y-102523500D01*
X130698215Y-102503815D01*
X130677573Y-102487181D01*
X128452819Y-100262426D01*
X128419334Y-100201103D01*
X128416500Y-100174745D01*
X128416500Y-99169864D01*
X128436185Y-99102825D01*
X128488989Y-99057070D01*
X128558147Y-99047126D01*
X128621703Y-99076151D01*
X128647887Y-99107864D01*
X128670491Y-99147015D01*
X128772985Y-99249509D01*
X128772986Y-99249510D01*
X128772988Y-99249511D01*
X128898511Y-99321982D01*
X128898512Y-99321982D01*
X128898515Y-99321984D01*
X129038525Y-99359500D01*
X129038528Y-99359500D01*
X129183472Y-99359500D01*
X129183475Y-99359500D01*
X129323485Y-99321984D01*
X129449002Y-99249516D01*
X129516899Y-99233044D01*
X129572996Y-99249515D01*
X129698515Y-99321984D01*
X129838525Y-99359500D01*
X129838528Y-99359500D01*
X129983472Y-99359500D01*
X129983475Y-99359500D01*
X130123485Y-99321984D01*
X130249015Y-99249509D01*
X130351509Y-99147015D01*
X130423984Y-99021485D01*
X130461500Y-98881475D01*
X130461500Y-98805544D01*
X130481185Y-98738505D01*
X130497819Y-98717863D01*
X131504972Y-97710710D01*
X132521470Y-96694212D01*
X132567614Y-96614288D01*
X132591500Y-96525144D01*
X132591500Y-93374397D01*
X132611185Y-93307358D01*
X132663989Y-93261603D01*
X132733147Y-93251659D01*
X132747575Y-93254618D01*
X132769525Y-93260500D01*
X132769528Y-93260500D01*
X132914472Y-93260500D01*
X132914475Y-93260500D01*
X133054485Y-93222984D01*
X133180015Y-93150509D01*
X133282509Y-93048015D01*
X133354984Y-92922485D01*
X133392500Y-92782475D01*
X133392500Y-92777255D01*
X133412185Y-92710216D01*
X133428819Y-92689574D01*
X134241574Y-91876819D01*
X134302897Y-91843334D01*
X134329255Y-91840500D01*
X137814991Y-91840500D01*
X137882030Y-91860185D01*
X137927785Y-91912989D01*
X137937729Y-91982147D01*
X137908704Y-92045703D01*
X137902672Y-92052181D01*
X137816069Y-92138783D01*
X137816069Y-92138784D01*
X137816067Y-92138786D01*
X137773760Y-92197016D01*
X137711936Y-92282109D01*
X137631507Y-92439957D01*
X137631506Y-92439960D01*
X137576764Y-92608443D01*
X137549050Y-92783421D01*
X137549050Y-92960578D01*
X137576764Y-93135556D01*
X137631506Y-93304039D01*
X137631507Y-93304042D01*
X137703422Y-93445181D01*
X137711936Y-93461890D01*
X137816067Y-93605214D01*
X137941336Y-93730483D01*
X138084660Y-93834614D01*
X138156426Y-93871181D01*
X138242507Y-93915042D01*
X138242510Y-93915043D01*
X138326751Y-93942414D01*
X138410995Y-93969786D01*
X138585971Y-93997500D01*
X138585972Y-93997500D01*
X138763128Y-93997500D01*
X138763129Y-93997500D01*
X138938105Y-93969786D01*
X139106592Y-93915042D01*
X139264440Y-93834614D01*
X139407764Y-93730483D01*
X139533033Y-93605214D01*
X139637164Y-93461890D01*
X139717592Y-93304042D01*
X139772336Y-93135555D01*
X139800050Y-92960579D01*
X139800050Y-92783421D01*
X139772336Y-92608445D01*
X139717592Y-92439958D01*
X139717592Y-92439957D01*
X139668958Y-92344509D01*
X139637164Y-92282110D01*
X139533033Y-92138786D01*
X139446428Y-92052181D01*
X139412943Y-91990858D01*
X139417927Y-91921166D01*
X139459799Y-91865233D01*
X139525263Y-91840816D01*
X139534109Y-91840500D01*
X141006745Y-91840500D01*
X141073784Y-91860185D01*
X141094426Y-91876819D01*
X141442087Y-92224480D01*
X141533412Y-92277207D01*
X141635273Y-92304500D01*
X142323114Y-92304500D01*
X142390153Y-92324185D01*
X142410795Y-92340819D01*
X142414485Y-92344509D01*
X142414486Y-92344510D01*
X142414488Y-92344511D01*
X142540011Y-92416982D01*
X142540012Y-92416982D01*
X142540015Y-92416984D01*
X142680025Y-92454500D01*
X142680028Y-92454500D01*
X142824972Y-92454500D01*
X142824975Y-92454500D01*
X142964985Y-92416984D01*
X143090515Y-92344509D01*
X143193009Y-92242015D01*
X143265484Y-92116485D01*
X143303000Y-91976475D01*
X143303000Y-91831525D01*
X143265484Y-91691515D01*
X143193009Y-91565985D01*
X143090515Y-91463491D01*
X143090513Y-91463490D01*
X143090511Y-91463488D01*
X142964988Y-91391017D01*
X142964989Y-91391017D01*
X142953506Y-91387940D01*
X142824975Y-91353500D01*
X142680025Y-91353500D01*
X142551493Y-91387940D01*
X142540011Y-91391017D01*
X142414488Y-91463488D01*
X142414482Y-91463493D01*
X142410795Y-91467181D01*
X142349472Y-91500666D01*
X142323114Y-91503500D01*
X141905255Y-91503500D01*
X141838216Y-91483815D01*
X141817574Y-91467181D01*
X141469915Y-91119522D01*
X141469913Y-91119520D01*
X141424250Y-91093156D01*
X141378589Y-91066793D01*
X141327657Y-91053146D01*
X141276727Y-91039500D01*
X134164727Y-91039500D01*
X134059273Y-91039500D01*
X133957410Y-91066793D01*
X133866087Y-91119520D01*
X133866084Y-91119522D01*
X132862426Y-92123181D01*
X132801103Y-92156666D01*
X132795588Y-92157736D01*
X132785243Y-92159500D01*
X132769525Y-92159500D01*
X132742020Y-92166869D01*
X132736343Y-92167838D01*
X132707136Y-92164413D01*
X132677743Y-92163714D01*
X132672835Y-92160392D01*
X132666948Y-92159702D01*
X132644228Y-92141030D01*
X132619881Y-92124551D01*
X132617548Y-92119103D01*
X132612969Y-92115340D01*
X132603951Y-92087351D01*
X132592377Y-92060323D01*
X132591726Y-92049410D01*
X132591542Y-92048837D01*
X132591665Y-92048373D01*
X132591500Y-92045602D01*
X132591500Y-86262397D01*
X132611185Y-86195358D01*
X132663989Y-86149603D01*
X132733147Y-86139659D01*
X132747575Y-86142618D01*
X132769525Y-86148500D01*
X132769528Y-86148500D01*
X132914472Y-86148500D01*
X132914475Y-86148500D01*
X133054485Y-86110984D01*
X133180015Y-86038509D01*
X133183705Y-86034819D01*
X133245028Y-86001334D01*
X133271386Y-85998500D01*
X138569328Y-85998500D01*
X138636367Y-86018185D01*
X138676715Y-86060500D01*
X138693190Y-86089035D01*
X138751491Y-86190015D01*
X138853985Y-86292509D01*
X138853986Y-86292510D01*
X138853988Y-86292511D01*
X138979511Y-86364982D01*
X138979512Y-86364982D01*
X138979515Y-86364984D01*
X139119525Y-86402500D01*
X139119528Y-86402500D01*
X139264472Y-86402500D01*
X139264475Y-86402500D01*
X139404485Y-86364984D01*
X139530015Y-86292509D01*
X139632509Y-86190015D01*
X139704984Y-86064485D01*
X139742500Y-85924475D01*
X139742500Y-85779525D01*
X139704984Y-85639515D01*
X139677516Y-85591940D01*
X139632511Y-85513988D01*
X139632506Y-85513982D01*
X139530017Y-85411493D01*
X139530011Y-85411488D01*
X139404488Y-85339017D01*
X139404489Y-85339017D01*
X139393006Y-85335940D01*
X139264475Y-85301500D01*
X139264472Y-85301500D01*
X139257256Y-85301500D01*
X139190217Y-85281815D01*
X139185009Y-85278153D01*
X139092589Y-85224793D01*
X139041657Y-85211146D01*
X138990727Y-85197500D01*
X138990726Y-85197500D01*
X133271386Y-85197500D01*
X133204347Y-85177815D01*
X133183705Y-85161181D01*
X133180017Y-85157493D01*
X133180011Y-85157488D01*
X133054488Y-85085017D01*
X133054489Y-85085017D01*
X133043006Y-85081940D01*
X132914475Y-85047500D01*
X132769525Y-85047500D01*
X132747592Y-85053376D01*
X132677743Y-85051714D01*
X132619881Y-85012551D01*
X132592377Y-84948323D01*
X132591500Y-84933602D01*
X132591500Y-74012858D01*
X132591500Y-74012856D01*
X132567614Y-73923712D01*
X132565805Y-73920579D01*
X132521470Y-73843788D01*
X132421103Y-73743421D01*
X137549050Y-73743421D01*
X137549050Y-73920579D01*
X137561726Y-74000610D01*
X137576764Y-74095556D01*
X137631506Y-74264039D01*
X137631507Y-74264042D01*
X137668399Y-74336445D01*
X137711936Y-74421890D01*
X137816067Y-74565214D01*
X137941336Y-74690483D01*
X138084660Y-74794614D01*
X138162079Y-74834061D01*
X138242507Y-74875042D01*
X138242510Y-74875043D01*
X138326751Y-74902414D01*
X138410995Y-74929786D01*
X138585971Y-74957500D01*
X138585972Y-74957500D01*
X138763128Y-74957500D01*
X138763129Y-74957500D01*
X138938105Y-74929786D01*
X139106592Y-74875042D01*
X139264440Y-74794614D01*
X139407764Y-74690483D01*
X139533033Y-74565214D01*
X139637164Y-74421890D01*
X139717592Y-74264042D01*
X139772336Y-74095555D01*
X139800050Y-73920579D01*
X139800050Y-73743421D01*
X139772336Y-73568445D01*
X139744964Y-73484201D01*
X139717593Y-73399960D01*
X139717592Y-73399957D01*
X139667654Y-73301949D01*
X139637164Y-73242110D01*
X139533033Y-73098786D01*
X139407764Y-72973517D01*
X139264440Y-72869386D01*
X139106592Y-72788957D01*
X139106589Y-72788956D01*
X138938106Y-72734214D01*
X138850617Y-72720357D01*
X138763129Y-72706500D01*
X138585971Y-72706500D01*
X138527645Y-72715738D01*
X138410993Y-72734214D01*
X138242510Y-72788956D01*
X138242507Y-72788957D01*
X138084659Y-72869386D01*
X138019110Y-72917011D01*
X137941336Y-72973517D01*
X137941334Y-72973519D01*
X137941333Y-72973519D01*
X137816069Y-73098783D01*
X137816069Y-73098784D01*
X137816067Y-73098786D01*
X137791075Y-73133185D01*
X137711936Y-73242109D01*
X137631507Y-73399957D01*
X137631506Y-73399960D01*
X137576764Y-73568443D01*
X137549050Y-73743421D01*
X132421103Y-73743421D01*
X131160212Y-72482530D01*
X131160211Y-72482529D01*
X131160208Y-72482527D01*
X131080290Y-72436387D01*
X131080289Y-72436386D01*
X131080288Y-72436386D01*
X130991144Y-72412500D01*
X126731096Y-72412500D01*
X126641952Y-72436386D01*
X126641951Y-72436386D01*
X126641949Y-72436387D01*
X126641946Y-72436388D01*
X126562034Y-72482526D01*
X126562025Y-72482533D01*
X125822531Y-73222026D01*
X125822527Y-73222031D01*
X125776387Y-73301949D01*
X125776386Y-73301952D01*
X125752500Y-73391096D01*
X125752500Y-77889144D01*
X125765916Y-77939213D01*
X125776385Y-77978286D01*
X125822527Y-78058208D01*
X125822531Y-78058213D01*
X126205347Y-78441029D01*
X126238832Y-78502352D01*
X126235597Y-78567028D01*
X126180597Y-78736301D01*
X126157539Y-78881890D01*
X126153500Y-78907389D01*
X126153500Y-79080611D01*
X126180598Y-79251701D01*
X126234127Y-79416445D01*
X126312768Y-79570788D01*
X126414586Y-79710928D01*
X126537072Y-79833414D01*
X126677212Y-79935232D01*
X126831555Y-80013873D01*
X126996299Y-80067402D01*
X127167389Y-80094500D01*
X127167390Y-80094500D01*
X127340610Y-80094500D01*
X127340611Y-80094500D01*
X127511701Y-80067402D01*
X127676445Y-80013873D01*
X127830788Y-79935232D01*
X127970928Y-79833414D01*
X127970930Y-79833411D01*
X127974869Y-79830550D01*
X127975909Y-79831982D01*
X128032704Y-79806520D01*
X128101792Y-79816942D01*
X128154278Y-79863062D01*
X128173500Y-79929377D01*
X128173500Y-80598622D01*
X128153815Y-80665661D01*
X128101011Y-80711416D01*
X128031853Y-80721360D01*
X127975888Y-80696046D01*
X127974869Y-80697450D01*
X127970930Y-80694588D01*
X127970928Y-80694586D01*
X127830788Y-80592768D01*
X127676445Y-80514127D01*
X127511701Y-80460598D01*
X127511699Y-80460597D01*
X127511698Y-80460597D01*
X127380271Y-80439781D01*
X127340611Y-80433500D01*
X127167389Y-80433500D01*
X127127728Y-80439781D01*
X126996302Y-80460597D01*
X126831552Y-80514128D01*
X126677211Y-80592768D01*
X126619528Y-80634678D01*
X126537072Y-80694586D01*
X126537070Y-80694588D01*
X126537069Y-80694588D01*
X126414588Y-80817069D01*
X126414588Y-80817070D01*
X126414586Y-80817072D01*
X126370859Y-80877256D01*
X126312768Y-80957211D01*
X126234128Y-81111552D01*
X126180597Y-81276302D01*
X126153500Y-81447389D01*
X126153500Y-81620611D01*
X126180598Y-81791701D01*
X126234127Y-81956445D01*
X126312768Y-82110788D01*
X126414586Y-82250928D01*
X126537072Y-82373414D01*
X126589938Y-82411824D01*
X126632604Y-82467152D01*
X126638583Y-82536766D01*
X126605978Y-82598561D01*
X126604734Y-82599822D01*
X124030531Y-85174026D01*
X124030529Y-85174029D01*
X124001222Y-85224792D01*
X124001220Y-85224794D01*
X123984388Y-85253946D01*
X123984387Y-85253949D01*
X123984386Y-85253951D01*
X123984386Y-85253952D01*
X123976920Y-85281815D01*
X123960500Y-85343096D01*
X123960500Y-89979614D01*
X123940815Y-90046653D01*
X123924181Y-90067295D01*
X123870493Y-90120982D01*
X123870488Y-90120988D01*
X123798017Y-90246511D01*
X123798016Y-90246515D01*
X123760500Y-90386525D01*
X123760500Y-90531475D01*
X123798016Y-90671485D01*
X123798017Y-90671488D01*
X123870488Y-90797011D01*
X123870490Y-90797013D01*
X123870491Y-90797015D01*
X123972985Y-90899509D01*
X123972986Y-90899510D01*
X123972988Y-90899511D01*
X124098511Y-90971982D01*
X124098512Y-90971982D01*
X124098515Y-90971984D01*
X124238525Y-91009500D01*
X124238528Y-91009500D01*
X124383472Y-91009500D01*
X124383475Y-91009500D01*
X124523485Y-90971984D01*
X124649002Y-90899516D01*
X124716899Y-90883044D01*
X124772996Y-90899515D01*
X124898515Y-90971984D01*
X125038525Y-91009500D01*
X125038528Y-91009500D01*
X125183472Y-91009500D01*
X125183475Y-91009500D01*
X125323485Y-90971984D01*
X125449015Y-90899509D01*
X125551509Y-90797015D01*
X125623984Y-90671485D01*
X125661500Y-90531475D01*
X125661500Y-90386525D01*
X125623984Y-90246515D01*
X125551509Y-90120985D01*
X125497819Y-90067295D01*
X125464334Y-90005972D01*
X125461500Y-89979614D01*
X125461500Y-87325784D01*
X125481185Y-87258745D01*
X125497819Y-87238103D01*
X126886103Y-85849819D01*
X126947426Y-85816334D01*
X126973784Y-85813500D01*
X127776902Y-85813500D01*
X127776904Y-85813500D01*
X127866048Y-85789614D01*
X127945972Y-85743470D01*
X127961819Y-85727622D01*
X128023139Y-85694137D01*
X128092831Y-85699120D01*
X128148765Y-85740990D01*
X128173184Y-85806454D01*
X128173500Y-85815303D01*
X128173500Y-93518144D01*
X128181465Y-93547871D01*
X128196826Y-93605201D01*
X128197384Y-93607285D01*
X128197386Y-93607288D01*
X128243530Y-93687212D01*
X128391182Y-93834863D01*
X128424666Y-93896185D01*
X128427500Y-93922543D01*
X128427500Y-94262614D01*
X128407815Y-94329653D01*
X128402689Y-94337029D01*
X128397408Y-94344067D01*
X128337491Y-94403985D01*
X128287513Y-94490547D01*
X128283040Y-94496511D01*
X128260779Y-94513138D01*
X128240670Y-94532312D01*
X128233175Y-94533756D01*
X128227062Y-94538323D01*
X128199346Y-94540275D01*
X128172063Y-94545534D01*
X128164978Y-94542697D01*
X128157365Y-94543234D01*
X128132991Y-94529891D01*
X128107199Y-94519566D01*
X128096170Y-94509777D01*
X128096079Y-94509686D01*
X126098913Y-92512520D01*
X126053250Y-92486156D01*
X126007589Y-92459793D01*
X125956657Y-92446146D01*
X125905727Y-92432500D01*
X121341727Y-92432500D01*
X121236273Y-92432500D01*
X121134410Y-92459793D01*
X121043087Y-92512520D01*
X121043084Y-92512522D01*
X118551522Y-95004084D01*
X118551518Y-95004090D01*
X118498792Y-95095412D01*
X118498793Y-95095413D01*
X118471500Y-95197273D01*
X117000500Y-95197273D01*
X117000500Y-70793525D01*
X124564425Y-70793525D01*
X124564425Y-70938475D01*
X124595230Y-71053440D01*
X124601942Y-71078488D01*
X124604984Y-71085831D01*
X124606611Y-71094010D01*
X124609402Y-71098353D01*
X124614425Y-71133288D01*
X124614425Y-71360710D01*
X124604988Y-71408159D01*
X124601941Y-71415513D01*
X124583183Y-71485520D01*
X124564425Y-71555525D01*
X124564425Y-71700475D01*
X124586395Y-71782466D01*
X124601942Y-71840488D01*
X124674413Y-71966011D01*
X124674415Y-71966013D01*
X124674416Y-71966015D01*
X124776910Y-72068509D01*
X124776911Y-72068510D01*
X124776913Y-72068511D01*
X124902436Y-72140982D01*
X124902437Y-72140982D01*
X124902440Y-72140984D01*
X125042450Y-72178500D01*
X125042453Y-72178500D01*
X125187397Y-72178500D01*
X125187400Y-72178500D01*
X125327410Y-72140984D01*
X125452940Y-72068509D01*
X125555434Y-71966015D01*
X125627909Y-71840485D01*
X125665425Y-71700475D01*
X125665425Y-71555525D01*
X125627909Y-71415515D01*
X125627908Y-71415513D01*
X125624862Y-71408159D01*
X125623235Y-71399983D01*
X125620448Y-71395645D01*
X125615425Y-71360710D01*
X125615425Y-71133288D01*
X125624866Y-71085831D01*
X125627907Y-71078488D01*
X125627906Y-71078488D01*
X125627909Y-71078485D01*
X125665425Y-70938475D01*
X125665425Y-70793525D01*
X125627909Y-70653515D01*
X125627908Y-70653513D01*
X125624862Y-70646159D01*
X125615425Y-70598710D01*
X125615425Y-66983525D01*
X132037500Y-66983525D01*
X132037500Y-67128475D01*
X132075016Y-67268485D01*
X132075017Y-67268488D01*
X132147488Y-67394011D01*
X132147490Y-67394013D01*
X132147491Y-67394015D01*
X132249985Y-67496509D01*
X132249986Y-67496510D01*
X132249988Y-67496511D01*
X132375511Y-67568982D01*
X132375512Y-67568982D01*
X132375515Y-67568984D01*
X132515525Y-67606500D01*
X132515528Y-67606500D01*
X132660472Y-67606500D01*
X132660475Y-67606500D01*
X132800485Y-67568984D01*
X132926015Y-67496509D01*
X132929705Y-67492819D01*
X132991028Y-67459334D01*
X133017386Y-67456500D01*
X136730614Y-67456500D01*
X136797653Y-67476185D01*
X136818295Y-67492819D01*
X136821985Y-67496509D01*
X136821986Y-67496510D01*
X136821988Y-67496511D01*
X136947511Y-67568982D01*
X136947512Y-67568982D01*
X136947515Y-67568984D01*
X137087525Y-67606500D01*
X137087528Y-67606500D01*
X137232472Y-67606500D01*
X137232475Y-67606500D01*
X137372485Y-67568984D01*
X137498015Y-67496509D01*
X137600509Y-67394015D01*
X137672984Y-67268485D01*
X137710500Y-67128475D01*
X137710500Y-66983525D01*
X137672984Y-66843515D01*
X137600509Y-66717985D01*
X137498015Y-66615491D01*
X137498013Y-66615490D01*
X137498011Y-66615488D01*
X137372488Y-66543017D01*
X137372489Y-66543017D01*
X137361006Y-66539940D01*
X137232475Y-66505500D01*
X137087525Y-66505500D01*
X136958993Y-66539940D01*
X136947511Y-66543017D01*
X136821988Y-66615488D01*
X136821982Y-66615493D01*
X136818295Y-66619181D01*
X136756972Y-66652666D01*
X136730614Y-66655500D01*
X133017386Y-66655500D01*
X132950347Y-66635815D01*
X132929705Y-66619181D01*
X132926017Y-66615493D01*
X132926011Y-66615488D01*
X132800488Y-66543017D01*
X132800489Y-66543017D01*
X132789006Y-66539940D01*
X132660475Y-66505500D01*
X132515525Y-66505500D01*
X132386993Y-66539940D01*
X132375511Y-66543017D01*
X132249988Y-66615488D01*
X132249982Y-66615493D01*
X132147493Y-66717982D01*
X132147488Y-66717988D01*
X132075017Y-66843511D01*
X132075016Y-66843515D01*
X132037500Y-66983525D01*
X125615425Y-66983525D01*
X125615425Y-65135751D01*
X125635110Y-65068712D01*
X125651744Y-65048070D01*
X128490995Y-62208819D01*
X128552318Y-62175334D01*
X128578676Y-62172500D01*
X130504711Y-62172500D01*
X130552162Y-62181938D01*
X130559513Y-62184983D01*
X130559515Y-62184984D01*
X130699525Y-62222500D01*
X130699528Y-62222500D01*
X130844472Y-62222500D01*
X130844475Y-62222500D01*
X130984485Y-62184984D01*
X131110015Y-62112509D01*
X131212509Y-62010015D01*
X131284984Y-61884485D01*
X131322500Y-61744475D01*
X131322500Y-61599525D01*
X131284984Y-61459515D01*
X131212509Y-61333985D01*
X131110015Y-61231491D01*
X131110013Y-61231490D01*
X131110011Y-61231488D01*
X130984488Y-61159017D01*
X130984489Y-61159017D01*
X130973006Y-61155940D01*
X130844475Y-61121500D01*
X130699525Y-61121500D01*
X130615519Y-61144009D01*
X130559513Y-61159016D01*
X130552162Y-61162062D01*
X130504711Y-61171500D01*
X128254108Y-61171500D01*
X128126812Y-61205608D01*
X128012686Y-61271500D01*
X128012683Y-61271502D01*
X124714427Y-64569758D01*
X124714425Y-64569761D01*
X124648533Y-64683887D01*
X124614425Y-64811183D01*
X124614425Y-70598710D01*
X124613450Y-70603611D01*
X124610203Y-70630790D01*
X124605999Y-70646485D01*
X124601941Y-70653515D01*
X124564425Y-70793525D01*
X117000500Y-70793525D01*
X117000500Y-58601525D01*
X120861500Y-58601525D01*
X120861500Y-58746475D01*
X120898752Y-58885500D01*
X120899017Y-58886488D01*
X120971488Y-59012011D01*
X120971490Y-59012013D01*
X120971491Y-59012015D01*
X121073985Y-59114509D01*
X121199515Y-59186984D01*
X121199519Y-59186985D01*
X121206860Y-59190026D01*
X121247094Y-59216908D01*
X121866686Y-59836500D01*
X121980814Y-59902392D01*
X122108108Y-59936500D01*
X122239893Y-59936500D01*
X125208711Y-59936500D01*
X125256162Y-59945938D01*
X125263513Y-59948983D01*
X125263515Y-59948984D01*
X125403525Y-59986500D01*
X125403528Y-59986500D01*
X125548472Y-59986500D01*
X125548475Y-59986500D01*
X125688485Y-59948984D01*
X125814015Y-59876509D01*
X125916509Y-59774015D01*
X125988984Y-59648485D01*
X126026500Y-59508475D01*
X126026500Y-59363525D01*
X125988984Y-59223515D01*
X125985169Y-59216908D01*
X125916511Y-59097988D01*
X125916506Y-59097982D01*
X125814017Y-58995493D01*
X125814011Y-58995488D01*
X125688488Y-58923017D01*
X125688489Y-58923017D01*
X125677006Y-58919940D01*
X125548475Y-58885500D01*
X125403525Y-58885500D01*
X125319519Y-58908009D01*
X125263513Y-58923016D01*
X125256162Y-58926062D01*
X125208711Y-58935500D01*
X122432676Y-58935500D01*
X122365637Y-58915815D01*
X122344995Y-58899181D01*
X121954908Y-58509094D01*
X121928026Y-58468860D01*
X121924985Y-58461519D01*
X121924984Y-58461515D01*
X121852509Y-58335985D01*
X121750015Y-58233491D01*
X121750013Y-58233490D01*
X121750011Y-58233488D01*
X121624488Y-58161017D01*
X121624489Y-58161017D01*
X121613006Y-58157940D01*
X121484475Y-58123500D01*
X121339525Y-58123500D01*
X121210993Y-58157940D01*
X121199511Y-58161017D01*
X121073988Y-58233488D01*
X121073982Y-58233493D01*
X120971493Y-58335982D01*
X120971488Y-58335988D01*
X120899017Y-58461511D01*
X120899016Y-58461515D01*
X120861500Y-58601525D01*
X117000500Y-58601525D01*
X117000500Y-54703421D01*
X137549050Y-54703421D01*
X137549050Y-54880578D01*
X137576764Y-55055556D01*
X137631506Y-55224039D01*
X137631507Y-55224042D01*
X137707540Y-55373263D01*
X137711936Y-55381890D01*
X137816067Y-55525214D01*
X137941336Y-55650483D01*
X138084660Y-55754614D01*
X138162079Y-55794061D01*
X138242507Y-55835042D01*
X138242510Y-55835043D01*
X138326751Y-55862414D01*
X138410995Y-55889786D01*
X138585971Y-55917500D01*
X138585972Y-55917500D01*
X138763128Y-55917500D01*
X138763129Y-55917500D01*
X138938105Y-55889786D01*
X139106592Y-55835042D01*
X139264440Y-55754614D01*
X139407764Y-55650483D01*
X139533033Y-55525214D01*
X139637164Y-55381890D01*
X139717592Y-55224042D01*
X139772336Y-55055555D01*
X139800050Y-54880579D01*
X139800050Y-54703421D01*
X139772336Y-54528445D01*
X139717592Y-54359958D01*
X139717592Y-54359957D01*
X139637163Y-54202109D01*
X139533033Y-54058786D01*
X139407764Y-53933517D01*
X139264440Y-53829386D01*
X139106592Y-53748957D01*
X139106589Y-53748956D01*
X138938106Y-53694214D01*
X138850617Y-53680357D01*
X138763129Y-53666500D01*
X138585971Y-53666500D01*
X138527645Y-53675738D01*
X138410993Y-53694214D01*
X138242510Y-53748956D01*
X138242507Y-53748957D01*
X138084659Y-53829386D01*
X138002888Y-53888796D01*
X137941336Y-53933517D01*
X137941334Y-53933519D01*
X137941333Y-53933519D01*
X137816069Y-54058783D01*
X137816069Y-54058784D01*
X137816067Y-54058786D01*
X137771346Y-54120338D01*
X137711936Y-54202109D01*
X137631507Y-54359957D01*
X137631506Y-54359960D01*
X137576764Y-54528443D01*
X137549050Y-54703421D01*
X117000500Y-54703421D01*
X117000500Y-51003108D01*
X127403500Y-51003108D01*
X127403500Y-51134891D01*
X127437608Y-51262187D01*
X127470554Y-51319250D01*
X127503500Y-51376314D01*
X127596686Y-51469500D01*
X127710814Y-51535392D01*
X127838108Y-51569500D01*
X127838110Y-51569500D01*
X132869890Y-51569500D01*
X132869892Y-51569500D01*
X132997186Y-51535392D01*
X133111314Y-51469500D01*
X133204500Y-51376314D01*
X133270392Y-51262186D01*
X133304500Y-51134892D01*
X133304500Y-51003108D01*
X133270392Y-50875814D01*
X133204500Y-50761686D01*
X133111314Y-50668500D01*
X133054250Y-50635554D01*
X132997187Y-50602608D01*
X132933539Y-50585554D01*
X132869892Y-50568500D01*
X127838108Y-50568500D01*
X127710812Y-50602608D01*
X127596686Y-50668500D01*
X127596683Y-50668502D01*
X127503502Y-50761683D01*
X127503500Y-50761686D01*
X127437608Y-50875812D01*
X127403500Y-51003108D01*
X117000500Y-51003108D01*
X117000500Y-49548234D01*
X126888500Y-49548234D01*
X126888500Y-49699765D01*
X126927719Y-49846136D01*
X126965602Y-49911750D01*
X127003485Y-49977365D01*
X127110635Y-50084515D01*
X127241865Y-50160281D01*
X127388234Y-50199500D01*
X127388236Y-50199500D01*
X127539764Y-50199500D01*
X127539766Y-50199500D01*
X127686135Y-50160281D01*
X127817365Y-50084515D01*
X127924515Y-49977365D01*
X128000281Y-49846135D01*
X128039500Y-49699766D01*
X128039500Y-49548234D01*
X132668500Y-49548234D01*
X132668500Y-49699765D01*
X132707719Y-49846136D01*
X132745602Y-49911750D01*
X132783485Y-49977365D01*
X132890635Y-50084515D01*
X133021865Y-50160281D01*
X133168234Y-50199500D01*
X133168236Y-50199500D01*
X133319764Y-50199500D01*
X133319766Y-50199500D01*
X133466135Y-50160281D01*
X133597365Y-50084515D01*
X133704515Y-49977365D01*
X133780281Y-49846135D01*
X133819500Y-49699766D01*
X133819500Y-49548234D01*
X133780281Y-49401865D01*
X133704515Y-49270635D01*
X133597365Y-49163485D01*
X133497828Y-49106017D01*
X133466136Y-49087719D01*
X133392950Y-49068109D01*
X133319766Y-49048500D01*
X133168234Y-49048500D01*
X133021863Y-49087719D01*
X132890635Y-49163485D01*
X132890632Y-49163487D01*
X132783487Y-49270632D01*
X132783485Y-49270635D01*
X132707719Y-49401863D01*
X132668500Y-49548234D01*
X128039500Y-49548234D01*
X128000281Y-49401865D01*
X127924515Y-49270635D01*
X127817365Y-49163485D01*
X127717828Y-49106017D01*
X127686136Y-49087719D01*
X127612950Y-49068109D01*
X127539766Y-49048500D01*
X127388234Y-49048500D01*
X127241863Y-49087719D01*
X127110635Y-49163485D01*
X127110632Y-49163487D01*
X127003487Y-49270632D01*
X127003485Y-49270635D01*
X126927719Y-49401863D01*
X126888500Y-49548234D01*
X117000500Y-49548234D01*
X117000500Y-46003246D01*
X117000670Y-45996757D01*
X117001224Y-45986168D01*
X117006856Y-45878711D01*
X118149500Y-45878711D01*
X118149500Y-46121288D01*
X118181161Y-46361785D01*
X118243947Y-46596104D01*
X118336773Y-46820205D01*
X118336776Y-46820212D01*
X118458064Y-47030289D01*
X118458066Y-47030292D01*
X118458067Y-47030293D01*
X118605733Y-47222736D01*
X118605739Y-47222743D01*
X118777256Y-47394260D01*
X118777263Y-47394266D01*
X118873107Y-47467809D01*
X118969711Y-47541936D01*
X119179788Y-47663224D01*
X119403900Y-47756054D01*
X119638211Y-47818838D01*
X119818586Y-47842584D01*
X119878711Y-47850500D01*
X119878712Y-47850500D01*
X120121289Y-47850500D01*
X120169388Y-47844167D01*
X120361789Y-47818838D01*
X120596100Y-47756054D01*
X120820212Y-47663224D01*
X121030289Y-47541936D01*
X121126893Y-47467809D01*
X127835500Y-47467809D01*
X127835500Y-48036190D01*
X127841748Y-48094299D01*
X127880854Y-48199144D01*
X127887700Y-48217500D01*
X127890789Y-48225780D01*
X127912676Y-48255017D01*
X127974884Y-48338116D01*
X128087222Y-48422212D01*
X128179594Y-48456665D01*
X128218700Y-48471251D01*
X128276809Y-48477499D01*
X128276826Y-48477500D01*
X128870174Y-48477500D01*
X128870190Y-48477499D01*
X128928299Y-48471251D01*
X129059778Y-48422212D01*
X129172116Y-48338116D01*
X129256212Y-48225778D01*
X129305251Y-48094299D01*
X129311499Y-48036190D01*
X129311500Y-48036173D01*
X129311500Y-47467826D01*
X129311499Y-47467809D01*
X130883500Y-47467809D01*
X130883500Y-48036190D01*
X130889748Y-48094299D01*
X130928854Y-48199144D01*
X130935700Y-48217500D01*
X130938789Y-48225780D01*
X130960676Y-48255017D01*
X131022884Y-48338116D01*
X131135222Y-48422212D01*
X131227594Y-48456665D01*
X131266700Y-48471251D01*
X131324809Y-48477499D01*
X131324826Y-48477500D01*
X131918174Y-48477500D01*
X131918190Y-48477499D01*
X131976299Y-48471251D01*
X132107778Y-48422212D01*
X132220116Y-48338116D01*
X132304212Y-48225778D01*
X132353251Y-48094299D01*
X132359499Y-48036190D01*
X132359500Y-48036173D01*
X132359500Y-47467826D01*
X132359499Y-47467809D01*
X132353251Y-47409700D01*
X132338665Y-47370594D01*
X132304212Y-47278222D01*
X132220116Y-47165884D01*
X132152612Y-47115351D01*
X132107780Y-47081789D01*
X132107778Y-47081788D01*
X132081144Y-47071854D01*
X131976299Y-47032748D01*
X131918190Y-47026500D01*
X131918174Y-47026500D01*
X131324826Y-47026500D01*
X131324809Y-47026500D01*
X131266700Y-47032748D01*
X131135219Y-47081789D01*
X131022884Y-47165884D01*
X130938789Y-47278219D01*
X130889748Y-47409700D01*
X130883500Y-47467809D01*
X129311499Y-47467809D01*
X129305251Y-47409700D01*
X129290665Y-47370594D01*
X129256212Y-47278222D01*
X129172116Y-47165884D01*
X129104612Y-47115351D01*
X129059780Y-47081789D01*
X129059778Y-47081788D01*
X129033144Y-47071854D01*
X128928299Y-47032748D01*
X128870190Y-47026500D01*
X128870174Y-47026500D01*
X128276826Y-47026500D01*
X128276809Y-47026500D01*
X128218700Y-47032748D01*
X128087219Y-47081789D01*
X127974884Y-47165884D01*
X127890789Y-47278219D01*
X127841748Y-47409700D01*
X127835500Y-47467809D01*
X121126893Y-47467809D01*
X121222738Y-47394265D01*
X121222743Y-47394260D01*
X121240180Y-47376824D01*
X121394260Y-47222743D01*
X121394265Y-47222738D01*
X121541936Y-47030289D01*
X121663224Y-46820212D01*
X121756054Y-46596100D01*
X121818838Y-46361789D01*
X121850500Y-46121288D01*
X121850500Y-45878712D01*
X121850500Y-45878711D01*
X212149500Y-45878711D01*
X212149500Y-46121288D01*
X212181161Y-46361785D01*
X212243947Y-46596104D01*
X212336773Y-46820205D01*
X212336776Y-46820212D01*
X212458064Y-47030289D01*
X212458066Y-47030292D01*
X212458067Y-47030293D01*
X212605733Y-47222736D01*
X212605739Y-47222743D01*
X212777256Y-47394260D01*
X212777263Y-47394266D01*
X212873107Y-47467809D01*
X212969711Y-47541936D01*
X213179788Y-47663224D01*
X213403900Y-47756054D01*
X213638211Y-47818838D01*
X213818586Y-47842584D01*
X213878711Y-47850500D01*
X213878712Y-47850500D01*
X214121289Y-47850500D01*
X214169388Y-47844167D01*
X214361789Y-47818838D01*
X214596100Y-47756054D01*
X214820212Y-47663224D01*
X215030289Y-47541936D01*
X215222738Y-47394265D01*
X215394265Y-47222738D01*
X215541936Y-47030289D01*
X215663224Y-46820212D01*
X215756054Y-46596100D01*
X215818838Y-46361789D01*
X215850500Y-46121288D01*
X215850500Y-45878712D01*
X215818838Y-45638211D01*
X215756054Y-45403900D01*
X215663224Y-45179788D01*
X215541936Y-44969711D01*
X215404533Y-44790643D01*
X215394266Y-44777263D01*
X215394260Y-44777256D01*
X215222743Y-44605739D01*
X215222736Y-44605733D01*
X215030293Y-44458067D01*
X215030292Y-44458066D01*
X215030289Y-44458064D01*
X214820212Y-44336776D01*
X214820205Y-44336773D01*
X214596104Y-44243947D01*
X214361785Y-44181161D01*
X214121289Y-44149500D01*
X214121288Y-44149500D01*
X213878712Y-44149500D01*
X213878711Y-44149500D01*
X213638214Y-44181161D01*
X213403895Y-44243947D01*
X213179794Y-44336773D01*
X213179785Y-44336777D01*
X212969706Y-44458067D01*
X212777263Y-44605733D01*
X212777256Y-44605739D01*
X212605739Y-44777256D01*
X212605733Y-44777263D01*
X212458067Y-44969706D01*
X212336777Y-45179785D01*
X212336773Y-45179794D01*
X212243947Y-45403895D01*
X212181161Y-45638214D01*
X212149500Y-45878711D01*
X121850500Y-45878711D01*
X121818838Y-45638211D01*
X121756054Y-45403900D01*
X121663224Y-45179788D01*
X121541936Y-44969711D01*
X121404533Y-44790643D01*
X121394266Y-44777263D01*
X121394260Y-44777256D01*
X121222743Y-44605739D01*
X121222736Y-44605733D01*
X121030293Y-44458067D01*
X121030292Y-44458066D01*
X121030289Y-44458064D01*
X120820212Y-44336776D01*
X120820205Y-44336773D01*
X120596104Y-44243947D01*
X120361785Y-44181161D01*
X120121289Y-44149500D01*
X120121288Y-44149500D01*
X119878712Y-44149500D01*
X119878711Y-44149500D01*
X119638214Y-44181161D01*
X119403895Y-44243947D01*
X119179794Y-44336773D01*
X119179785Y-44336777D01*
X118969706Y-44458067D01*
X118777263Y-44605733D01*
X118777256Y-44605739D01*
X118605739Y-44777256D01*
X118605733Y-44777263D01*
X118458067Y-44969706D01*
X118336777Y-45179785D01*
X118336773Y-45179794D01*
X118243947Y-45403895D01*
X118181161Y-45638214D01*
X118149500Y-45878711D01*
X117006856Y-45878711D01*
X117015184Y-45719811D01*
X117015794Y-45712424D01*
X117022814Y-45650112D01*
X117023553Y-45644658D01*
X117061850Y-45402860D01*
X117063420Y-45394721D01*
X117076105Y-45339144D01*
X117077172Y-45334844D01*
X117142289Y-45091827D01*
X117145007Y-45083016D01*
X117159943Y-45040331D01*
X117161178Y-45036964D01*
X117255746Y-44790603D01*
X117259762Y-44781305D01*
X117269729Y-44760608D01*
X117270863Y-44758318D01*
X117399415Y-44506023D01*
X117405891Y-44494808D01*
X117569819Y-44242380D01*
X117577434Y-44231899D01*
X117766858Y-43997979D01*
X117775525Y-43988354D01*
X117988354Y-43775525D01*
X117997979Y-43766858D01*
X118231899Y-43577434D01*
X118242380Y-43569819D01*
X118494808Y-43405891D01*
X118506023Y-43399415D01*
X118758318Y-43270863D01*
X118760608Y-43269729D01*
X118781305Y-43259762D01*
X118790603Y-43255746D01*
X119036964Y-43161178D01*
X119040331Y-43159943D01*
X119083016Y-43145007D01*
X119091827Y-43142289D01*
X119334844Y-43077172D01*
X119339144Y-43076105D01*
X119394721Y-43063420D01*
X119402860Y-43061850D01*
X119644658Y-43023553D01*
X119650112Y-43022814D01*
X119712430Y-43015793D01*
X119719811Y-43015184D01*
X119996756Y-43000669D01*
X120003246Y-43000500D01*
X213996754Y-43000500D01*
X214003243Y-43000669D01*
G37*
%TD.AperFunction*%
%TD*%
M02*
